<svg xmlns="http://www.w3.org/2000/svg" viewBox="0 0 76.74 93.84"><defs><style>.cls-1{font-size:6.28px;fill:#231f20;font-family:Montserrat-Thin, Montserrat;}.cls-2{letter-spacing:-0.02em;}.cls-3{font-size:9.04px;fill:#ac9a32;font-family:Montserrat-Regular, Montserrat;}.cls-4{fill:none;stroke:#8c8c8c;stroke-miterlimit:10;stroke-width:2px;}.cls-5{fill:#827f81;}</style></defs><title>solar shower</title><g id="Layer_2" data-name="Layer 2"><g id="Layer_1-2" data-name="Layer 1"><text class="cls-1" transform="translate(15.9 92.21) scale(1.03 1)">10 EUR / <tspan class="cls-2" x="26.53" y="0">r</tspan><tspan x="28.84" y="0">ental</tspan></text><text class="cls-3" transform="matrix(0.57, -0.82, 0.82, 0.57, 9.27, 32)">S</text><text class="cls-3" transform="translate(12.21 27.6) rotate(-44.49)">O</text><text class="cls-3" transform="matrix(0.83, -0.56, 0.56, 0.83, 17.47, 22.54)">L</text><text class="cls-3" transform="matrix(0.91, -0.41, 0.41, 0.91, 21.67, 19.62)">A</text><text class="cls-3" transform="matrix(0.97, -0.24, 0.24, 0.97, 27.3, 17.02)">R</text><text class="cls-3" transform="translate(33.47 15.59) rotate(-7.03)"> </text><text class="cls-3" transform="translate(35.65 15.23) rotate(-0.66)">S</text><text class="cls-3" transform="translate(40.93 15.06) rotate(9.76)">H</text><text class="cls-3" transform="translate(47.91 16.22) rotate(21.83)">O</text><text class="cls-3" transform="translate(54.56 18.65) rotate(35.62)">W</text><text class="cls-3" transform="matrix(0.67, 0.75, -0.75, 0.67, 62.23, 24.36)">E</text><text class="cls-3" transform="translate(66.11 28.64) rotate(58.4)">R</text><path class="cls-4" d="M67.4,50.56a28.63,28.63,0,1,0-29.22,28A28.63,28.63,0,0,0,67.4,50.56Z"/><path class="cls-5" d="M45,61.48a1.05,1.05,0,0,1-2.08,0,8.68,8.68,0,0,1,1-2.14A8.68,8.68,0,0,1,45,61.48Z"/><path class="cls-5" d="M40.2,61.48a1.05,1.05,0,0,1-2.08,0,8.68,8.68,0,0,1,1-2.14A8.68,8.68,0,0,1,40.2,61.48Z"/><path class="cls-5" d="M35.43,61.48a1.05,1.05,0,0,1-2.08,0,8.68,8.68,0,0,1,1-2.14A8.68,8.68,0,0,1,35.43,61.48Z"/><path class="cls-5" d="M40.2,70.36a1.05,1.05,0,0,1-2.08,0,8.68,8.68,0,0,1,1-2.14A8.68,8.68,0,0,1,40.2,70.36Z"/><path class="cls-5" d="M35.43,70.36a1.05,1.05,0,0,1-2.08,0,8.68,8.68,0,0,1,1-2.14A8.68,8.68,0,0,1,35.43,70.36Z"/><path class="cls-5" d="M30.66,70.36a1.05,1.05,0,0,1-2.08,0,8.68,8.68,0,0,1,1-2.14A8.68,8.68,0,0,1,30.66,70.36Z"/><path class="cls-5" d="M45,70.36a1.05,1.05,0,0,1-2.08,0,8.68,8.68,0,0,1,1-2.14A8.68,8.68,0,0,1,45,70.36Z"/><path class="cls-5" d="M49.74,70.36a1.05,1.05,0,0,1-2.08,0,8.68,8.68,0,0,1,1-2.14A8.68,8.68,0,0,1,49.74,70.36Z"/><path class="cls-5" d="M42.58,65.92a1.05,1.05,0,0,1-2.08,0,8.68,8.68,0,0,1,1-2.14A8.68,8.68,0,0,1,42.58,65.92Z"/><path class="cls-5" d="M37.82,65.92a1.05,1.05,0,0,1-2.08,0,8.68,8.68,0,0,1,1-2.14A8.68,8.68,0,0,1,37.82,65.92Z"/><path class="cls-5" d="M33.05,65.92a1.05,1.05,0,0,1-2.08,0,8.68,8.68,0,0,1,1-2.14A8.68,8.68,0,0,1,33.05,65.92Z"/><path class="cls-5" d="M47.35,65.92a1.05,1.05,0,0,1-2.08,0,8.68,8.68,0,0,1,1-2.14A8.68,8.68,0,0,1,47.35,65.92Z"/><path class="cls-5" d="M51.4,53.16h0A12.66,12.66,0,0,0,40.66,41.39V32.83a1.39,1.39,0,0,1,1.39-1.39H52.14V27.68H42.05a5.16,5.16,0,0,0-5.15,5.15v8.56A12.66,12.66,0,0,0,26.17,53.16h0a2.15,2.15,0,0,0,0,4.3H51.4a2.15,2.15,0,0,0,0-4.3Zm-13-20.33a3.7,3.7,0,0,1,3.7-3.7h8.64V30H42.05a2.85,2.85,0,0,0-2.84,2.84v8h-.86Zm.43,9.87A11.19,11.19,0,0,1,49.94,53.16H27.62A11.19,11.19,0,0,1,38.78,42.7ZM51.4,56H26.16a.71.71,0,0,1-.71-.71.7.7,0,0,1,.71-.7H51.4a.7.7,0,0,1,.71.7A.71.71,0,0,1,51.4,56Z"/></g></g></svg>