<svg xmlns="http://www.w3.org/2000/svg" viewBox="0 0 68.19 91.14"><defs><style>.cls-1{font-size:9.04px;fill:#ac9a32;font-family:Montserrat-Regular, Montserrat;}.cls-2{font-size:6.48px;fill:#231f20;font-family:Montserrat-Thin, Montserrat;}.cls-3{letter-spacing:-0.02em;}.cls-4{fill:none;stroke:#8c8c8c;stroke-miterlimit:10;stroke-width:2px;}.cls-5{fill:#827f81;}</style></defs><title>towel</title><g id="Layer_2" data-name="Layer 2"><g id="Layer_1-2" data-name="Layer 1"><text class="cls-1" transform="translate(18.58 19.46) rotate(-22.66)">T</text><text class="cls-1" transform="matrix(0.98, -0.22, 0.22, 0.98, 23, 17.47)">O</text><text class="cls-1" transform="matrix(1, 0.02, -0.02, 1, 29.87, 15.71)">W</text><text class="cls-1" transform="translate(39.43 16.11) rotate(14.1)">E</text><text class="cls-1" transform="matrix(0.92, 0.39, -0.39, 0.92, 45.04, 17.53)">L</text><text class="cls-2" transform="translate(12.66 89.46)">5 EUR / <tspan class="cls-3" x="24.48" y="0">r</tspan><tspan x="26.87" y="0">ental</tspan></text><path class="cls-4" d="M62.72,50.44a28.63,28.63,0,1,0-29.22,28A28.63,28.63,0,0,0,62.72,50.44Z"/><path class="cls-5" d="M42.69,39.75H24.79a4.29,4.29,0,0,0-3.7,2.13h1.85a2.82,2.82,0,0,1,1.84-.7,2.87,2.87,0,0,1,2.87,2.87V68.72a.71.71,0,0,0,.72.71h17.9a.71.71,0,0,0,.72-.71V44.05a4.31,4.31,0,0,0-4.3-4.3Zm0,1.43a2.88,2.88,0,0,1,2.87,2.87V59.94H29.08V44.05A4.29,4.29,0,0,0,28,41.18ZM29.08,60.75H45.56v1.43H29.08Zm0,7.25V65.85H45.56V68Z"/><path class="cls-5" d="M24.79,55.84H21.92V46.22H20.49V56.55a.72.72,0,0,0,.71.72h3.58a.72.72,0,0,0,.72-.72.71.71,0,0,0-.71-.71Z"/><path class="cls-5" d="M51.22,42.19a1.84,1.84,0,0,0-1.51.78H47.59A5.48,5.48,0,0,1,47.71,44v1.08h2a1.85,1.85,0,1,0,1.51-2.93Z"/><path class="cls-5" d="M18.48,43a1.83,1.83,0,0,0-1.5-.78,1.86,1.86,0,1,0,0,3.71,1.81,1.81,0,0,0,1.5-.78h8.46V44.05a2.19,2.19,0,0,0-.3-1.08Z"/></g></g></svg>