<svg xmlns="http://www.w3.org/2000/svg" viewBox="0 0 71.77 90.56"><defs><style>.cls-1{font-size:6.21px;fill:#231f20;font-family:Montserrat-Thin, Montserrat;letter-spacing:-0.01em;}.cls-2{letter-spacing:0em;}.cls-3{letter-spacing:-0.02em;}.cls-4{letter-spacing:0em;}.cls-5{font-size:8.94px;fill:#ac9a32;font-family:Montserrat-Regular, Montserrat;}.cls-6{fill:none;stroke:#8c8c8c;stroke-miterlimit:10;stroke-width:2px;}.cls-7{fill:#827f81;}</style></defs><title>van cleaning</title><g id="Layer_2" data-name="Layer 2"><g id="Layer_1-2" data-name="Layer 1"><text class="cls-1" transform="translate(13.56 88.95) scale(1.03 1)">2<tspan class="cls-2" x="3.42" y="0">0 EUR / </tspan><tspan class="cls-3" x="27.51" y="0">r</tspan><tspan class="cls-4" x="29.8" y="0">ental</tspan></text><text class="cls-5" transform="matrix(0.63, -0.78, 0.78, 0.63, 8.15, 27.82)">V</text><text class="cls-5" transform="matrix(0.75, -0.66, 0.66, 0.75, 11.65, 23.39)">A</text><text class="cls-5" transform="matrix(0.86, -0.5, 0.5, 0.86, 16.19, 19.28)">N</text><text class="cls-5" transform="matrix(0.92, -0.38, 0.38, 0.92, 22.35, 15.86)"> </text><text class="cls-5" transform="matrix(0.96, -0.26, 0.26, 0.96, 24.28, 14.91)">C</text><text class="cls-5" transform="matrix(0.99, -0.1, 0.1, 0.99, 30.23, 13.31)">L</text><text class="cls-5" transform="matrix(1, 0.06, -0.06, 1, 35.23, 12.74)">E</text><text class="cls-5" transform="matrix(0.97, 0.23, -0.23, 0.97, 40.92, 13.02)">A</text><text class="cls-5" transform="matrix(0.91, 0.41, -0.41, 0.91, 46.91, 14.36)">N</text><text class="cls-5" transform="matrix(0.84, 0.54, -0.54, 0.84, 53.23, 17.4)">I</text><text class="cls-5" transform="matrix(0.76, 0.65, -0.65, 0.76, 55.44, 18.6)">N</text><text class="cls-5" transform="matrix(0.61, 0.79, -0.79, 0.62, 60.74, 23.12)">G</text><path class="cls-6" d="M64.58,47.18A28.28,28.28,0,1,0,35.72,74.89,28.29,28.29,0,0,0,64.58,47.18Z"/><path class="cls-7" d="M50,64.3H45.32L31.5,22.49a.73.73,0,0,0-.93-.47.74.74,0,0,0-.47.93l7.65,23.14H21.61a.74.74,0,0,0-.74.74v11.3a.74.74,0,0,0,.27.57.72.72,0,0,0,.47.16h.14l.49-.09L23,65.29a.75.75,0,0,0,.74.66H35.84a.73.73,0,0,0,.73-.66l.55-4.79h0c1.76-.35,2.83-1.16,3.17-2.4.41-1.48-.35-3.47-2.23-5.92l.43-3.77,5.26,15.9H39.23a.74.74,0,1,0,0,1.48H50a.74.74,0,1,0,0-1.48ZM22.34,57.23V47.57h6.28V56Zm14.43-6.62c-1.13-1.27-2.11-2.15-2.16-2.2a.74.74,0,0,0-1,.05.75.75,0,0,0,0,1,26.84,26.84,0,0,1,2.92,3.1L35.18,64.47H24.38l-.69-6,5.81-1.14a.72.72,0,0,0,.59-.72v-9h7Zm2.12,7.09c-.16.57-.69,1-1.59,1.24l.53-4.56C38.64,55.65,39.12,56.86,38.89,57.7Z"/><path class="cls-7" d="M24.85,45.52a2,2,0,1,0-1.94-2A2,2,0,0,0,24.85,45.52Zm0-2.42a.47.47,0,1,1-.47.47A.47.47,0,0,1,24.85,43.1Z"/><path class="cls-7" d="M30.94,43a2.59,2.59,0,1,0-2.58-2.59A2.59,2.59,0,0,0,30.94,43Zm0-3.7a1.11,1.11,0,1,1-1.11,1.11A1.11,1.11,0,0,1,30.94,39.26Z"/><path class="cls-7" d="M26.63,38.44s0,0,0,0A.74.74,0,0,0,28,38.38a.74.74,0,1,0-1.39.06Z"/></g></g></svg>