<svg id="Layer_1" data-name="Layer 1" xmlns="http://www.w3.org/2000/svg" viewBox="0 0 3690.83 421.2"><title>drive</title><rect y="269.58" width="14.15" height="21.62" style="fill:#dac725"/><path d="M143.32,404.61a3.94,3.94,0,0,1-1.22-1.05,6.8,6.8,0,0,1-.81-1.6,11.44,11.44,0,0,1-.54-2,30.61,30.61,0,0,1-.48-4.65q0-.69,0-2.37V391q0-.81,0-1.68a14.51,14.51,0,0,1,.21-2.79,4.73,4.73,0,0,1-.09-.93,3.59,3.59,0,0,1,1.35-2.91,5.21,5.21,0,0,1,3.42-1.11,2.63,2.63,0,0,1,1.44.42,1.23,1.23,0,0,1,.66,1.05.57.57,0,0,1-.24.48,1,1,0,0,1-.6.18,2.53,2.53,0,0,1-.64-.09.64.64,0,0,1-.44-.27H145v-.06a3.38,3.38,0,0,0-1.86.48,2.51,2.51,0,0,0-.84,1.29,3.81,3.81,0,0,0-.18.84,8,8,0,0,0-.06.93q0,.24,0,1l.06,1.05,0,1a5.45,5.45,0,0,1-.12,1.05,6.32,6.32,0,0,0-.15,1.05v.72q0,1.17.09,3.21a18.11,18.11,0,0,0,.39,3.42,6.79,6.79,0,0,0,1,2.7,2.21,2.21,0,0,0,1.95,1.14,2.33,2.33,0,0,0,1.26-.54,2.66,2.66,0,0,1,1.14-.54,1.27,1.27,0,0,1,.87.45,2,2,0,0,1-.84,1.71,4.24,4.24,0,0,1-1.86.69q-.6.06-1,.06A3.12,3.12,0,0,1,143.32,404.61Z" transform="translate(3141.36 -49.88)"/><path d="M155.5,404.69a1.24,1.24,0,0,1-.2-.71q0-6.27-.24-10.59a7.2,7.2,0,0,0-1-.12,5.33,5.33,0,0,0-1.77.21q0,1.68.27,5.07.24,3.6.24,5.1a1,1,0,0,1-.18.56.53.53,0,0,1-.45.25q-.39,0-.72-1.38a58.85,58.85,0,0,1-.78-8.55q-.21-4.41-.21-9.48,0-.93,0-2.64,0-.54.51-.54a1.45,1.45,0,0,1,.62.15,1.33,1.33,0,0,1,.46.33,18.4,18.4,0,0,0-.12,2.25q0,1.26.12,3.06.09,2.07.09,3.12v.54a4.67,4.67,0,0,0,0,.57,6.56,6.56,0,0,0,.06.78l.6,0,.84-.09q1-.09,1.47-.09,0-2.61-.06-4.83l-.06-5v-.81a1.67,1.67,0,0,1,.69.14,1.07,1.07,0,0,1,.45.34,2.08,2.08,0,0,1,.33,1.14v.69q0,2.58.3,9.87.27,6.6.27,9.9a1.19,1.19,0,0,1-.25.75.77.77,0,0,1-.62.33A.65.65,0,0,1,155.5,404.69Z" transform="translate(3141.36 -49.88)"/><path d="M163.19,404.82a4.57,4.57,0,0,1-1.14-1.47,13.86,13.86,0,0,1-1.29-4.44q-.3-1.95-.45-4.5l0-1.59V391.2q0-.78,0-1.89a29.77,29.77,0,0,1,.15-3.18,11.88,11.88,0,0,1,.6-2.85,3.26,3.26,0,0,1,1.38-1.74,2.64,2.64,0,0,1,1.08-.24,3,3,0,0,1,2.52,1.26,7.78,7.78,0,0,1,1.35,3.15,21,21,0,0,1,.54,4q.12,2.13.12,4v1.71q0,.51-.15,1.92a18,18,0,0,0-.12,1.89v.12a9.55,9.55,0,0,0-.18,2,4.67,4.67,0,0,1-.36,1.74,4.28,4.28,0,0,1-1,1.53,2,2,0,0,1-1.5.72A2.26,2.26,0,0,1,163.19,404.82Zm2.55-2.22a10.7,10.7,0,0,0,.53-2.41c.11-.95.2-2,.28-3.23q.06-.78.06-2l0-2.76q-.06-1.62-.36-4.05a13.63,13.63,0,0,0-.9-3.66,3.2,3.2,0,0,0-.75-1.17,1.39,1.39,0,0,0-1-.42q-.75,0-1.11,1.17a11.12,11.12,0,0,0-.6,2.7q-.18,1.59-.21,3l0,1q0,.42,0,1.14V392a36,36,0,0,0,.42,4.95,16.73,16.73,0,0,0,1.41,5.67q.6,1.05,1.26,1T165.74,402.6Z" transform="translate(3141.36 -49.88)"/><path d="M173.84,404.82a4.57,4.57,0,0,1-1.14-1.47,13.86,13.86,0,0,1-1.29-4.44q-.3-1.95-.45-4.5l0-1.59V391.2q0-.78,0-1.89a29.77,29.77,0,0,1,.15-3.18,11.88,11.88,0,0,1,.6-2.85,3.26,3.26,0,0,1,1.38-1.74,2.64,2.64,0,0,1,1.08-.24,3,3,0,0,1,2.52,1.26,7.78,7.78,0,0,1,1.35,3.15,21,21,0,0,1,.54,4q.12,2.13.12,4v1.71q0,.51-.15,1.92a18,18,0,0,0-.12,1.89v.12a9.55,9.55,0,0,0-.18,2,4.67,4.67,0,0,1-.36,1.74,4.28,4.28,0,0,1-1,1.53,2,2,0,0,1-1.5.72A2.26,2.26,0,0,1,173.84,404.82Zm2.55-2.22a10.7,10.7,0,0,0,.53-2.41c.11-.95.2-2,.28-3.23q.06-.78.06-2l0-2.76q-.06-1.62-.36-4.05a13.63,13.63,0,0,0-.9-3.66,3.2,3.2,0,0,0-.75-1.17,1.39,1.39,0,0,0-1-.42q-.75,0-1.11,1.17a11.12,11.12,0,0,0-.6,2.7q-.18,1.59-.21,3l0,1q0,.42,0,1.14V392a36,36,0,0,0,.42,4.95,16.73,16.73,0,0,0,1.41,5.67q.6,1.05,1.26,1T176.39,402.6Z" transform="translate(3141.36 -49.88)"/><path d="M181.88,404.79q-.48-.27-.48-.63a.89.89,0,0,1,.18-.58.62.62,0,0,1,.51-.23,2.49,2.49,0,0,1,.87.24,3.39,3.39,0,0,0,.78.24,1.4,1.4,0,0,0,1-.49,3.5,3.5,0,0,0,.73-1.31,8.07,8.07,0,0,0,.54-2.7,9.88,9.88,0,0,0-.4-2.71,15.31,15.31,0,0,0-1.1-2.78l-.48-1c-.5-1-.88-1.79-1.15-2.37a13.5,13.5,0,0,1-.71-1.89,9.33,9.33,0,0,1-.45-2.79,5.56,5.56,0,0,1,.38-2,4.11,4.11,0,0,1,1.12-1.62,2.58,2.58,0,0,1,1.86-.72,2,2,0,0,1,1,.32,1.76,1.76,0,0,1,.72.79l-.51.63a1.9,1.9,0,0,1-1.17-.3,1.44,1.44,0,0,0-.94.53,3.22,3.22,0,0,0-.62,1.06,3.77,3.77,0,0,0-.18,1.14,9.07,9.07,0,0,0,.32,2.33,12.32,12.32,0,0,0,.82,2.23l2.1,4.2a11.55,11.55,0,0,1,.81,2.43,12.41,12.41,0,0,1,.3,2.7,7.58,7.58,0,0,1-1,3.72,4,4,0,0,1-1.32,1.43,3.24,3.24,0,0,1-1.8.52A4.12,4.12,0,0,1,181.88,404.79Z" transform="translate(3141.36 -49.88)"/><path d="M192,404.55q-.51-.15-.51-.84V386.28a9.68,9.68,0,0,0-.18-1.53,7.23,7.23,0,0,1-.21-1.53v-.09a6.76,6.76,0,0,1,.75-1.08,6.81,6.81,0,0,0,1.11-.12,6,6,0,0,1,1.11-.12,1.72,1.72,0,0,1,.93.29.8.8,0,0,1,.45.67q0,.9-1.38.9h-.42a2.58,2.58,0,0,0-.42,0,1,1,0,0,0-.33,0q0,1,.12,2.46l.06.84.06,1.65q0,.57-.09,1.74L193,392l.42-.09a3.6,3.6,0,0,1,1-.18.86.86,0,0,1,.6.26.77.77,0,0,1,.27.58,1,1,0,0,1-.22.65.69.69,0,0,1-.56.28l-.36,0h-.39a.8.8,0,0,0-.63.21V403l1.68-.09q1.71,0,1.71.78v.12a1.33,1.33,0,0,1-.66.59,3.17,3.17,0,0,1-.93.28l-1,0H193A3,3,0,0,1,192,404.55Z" transform="translate(3141.36 -49.88)"/><path d="M215.8,404.34a.73.73,0,0,1-.23-.6v-3.93a4.26,4.26,0,0,0-1.47-.48,15.92,15.92,0,0,0-2-.27,5.1,5.1,0,0,0-.48,1.53l-.12.6q0,.21-.18.93a10.57,10.57,0,0,1-.33,1.25,4.39,4.39,0,0,1-.36.82q-1.14,0-1.32-.6a9.89,9.89,0,0,0,.75-2.82l1-5.49q.66-3.9,1.22-6.66a38.22,38.22,0,0,1,1.18-4.62q.69-2.07,1.32-2.07a1.62,1.62,0,0,1,1,.24q0,1.2.57,5.79a56.36,56.36,0,0,1,.6,6.15,44.5,44.5,0,0,0,.33,4.56q.3,3,.3,4.83a.89.89,0,0,1-1,1A1.11,1.11,0,0,1,215.8,404.34Zm-.26-6.36q-.09-1.32-.3-3.27-.69-6.78-.69-8.31v-.24a8.9,8.9,0,0,0-.82,2.72q-.53,2.42-1,5.17a36.47,36.47,0,0,0-.48,3.66,9.68,9.68,0,0,0,2.67.36A2.56,2.56,0,0,0,215.54,398Z" transform="translate(3141.36 -49.88)"/><path d="M234.8,404.7q-.78-3.24-2.13-11.73-1.5-9.06-1.83-10.77a.71.71,0,0,1,.81-.57q.51,0,1.26,3.84t1.53,8.76l.81,5.31q.48-3.6.75-5.4.57-4.14.84-6.85c.18-1.81.27-3.53.27-5.15a1.32,1.32,0,0,1,1.08-.6l.63.33-.45,4.05q-.15,1.86-.75,6.75l-.27,2q-.33,2.64-.66,5a35.92,35.92,0,0,1-.84,4.71q-.18.69-.36.69A.85.85,0,0,1,234.8,404.7Z" transform="translate(3141.36 -49.88)"/><path d="M246.58,404.34a.73.73,0,0,1-.23-.6v-3.93a4.26,4.26,0,0,0-1.47-.48,15.92,15.92,0,0,0-2-.27,5.1,5.1,0,0,0-.48,1.53l-.12.6q0,.21-.18.93a10.57,10.57,0,0,1-.33,1.25,4.39,4.39,0,0,1-.36.82q-1.14,0-1.32-.6a9.89,9.89,0,0,0,.75-2.82l1-5.49q.66-3.9,1.22-6.66a38.22,38.22,0,0,1,1.18-4.62q.69-2.07,1.32-2.07a1.62,1.62,0,0,1,1,.24q0,1.2.57,5.79a56.36,56.36,0,0,1,.6,6.15,44.5,44.5,0,0,0,.33,4.56q.3,3,.3,4.83a.89.89,0,0,1-1,1A1.11,1.11,0,0,1,246.58,404.34Zm-.26-6.36q-.09-1.32-.3-3.27-.69-6.78-.69-8.31v-.24a8.9,8.9,0,0,0-.82,2.72q-.52,2.42-1,5.17a36.47,36.47,0,0,0-.48,3.66,9.68,9.68,0,0,0,2.67.36A2.56,2.56,0,0,0,246.32,398Z" transform="translate(3141.36 -49.88)"/><path d="M256.79,398.79q-2.1-7.23-3.63-13.29v9.84q0,1.26.24,4.29.21,3.3.21,4.26a.56.56,0,0,1-.33.47,1.44,1.44,0,0,1-.75.19q-.63,0-.63-.48l.06-.87q.06-1,.06-1.26,0-1.59-.18-5t-.18-4.26V388.8q0-.93.09-2.76.12-1.59.12-2.76v-.18q0-1.5.66-1.5.39,0,1,1.32a58.15,58.15,0,0,1,2.52,7.74q.87,3.24,2,8.34l.48,2.07,0,.15q0-2.91.06-5.22l.06-5.22V381.9a.85.85,0,0,1,1-.75q.81,0,.81,1.17v.18a1.93,1.93,0,0,0-.18.87q0,1.83-.09,5.52t-.09,5.58v9.15a1.79,1.79,0,0,1-.25.92.73.73,0,0,1-.62.43Q258.65,405,256.79,398.79Z" transform="translate(3141.36 -49.88)"/><path d="M275.9,402.63q0-3.48-.31-11.13t-.59-8.07a1.47,1.47,0,0,1,.66-1.29,2.38,2.38,0,0,1,.68-.25,3.4,3.4,0,0,1,.79-.11,5.78,5.78,0,0,1,.75,0,1.68,1.68,0,0,1,1,.23.92.92,0,0,1,.3.79.57.57,0,0,1-.24.5,1,1,0,0,1-.6.16l-.3,0h-.42q-.84,0-.84.33,0,1.56.21,4.08.18,2.1.24,4l.8-.19a4.37,4.37,0,0,1,.88-.14.73.73,0,0,1,.57.29,1,1,0,0,1,.24.64.62.62,0,0,1-.39.6l-.28.14a1.78,1.78,0,0,1-.59.13l-.9.09h-.33q0,1.8.3,4.89t.27,4.89l0,.12,0,.06a1.79,1.79,0,0,1,0,.39.77.77,0,0,1-.27.62,1.09,1.09,0,0,1-.72.22Q275.9,404.55,275.9,402.63Z" transform="translate(3141.36 -49.88)"/><path d="M285.59,404.82a4.57,4.57,0,0,1-1.14-1.47,13.86,13.86,0,0,1-1.29-4.44q-.3-1.95-.45-4.5l0-1.59V391.2q0-.78,0-1.89a29.77,29.77,0,0,1,.15-3.18,11.88,11.88,0,0,1,.6-2.85,3.26,3.26,0,0,1,1.38-1.74,2.64,2.64,0,0,1,1.08-.24,3,3,0,0,1,2.52,1.26,7.78,7.78,0,0,1,1.35,3.15,21,21,0,0,1,.54,4q.12,2.13.12,4v1.71q0,.51-.15,1.92a18,18,0,0,0-.12,1.89v.12a9.55,9.55,0,0,0-.18,2,4.67,4.67,0,0,1-.36,1.74,4.28,4.28,0,0,1-1,1.53,2,2,0,0,1-1.5.72A2.26,2.26,0,0,1,285.59,404.82Zm2.55-2.22a10.7,10.7,0,0,0,.53-2.41c.11-.95.2-2,.28-3.23q.06-.78.06-2l0-2.76q-.06-1.62-.36-4.05a13.63,13.63,0,0,0-.9-3.66,3.2,3.2,0,0,0-.75-1.17,1.39,1.39,0,0,0-1-.42q-.75,0-1.11,1.17a11.12,11.12,0,0,0-.6,2.7q-.18,1.59-.21,3l0,1q0,.42,0,1.14V392a36,36,0,0,0,.42,4.95,16.73,16.73,0,0,0,1.41,5.67q.6,1.05,1.26,1T288.14,402.6Z" transform="translate(3141.36 -49.88)"/><path d="M298.22,404v-.09a21.23,21.23,0,0,0-.54-3.54q-.45-2-1.32-4.71-.66-2.07-1.11-3.72v11.82a1.22,1.22,0,0,1-.16.71.77.77,0,0,1-.65.22.74.74,0,0,1-.57-.22.84.84,0,0,1-.21-.59v-.24l.06-8.82q.06-3.9.06-8.79v-3.69a.64.64,0,0,1,.15-.49,1,1,0,0,1,.63-.14,3.31,3.31,0,0,1,1.38.29,3.15,3.15,0,0,1,1.08.79,5.11,5.11,0,0,1,1.2,2.52,7.09,7.09,0,0,1,.12,1.38,7.19,7.19,0,0,1-.07,1c0,.36-.09.59-.11.69a7.45,7.45,0,0,1-.27.9l-.27.78-.36.84-.3.78a16.11,16.11,0,0,0,.38,2.73c.23,1.1.48,2.12.76,3.06q.3,1,1.08,3.3l.87,2.64v.06a3.63,3.63,0,0,1-.09.87.56.56,0,0,1-.63.48Q298.76,404.82,298.22,404Zm-2-14.58.45-2.58a2.26,2.26,0,0,0,0-.42,7.35,7.35,0,0,0-.33-2,3.11,3.11,0,0,0-.46-.91.91.91,0,0,0-.59-.41l-.06,3q-.09,2-.09,3.12t0,1.38A14.64,14.64,0,0,0,296.21,389.43Z" transform="translate(3141.36 -49.88)"/><path d="M315,404.67a.68.68,0,0,1-.23-.51l.06-2.91q.09-2,.09-2.91a18.09,18.09,0,0,0-.27-2.58,15.92,15.92,0,0,1-.3-2.61,12.08,12.08,0,0,0-.33-2.61,21,21,0,0,0-.84-2.82,21,21,0,0,1-.81-2.77,12.22,12.22,0,0,1-.33-2.6.43.43,0,0,1,.24-.36,1,1,0,0,1,.51-.15q.33,0,.63.69a11.92,11.92,0,0,1,.69,2.19l.39,1.68.39,2.07.3,1.32a12.18,12.18,0,0,0,.15-1.26q.18-2.49.45-4.14a8,8,0,0,1,.48-1.74q.3-.66.72-.66.81,0,.81.3a26.11,26.11,0,0,1-.72,5,26.14,26.14,0,0,0-.72,5.07l-.06.48a1.87,1.87,0,0,0,0,.54v.48q0,1.29.09,4l.06,4,.06.69.06.72V404a.79.79,0,0,1-.3.62,1.07,1.07,0,0,1-.72.25A.73.73,0,0,1,315,404.67Z" transform="translate(3141.36 -49.88)"/><path d="M323.84,404.82a4.57,4.57,0,0,1-1.14-1.47,13.86,13.86,0,0,1-1.29-4.44q-.3-1.95-.45-4.5l0-1.59V391.2q0-.78,0-1.89a29.77,29.77,0,0,1,.15-3.18,11.88,11.88,0,0,1,.6-2.85,3.26,3.26,0,0,1,1.38-1.74,2.64,2.64,0,0,1,1.08-.24,3,3,0,0,1,2.52,1.26,7.78,7.78,0,0,1,1.35,3.15,21,21,0,0,1,.54,4q.12,2.13.12,4v1.71q0,.51-.15,1.92a18,18,0,0,0-.12,1.89v.12a9.55,9.55,0,0,0-.18,2,4.67,4.67,0,0,1-.36,1.74,4.28,4.28,0,0,1-1,1.53,2,2,0,0,1-1.5.72A2.26,2.26,0,0,1,323.84,404.82Zm2.55-2.22a10.7,10.7,0,0,0,.53-2.41c.11-.95.2-2,.28-3.23q.06-.78.06-2l0-2.76q-.06-1.62-.36-4.05a13.63,13.63,0,0,0-.9-3.66,3.2,3.2,0,0,0-.75-1.17,1.39,1.39,0,0,0-1-.42q-.75,0-1.11,1.17a11.12,11.12,0,0,0-.6,2.7q-.18,1.59-.21,3l0,1q0,.42,0,1.14V392a36,36,0,0,0,.42,4.95,16.73,16.73,0,0,0,1.41,5.67q.6,1.05,1.26,1T326.39,402.6Z" transform="translate(3141.36 -49.88)"/><path d="M334.31,403.44a10.46,10.46,0,0,1-1.65-4.05,35.08,35.08,0,0,1-.69-5.46q-.15-2.64-.15-5.73v-2.49q0-1.05,0-2.22a.81.81,0,0,1-.24-.6.9.9,0,0,1,.27-.64.82.82,0,0,1,.6-.29q1.08,0,1.08,2.13,0,1.38.15,5.22t.15,5.22a7.56,7.56,0,0,1,.29,1.56,17.21,17.21,0,0,1,.13,1.92,8.06,8.06,0,0,0,.21,1.64,12.54,12.54,0,0,0,.6,2,5.11,5.11,0,0,0,1,1.73,1.81,1.81,0,0,0,1.32.67,1,1,0,0,0,.71-.27,1.36,1.36,0,0,0,.37-.78,7.86,7.86,0,0,0,.18-1.65v-5.85a24,24,0,0,0-.21-2.82q-.18-1.89-.18-2.85v-.21q0-.48,0-.87l0-.87q0-.84-.09-2.55-.12-1.53-.12-2.58a.7.7,0,0,1,.35-.57,1.29,1.29,0,0,1,.76-.24l.75.69v.51a3.9,3.9,0,0,1-.12.87q-.12.84-.12,1,0,2.73.3,7.53.27,5,.27,7.83a10.42,10.42,0,0,1-.3,2.64,3.18,3.18,0,0,1-.49,1.11,2.69,2.69,0,0,1-.86.72,2.58,2.58,0,0,1-1.32.3A3.36,3.36,0,0,1,334.31,403.44Z" transform="translate(3141.36 -49.88)"/><path d="M348.5,404v-.09a21.23,21.23,0,0,0-.54-3.54q-.45-2-1.32-4.71-.66-2.07-1.11-3.72v11.82a1.31,1.31,0,0,1-.16.71.78.78,0,0,1-.65.22.74.74,0,0,1-.57-.22.84.84,0,0,1-.21-.59v-.24l.06-8.82q.06-3.9.06-8.79v-3.69a.64.64,0,0,1,.15-.49,1,1,0,0,1,.63-.14,3.31,3.31,0,0,1,1.38.29,3.15,3.15,0,0,1,1.08.79,5.11,5.11,0,0,1,1.2,2.52,7.09,7.09,0,0,1,.12,1.38,7.3,7.3,0,0,1-.08,1c-.05.36-.08.59-.1.69a7.45,7.45,0,0,1-.27.9l-.27.78-.36.84-.3.78a15.15,15.15,0,0,0,.38,2.73c.22,1.1.48,2.12.76,3.06q.3,1,1.08,3.3l.87,2.64v.06a3.63,3.63,0,0,1-.09.87.56.56,0,0,1-.63.48Q349,404.82,348.5,404Zm-2-14.58.45-2.58a2.26,2.26,0,0,0,0-.42,7.35,7.35,0,0,0-.33-2,3.12,3.12,0,0,0-.47-.91.89.89,0,0,0-.58-.41l-.06,3q-.09,2-.09,3.12t0,1.38A14.64,14.64,0,0,0,346.49,389.43Z" transform="translate(3141.36 -49.88)"/><path d="M368.66,398.79q-2.1-7.23-3.63-13.29v9.84q0,1.26.24,4.29.21,3.3.21,4.26a.56.56,0,0,1-.33.47,1.44,1.44,0,0,1-.75.19q-.63,0-.63-.48l.06-.87q.06-1,.06-1.26,0-1.59-.18-5t-.18-4.26V388.8q0-.93.09-2.76.12-1.59.12-2.76v-.18q0-1.5.66-1.5.39,0,1,1.32a58.15,58.15,0,0,1,2.52,7.74q.87,3.24,2,8.34l.48,2.07,0,.15q0-2.91.06-5.22l.06-5.22V381.9a.85.85,0,0,1,1-.75q.81,0,.81,1.17v.18a1.93,1.93,0,0,0-.18.87q0,1.83-.09,5.52t-.09,5.58v9.15a1.81,1.81,0,0,1-.26.92.71.71,0,0,1-.61.43Q370.52,405,368.66,398.79Z" transform="translate(3141.36 -49.88)"/><path d="M376.79,404.55q-.51-.15-.51-.84V386.28a9.68,9.68,0,0,0-.18-1.53,7.23,7.23,0,0,1-.21-1.53v-.09a6.76,6.76,0,0,1,.75-1.08,6.81,6.81,0,0,0,1.11-.12,6,6,0,0,1,1.11-.12,1.72,1.72,0,0,1,.93.29.8.8,0,0,1,.45.67q0,.9-1.38.9h-.42a2.58,2.58,0,0,0-.42,0,1,1,0,0,0-.33,0q0,1,.12,2.46l.06.84.06,1.65q0,.57-.09,1.74l-.06,1.68.42-.09a3.6,3.6,0,0,1,1-.18.86.86,0,0,1,.6.26.77.77,0,0,1,.27.58,1.08,1.08,0,0,1-.22.65.7.7,0,0,1-.56.28l-.36,0h-.39a.8.8,0,0,0-.63.21V403l1.68-.09q1.71,0,1.71.78v.12a1.33,1.33,0,0,1-.66.59,3.17,3.17,0,0,1-.93.28l-1,0h-.93A3,3,0,0,1,376.79,404.55Z" transform="translate(3141.36 -49.88)"/><path d="M383.88,404.54a.48.48,0,0,1-.25-.41q0-.09,0-.09,1.17-4.71,1.92-8a20.7,20.7,0,0,0,.6-3.54,9,9,0,0,0-.2-1.68c-.13-.66-.41-2-.85-4l-.72-3.24a2.46,2.46,0,0,1-.09-.54.83.83,0,0,1,.19-.61.69.69,0,0,1,.5-.2q.45,0,.66.72t.69,3.21l.12.54.24,1.17.42,2.16.72-3.51.57-2.76a13.86,13.86,0,0,1,.45-1.56q.24-.42.51-.42a.76.76,0,0,1,.51.18.6.6,0,0,1,.21.48,30.57,30.57,0,0,1-1,4.68c-.42,1.58-.73,2.83-.93,3.74a10.45,10.45,0,0,0-.3,2q0,.3.57,3.18t1,4.86l.21.84a7.43,7.43,0,0,1,.3,1.62q0,.78-.54.78a.79.79,0,0,1-.87-.72q-.12-.6-.45-2.43l-.24-1.38q-.57-3.15-.84-4.29-1.5,6.72-1.8,7.8-.42,1.59-.72,1.59A1.07,1.07,0,0,1,383.88,404.54Z" transform="translate(3141.36 -49.88)"/><path d="M395.07,404.3a2.09,2.09,0,0,1-.25-1.07q0-1,.12-2.43L395,400l.06-1.59q0-1.05-.21-4.68t-.21-4.68c0-.06,0-.17,0-.34s0-.44,0-.8,0-.89,0-1.47a7.84,7.84,0,0,0-.3-2.79,6.92,6.92,0,0,0-.78.09l-.84.06a1.12,1.12,0,0,1-.69-.22.71.71,0,0,1-.3-.59q0-.36.72-.63a15.08,15.08,0,0,1,3.57-.51l1.23-.06a1,1,0,0,1,.66.24.74.74,0,0,1,.3.6.76.76,0,0,1-.26.59.92.92,0,0,1-.64.22l-.54,0a4.39,4.39,0,0,0-.54,0H396a36.34,36.34,0,0,1,.21,3.69l0,1.92q0,.87,0,1.95,0,1.44.12,3.45.15,2.49.15,3.45,0,1.14.12,2.7t.12,2.7q0,1.47-.87,1.47A.79.79,0,0,1,395.07,404.3Z" transform="translate(3141.36 -49.88)"/><path d="M417.6,404.34a.72.72,0,0,1-.22-.6v-3.93a4.26,4.26,0,0,0-1.47-.48,15.92,15.92,0,0,0-2-.27,5.1,5.1,0,0,0-.48,1.53l-.12.6q0,.21-.18.93a10.57,10.57,0,0,1-.33,1.25,4.39,4.39,0,0,1-.36.82q-1.14,0-1.32-.6a9.89,9.89,0,0,0,.75-2.82l1-5.49q.66-3.9,1.21-6.66a38,38,0,0,1,1.19-4.62q.69-2.07,1.32-2.07a1.62,1.62,0,0,1,1,.24q0,1.2.57,5.79a56.36,56.36,0,0,1,.6,6.15,44.5,44.5,0,0,0,.33,4.56q.3,3,.3,4.83a.89.89,0,0,1-1,1A1.14,1.14,0,0,1,417.6,404.34Zm-.25-6.36q-.09-1.32-.3-3.27-.69-6.78-.69-8.31v-.24a8.77,8.77,0,0,0-.83,2.72q-.52,2.42-1,5.17a36.47,36.47,0,0,0-.48,3.66,9.68,9.68,0,0,0,2.67.36A2.56,2.56,0,0,0,417.35,398Z" transform="translate(3141.36 -49.88)"/><path d="M423.36,404.31a.84.84,0,0,1-.43-.75q.66-.66.66-3.51,0-1.71-.27-5-.3-3.12-.3-4.92l.06-1.65q0-.72,0-1.65a9.78,9.78,0,0,0-.3-2.13,8.73,8.73,0,0,1-.36-1.89q0-1.05,2.31-1.05h.45a4.3,4.3,0,0,1,2.82,1,6.45,6.45,0,0,1,1.62,2.43,14.48,14.48,0,0,1,.78,3,26.31,26.31,0,0,1,.18,2.64v2.37a.53.53,0,0,0-.06.24,1.6,1.6,0,0,0,0,.36,1.26,1.26,0,0,1,0,.3,11.33,11.33,0,0,1-.29,2.3,17.37,17.37,0,0,1-.82,2.71,11.75,11.75,0,0,1-3,4.68,3.3,3.3,0,0,1-2.07.78A1.94,1.94,0,0,1,423.36,404.31Zm3.62-3.46a10.72,10.72,0,0,0,1.29-2.9,22.27,22.27,0,0,0,.81-5.94,23.05,23.05,0,0,0-.3-3.54,8.09,8.09,0,0,0-1.41-3.36,3.57,3.57,0,0,0-1.29-1.12,3.79,3.79,0,0,0-1.77-.41v0q0,2.7.36,8.16T425,400v2.85A6.29,6.29,0,0,0,427,400.85Z" transform="translate(3141.36 -49.88)"/><path d="M437,404.7q-.78-3.24-2.13-11.73-1.5-9.06-1.83-10.77a.71.71,0,0,1,.81-.57q.51,0,1.26,3.84t1.53,8.76l.81,5.31q.48-3.6.75-5.4.57-4.14.84-6.85c.18-1.81.27-3.53.27-5.15a1.32,1.32,0,0,1,1.08-.6l.63.33-.45,4.05q-.15,1.86-.75,6.75l-.27,2q-.33,2.64-.66,5a35.92,35.92,0,0,1-.84,4.71q-.18.69-.36.69A.85.85,0,0,1,437,404.7Z" transform="translate(3141.36 -49.88)"/><path d="M445.46,404.55q-.51-.15-.51-.84V386.28a9.68,9.68,0,0,0-.18-1.53,7.23,7.23,0,0,1-.21-1.53v-.09a6.76,6.76,0,0,1,.75-1.08,6.81,6.81,0,0,0,1.11-.12,6,6,0,0,1,1.11-.12,1.72,1.72,0,0,1,.93.29.8.8,0,0,1,.45.67q0,.9-1.38.9h-.42a2.58,2.58,0,0,0-.42,0,1,1,0,0,0-.33,0q0,1,.12,2.46l.06.84.06,1.65q0,.57-.09,1.74l-.06,1.68.42-.09a3.6,3.6,0,0,1,1-.18.86.86,0,0,1,.6.26.77.77,0,0,1,.27.58,1,1,0,0,1-.23.65.67.67,0,0,1-.55.28l-.36,0h-.39a.8.8,0,0,0-.63.21V403l1.68-.09q1.71,0,1.71.78v.12a1.33,1.33,0,0,1-.66.59,3.17,3.17,0,0,1-.93.28l-1,0h-.93A3,3,0,0,1,445.46,404.55Z" transform="translate(3141.36 -49.88)"/><path d="M458,398.79q-2.1-7.23-3.63-13.29v9.84q0,1.26.24,4.29.21,3.3.21,4.26a.56.56,0,0,1-.33.47,1.44,1.44,0,0,1-.75.19q-.63,0-.63-.48l.06-.87q.06-1,.06-1.26,0-1.59-.18-5t-.18-4.26V388.8q0-.93.09-2.76.12-1.59.12-2.76v-.18q0-1.5.66-1.5.39,0,1,1.32a58.15,58.15,0,0,1,2.52,7.74q.87,3.24,2,8.34l.48,2.07,0,.15q0-2.91.06-5.22l.06-5.22V381.9a.85.85,0,0,1,1-.75q.81,0,.81,1.17v.18a1.93,1.93,0,0,0-.18.87q0,1.83-.09,5.52t-.09,5.58v9.15a1.81,1.81,0,0,1-.26.92.71.71,0,0,1-.61.43Q459.89,405,458,398.79Z" transform="translate(3141.36 -49.88)"/><path d="M467,404.3a2.09,2.09,0,0,1-.25-1.07q0-1,.12-2.43l.06-.78.06-1.59q0-1.05-.21-4.68t-.21-4.68c0-.06,0-.17,0-.34s0-.44,0-.8,0-.89,0-1.47a7.84,7.84,0,0,0-.3-2.79,6.92,6.92,0,0,0-.78.09l-.84.06a1.12,1.12,0,0,1-.69-.22.71.71,0,0,1-.3-.59q0-.36.72-.63a15.08,15.08,0,0,1,3.57-.51l1.23-.06a1,1,0,0,1,.66.24.74.74,0,0,1,.3.6.76.76,0,0,1-.26.59.92.92,0,0,1-.64.22l-.54,0a4.39,4.39,0,0,0-.54,0h-.3a36.34,36.34,0,0,1,.21,3.69l0,1.92q0,.87,0,1.95,0,1.44.12,3.45.15,2.49.15,3.45,0,1.14.12,2.7t.12,2.7q0,1.47-.87,1.47A.79.79,0,0,1,467,404.3Z" transform="translate(3141.36 -49.88)"/><path d="M475.58,403.44a10.46,10.46,0,0,1-1.65-4.05,35.08,35.08,0,0,1-.69-5.46q-.15-2.64-.15-5.73v-2.49q0-1.05,0-2.22a.81.81,0,0,1-.24-.6.9.9,0,0,1,.27-.64.82.82,0,0,1,.6-.29q1.08,0,1.08,2.13,0,1.38.15,5.22t.15,5.22a7.77,7.77,0,0,1,.28,1.56,17.59,17.59,0,0,1,.14,1.92,8.06,8.06,0,0,0,.21,1.64,12.54,12.54,0,0,0,.6,2,5.11,5.11,0,0,0,1,1.73,1.81,1.81,0,0,0,1.32.67,1,1,0,0,0,.7-.27,1.37,1.37,0,0,0,.38-.78,7.86,7.86,0,0,0,.18-1.65v-5.85a24,24,0,0,0-.21-2.82q-.18-1.89-.18-2.85v-.21q0-.48,0-.87l0-.87q0-.84-.09-2.55-.12-1.53-.12-2.58a.68.68,0,0,1,.34-.57,1.32,1.32,0,0,1,.77-.24l.75.69v.51a3.9,3.9,0,0,1-.12.87q-.12.84-.12,1,0,2.73.3,7.53.27,5,.27,7.83a10.42,10.42,0,0,1-.3,2.64,3.18,3.18,0,0,1-.5,1.11,2.64,2.64,0,0,1-.85.72,2.58,2.58,0,0,1-1.32.3A3.36,3.36,0,0,1,475.58,403.44Z" transform="translate(3141.36 -49.88)"/><path d="M489.77,404v-.09a21.23,21.23,0,0,0-.54-3.54q-.45-2-1.32-4.71-.66-2.07-1.11-3.72v11.82a1.22,1.22,0,0,1-.17.71.75.75,0,0,1-.64.22.74.74,0,0,1-.57-.22.84.84,0,0,1-.21-.59v-.24l.06-8.82q.06-3.9.06-8.79v-3.69a.64.64,0,0,1,.15-.49,1,1,0,0,1,.63-.14,3.31,3.31,0,0,1,1.38.29,3.15,3.15,0,0,1,1.08.79,5.11,5.11,0,0,1,1.2,2.52,7.09,7.09,0,0,1,.12,1.38,7.3,7.3,0,0,1-.08,1c-.05.36-.08.59-.1.69a7.45,7.45,0,0,1-.27.9l-.27.78-.36.84-.3.78a15.94,15.94,0,0,0,.37,2.73c.23,1.1.49,2.12.77,3.06q.3,1,1.08,3.3l.87,2.64v.06a3.63,3.63,0,0,1-.09.87.56.56,0,0,1-.63.48Q490.31,404.82,489.77,404Zm-2-14.58.45-2.58a2.26,2.26,0,0,0,0-.42,7.35,7.35,0,0,0-.33-2,3.12,3.12,0,0,0-.47-.91.89.89,0,0,0-.58-.41l-.06,3q-.09,2-.09,3.12t0,1.38A14.64,14.64,0,0,0,487.76,389.43Z" transform="translate(3141.36 -49.88)"/><path d="M494.72,404.55q-.51-.15-.51-.84V386.28a9.68,9.68,0,0,0-.18-1.53,7.23,7.23,0,0,1-.21-1.53v-.09a6.76,6.76,0,0,1,.75-1.08,6.81,6.81,0,0,0,1.11-.12,6,6,0,0,1,1.11-.12,1.72,1.72,0,0,1,.93.29.8.8,0,0,1,.45.67q0,.9-1.38.9h-.42a2.58,2.58,0,0,0-.42,0,1,1,0,0,0-.33,0q0,1,.12,2.46l.06.84.06,1.65q0,.57-.09,1.74l-.06,1.68.42-.09a3.6,3.6,0,0,1,1-.18.86.86,0,0,1,.6.26.77.77,0,0,1,.27.58,1,1,0,0,1-.23.65.67.67,0,0,1-.55.28l-.36,0h-.39a.8.8,0,0,0-.63.21V403l1.68-.09q1.71,0,1.71.78v.12a1.33,1.33,0,0,1-.66.59,3.17,3.17,0,0,1-.93.28l-1,0h-.93A3,3,0,0,1,494.72,404.55Z" transform="translate(3141.36 -49.88)"/><path d="M538.68,407.26l0,0c-.85-.17-1.35.73-1.23,1.51a1.24,1.24,0,0,0,1.56,1c1.15-.42,1.17-2.7-.3-2.53m.24,1.83c-.29.3-.71,0-.84-.28a.82.82,0,0,1,0-.7.67.67,0,0,1,.35-.28.31.31,0,0,0,.14.07c.3.06.51.09.59.43a.94.94,0,0,1-.27.76" transform="translate(3141.36 -49.88)"/><path d="M546.94,408.2a1.66,1.66,0,0,0-.57-.89.76.76,0,0,0-.79-.08,1,1,0,0,0-.73.24,1.43,1.43,0,0,0-.49,1,1.24,1.24,0,0,0,1.42,1.36,1.36,1.36,0,0,0,1.16-1.62m-1.17.91c-.41.15-.71-.16-.72-.57s.32-.55.62-.73c.1,0,.21,0,.28,0a1,1,0,0,1,.28.47.61.61,0,0,1-.46.79" transform="translate(3141.36 -49.88)"/><path d="M549.4,407.37c-.08-.37-.43-.35-.42-.8a3.8,3.8,0,0,0-.26-2.17c-.32-.48-1.19-.4-1.69-.26a9.31,9.31,0,0,0-1.51-3,2.67,2.67,0,0,0-2.1-.49c-1.49,0-3,.08-4.46.07-1,0-2.5-.42-3.43.12-.51.3-.4,1.09-.42,1.58-.07,1.33.06,2.66-.06,4s0,2.69,1.63,2.13l0,0a.12.12,0,0,0,.12,0,1,1,0,0,0,.2-.46,1.27,1.27,0,0,1,.93-1,1.9,1.9,0,0,1,2.39,1.24s0,0,0,0,0,.16.13.15a9.57,9.57,0,0,1,3.11.21.19.19,0,0,0,.23-.18.1.1,0,0,0,0-.05,1.83,1.83,0,0,1,1.48-1.62,1.6,1.6,0,0,1,1.48.37c.37.33.33.92.55,1.33a.2.2,0,0,0,.31,0h0c.37,0,1.56.17,1.7-.32a1.94,1.94,0,0,0,0-.83M543,401.66a2.59,2.59,0,0,1,1.95.39,5.26,5.26,0,0,1,.85,1.52c.27.53-1,.25-1.33.24a7.59,7.59,0,0,0-1.43.1,18.85,18.85,0,0,1,0-2.25" transform="translate(3141.36 -49.88)"/><path d="M107.06,392.69c-5.23-5.85-5.76-5.87-6-5.88s-.51,0-7,5c-6.74-9.29-7.64-9.25-8-9.23-1.77.09-6.06,6.72-7.54,9.09a34.92,34.92,0,0,0-2.3-2.81c-.74-.79-1-.9-1.27-.9-1,0-4,2.18-6.91,4.49l.12.3a15.22,15.22,0,0,1,4.22-2.7,4.18,4.18,0,0,1,2.78.51c.76.54,1.37,2.42,1.82,3.23a48.1,48.1,0,0,0,3.84,5.06c1.55,1.9,5.91,6.69,7.43,8.35h-.09c.08.08.13.17.2.25a4.2,4.2,0,0,1,.66-.52c-1.25-1.92-6.36-9.71-10.06-14.68,1.79-2.89,4.49-8.17,6.19-8.42.81-.12.94,2.33,1.49,2.94s1.68.92,2.15,1.35a57.71,57.71,0,0,1,4.81,6.27l7.75,10,0,0,.16.15a4.39,4.39,0,0,1,1-.72c-.77-1.14-3.93-5.83-7.25-10.48l-.74-1c1.85-1.44,4.34-3.93,5.71-4.31.82-.23,1.29,2.25,2,2.77.44.33,1.65.39,2.08.74s1.06,1.94,1.54,2.5c1,1.11,9.44,8.27,10.71,9.24.19-.2,0,0,.23-.16C115.88,402.19,109,394.82,107.06,392.69Z" transform="translate(3141.36 -49.88)"/><path d="M71.81,402.11l-2.69-4.72h1a.4.4,0,0,0,.26-.58L68,392.5h1c.14,0,.27-.24.17-.4l-2.49-4.38a.18.18,0,0,0-.34,0l-2.49,4.38a.25.25,0,0,0,0,.3.16.16,0,0,0,.15.1h1.08q-1.23,2.14-2.45,4.31a.39.39,0,0,0,0,.44.27.27,0,0,0,.23.14H64l-2.69,4.72a.5.5,0,0,0,0,.59.34.34,0,0,0,.3.19H65.9v3.47a.56.56,0,1,0,1.11,0v-3.47h4.46C71.74,402.89,72,402.44,71.81,402.11Z" transform="translate(3141.36 -49.88)"/><path d="M63.88,403.3l-2-3.55h.78a.3.3,0,0,0,.2-.43c-.62-1.08-1.24-2.16-1.85-3.24h.76c.1,0,.2-.18.13-.3-.63-1.09-1.25-2.19-1.87-3.29a.14.14,0,0,0-.26,0l-1.87,3.29a.19.19,0,0,0,0,.22.13.13,0,0,0,.12.08h.81L57,399.32a.28.28,0,0,0,0,.33.18.18,0,0,0,.17.1H58c-.67,1.19-1.34,2.37-2,3.55a.4.4,0,0,0,0,.44.26.26,0,0,0,.23.15h3.17v2.6a.42.42,0,0,0,.84,0v-2.6h3.34C63.83,403.89,64,403.55,63.88,403.3Z" transform="translate(3141.36 -49.88)"/><path d="M57.68,401.77q-1.16-2-2.32-4.08h.9a.34.34,0,0,0,.22-.5c-.7-1.24-1.41-2.48-2.12-3.72h.87c.12,0,.23-.2.15-.35l-2.15-3.77c-.08-.14-.21-.14-.3,0l-2.14,3.77a.22.22,0,0,0,0,.26.17.17,0,0,0,.14.09h.93l-2.12,3.72a.33.33,0,0,0,0,.37.23.23,0,0,0,.2.13h1q-1.17,2-2.32,4.08a.43.43,0,0,0,0,.5.29.29,0,0,0,.26.17h3.64v3a.48.48,0,0,0,.48.48.47.47,0,0,0,.48-.48v-3h3.85C57.63,402.44,57.84,402.05,57.68,401.77Z" transform="translate(3141.36 -49.88)"/><path d="M57.35,408a.7.7,0,0,1-.7.71h-2a.7.7,0,0,1-.7-.71h0a.7.7,0,0,1,.7-.71h2a.7.7,0,0,1,.7.71Z" transform="translate(3141.36 -49.88)"/><path d="M62,408a.71.71,0,0,1-.71.71h-2a.71.71,0,0,1-.71-.71h0a.71.71,0,0,1,.71-.71h2A.71.71,0,0,1,62,408Z" transform="translate(3141.36 -49.88)"/><path d="M66.77,408a.71.71,0,0,1-.71.71H64a.71.71,0,0,1-.71-.71h0a.71.71,0,0,1,.71-.71h2a.71.71,0,0,1,.71.71Z" transform="translate(3141.36 -49.88)"/><path d="M71.37,408a.7.7,0,0,1-.7.71h-2a.71.71,0,0,1-.7-.71h0a.71.71,0,0,1,.7-.71h2a.7.7,0,0,1,.7.71Z" transform="translate(3141.36 -49.88)"/><path d="M76.12,408a.7.7,0,0,1-.7.71h-2a.7.7,0,0,1-.7-.71h0a.7.7,0,0,1,.7-.71h2a.7.7,0,0,1,.7.71Z" transform="translate(3141.36 -49.88)"/><path d="M80.79,408a.71.71,0,0,1-.71.71h-2a.71.71,0,0,1-.71-.71h0a.71.71,0,0,1,.71-.71h2a.71.71,0,0,1,.71.71Z" transform="translate(3141.36 -49.88)"/><path d="M85.54,408a.71.71,0,0,1-.71.71h-2a.71.71,0,0,1-.71-.71h0a.71.71,0,0,1,.71-.71h2a.71.71,0,0,1,.71.71Z" transform="translate(3141.36 -49.88)"/><path d="M90.14,408a.7.7,0,0,1-.7.71h-2a.7.7,0,0,1-.7-.71h0a.7.7,0,0,1,.7-.71h2a.7.7,0,0,1,.7.71Z" transform="translate(3141.36 -49.88)"/><path d="M94.89,408a.7.7,0,0,1-.7.71h-2a.7.7,0,0,1-.7-.71h0a.7.7,0,0,1,.7-.71h2a.7.7,0,0,1,.7.71Z" transform="translate(3141.36 -49.88)"/><path d="M99.56,408a.71.71,0,0,1-.71.71h-2a.71.71,0,0,1-.71-.71h0a.71.71,0,0,1,.71-.71h2a.71.71,0,0,1,.71.71Z" transform="translate(3141.36 -49.88)"/><path d="M104.31,408a.71.71,0,0,1-.71.71h-2a.71.71,0,0,1-.71-.71h0a.71.71,0,0,1,.71-.71h2a.71.71,0,0,1,.71.71Z" transform="translate(3141.36 -49.88)"/><path d="M108.91,408a.7.7,0,0,1-.7.71h-2a.7.7,0,0,1-.7-.71h0a.7.7,0,0,1,.7-.71h2a.7.7,0,0,1,.7.71Z" transform="translate(3141.36 -49.88)"/><path d="M113.66,408a.71.71,0,0,1-.7.71h-2a.7.7,0,0,1-.7-.71h0a.7.7,0,0,1,.7-.71h2a.71.71,0,0,1,.7.71Z" transform="translate(3141.36 -49.88)"/><path d="M118.9,408a.71.71,0,0,1-.7.71h-2a.7.7,0,0,1-.7-.71h0a.7.7,0,0,1,.7-.71h2a.71.71,0,0,1,.7.71Z" transform="translate(3141.36 -49.88)"/><path d="M123.65,408a.71.71,0,0,1-.71.71h-2a.71.71,0,0,1-.71-.71h0a.71.71,0,0,1,.71-.71h2a.71.71,0,0,1,.71.71Z" transform="translate(3141.36 -49.88)"/><path d="M128.25,408a.7.7,0,0,1-.7.71h-2a.71.71,0,0,1-.71-.71h0a.71.71,0,0,1,.71-.71h2a.7.7,0,0,1,.7.71Z" transform="translate(3141.36 -49.88)"/><path d="M133,408a.7.7,0,0,1-.7.71h-2a.71.71,0,0,1-.7-.71h0a.71.71,0,0,1,.7-.71h2a.7.7,0,0,1,.7.71Z" transform="translate(3141.36 -49.88)"/><path d="M137.67,408a.71.71,0,0,1-.71.71h-2a.71.71,0,0,1-.71-.71h0a.71.71,0,0,1,.71-.71h2a.71.71,0,0,1,.71.71Z" transform="translate(3141.36 -49.88)"/><path d="M142.42,408a.71.71,0,0,1-.71.71h-2A.71.71,0,0,1,139,408h0a.71.71,0,0,1,.71-.71h2a.71.71,0,0,1,.71.71Z" transform="translate(3141.36 -49.88)"/><path d="M147,408a.7.7,0,0,1-.7.71h-2a.71.71,0,0,1-.71-.71h0a.71.71,0,0,1,.71-.71h2a.7.7,0,0,1,.7.71Z" transform="translate(3141.36 -49.88)"/><path d="M151.77,408a.7.7,0,0,1-.7.71h-2a.7.7,0,0,1-.7-.71h0a.7.7,0,0,1,.7-.71h2a.7.7,0,0,1,.7.71Z" transform="translate(3141.36 -49.88)"/><path d="M156.44,408a.71.71,0,0,1-.71.71h-2A.71.71,0,0,1,153,408h0a.71.71,0,0,1,.71-.71h2a.71.71,0,0,1,.71.71Z" transform="translate(3141.36 -49.88)"/><path d="M161.19,408a.71.71,0,0,1-.71.71h-2a.71.71,0,0,1-.71-.71h0a.71.71,0,0,1,.71-.71h2a.71.71,0,0,1,.71.71Z" transform="translate(3141.36 -49.88)"/><path d="M165.79,408a.7.7,0,0,1-.7.71h-2a.71.71,0,0,1-.7-.71h0a.71.71,0,0,1,.7-.71h2a.7.7,0,0,1,.7.71Z" transform="translate(3141.36 -49.88)"/><path d="M170.54,408a.7.7,0,0,1-.7.71h-2a.7.7,0,0,1-.7-.71h0a.7.7,0,0,1,.7-.71h2a.7.7,0,0,1,.7.71Z" transform="translate(3141.36 -49.88)"/><path d="M175.21,408a.71.71,0,0,1-.71.71h-2a.71.71,0,0,1-.71-.71h0a.71.71,0,0,1,.71-.71h2a.71.71,0,0,1,.71.71Z" transform="translate(3141.36 -49.88)"/><path d="M180,408a.71.71,0,0,1-.71.71h-2a.71.71,0,0,1-.71-.71h0a.71.71,0,0,1,.71-.71h2a.71.71,0,0,1,.71.71Z" transform="translate(3141.36 -49.88)"/><path d="M184.56,408a.7.7,0,0,1-.7.71h-2a.7.7,0,0,1-.7-.71h0a.7.7,0,0,1,.7-.71h2a.7.7,0,0,1,.7.71Z" transform="translate(3141.36 -49.88)"/><path d="M189.31,408a.7.7,0,0,1-.7.71h-2a.7.7,0,0,1-.7-.71h0a.7.7,0,0,1,.7-.71h2a.7.7,0,0,1,.7.71Z" transform="translate(3141.36 -49.88)"/><path d="M194.38,408a.71.71,0,0,1-.71.71h-2a.71.71,0,0,1-.71-.71h0a.71.71,0,0,1,.71-.71h2a.71.71,0,0,1,.71.71Z" transform="translate(3141.36 -49.88)"/><path d="M199.13,408a.71.71,0,0,1-.71.71h-2a.71.71,0,0,1-.71-.71h0a.71.71,0,0,1,.71-.71h2a.71.71,0,0,1,.71.71Z" transform="translate(3141.36 -49.88)"/><path d="M203.73,408a.7.7,0,0,1-.7.71h-2a.71.71,0,0,1-.7-.71h0a.71.71,0,0,1,.7-.71h2a.7.7,0,0,1,.7.71Z" transform="translate(3141.36 -49.88)"/><path d="M208.48,408a.7.7,0,0,1-.7.71h-2a.7.7,0,0,1-.7-.71h0a.7.7,0,0,1,.7-.71h2a.7.7,0,0,1,.7.71Z" transform="translate(3141.36 -49.88)"/><path d="M213.15,408a.71.71,0,0,1-.71.71h-2a.71.71,0,0,1-.71-.71h0a.71.71,0,0,1,.71-.71h2a.71.71,0,0,1,.71.71Z" transform="translate(3141.36 -49.88)"/><path d="M217.9,408a.71.71,0,0,1-.71.71h-2a.71.71,0,0,1-.71-.71h0a.71.71,0,0,1,.71-.71h2a.71.71,0,0,1,.71.71Z" transform="translate(3141.36 -49.88)"/><path d="M222.5,408a.7.7,0,0,1-.7.71h-2a.71.71,0,0,1-.7-.71h0a.71.71,0,0,1,.7-.71h2a.7.7,0,0,1,.7.71Z" transform="translate(3141.36 -49.88)"/><path d="M227.25,408a.7.7,0,0,1-.7.71h-2a.7.7,0,0,1-.7-.71h0a.7.7,0,0,1,.7-.71h2a.7.7,0,0,1,.7.71Z" transform="translate(3141.36 -49.88)"/><path d="M231.92,408a.71.71,0,0,1-.71.71h-2a.71.71,0,0,1-.71-.71h0a.71.71,0,0,1,.71-.71h2a.71.71,0,0,1,.71.71Z" transform="translate(3141.36 -49.88)"/><path d="M236.67,408a.71.71,0,0,1-.71.71h-2a.71.71,0,0,1-.71-.71h0a.71.71,0,0,1,.71-.71h2a.71.71,0,0,1,.71.71Z" transform="translate(3141.36 -49.88)"/><path d="M241.27,408a.7.7,0,0,1-.7.71h-2a.7.7,0,0,1-.7-.71h0a.7.7,0,0,1,.7-.71h2a.7.7,0,0,1,.7.71Z" transform="translate(3141.36 -49.88)"/><path d="M246,408a.7.7,0,0,1-.7.71h-2a.7.7,0,0,1-.7-.71h0a.7.7,0,0,1,.7-.71h2a.7.7,0,0,1,.7.71Z" transform="translate(3141.36 -49.88)"/><path d="M250.69,408a.71.71,0,0,1-.71.71h-2a.71.71,0,0,1-.71-.71h0a.71.71,0,0,1,.71-.71h2a.71.71,0,0,1,.71.71Z" transform="translate(3141.36 -49.88)"/><path d="M255.43,408a.7.7,0,0,1-.7.71h-2A.71.71,0,0,1,252,408h0a.71.71,0,0,1,.71-.71h2a.7.7,0,0,1,.7.71Z" transform="translate(3141.36 -49.88)"/><path d="M260,408a.7.7,0,0,1-.7.71h-2a.7.7,0,0,1-.7-.71h0a.7.7,0,0,1,.7-.71h2a.7.7,0,0,1,.7.71Z" transform="translate(3141.36 -49.88)"/><path d="M264.79,408a.71.71,0,0,1-.71.71h-2a.7.7,0,0,1-.7-.71h0a.7.7,0,0,1,.7-.71h2a.71.71,0,0,1,.71.71Z" transform="translate(3141.36 -49.88)"/><path d="M270,408a.71.71,0,0,1-.71.71h-2a.7.7,0,0,1-.7-.71h0a.7.7,0,0,1,.7-.71h2a.71.71,0,0,1,.71.71Z" transform="translate(3141.36 -49.88)"/><path d="M274.78,408a.71.71,0,0,1-.71.71h-2a.71.71,0,0,1-.71-.71h0a.71.71,0,0,1,.71-.71h2a.71.71,0,0,1,.71.71Z" transform="translate(3141.36 -49.88)"/><path d="M279.38,408a.7.7,0,0,1-.7.71h-2a.71.71,0,0,1-.7-.71h0a.71.71,0,0,1,.7-.71h2a.7.7,0,0,1,.7.71Z" transform="translate(3141.36 -49.88)"/><path d="M284.13,408a.7.7,0,0,1-.7.71h-2a.7.7,0,0,1-.7-.71h0a.7.7,0,0,1,.7-.71h2a.7.7,0,0,1,.7.71Z" transform="translate(3141.36 -49.88)"/><path d="M288.8,408a.71.71,0,0,1-.71.71h-2a.71.71,0,0,1-.71-.71h0a.71.71,0,0,1,.71-.71h2a.71.71,0,0,1,.71.71Z" transform="translate(3141.36 -49.88)"/><path d="M293.55,408a.71.71,0,0,1-.71.71h-2a.71.71,0,0,1-.71-.71h0a.71.71,0,0,1,.71-.71h2a.71.71,0,0,1,.71.71Z" transform="translate(3141.36 -49.88)"/><path d="M298.15,408a.7.7,0,0,1-.7.71h-2a.71.71,0,0,1-.7-.71h0a.71.71,0,0,1,.7-.71h2a.7.7,0,0,1,.7.71Z" transform="translate(3141.36 -49.88)"/><path d="M302.9,408a.7.7,0,0,1-.7.71h-2a.7.7,0,0,1-.7-.71h0a.7.7,0,0,1,.7-.71h2a.7.7,0,0,1,.7.71Z" transform="translate(3141.36 -49.88)"/><path d="M307.57,408a.71.71,0,0,1-.71.71h-2a.71.71,0,0,1-.71-.71h0a.71.71,0,0,1,.71-.71h2a.71.71,0,0,1,.71.71Z" transform="translate(3141.36 -49.88)"/><path d="M312.32,408a.71.71,0,0,1-.71.71h-2a.71.71,0,0,1-.71-.71h0a.71.71,0,0,1,.71-.71h2a.71.71,0,0,1,.71.71Z" transform="translate(3141.36 -49.88)"/><path d="M316.92,408a.7.7,0,0,1-.7.71h-2a.7.7,0,0,1-.7-.71h0a.7.7,0,0,1,.7-.71h2a.7.7,0,0,1,.7.71Z" transform="translate(3141.36 -49.88)"/><path d="M321.67,408a.7.7,0,0,1-.7.71h-2a.7.7,0,0,1-.7-.71h0a.7.7,0,0,1,.7-.71h2a.7.7,0,0,1,.7.71Z" transform="translate(3141.36 -49.88)"/><path d="M326.34,408a.71.71,0,0,1-.71.71h-2a.71.71,0,0,1-.71-.71h0a.71.71,0,0,1,.71-.71h2a.71.71,0,0,1,.71.71Z" transform="translate(3141.36 -49.88)"/><path d="M331.09,408a.71.71,0,0,1-.71.71h-2a.71.71,0,0,1-.71-.71h0a.71.71,0,0,1,.71-.71h2a.71.71,0,0,1,.71.71Z" transform="translate(3141.36 -49.88)"/><path d="M335.69,408a.7.7,0,0,1-.7.71h-2a.7.7,0,0,1-.7-.71h0a.7.7,0,0,1,.7-.71h2a.7.7,0,0,1,.7.71Z" transform="translate(3141.36 -49.88)"/><path d="M340.44,408a.71.71,0,0,1-.71.71h-2a.7.7,0,0,1-.7-.71h0a.7.7,0,0,1,.7-.71h2a.71.71,0,0,1,.71.71Z" transform="translate(3141.36 -49.88)"/><path d="M344.76,408a.71.71,0,0,1-.71.71h-2a.71.71,0,0,1-.71-.71h0a.71.71,0,0,1,.71-.71h2a.71.71,0,0,1,.71.71Z" transform="translate(3141.36 -49.88)"/><path d="M349.42,408a.7.7,0,0,1-.7.71h-2a.7.7,0,0,1-.7-.71h0a.7.7,0,0,1,.7-.71h2a.7.7,0,0,1,.7.71Z" transform="translate(3141.36 -49.88)"/><path d="M354.17,408a.7.7,0,0,1-.7.71h-2a.7.7,0,0,1-.7-.71h0a.7.7,0,0,1,.7-.71h2a.7.7,0,0,1,.7.71Z" transform="translate(3141.36 -49.88)"/><path d="M358.78,408a.71.71,0,0,1-.71.71h-2a.71.71,0,0,1-.71-.71h0a.71.71,0,0,1,.71-.71h2a.71.71,0,0,1,.71.71Z" transform="translate(3141.36 -49.88)"/><path d="M363.53,408a.71.71,0,0,1-.71.71h-2a.71.71,0,0,1-.71-.71h0a.71.71,0,0,1,.71-.71h2a.71.71,0,0,1,.71.71Z" transform="translate(3141.36 -49.88)"/><path d="M368.19,408a.7.7,0,0,1-.7.71h-2a.7.7,0,0,1-.7-.71h0a.7.7,0,0,1,.7-.71h2a.7.7,0,0,1,.7.71Z" transform="translate(3141.36 -49.88)"/><path d="M372.94,408a.7.7,0,0,1-.7.71h-2a.7.7,0,0,1-.7-.71h0a.7.7,0,0,1,.7-.71h2a.7.7,0,0,1,.7.71Z" transform="translate(3141.36 -49.88)"/><path d="M377.55,408a.71.71,0,0,1-.71.71h-2a.71.71,0,0,1-.71-.71h0a.71.71,0,0,1,.71-.71h2a.71.71,0,0,1,.71.71Z" transform="translate(3141.36 -49.88)"/><path d="M382.29,408a.7.7,0,0,1-.7.71h-2a.71.71,0,0,1-.71-.71h0a.71.71,0,0,1,.71-.71h2a.7.7,0,0,1,.7.71Z" transform="translate(3141.36 -49.88)"/><path d="M387,408a.7.7,0,0,1-.7.71h-2a.7.7,0,0,1-.7-.71h0a.7.7,0,0,1,.7-.71h2a.7.7,0,0,1,.7.71Z" transform="translate(3141.36 -49.88)"/><path d="M391.71,408a.71.71,0,0,1-.71.71h-2a.7.7,0,0,1-.7-.71h0a.7.7,0,0,1,.7-.71h2a.71.71,0,0,1,.71.71Z" transform="translate(3141.36 -49.88)"/><path d="M396.32,408a.71.71,0,0,1-.71.71h-2a.71.71,0,0,1-.71-.71h0a.71.71,0,0,1,.71-.71h2a.71.71,0,0,1,.71.71Z" transform="translate(3141.36 -49.88)"/><path d="M401.06,408a.7.7,0,0,1-.7.71h-2a.71.71,0,0,1-.71-.71h0a.71.71,0,0,1,.71-.71h2a.7.7,0,0,1,.7.71Z" transform="translate(3141.36 -49.88)"/><path d="M406.3,408a.7.7,0,0,1-.7.71h-2a.71.71,0,0,1-.7-.71h0a.71.71,0,0,1,.7-.71h2a.7.7,0,0,1,.7.71Z" transform="translate(3141.36 -49.88)"/><path d="M411.05,408a.7.7,0,0,1-.7.71h-2a.7.7,0,0,1-.7-.71h0a.7.7,0,0,1,.7-.71h2a.7.7,0,0,1,.7.71Z" transform="translate(3141.36 -49.88)"/><path d="M415.66,408a.71.71,0,0,1-.71.71h-2a.71.71,0,0,1-.71-.71h0a.71.71,0,0,1,.71-.71h2a.71.71,0,0,1,.71.71Z" transform="translate(3141.36 -49.88)"/><path d="M420.41,408a.71.71,0,0,1-.71.71h-2A.71.71,0,0,1,417,408h0a.71.71,0,0,1,.71-.71h2a.71.71,0,0,1,.71.71Z" transform="translate(3141.36 -49.88)"/><path d="M425.07,408a.7.7,0,0,1-.7.71h-2a.71.71,0,0,1-.7-.71h0a.71.71,0,0,1,.7-.71h2a.7.7,0,0,1,.7.71Z" transform="translate(3141.36 -49.88)"/><path d="M429.82,408a.7.7,0,0,1-.7.71h-2a.7.7,0,0,1-.7-.71h0a.7.7,0,0,1,.7-.71h2a.7.7,0,0,1,.7.71Z" transform="translate(3141.36 -49.88)"/><path d="M434.43,408a.71.71,0,0,1-.71.71h-2A.71.71,0,0,1,431,408h0a.71.71,0,0,1,.71-.71h2a.71.71,0,0,1,.71.71Z" transform="translate(3141.36 -49.88)"/><path d="M439.18,408a.71.71,0,0,1-.71.71h-2a.71.71,0,0,1-.71-.71h0a.71.71,0,0,1,.71-.71h2a.71.71,0,0,1,.71.71Z" transform="translate(3141.36 -49.88)"/><path d="M443.84,408a.7.7,0,0,1-.7.71h-2a.7.7,0,0,1-.7-.71h0a.7.7,0,0,1,.7-.71h2a.7.7,0,0,1,.7.71Z" transform="translate(3141.36 -49.88)"/><path d="M448.59,408a.7.7,0,0,1-.7.71h-2a.7.7,0,0,1-.7-.71h0a.7.7,0,0,1,.7-.71h2a.7.7,0,0,1,.7.71Z" transform="translate(3141.36 -49.88)"/><path d="M453.2,408a.71.71,0,0,1-.71.71h-2a.71.71,0,0,1-.71-.71h0a.71.71,0,0,1,.71-.71h2a.71.71,0,0,1,.71.71Z" transform="translate(3141.36 -49.88)"/><path d="M458,408a.71.71,0,0,1-.71.71h-2a.71.71,0,0,1-.71-.71h0a.71.71,0,0,1,.71-.71h2a.71.71,0,0,1,.71.71Z" transform="translate(3141.36 -49.88)"/><path d="M462.61,408a.7.7,0,0,1-.7.71h-2a.7.7,0,0,1-.7-.71h0a.7.7,0,0,1,.7-.71h2a.7.7,0,0,1,.7.71Z" transform="translate(3141.36 -49.88)"/><path d="M467.36,408a.71.71,0,0,1-.7.71h-2a.7.7,0,0,1-.7-.71h0a.7.7,0,0,1,.7-.71h2a.71.71,0,0,1,.7.71Z" transform="translate(3141.36 -49.88)"/><path d="M472,408a.71.71,0,0,1-.71.71h-2a.71.71,0,0,1-.71-.71h0a.71.71,0,0,1,.71-.71h2a.71.71,0,0,1,.71.71Z" transform="translate(3141.36 -49.88)"/><path d="M476.71,408a.7.7,0,0,1-.7.71h-2a.71.71,0,0,1-.71-.71h0a.71.71,0,0,1,.71-.71h2a.7.7,0,0,1,.7.71Z" transform="translate(3141.36 -49.88)"/><path d="M481.78,408a.7.7,0,0,1-.7.71h-2a.7.7,0,0,1-.7-.71h0a.7.7,0,0,1,.7-.71h2a.7.7,0,0,1,.7.71Z" transform="translate(3141.36 -49.88)"/><path d="M486.53,408a.71.71,0,0,1-.7.71h-2a.7.7,0,0,1-.7-.71h0a.7.7,0,0,1,.7-.71h2a.71.71,0,0,1,.7.71Z" transform="translate(3141.36 -49.88)"/><path d="M491.14,408a.71.71,0,0,1-.71.71h-2a.71.71,0,0,1-.71-.71h0a.71.71,0,0,1,.71-.71h2a.71.71,0,0,1,.71.71Z" transform="translate(3141.36 -49.88)"/><path d="M495.89,408a.71.71,0,0,1-.71.71h-2a.71.71,0,0,1-.71-.71h0a.71.71,0,0,1,.71-.71h2a.71.71,0,0,1,.71.71Z" transform="translate(3141.36 -49.88)"/><path d="M500.55,408a.7.7,0,0,1-.7.71h-2a.7.7,0,0,1-.7-.71h0a.7.7,0,0,1,.7-.71h2a.7.7,0,0,1,.7.71Z" transform="translate(3141.36 -49.88)"/><path d="M505.3,408a.71.71,0,0,1-.7.71h-2a.7.7,0,0,1-.7-.71h0a.7.7,0,0,1,.7-.71h2a.71.71,0,0,1,.7.71Z" transform="translate(3141.36 -49.88)"/><path d="M509.91,408a.71.71,0,0,1-.71.71h-2a.71.71,0,0,1-.71-.71h0a.71.71,0,0,1,.71-.71h2a.71.71,0,0,1,.71.71Z" transform="translate(3141.36 -49.88)"/><path d="M514.66,408a.71.71,0,0,1-.71.71h-2a.71.71,0,0,1-.71-.71h0a.71.71,0,0,1,.71-.71h2a.71.71,0,0,1,.71.71Z" transform="translate(3141.36 -49.88)"/><path d="M519.32,408a.7.7,0,0,1-.7.71h-2a.7.7,0,0,1-.7-.71h0a.7.7,0,0,1,.7-.71h2a.7.7,0,0,1,.7.71Z" transform="translate(3141.36 -49.88)"/><path d="M524.07,408a.71.71,0,0,1-.7.71h-2a.7.7,0,0,1-.7-.71h0a.7.7,0,0,1,.7-.71h2a.71.71,0,0,1,.7.71Z" transform="translate(3141.36 -49.88)"/><path d="M528.68,408a.71.71,0,0,1-.71.71h-2a.71.71,0,0,1-.71-.71h0a.71.71,0,0,1,.71-.71h2a.71.71,0,0,1,.71.71Z" transform="translate(3141.36 -49.88)"/><path d="M533.42,408a.7.7,0,0,1-.7.71h-2A.71.71,0,0,1,530,408h0a.71.71,0,0,1,.71-.71h2a.7.7,0,0,1,.7.71Z" transform="translate(3141.36 -49.88)"/><path d="M359.75,66.05a1.93,1.93,0,0,0-1.07-.75,2.17,2.17,0,0,0-.81-.37,8,8,0,0,0-1-.15,5.08,5.08,0,0,0-1,0,3.89,3.89,0,0,0-.8.16,6.39,6.39,0,0,0-2.89,2.11,13.36,13.36,0,0,0-2,3.54,14,14,0,0,0-.88,3.62c-.24.42-.51.93-.82,1.54s-.71,1.35-1.11,2.1-.86,1.46-1.34,2.16a12.49,12.49,0,0,1-1.54,1.86A4.43,4.43,0,0,1,342.84,83a2.33,2.33,0,0,1-1.86,0,2.39,2.39,0,0,1-1.16-1.46A5.06,5.06,0,0,1,339.6,79a3,3,0,0,0,.6-.16,6.34,6.34,0,0,0,2.08-1.21,8,8,0,0,0,1.67-2,7,7,0,0,0,.94-2.32,4.51,4.51,0,0,0-.14-2.39,2.62,2.62,0,0,0-1.31-1.55,2.53,2.53,0,0,0-2-.11,4.09,4.09,0,0,0-1.74,1.25,15.5,15.5,0,0,0-1.6,2.29,29.15,29.15,0,0,0-1.48,3c-.47,1.08-.91,2.18-1.31,3.29l.39-2.64c.43-.9.88-1.89,1.36-3s1-2.18,1.45-3.3.94-2.23,1.38-3.32.84-2.11,1.21-3.05.67-1.79.91-2.52a13.61,13.61,0,0,0,.49-1.69,9.63,9.63,0,0,0,.14-1.35,3.36,3.36,0,0,0-.17-1.31,2.18,2.18,0,0,0-1-1.22,1.79,1.79,0,0,0-1.55-.14,3.13,3.13,0,0,0-1.59,1.55,15,15,0,0,0-1.28,3c-.38,1.19-.71,2.49-1,3.89s-.54,2.77-.76,4.08-.39,2.51-.55,3.62-.26,2-.33,2.53L334,76.81c-.5,1-.89,1.82-1.18,2.44l-.06.13a1.05,1.05,0,0,0-.19.28c-.1.23-.2.45-.3.64A22.8,22.8,0,0,1,330.7,83a25.65,25.65,0,0,1-2.06,2.66,8.58,8.58,0,0,0,.08-1.83,6.82,6.82,0,0,0-.34-1.8,16.2,16.2,0,0,0-1.23-2.72,16.46,16.46,0,0,0-1.69-2.43c-.23-.27-.47-.54-.71-.79a3.91,3.91,0,0,1-.65-.85c.17-.68.29-1.28.37-1.8a2.77,2.77,0,0,0,0-1.08.73.73,0,0,0-.52-.53,1.36,1.36,0,0,0-.77,0,1.65,1.65,0,0,0-.84.59,2.49,2.49,0,0,0-.41.92,3.54,3.54,0,0,0-.08,1.08,4,4,0,0,0,.2,1,4.48,4.48,0,0,0,.46,1c-.28.85-.61,1.74-1,2.67s-.71,1.8-1,2.61-.58,1.49-.78,2l-.06.17-.2.32c-.25.44-.58,1-1,1.66s-.85,1.4-1.37,2.2-1.09,1.57-1.7,2.32a14.68,14.68,0,0,1-2,2,7.34,7.34,0,0,1-2.25,1.29,4.08,4.08,0,0,1-2.4.13,2.38,2.38,0,0,1-1.56-1.71,3.44,3.44,0,0,1-.11-.38c0-.14-.06-.27-.08-.4a1.38,1.38,0,0,0,.67-.06l.62-.21A9,9,0,0,0,311,89.6,15.46,15.46,0,0,0,313.49,87a10.7,10.7,0,0,0,1.7-3,4.34,4.34,0,0,0,.12-3,2.64,2.64,0,0,0-1.25-1.58,2.41,2.41,0,0,0-2-.07,4.61,4.61,0,0,0-1.54.86,17.26,17.26,0,0,0-1.32,1.19,16.18,16.18,0,0,0-2,2.39,13.77,13.77,0,0,0-1.51,2.83,10.82,10.82,0,0,0-.68,2.73c-.21.38-.46.84-.73,1.39s-.67,1.29-1.08,2-.81,1.42-1.23,2.07a12.29,12.29,0,0,1-1.33,1.73,3.61,3.61,0,0,1-1.35,1,.4.4,0,0,1-.58-.25,5.67,5.67,0,0,1-.2-2,20.19,20.19,0,0,1,.29-2.54c.15-.91.33-1.82.55-2.73s.41-1.77.6-2.55.35-1.45.48-2a2.79,2.79,0,0,0,.1-1.09.94.94,0,0,0-.47-.53.89.89,0,0,0-.7,0,.69.69,0,0,0-.23.2.91.91,0,0,1-.42.26,2.19,2.19,0,0,1-1.29.06,3.16,3.16,0,0,1-1.15-.56,5.79,5.79,0,0,0,.09-2.38,1.15,1.15,0,0,0-.67-.74,1.38,1.38,0,0,0-1,0,1.55,1.55,0,0,0-1.06,1.1,2.63,2.63,0,0,0,0,1.55,3.54,3.54,0,0,0,1,1.57,21.64,21.64,0,0,1-1,4.5,35,35,0,0,1-1.61,4,7.8,7.8,0,0,0-.93,1.52A14.35,14.35,0,0,1,290,96.81c-.77,1.12-1.58,2.21-2.41,3.26s-1.65,2.12-2.47,3.2a62.73,62.73,0,0,0,.93-6.33q.29-3.16.62-6.39l.51-.17c.21-.08.49-.19.83-.35a4.67,4.67,0,0,0,.92-.55,2.65,2.65,0,0,0,.66-.73,1,1,0,0,0,.09-.88.51.51,0,0,0-.73-.36l-.84.31c-.38.14-.77.31-1.19.5.14-1.34.32-2.65.53-3.93s.47-2.58.79-3.87a15.4,15.4,0,0,1,.58-1.87,14.86,14.86,0,0,1,.89-2A8,8,0,0,1,291,74.94a4.17,4.17,0,0,1,1.66-1.07,2.53,2.53,0,0,1,1-.16,2.78,2.78,0,0,1,.73.13l.69.23a1.77,1.77,0,0,0,.82.09h0s0,0,.05,0l.22-.07a.71.71,0,0,0,.43-.39.69.69,0,0,0,0-.58,1.48,1.48,0,0,0-.76-.87,3.57,3.57,0,0,0-1.26-.38,6.54,6.54,0,0,0-1.4,0,4.87,4.87,0,0,0-1.18.22,5.87,5.87,0,0,0-2.91,2.19,14.41,14.41,0,0,0-1.93,3.91,36,36,0,0,0-1.23,5.12q-.48,2.84-.79,5.84c-.43.23-.85.46-1.24.69a10.64,10.64,0,0,0-1,.67,2.68,2.68,0,0,0-.65.66.68.68,0,0,0-.12.59.7.7,0,0,0,.33.39.61.61,0,0,0,.51,0,.85.85,0,0,0,.46-.44,1.42,1.42,0,0,1,.88-.58l.33-.11a1.54,1.54,0,0,1,.34-.08l-.48,4.77c0,.16,0,.31-.05.46-.23.42-.49.93-.8,1.53l-1,2c-.39.73-.81,1.43-1.25,2.09a13.83,13.83,0,0,1-1.4,1.77,3.76,3.76,0,0,1-1.49,1,1.95,1.95,0,0,1-.74.09h0a1,1,0,0,1-.73-.59,8.43,8.43,0,0,1-.38-.89,8.59,8.59,0,0,1-.41-1.93c0-.28-.08-.58-.1-.89s0-.62-.07-.91a16.39,16.39,0,0,0,.9-1.88c.36-.85.73-1.79,1.12-2.84s.77-2.14,1.14-3.3.73-2.23,1.06-3.26l.84-2.71.48-1.62c.22-.85.44-1.8.67-2.83a8.4,8.4,0,0,0,.18-2.87,3.41,3.41,0,0,0-.17-.87,2.15,2.15,0,0,0-.78-1,1.37,1.37,0,0,0-1.28-.15,3.12,3.12,0,0,0-1.52,1.43,15.17,15.17,0,0,0-1.35,2.87,35,35,0,0,0-1.14,3.91c-.34,1.44-.64,2.94-.9,4.48s-.47,3.09-.63,4.64-.27,3-.32,4.37a36,36,0,0,0,0,3.64c0,.27,0,.53.06.76a1.16,1.16,0,0,0-.39.06.68.68,0,0,0-.17.1l-.3.18-.32.19-.23.12c-.58.33-1.17.64-1.74.93s-1.17.57-1.78.83q.39-4.58.89-9.13t1.4-9c0-.11.08-.36.19-.75s.22-.79.33-1.22.22-.82.32-1.16a2.56,2.56,0,0,0,.13-.55,1,1,0,0,0-1.52-.69,3.5,3.5,0,0,0-1.6,1.12,10.29,10.29,0,0,0-1.1,1.65c-.63,1.15-1.2,2.32-1.72,3.51s-1,2.38-1.5,3.6-1,2.43-1.45,3.64-1,2.41-1.57,3.6l-1.52,3-.18-.06a7.77,7.77,0,0,0-1.88-.29,5.26,5.26,0,0,0-1.89.28,3.43,3.43,0,0,0-.91.47,3,3,0,0,0-.72.71,2.37,2.37,0,0,0-.41.88,1.75,1.75,0,0,0,.07,1,2.7,2.7,0,0,0,1,1.42,5.24,5.24,0,0,0,1.76.78q-1.23,1.88-2.58,3.7a38.79,38.79,0,0,1-2.81,3.4,22.91,22.91,0,0,1-3,2.7,10.9,10.9,0,0,1-3,1.64,6.61,6.61,0,0,1-2.18.37,5.54,5.54,0,0,1-2-.35,5.07,5.07,0,0,1-1.7-1.1,4.68,4.68,0,0,1-1.15-1.9,5,5,0,0,1-.24-2,5.62,5.62,0,0,1,.51-2,5.48,5.48,0,0,1,1.18-1.65,4.77,4.77,0,0,1,1.76-1.06,3.44,3.44,0,0,1,1.35-.17,3.38,3.38,0,0,0,1.32-.17,1.15,1.15,0,0,0,.58-.44.77.77,0,0,0,.08-.71,1,1,0,0,0-.65-.61A3.26,3.26,0,0,0,244,107a7.76,7.76,0,0,0-1.18.14,6.74,6.74,0,0,0-.92.23,6.06,6.06,0,0,0-2.43,1.53,7.47,7.47,0,0,0-1.55,2.38,8.37,8.37,0,0,0-.6,2.83,7.9,7.9,0,0,0,.41,2.87,6,6,0,0,0,3.7,3.88,7.13,7.13,0,0,0,2.67.43,9.73,9.73,0,0,0,2.83-.52,11.29,11.29,0,0,0,3.47-2,30.11,30.11,0,0,0,3.34-3.19,43.45,43.45,0,0,0,3.06-3.85c1-1.36,1.84-2.68,2.62-3.94a17,17,0,0,0,2.66,0c.91-.08,1.77-.19,2.59-.33a8.07,8.07,0,0,1,1.55,2.54,8.39,8.39,0,0,1,.35,1.44,6.94,6.94,0,0,0,.33,1.4.85.85,0,0,0,1.19.65.84.84,0,0,0,.49-.47,3.65,3.65,0,0,0,.23-.79,4.92,4.92,0,0,0,.09-.86c0-.28,0-.53,0-.72l.41-4.5c.52-.2,1.12-.46,1.8-.77s1.3-.62,1.88-.94a9.72,9.72,0,0,0,1.42-.93.52.52,0,0,0,.11-.1,5.6,5.6,0,0,0,.17.63,5.73,5.73,0,0,0,.59,1.22,3.76,3.76,0,0,0,.89.93,2.71,2.71,0,0,0,1.13.48,2.68,2.68,0,0,0,1.35-.13,3.33,3.33,0,0,0,.84-.43,6.64,6.64,0,0,0,.71-.58,10.66,10.66,0,0,0,.78-1c.35-.5.75-1.08,1.17-1.73s.86-1.36,1.31-2.1l.41-.71c0,.12,0,.24-.05.36-.2,1.46-.45,2.83-.74,4.11a20,20,0,0,1-1.07,3.39l-.34.56c-.13.26-.27.53-.43.82a1,1,0,0,0-.08.89,1,1,0,0,0,.47.55.91.91,0,0,0,.74,0,1.19,1.19,0,0,0,.6-.55,8.13,8.13,0,0,0,.52-1,10.19,10.19,0,0,0,.4-1.08c.1-.36.19-.65.25-.86l.13-.45c.12-.2.24-.4.34-.6a6.65,6.65,0,0,1,.36-.56c.2-.29.55-.76,1.06-1.41l1.7-2.24c.64-.83,1.3-1.7,2-2.63s1.3-1.78,1.85-2.6,1-1.53,1.31-2.14a4.55,4.55,0,0,0,.32-.71c.07-.12.14-.25.21-.4a21.93,21.93,0,0,0,.9-2.22c.3-.88.59-1.84.88-2.87s.54-2,.76-3a5.07,5.07,0,0,0,1.24.1c.43,0,.85,0,1.26,0-.16.87-.37,1.9-.63,3.1s-.47,2.41-.66,3.62-.33,2.34-.39,3.38A6.46,6.46,0,0,0,297,98a2,2,0,0,0,1.17,1.34,2.45,2.45,0,0,0,1.75,0,2.83,2.83,0,0,0,1.07-.64,9.48,9.48,0,0,0,.86-.94c.11-.15.31-.46.59-.93s.61-1,1-1.64.74-1.29,1.12-2c.23-.42.44-.83.65-1.21a7.59,7.59,0,0,0,.22.78,4.56,4.56,0,0,0,2.19,2.71,4.2,4.2,0,0,0,3.47.17,8,8,0,0,0,2.66-1.58,22.84,22.84,0,0,0,2.49-2.52,31.12,31.12,0,0,0,2.18-2.88c.65-1,1.2-1.88,1.63-2.68.07-.1.17-.25.28-.43s.21-.39.31-.59l.11-.27c.07-.11.15-.23.23-.37a14.88,14.88,0,0,0,.8-1.71c.28-.69.56-1.45.86-2.29s.56-1.69.81-2.56c.6.74,1.22,1.49,1.87,2.24a7.76,7.76,0,0,1,1.46,2.61,5.77,5.77,0,0,1,.31,1.92,6,6,0,0,1-.31,1.94,4.86,4.86,0,0,1-1,1.68,3.69,3.69,0,0,1-1.64,1.08,3.2,3.2,0,0,1-1.3.14,1.43,1.43,0,0,1-1.12-.61,1.3,1.3,0,0,0,.43-.47.81.81,0,0,0,0-.7,1.08,1.08,0,0,0-.68-.7,1.5,1.5,0,0,0-1,0,1.2,1.2,0,0,0-.86.92,2.44,2.44,0,0,0,.08,1.29,2.93,2.93,0,0,0,.76,1.24,3.33,3.33,0,0,0,1.15.7,4,4,0,0,0,1.36.22,4.28,4.28,0,0,0,1.42-.24,5.73,5.73,0,0,0,2.65-1.83c.37-.34.81-.78,1.32-1.33s1-1.15,1.55-1.8,1-1.32,1.55-2,.95-1.32,1.33-1.92c.22-.35.41-.68.57-1l-.8,5.6,0,0h0a1.22,1.22,0,0,0-.06.3l0,.17a.83.83,0,0,0,.45.49.85.85,0,0,0,.66.06.79.79,0,0,0,.33-.23,1.68,1.68,0,0,0,.18-.47c.07-.24.13-.49.19-.77s.11-.53.16-.78.09-.44.12-.59q.21-.8.6-2c.26-.83.55-1.72.89-2.68s.71-1.93,1.13-2.91.87-1.89,1.34-2.74a11.85,11.85,0,0,1,1.49-2.16,3.84,3.84,0,0,1,1.58-1.16,1.94,1.94,0,0,1,.76-.09.59.59,0,0,1,.54.46,3.68,3.68,0,0,1,.14,1.67,5.88,5.88,0,0,1-.5,1.74,5.28,5.28,0,0,1-1,1.5,3.53,3.53,0,0,1-1.38.91,1.28,1.28,0,0,1-.54.08,1.7,1.7,0,0,1-.37-.08,2.11,2.11,0,0,1-.3-.1.51.51,0,0,0-.32,0,1.06,1.06,0,0,0-.63.76,5.67,5.67,0,0,0-.24,1.37,9.22,9.22,0,0,0,0,1.49,5,5,0,0,0,.17,1,4.5,4.5,0,0,0,.76,1.42,3.78,3.78,0,0,0,1.17,1,3.87,3.87,0,0,0,1.42.45,3.6,3.6,0,0,0,1.59-.2,5.39,5.39,0,0,0,2.31-1.53A23.77,23.77,0,0,0,347,81c.16-.24.46-.71.89-1.41s.89-1.45,1.34-2.26l.12-.22a7.38,7.38,0,0,0,.3,1.21,4.74,4.74,0,0,0,.73,1.39,4.12,4.12,0,0,0,1.11,1,3.65,3.65,0,0,0,1.41.49,3.48,3.48,0,0,0,1.6-.18,5.54,5.54,0,0,0,2-1.24,11.32,11.32,0,0,0,1.7-2.07,14.83,14.83,0,0,0,1.35-2.6,15.77,15.77,0,0,0,.87-2.82,14.54,14.54,0,0,0,.31-2.71,6.88,6.88,0,0,0-.31-2.31A4.43,4.43,0,0,0,359.75,66.05Zm-22.49.69c.31-1.62.64-3.09,1-4.39a23.91,23.91,0,0,1,1.06-3.25,3.3,3.3,0,0,1,1.1-1.6l.23.2a5.34,5.34,0,0,1,0,2.43,27,27,0,0,1-.94,3.47c-.43,1.28-.94,2.62-1.53,4s-1.19,2.79-1.79,4.12Q336.79,69.19,337.26,66.74ZM276.43,92.46c.17-1.14.36-2.28.59-3.44.05-.25.13-.66.25-1.23s.27-1.21.44-1.93.37-1.46.59-2.24.45-1.52.68-2.23a16.87,16.87,0,0,1,.73-1.88,5.6,5.6,0,0,1,.74-1.22,5.45,5.45,0,0,1,0,1.43c-.05.6-.13,1.26-.25,2s-.25,1.51-.41,2.3-.32,1.55-.49,2.25-.32,1.33-.47,1.89-.25,1-.32,1.24a31.75,31.75,0,0,1-1.16,3.33c-.44,1-.87,2.1-1.29,3.16C276.14,94.73,276.26,93.59,276.43,92.46Zm-18,13.86-.55-.18a3.13,3.13,0,0,1-.51-.19,3.58,3.58,0,0,1-.66-.36,1.13,1.13,0,0,1-.47-.59,1.25,1.25,0,0,1,0-.48,1.74,1.74,0,0,1,.9-.67,3.38,3.38,0,0,1,1.31-.16,5.81,5.81,0,0,1,1.41.29l-.7,1.15C258.89,105.52,258.65,105.92,258.41,106.32Zm3.47.24a13.61,13.61,0,0,1-1.69,0c.42-.65.8-1.29,1.13-1.91a9.59,9.59,0,0,1,1.21.78,12.15,12.15,0,0,1,1.1.94C263,106.46,262.46,106.52,261.88,106.56Zm5.36,2.22c-.15-.3-.31-.58-.45-.86s-.31-.54-.48-.8l1.15-.31Zm.34-3.39-.07,0-.93.29-1,.28a10.83,10.83,0,0,0-3.3-3q1.17-2.17,2.17-4.41c.66-1.49,1.32-3,2-4.5.12-.29.31-.75.56-1.38s.56-1.34.89-2.1.69-1.54,1.08-2.35.76-1.52,1.11-2.15c-.21,1.2-.43,2.6-.66,4.18s-.45,3.25-.66,5-.41,3.47-.61,5.24S267.74,103.86,267.58,105.39Zm39.8-18.21a12.16,12.16,0,0,1,1.05-2.62A9.15,9.15,0,0,1,310,82.4a5.09,5.09,0,0,1,2-1.28,1.89,1.89,0,0,1,.68-.11.94.94,0,0,1,.64.31l.14.31a3.85,3.85,0,0,1,0,2.4,8.45,8.45,0,0,1-1.14,2.34,9.05,9.05,0,0,1-1.85,2,6.86,6.86,0,0,1-2.08,1.19,3.19,3.19,0,0,1-.79.17,3.17,3.17,0,0,0-.72.14A11.73,11.73,0,0,1,307.38,87.18ZM359,71.13a12.61,12.61,0,0,1-.68,3.38,9.61,9.61,0,0,1-1.62,2.95,5.29,5.29,0,0,1-2.45,1.79,2,2,0,0,1-1.75-.08,2.46,2.46,0,0,1-1-1.41,8.75,8.75,0,0,1-.36-3,13,13,0,0,1,.6-3.5,10.91,10.91,0,0,1,1.51-3.08,4.88,4.88,0,0,1,2.39-1.84,2.76,2.76,0,0,1,.93-.15,2.9,2.9,0,0,1,.78.14l0,.07a1,1,0,0,0,.28.47l.34.29a2.93,2.93,0,0,1,.36.35,1.66,1.66,0,0,1,.34.63A8.22,8.22,0,0,1,359,71.13Z" transform="translate(3141.36 -49.88)" style="fill:#020202"/><path d="M336.19,101.26a8.69,8.69,0,0,0-.88-1.27c-.12-.14-.24-.28-.37-.41a2.46,2.46,0,0,1-.34-.44,9.64,9.64,0,0,0,.2-1,1.26,1.26,0,0,0,0-.56.37.37,0,0,0-.27-.27.61.61,0,0,0-.4,0,.77.77,0,0,0-.43.3,1.17,1.17,0,0,0-.22.48,1.83,1.83,0,0,0,0,.57,1.92,1.92,0,0,0,.1.51,2.91,2.91,0,0,0,.24.53c-.14.44-.31.91-.5,1.39l-.55,1.37c-.16.42-.3.77-.4,1.06,0,.07-.05.13-.07.19l-.06.1c-.12.21-.26.48-.43.81s-.35.67-.56,1-.42.74-.64,1.08a6.1,6.1,0,0,1-.7.9,1.73,1.73,0,0,1-.7.5.2.2,0,0,1-.3-.13,2.88,2.88,0,0,1-.11-1,11.05,11.05,0,0,1,.15-1.33c.08-.47.18-.94.29-1.43s.22-.92.32-1.32.18-.76.24-1a1.21,1.21,0,0,0,.05-.56.45.45,0,0,0-.24-.28.41.41,0,0,0-.36,0,.31.31,0,0,0-.12.1.55.55,0,0,1-.22.14,1.13,1.13,0,0,1-.68,0,1.57,1.57,0,0,1-.59-.3,2.88,2.88,0,0,0,0-1.23.6.6,0,0,0-.35-.39.72.72,0,0,0-.52,0,.81.81,0,0,0-.55.57,1.31,1.31,0,0,0,0,.81,1.8,1.8,0,0,0,.51.82,12.25,12.25,0,0,1-.53,2.35,17.43,17.43,0,0,1-.9,2.2h0l0,0-.5.86c-.2.35-.45.74-.72,1.15a13,13,0,0,1-.89,1.21,6.89,6.89,0,0,1-1,1,3.87,3.87,0,0,1-1.17.67,2.09,2.09,0,0,1-1.25.07,1.24,1.24,0,0,1-.82-.89l-.06-.2a1.55,1.55,0,0,1,0-.21.69.69,0,0,0,.35,0l.32-.11a4.78,4.78,0,0,0,1.38-.8,8,8,0,0,0,1.32-1.34,6,6,0,0,0,.89-1.59,2.31,2.31,0,0,0,.06-1.55,1.41,1.41,0,0,0-.65-.82,1.28,1.28,0,0,0-1,0,2.65,2.65,0,0,0-.8.45,8.4,8.4,0,0,0-.69.62,9.27,9.27,0,0,0-1,1.25,7.16,7.16,0,0,0-.78,1.47,6.08,6.08,0,0,0-.36,1.44,1.09,1.09,0,0,1-.08.15,8.81,8.81,0,0,1-1.23,1.78,13,13,0,0,1-1.57,1.5,8.93,8.93,0,0,0,.34-1.18,7.46,7.46,0,0,0,.19-1.2,7,7,0,0,0,0-1.12,4.6,4.6,0,0,0-.19-1,2.23,2.23,0,0,0-.82-1.11,1.43,1.43,0,0,0-1.34-.15,2,2,0,0,0-.54.28,2.78,2.78,0,0,0-.42.42,4.74,4.74,0,0,0-.67,1,10.37,10.37,0,0,0-.5,1.06q.09-.86.18-1.65c.07-.54.12-1,.17-1.48s.07-.84.09-1.17,0-.57,0-.73v0h0a.45.45,0,0,0,0-.17c0-.11-.1-.18-.2-.19a.61.61,0,0,0-.3,0s-.07.11-.1.27-.07.11-.1.31-.07.4-.11.62l-.49,2.34a18,18,0,0,1-.68,2.22c-.27.7-.54,1.43-.8,2.18a.2.2,0,0,0,0,.11l-.34.7-.5,1.06c-.19.38-.38.74-.58,1.08a7.07,7.07,0,0,1-.58.88,1.31,1.31,0,0,1-.56.46.3.3,0,0,1-.26,0l-.06-.06a.18.18,0,0,1-.05-.07,2.33,2.33,0,0,1,0-1.31c.12-.53.27-1.07.44-1.64s.33-1.13.44-1.67a2.52,2.52,0,0,0,0-1.37,1.19,1.19,0,0,0-.57-.7,1.12,1.12,0,0,0-.9,0,1.59,1.59,0,0,0-.62.45,7.4,7.4,0,0,0-.64.86,11.24,11.24,0,0,0-.62,1.16c-.21.44-.41.88-.6,1.34a5.91,5.91,0,0,0,0-.92,2.44,2.44,0,0,0-.12-.74,1.41,1.41,0,0,0-.54-.72,1,1,0,0,0-.89-.08,1.38,1.38,0,0,0-.55.41,5.59,5.59,0,0,0-.58.79,11.25,11.25,0,0,0-.58,1.06c-.2.4-.39.82-.58,1.26a9.37,9.37,0,0,0,.09-1,1.49,1.49,0,0,0-.06-.64.67.67,0,0,0-.35-.44.67.67,0,0,0-.56,0,1.17,1.17,0,0,0-.43.39,7.91,7.91,0,0,0-.57.81c-.2.32-.41.66-.61,1s-.39.71-.54,1a8.77,8.77,0,0,0-.37.84.7.7,0,0,0-.06.17h0c-.13.22-.28.5-.45.82l-.52,1.07a11.1,11.1,0,0,1-.59,1.08,5.85,5.85,0,0,1-.65.89,1.5,1.5,0,0,1-.65.5.27.27,0,0,1-.28,0,.51.51,0,0,1-.18-.26,2.89,2.89,0,0,1-.09-1c0-.44.06-.91.13-1.41s.16-1,.26-1.53.2-1,.28-1.36c0-.06,0-.14.06-.23a2.68,2.68,0,0,1,.07-.27,1.27,1.27,0,0,0,0-.26.53.53,0,0,0,0-.18.34.34,0,0,0-.2-.22.47.47,0,0,0-.12,0h-.09c-.09,0-.17.12-.25.27l-.06.13a1.06,1.06,0,0,0-.43-.19,1.93,1.93,0,0,0-.54,0,4.52,4.52,0,0,0-.53.06,3.53,3.53,0,0,0-.41.1A3.66,3.66,0,0,0,289,115a6.45,6.45,0,0,0-1,1.1,7.93,7.93,0,0,0-.84,1.38,8.48,8.48,0,0,0-.59,1.5,4.34,4.34,0,0,0-.14.6l-.36.64c-.18.33-.39.69-.63,1.09a11.37,11.37,0,0,1-.77,1.14,7.53,7.53,0,0,1-.89,1,2.52,2.52,0,0,1-1,.6,1.28,1.28,0,0,1-1.05-.06,1.42,1.42,0,0,1-.66-.83,3.11,3.11,0,0,1-.08-1.48,6.94,6.94,0,0,1,.52-1.68,6.39,6.39,0,0,1,.93-1.48,2.9,2.9,0,0,1,1.2-.87,1.17,1.17,0,0,1,.66,0h0l.22.06.2.07c0,.13,0,.29,0,.49a1.3,1.3,0,0,0,0,.39.36.36,0,0,0,.19.21.41.41,0,0,0,.29,0,.51.51,0,0,0,.27-.24,2.2,2.2,0,0,0,.18-.41,3.11,3.11,0,0,0,.08-.44.87.87,0,0,0,0-.38.93.93,0,0,0-.37-.48,2.3,2.3,0,0,0-.6-.25,2.21,2.21,0,0,0-.68,0,1.94,1.94,0,0,0-.58.1,3.56,3.56,0,0,0-1.51,1.09,7.74,7.74,0,0,0-1.18,1.86,8,8,0,0,0-.64,2.11,3.73,3.73,0,0,0,.09,1.85,2.18,2.18,0,0,0,.44.77A2.13,2.13,0,0,0,282,125a2,2,0,0,0,.88-.11,2.76,2.76,0,0,0,1.18-.76,10.52,10.52,0,0,0,.93-1.09l.29-.42.45-.71c.17-.26.34-.54.52-.83a3.15,3.15,0,0,0,.13.61,2.13,2.13,0,0,0,.85,1.1,1.53,1.53,0,0,0,1.36.12,2.81,2.81,0,0,0,1.31-1,8.94,8.94,0,0,0,1-1.81,2.47,2.47,0,0,0,.1.61,1.5,1.5,0,0,0,.59.76,1,1,0,0,0,.92.14,1.58,1.58,0,0,0,.6-.48,8.47,8.47,0,0,0,.76-1c.27-.38.53-.78.8-1.22s.5-.84.7-1.22a10.43,10.43,0,0,0,.47-1,1.58,1.58,0,0,0,.11-.33c0-.07.08-.13.12-.21.19-.36.4-.78.62-1.24s.45-.91.68-1.34a3.18,3.18,0,0,1,.69-.91,5.14,5.14,0,0,1-.09,1c-.06.42-.16.88-.27,1.37s-.24,1-.38,1.53-.26,1-.37,1.47-.2.84-.26,1.18a1.71,1.71,0,0,0,0,.67.38.38,0,0,0,.15.2.29.29,0,0,0,.26,0s.1-.12.19-.32t.06,0s0,0,0-.06a.46.46,0,0,1,0-.09c0-.09.08-.22.12-.37s.1-.31.15-.5c.15-.39.31-.83.49-1.33s.35-1,.55-1.55.39-1.05.59-1.56.41-1,.62-1.39a7.21,7.21,0,0,1,.6-1,1.26,1.26,0,0,1,.53-.5.33.33,0,0,1,.29,0,.5.5,0,0,1,.19.24,2.27,2.27,0,0,1,.06.88,10.69,10.69,0,0,1-.15,1.26q-.12.69-.27,1.44c-.11.5-.2,1-.28,1.41s-.14.83-.19,1.16a1.84,1.84,0,0,0,0,.68.23.23,0,0,0,.19.15.48.48,0,0,0,.24,0,.27.27,0,0,0,.18-.19q0-.15.09-.27c.1-.33.22-.74.37-1.22s.33-1,.53-1.52.42-1.07.64-1.62a15.21,15.21,0,0,1,.74-1.57,10.4,10.4,0,0,1,.81-1.3,3.59,3.59,0,0,1,.85-.85.11.11,0,0,1,.08,0s.06,0,.07,0h0a1.29,1.29,0,0,1,.12.75,9,9,0,0,1-.17,1c-.09.37-.19.76-.31,1.17s-.23.8-.31,1.19a9.94,9.94,0,0,0-.19,1.11,2.13,2.13,0,0,0,.08.9,1.16,1.16,0,0,0,1.49.76,1.4,1.4,0,0,0,.46-.26,1.67,1.67,0,0,0,.36-.39,3.65,3.65,0,0,0,.33-.55l.48-.92.54-1.08c.18-.37.35-.72.5-1s.22-.48.3-.67a.51.51,0,0,0,.12-.22c.05-.17.11-.31.15-.43l.43-1q-.12.89-.24,1.8c-.08.61-.17,1.23-.25,1.84s-.37,1.38-.54,2.09-.3,1.38-.42,2-.19,1.16-.24,1.63a2.89,2.89,0,0,0,0,1,.8.8,0,0,0,.2.25.33.33,0,0,0,.28.11l.11,0,.09,0,.1,0h0l.05,0a.85.85,0,0,0,.31-.49q.08-.31.12-.6c.14-.82.28-1.64.4-2.44s.23-1.63.34-2.47c0-.19.07-.5.13-.93s.11-.94.18-1.51.36-1.27.57-1.86a15.37,15.37,0,0,1,.65-1.59,6.8,6.8,0,0,1,.71-1.17,1.68,1.68,0,0,1,.77-.59.59.59,0,0,1,.67.11,1.61,1.61,0,0,1,.38.63,4.15,4.15,0,0,1,.19,1.3,7.3,7.3,0,0,1-.16,1.53,6.12,6.12,0,0,1-.49,1.46,3.24,3.24,0,0,1-.84,1.12.28.28,0,0,1-.12.08,1.21,1.21,0,0,0-.2.15.5.5,0,0,1-.17.1l-.18.06-.08,0v0a.57.57,0,0,0-.81-.4.68.68,0,0,0-.44.4.89.89,0,0,0,0,.6.75.75,0,0,0,.27.37,1,1,0,0,0,.4.15,1.36,1.36,0,0,0,.45,0,2,2,0,0,0,.44-.11,1.55,1.55,0,0,0,.32-.14l.31-.18h0a2.91,2.91,0,0,0,.79-.52c.35-.29.74-.64,1.15-1s.84-.85,1.27-1.32.81-.93,1.15-1.37l.25-.34a5.18,5.18,0,0,0,.14.53,2.39,2.39,0,0,0,1.14,1.41,2.18,2.18,0,0,0,1.81.09,4.3,4.3,0,0,0,1.39-.82,12.5,12.5,0,0,0,1.3-1.32,17.31,17.31,0,0,0,1.13-1.5c.35-.52.63-1,.86-1.4a2.65,2.65,0,0,0,.14-.23,2.85,2.85,0,0,0,.16-.3.78.78,0,0,0,.05-.14,2.46,2.46,0,0,0,.17-.3,8.63,8.63,0,0,0,.47-1.16c.16-.46.31-1,.46-1.49s.28-1.06.4-1.56a3.42,3.42,0,0,0,.65.06,4.68,4.68,0,0,1,.65,0c-.09.45-.19,1-.32,1.61s-.25,1.26-.35,1.89-.17,1.22-.21,1.77a3.6,3.6,0,0,0,.09,1.23,1.08,1.08,0,0,0,.61.7,1.27,1.27,0,0,0,.92,0,1.51,1.51,0,0,0,.56-.33,4.06,4.06,0,0,0,.44-.49,5.25,5.25,0,0,0,.31-.48l.51-.86c.2-.33.39-.67.59-1s.38-.71.54-1,.29-.58.38-.81v0a1.14,1.14,0,0,0,.15-.23,8.56,8.56,0,0,0,.42-.89c.14-.35.29-.75.44-1.19s.3-.88.43-1.33c.31.38.63.77,1,1.16A4.14,4.14,0,0,1,336,103a3.32,3.32,0,0,1,.16,1,3.16,3.16,0,0,1-.17,1,2.38,2.38,0,0,1-.5.87,2,2,0,0,1-.85.57,1.66,1.66,0,0,1-.68.07.78.78,0,0,1-.59-.32.62.62,0,0,0,.23-.25.44.44,0,0,0,0-.36.55.55,0,0,0-.35-.36.75.75,0,0,0-.51,0,.64.64,0,0,0-.45.48,1.17,1.17,0,0,0,0,.67,1.61,1.61,0,0,0,.39.65,1.69,1.69,0,0,0,.6.36,2.13,2.13,0,0,0,.72.12,2.28,2.28,0,0,0,.73-.12,2.88,2.88,0,0,0,1.19-.75,3.74,3.74,0,0,0,.76-1.17,4.47,4.47,0,0,0,.3-1.37,3.78,3.78,0,0,0-.19-1.39A7.54,7.54,0,0,0,336.19,101.26Zm-45.58,18.12a9.13,9.13,0,0,1-.61,1.17,4.87,4.87,0,0,1-.71.91,2.06,2.06,0,0,1-.81.54.88.88,0,0,1-.66,0h0a.7.7,0,0,1-.32-.29,2.09,2.09,0,0,1-.19-.4,3.23,3.23,0,0,1-.08-1.68,6,6,0,0,1,.62-1.82,6.6,6.6,0,0,1,1.11-1.58,3.49,3.49,0,0,1,1.4-.95,1.46,1.46,0,0,1,.68-.07,3,3,0,0,0,.67,0c-.12.41-.23.86-.34,1.36s-.2,1-.27,1.5S290.79,119,290.61,119.38ZM319,107.69a6.46,6.46,0,0,1,.55-1.36,4.78,4.78,0,0,1,.83-1.13,2.84,2.84,0,0,1,1.05-.67,1.12,1.12,0,0,1,.35-.06.53.53,0,0,1,.34.17l.07.16a2,2,0,0,1,0,1.25,3.93,3.93,0,0,1-.59,1.22,4.94,4.94,0,0,1-1,1,3.81,3.81,0,0,1-1.09.62,2.12,2.12,0,0,1-.41.08,1.51,1.51,0,0,0-.38.08A6.5,6.5,0,0,1,319,107.69ZM334.11,98l0-.07" transform="translate(3141.36 -49.88)" style="fill:#020202"/><path d="M300,59.68l-.6-9.45c0-.52-.84-.43-.81.09.21,3.15.41,6.31.61,9.46,0,.52.84.42.8-.1" transform="translate(3141.36 -49.88)" style="fill:#020202"/><path d="M293.76,59.88c-.75-1.11-1.35-2.32-2.09-3.44-.29-.43-.94.05-.65.48.74,1.12,1.34,2.33,2.09,3.44.29.43.94,0,.65-.48" transform="translate(3141.36 -49.88)" style="fill:#020202"/><path d="M286.17,63.6a33.74,33.74,0,0,0-5.2-5.87c-.38-.36-.88.27-.51.63a32.76,32.76,0,0,1,5.06,5.72c.28.44.93,0,.65-.48" transform="translate(3141.36 -49.88)" style="fill:#020202"/><path d="M277.73,68.32c-2.72-1.81-5.29-3.83-8.09-5.5-.45-.27-.78.47-.33.74,2.74,1.63,5.25,3.62,7.91,5.39.43.28.94-.34.51-.63" transform="translate(3141.36 -49.88)" style="fill:#020202"/><path d="M290.69,54.9c-.15-.27-.3-.54-.44-.82-.22-.46-1-.17-.75.3s.35.67.54,1a.4.4,0,1,0,.65-.48" transform="translate(3141.36 -49.88)" style="fill:#020202"/><path d="M268.65,62.11a3.53,3.53,0,0,1-.81-.58c-.39-.35-.89.28-.51.63a4.36,4.36,0,0,0,1,.68c.47.23.8-.51.33-.73" transform="translate(3141.36 -49.88)" style="fill:#020202"/><path d="M280,56.64c-.34-.3-.71-.58-1.08-.85s-.93.32-.51.63.74.55,1.09.85.89-.28.5-.63" transform="translate(3141.36 -49.88)" style="fill:#020202"/><path d="M305.29,59.55c.6-1.2,1-2.47,1.64-3.68.23-.47-.51-.79-.74-.33-.59,1.21-1,2.48-1.63,3.68-.24.47.5.8.73.33" transform="translate(3141.36 -49.88)" style="fill:#020202"/><path d="M313.29,62.27a33.48,33.48,0,0,1,4.3-6.31c.33-.41-.3-.92-.62-.51a33.91,33.91,0,0,0-4.41,6.49.4.4,0,0,0,.73.33" transform="translate(3141.36 -49.88)" style="fill:#020202"/><path d="M322.08,66.11c2.44-2.11,4.7-4.42,7.25-6.42.4-.31-.07-1-.48-.65-2.55,2-4.81,4.31-7.25,6.42-.39.34.08,1,.48.65" transform="translate(3141.36 -49.88)" style="fill:#020202"/><path d="M307.7,54.22c.13-.32.26-.64.37-1,.17-.49-.57-.82-.74-.33-.11.33-.23.65-.37,1-.2.48.54.81.74.33" transform="translate(3141.36 -49.88)" style="fill:#020202"/><path d="M330.21,58.86a4,4,0,0,0,.89-.81c.33-.4-.3-.9-.63-.51a3.62,3.62,0,0,1-.74.67c-.43.29,0,.94.48.65" transform="translate(3141.36 -49.88)" style="fill:#020202"/><path d="M318.45,54.75c.28-.32.58-.63.89-.92a.4.4,0,1,0-.48-.65c-.36.34-.71.69-1,1.06s.29.9.63.51" transform="translate(3141.36 -49.88)" style="fill:#020202"/><path d="M348.09,128.17a0,0,0,0,0,0,0c-.43.55,0,1.24.65,1.44a1,1,0,0,0,1.3-.76c.11-1-1.53-1.84-1.94-.71m1.41.5c.11.32-.24.52-.52.5a.68.68,0,0,1-.49-.27.54.54,0,0,1-.07-.36.32.32,0,0,0,.09-.08c.16-.2.26-.34.53-.27a.78.78,0,0,1,.46.48" transform="translate(3141.36 -49.88)" style="fill:#020202"/><path d="M351.79,122.53a1.25,1.25,0,0,0-.85.09.59.59,0,0,0-.35.54.81.81,0,0,0-.09.61,1.13,1.13,0,0,0,.54.72,1,1,0,0,0,1.5-.53,1.1,1.1,0,0,0-.75-1.43m.24,1.17a.44.44,0,0,1-.68.32c-.3-.15-.29-.44-.31-.72,0-.07.06-.16.13-.19a1,1,0,0,1,.45,0,.5.5,0,0,1,.41.62" transform="translate(3141.36 -49.88)" style="fill:#020202"/><path d="M352.09,120.44c-.29-.08-.41.18-.73,0a3,3,0,0,0-1.67-.61c-.46.06-.73.71-.81,1.13a7.54,7.54,0,0,0-2.76,0c-.62.22-.85.78-1.12,1.35-.53,1.08-1,2.18-1.58,3.25-.37.73-1.23,1.66-1.17,2.53,0,.48.64.69,1,.89.94.53,2,.93,2.87,1.5s2,1,2.15-.39c0,0,0,0,0,0a.09.09,0,0,0,0-.1.78.78,0,0,0-.25-.32,1,1,0,0,1-.38-1,1.53,1.53,0,0,1,1.77-1.28h.05a.11.11,0,0,0,.16,0,7.58,7.58,0,0,1,1.28-2.18.16.16,0,0,0,0-.24l0,0a1.5,1.5,0,0,1-.64-1.67,1.33,1.33,0,0,1,.82-.93c.37-.15.79.1,1.16.08a.15.15,0,0,0,.14-.2l0,0c.16-.25.7-1.06.39-1.34a1.4,1.4,0,0,0-.62-.28M345.6,123a2.11,2.11,0,0,1,1-1.27,4.16,4.16,0,0,1,1.41-.07c.48,0-.17.8-.31,1.06a6.87,6.87,0,0,0-.46,1.08,17.78,17.78,0,0,1-1.64-.8" transform="translate(3141.36 -49.88)" style="fill:#020202"/><path d="M297.42,156.62c-.54,0-1.07-.08-1.61-.14a.46.46,0,0,0-.49.4.45.45,0,0,0,.4.49c.55,0,1.09.1,1.64.13h0a.45.45,0,0,0,0-.89Z" transform="translate(3141.36 -49.88)" style="fill:#020202"/><path d="M294.2,156.3l-1.22-.17-.38-.06a.45.45,0,0,0-.51.37.46.46,0,0,0,.37.51l.39.06,1.24.18h.05a.44.44,0,0,0,.45-.39A.46.46,0,0,0,294.2,156.3Z" transform="translate(3141.36 -49.88)" style="fill:#020202"/><path d="M300.65,156.74l-1.62,0a.43.43,0,0,0-.46.43.45.45,0,0,0,.43.46l1.64,0h0a.45.45,0,1,0,0-.89Z" transform="translate(3141.36 -49.88)" style="fill:#020202"/><path d="M264.13,141.82a.45.45,0,0,0-.63,0,.44.44,0,0,0,0,.63l1.19,1.13a.46.46,0,0,0,.3.12.41.41,0,0,0,.33-.15.44.44,0,0,0,0-.63C264.91,142.57,264.51,142.2,264.13,141.82Z" transform="translate(3141.36 -49.88)" style="fill:#020202"/><path d="M261.88,139.5a.45.45,0,0,0-.66.6c.37.41.75.81,1.13,1.2a.43.43,0,0,0,.32.14.48.48,0,0,0,.31-.13.45.45,0,0,0,0-.63C262.61,140.29,262.24,139.9,261.88,139.5Z" transform="translate(3141.36 -49.88)" style="fill:#020202"/><path d="M259.78,137.05a.46.46,0,0,0-.63-.07.44.44,0,0,0-.06.63q.51.63,1.05,1.26a.43.43,0,0,0,.62,0,.44.44,0,0,0,.05-.63C260.46,137.88,260.11,137.47,259.78,137.05Z" transform="translate(3141.36 -49.88)" style="fill:#020202"/><path d="M273,148.79c-.45-.29-.91-.58-1.35-.88a.45.45,0,0,0-.5.74l1.38.89a.44.44,0,0,0,.24.07.47.47,0,0,0,.38-.21A.44.44,0,0,0,273,148.79Z" transform="translate(3141.36 -49.88)" style="fill:#020202"/><path d="M267.76,145c-.42-.34-.84-.68-1.25-1a.45.45,0,0,0-.58.68c.42.36.84.71,1.27,1a.42.42,0,0,0,.28.1.45.45,0,0,0,.28-.79Z" transform="translate(3141.36 -49.88)" style="fill:#020202"/><path d="M257.83,134.47a.44.44,0,0,0-.62-.1.45.45,0,0,0-.11.62l1,1.32a.44.44,0,0,0,.36.18.46.46,0,0,0,.27-.09.46.46,0,0,0,.08-.63C258.46,135.34,258.14,134.91,257.83,134.47Z" transform="translate(3141.36 -49.88)" style="fill:#020202"/><path d="M256.08,131.84a.45.45,0,0,0-.76.47c.28.45.56.89.85,1.32a.45.45,0,0,0,.37.2.39.39,0,0,0,.25-.08.44.44,0,0,0,.13-.61C256.63,132.71,256.35,132.28,256.08,131.84Z" transform="translate(3141.36 -49.88)" style="fill:#020202"/><path d="M275.82,150.41l-1.41-.79a.44.44,0,1,0-.44.77l1.43.8a.41.41,0,0,0,.21.05.44.44,0,0,0,.21-.83Z" transform="translate(3141.36 -49.88)" style="fill:#020202"/><path d="M284.74,154.2l-1.53-.51a.44.44,0,0,0-.57.27.45.45,0,0,0,.27.57l1.56.52.14,0a.45.45,0,0,0,.13-.87Z" transform="translate(3141.36 -49.88)" style="fill:#020202"/><path d="M291,155.79c-.53-.1-1.06-.2-1.58-.32a.45.45,0,0,0-.19.87c.53.11,1.06.23,1.6.33h.09a.44.44,0,0,0,.43-.36A.45.45,0,0,0,291,155.79Z" transform="translate(3141.36 -49.88)" style="fill:#020202"/><path d="M287.86,155.09c-.53-.13-1.05-.27-1.57-.42a.45.45,0,1,0-.24.86l1.59.43h.11a.44.44,0,0,0,.43-.33A.46.46,0,0,0,287.86,155.09Z" transform="translate(3141.36 -49.88)" style="fill:#020202"/><path d="M281.69,153.12c-.5-.19-1-.4-1.5-.61a.45.45,0,0,0-.58.24.44.44,0,0,0,.23.58l1.53.62a.44.44,0,1,0,.32-.83Z" transform="translate(3141.36 -49.88)" style="fill:#020202"/><path d="M278.72,151.85c-.49-.22-1-.46-1.46-.7a.45.45,0,0,0-.4.8c.49.25,1,.48,1.48.71a.43.43,0,0,0,.19,0,.43.43,0,0,0,.4-.25A.46.46,0,0,0,278.72,151.85Z" transform="translate(3141.36 -49.88)" style="fill:#020202"/><path d="M270.33,147c-.44-.31-.87-.63-1.3-1a.44.44,0,0,0-.62.08.46.46,0,0,0,.08.63l1.33,1a.5.5,0,0,0,.26.08.47.47,0,0,0,.36-.19A.45.45,0,0,0,270.33,147Z" transform="translate(3141.36 -49.88)" style="fill:#020202"/><path d="M333.59,145.41l-1.28,1a.44.44,0,0,0-.09.62.42.42,0,0,0,.35.18.44.44,0,0,0,.27-.09c.44-.32.87-.66,1.3-1a.44.44,0,0,0,.08-.62A.45.45,0,0,0,333.59,145.41Z" transform="translate(3141.36 -49.88)" style="fill:#020202"/><path d="M331,147.33l-1.34.9a.45.45,0,0,0-.13.61.46.46,0,0,0,.38.2.44.44,0,0,0,.24-.07l1.36-.91a.45.45,0,0,0-.51-.73Z" transform="translate(3141.36 -49.88)" style="fill:#020202"/><path d="M336.07,143.33c-.4.36-.81.71-1.22,1.06a.43.43,0,0,0-.06.62.43.43,0,0,0,.34.16.45.45,0,0,0,.29-.1c.42-.35.83-.71,1.24-1.07a.45.45,0,0,0,0-.63A.45.45,0,0,0,336.07,143.33Z" transform="translate(3141.36 -49.88)" style="fill:#020202"/><path d="M328.28,149.09c-.46.28-.92.55-1.39.81a.45.45,0,0,0-.17.61.47.47,0,0,0,.61.17c.48-.27.95-.55,1.42-.83a.45.45,0,0,0,.15-.61A.45.45,0,0,0,328.28,149.09Z" transform="translate(3141.36 -49.88)" style="fill:#020202"/><path d="M345.21,133.52a.44.44,0,0,0-.62.12l-.94,1.32a.45.45,0,0,0,.1.62.42.42,0,0,0,.26.08.43.43,0,0,0,.36-.18c.33-.44.64-.89.95-1.34A.45.45,0,0,0,345.21,133.52Z" transform="translate(3141.36 -49.88)" style="fill:#020202"/><path d="M325.47,150.67c-.47.26-1,.5-1.44.73a.45.45,0,0,0-.2.6.44.44,0,0,0,.4.25.32.32,0,0,0,.19-.05c.5-.24,1-.48,1.47-.74a.43.43,0,0,0,.18-.6A.44.44,0,0,0,325.47,150.67Z" transform="translate(3141.36 -49.88)" style="fill:#020202"/><path d="M343.31,136.17a.46.46,0,0,0-.63.08c-.33.43-.66.85-1,1.27a.44.44,0,0,0,.06.62.46.46,0,0,0,.29.1.44.44,0,0,0,.34-.16c.35-.42.69-.85,1-1.28A.46.46,0,0,0,343.31,136.17Z" transform="translate(3141.36 -49.88)" style="fill:#020202"/><path d="M340.62,138.75c-.35.4-.71.8-1.08,1.19a.44.44,0,0,0,0,.63.42.42,0,0,0,.3.12.47.47,0,0,0,.33-.14c.37-.4.74-.8,1.1-1.22a.42.42,0,0,0,0-.62A.44.44,0,0,0,340.62,138.75Z" transform="translate(3141.36 -49.88)" style="fill:#020202"/><path d="M338.42,141.11l-1.16,1.13a.44.44,0,0,0,0,.62.43.43,0,0,0,.33.14.42.42,0,0,0,.3-.12c.4-.37.79-.76,1.18-1.14a.46.46,0,0,0,0-.64A.43.43,0,0,0,338.42,141.11Z" transform="translate(3141.36 -49.88)" style="fill:#020202"/><path d="M310.28,155.91l-1.59.26a.43.43,0,0,0-.37.5.44.44,0,0,0,.43.38h.07l1.62-.27a.44.44,0,1,0-.16-.87Z" transform="translate(3141.36 -49.88)" style="fill:#020202"/><path d="M322.57,152.09l-1.48.64a.44.44,0,0,0-.24.58.45.45,0,0,0,.41.28.33.33,0,0,0,.17,0c.51-.21,1-.42,1.51-.65a.45.45,0,0,0-.37-.81Z" transform="translate(3141.36 -49.88)" style="fill:#020202"/><path d="M307.09,156.38c-.53.06-1.07.12-1.6.16a.45.45,0,0,0-.41.49.44.44,0,0,0,.44.4h0c.55-.05,1.09-.1,1.64-.17a.44.44,0,0,0,.39-.49A.45.45,0,0,0,307.09,156.38Z" transform="translate(3141.36 -49.88)" style="fill:#020202"/><path d="M313.43,155.24c-.52.13-1,.25-1.57.36a.44.44,0,0,0-.34.53.45.45,0,0,0,.43.35h.1l1.59-.37a.44.44,0,0,0,.33-.53A.45.45,0,0,0,313.43,155.24Z" transform="translate(3141.36 -49.88)" style="fill:#020202"/><path d="M319.59,153.33l-1.52.55a.43.43,0,0,0-.27.56.44.44,0,0,0,.42.3l.14,0,1.55-.56a.45.45,0,0,0,.25-.58A.44.44,0,0,0,319.59,153.33Z" transform="translate(3141.36 -49.88)" style="fill:#020202"/><path d="M303.87,156.66c-.53,0-1.07.05-1.61.06a.45.45,0,0,0-.43.46.44.44,0,0,0,.44.43h0c.55,0,1.1,0,1.64-.06a.45.45,0,0,0,.42-.47A.44.44,0,0,0,303.87,156.66Z" transform="translate(3141.36 -49.88)" style="fill:#020202"/><path d="M316.54,154.38c-.51.16-1,.31-1.55.45a.45.45,0,0,0,.12.88l.12,0,1.57-.46a.46.46,0,0,0,.3-.56A.44.44,0,0,0,316.54,154.38Z" transform="translate(3141.36 -49.88)" style="fill:#020202"/><path d="M343.28,132.08a.44.44,0,0,0-.72-.51,49.8,49.8,0,0,1-8.81,9.45c-.83-1-3.49-4.09-6.24-7.17-6.81-7.62-7.49-7.65-7.86-7.66-.18,0-.67,0-9.06,6.53-8.77-12.1-9.94-12-10.46-12-2.3.11-7.89,8.74-9.81,11.84-1.17-1.55-2.21-2.83-3-3.67-1-1-1.36-1.17-1.65-1.17-1.29,0-5.38,3-9.29,6.08l-1.46-2.56h1a.25.25,0,0,0,.16-.37c-.77-1.37-1.55-2.73-2.33-4.1a.17.17,0,0,0-.33,0c-.77,1.37-1.55,2.73-2.33,4.1a.24.24,0,0,0,0,.28.17.17,0,0,0,.14.09h1l-1.53,2.7h0l-1.79-3h.76a.17.17,0,0,0,.12-.26l-1.75-3a.14.14,0,0,0-.25,0l-1.76,3a.16.16,0,0,0,0,.2.13.13,0,0,0,.11.06h.76c-.23.4-.47.8-.71,1.2l-1.65-2.78h.92a.18.18,0,0,0,.12-.27c-.59-1-1.19-2-1.79-3h.76a.18.18,0,0,0,.12-.27l-1.75-3a.14.14,0,0,0-.25,0l-1.76,3a.18.18,0,0,0,0,.2.14.14,0,0,0,.11.07h.76c-.59,1-1.19,2-1.79,3a.16.16,0,0,0,0,.2.11.11,0,0,0,.11.07h.92c-.38.62-.75,1.25-1.12,1.87-.49-.71-1-1.43-1.43-2.16a.44.44,0,0,0-.6-.14.43.43,0,0,0-.14.6c.53.86,1.1,1.71,1.68,2.53-.16.28-.33.56-.5.84a.16.16,0,0,0,0,.2.11.11,0,0,0,.11.07h1.19a50.22,50.22,0,0,0,3.84,4.53l-.05.07a.18.18,0,0,0,0,.21.1.1,0,0,0,.1.06h.26a51.94,51.94,0,0,0,25.29,14.36,49.92,49.92,0,0,0,11.35,1.31,51.9,51.9,0,0,0,18.44-3.43A51.32,51.32,0,0,0,343.28,132.08Zm-24.73-4.27c1.06-.3,1.68,2.94,2.56,3.61.57.43,2.15.51,2.71,1,.74.6,1.38,2.53,2,3.25a68.4,68.4,0,0,0,7.16,6,51.13,51.13,0,0,1-11.43,6.87c-.9-1.35-5.09-7.58-9.49-13.73l-1-1.35C313.52,131.56,316.76,128.32,318.55,127.81Zm-45.4,16.3a50.6,50.6,0,0,1-4.09-3.06h4.09ZM271,136.33l-.33-.56h.65Zm-.37-2.15-.44.78-.46-.78Zm-8.09-1.06v1.37c-.38-.45-.74-.91-1.1-1.37Zm.66,2.15v-2.15h2.46l-.47.79a.16.16,0,0,0,0,.2.11.11,0,0,0,.11.07h.92c-.54.89-1.06,1.79-1.59,2.68C264.11,136.34,263.63,135.81,263.16,135.27Zm4.45,2.72v1.8c-.65-.58-1.28-1.18-1.9-1.8Zm.65,2.38a.31.31,0,0,0,0-.1V138H270l-1.13,2-.55.47ZM290,151.49a50.58,50.58,0,0,1-16.06-6.87.63.63,0,0,0,.13-.41v-3.16h4.51c.13,0,.25-.22.16-.37l-2.79-4.91h1.22a.25.25,0,0,0,.17-.37l-.72-1.26a20.62,20.62,0,0,1,5.73-3.72,5.46,5.46,0,0,1,3.63.67c1,.7,1.78,3.15,2.37,4.2a62.43,62.43,0,0,0,5,6.6c2,2.46,7.7,8.7,9.68,10.86A49,49,0,0,1,290,151.49Zm.92-18.2c2.33-3.76,5.85-10.64,8.06-11,1.06-.16,1.22,3,1.95,3.82.55.61,2.19,1.2,2.8,1.76,1.9,1.73,6.26,8.16,6.26,8.16L320,149.14a51.31,51.31,0,0,1-15.86,3.55C302.92,150.76,295.89,140,290.88,133.29Z" transform="translate(3141.36 -49.88)" style="fill:#020202"/><path d="M395.05,468l0,0c-1-.19-1.58.86-1.44,1.77A1.45,1.45,0,0,0,395.4,471c1.35-.5,1.37-3.17-.35-3m.28,2.15c-.35.35-.84,0-1-.34a1,1,0,0,1,0-.81.77.77,0,0,1,.41-.33.3.3,0,0,0,.16.08c.36.07.6.1.69.5a1.09,1.09,0,0,1-.31.9" transform="translate(3141.36 -49.88)"/><path d="M404.72,469.14a1.91,1.91,0,0,0-.67-1,.86.86,0,0,0-.92-.09,1.2,1.2,0,0,0-.86.29,1.55,1.55,0,0,0-.56,1.14,1.45,1.45,0,0,0,1.66,1.6,1.59,1.59,0,0,0,1.35-1.9m-1.36,1.07c-.49.18-.84-.19-.85-.66s.38-.66.72-.86c.12,0,.25,0,.33,0a1.2,1.2,0,0,1,.33.55.72.72,0,0,1-.53.93" transform="translate(3141.36 -49.88)"/><path d="M407.6,468.17c-.09-.43-.49-.41-.49-.93a4.5,4.5,0,0,0-.3-2.55c-.38-.55-1.39-.47-2-.3-.44-1.09-.91-2.77-1.76-3.57a3.14,3.14,0,0,0-2.47-.56c-1.73,0-3.47.09-5.21.08-1.18,0-2.93-.5-4,.14-.6.35-.47,1.27-.5,1.84-.08,1.56.08,3.13-.06,4.68-.13,1.39,0,3.15,1.9,2.5a.1.1,0,0,0,.05,0,.15.15,0,0,0,.14,0,1.26,1.26,0,0,0,.24-.54,1.46,1.46,0,0,1,1.08-1.16,2.21,2.21,0,0,1,2.8,1.45l0,.06a.15.15,0,0,0,.15.18,11.13,11.13,0,0,1,3.64.23.21.21,0,0,0,.27-.2.18.18,0,0,0,0-.07,2.14,2.14,0,0,1,1.73-1.89,1.88,1.88,0,0,1,1.74.44c.43.38.38,1.07.64,1.55a.23.23,0,0,0,.36,0h0c.43.05,1.82.2,2-.37a2.16,2.16,0,0,0,0-1m-7.52-6.69a3,3,0,0,1,2.29.47,5.92,5.92,0,0,1,1,1.77c.31.62-1.13.3-1.56.29a9.37,9.37,0,0,0-1.68.1,23.13,23.13,0,0,1-.05-2.63" transform="translate(3141.36 -49.88)"/><path d="M258.86,451c-6.12-6.86-6.74-6.88-7.07-6.89-.16,0-.6,0-8.15,5.87-7.89-10.88-8.94-10.83-9.41-10.81-2.07.1-7.09,7.86-8.83,10.64a41.79,41.79,0,0,0-2.69-3.29c-.87-.93-1.23-1.05-1.49-1.05-1.13,0-4.66,2.55-8.1,5.26,0,.12.09.24.14.35a17.77,17.77,0,0,1,5-3.17,4.93,4.93,0,0,1,3.26.6c.88.64,1.59,2.84,2.13,3.79a57,57,0,0,0,4.49,5.93c1.82,2.22,6.93,7.83,8.7,9.77h-.1a2.17,2.17,0,0,1,.23.3,5.12,5.12,0,0,1,.78-.61c-1.46-2.25-7.45-11.38-11.79-17.2,2.1-3.38,5.26-9.57,7.25-9.86,1-.14,1.1,2.73,1.75,3.44.5.55,2,1.08,2.52,1.58,1.71,1.56,5.63,7.35,5.63,7.35l9.08,11.75,0,0,.18.18a5,5,0,0,1,1.18-.84c-.89-1.34-4.6-6.84-8.49-12.28-.3-.41-.58-.82-.87-1.21,2.17-1.68,5.09-4.6,6.7-5.05,1-.27,1.51,2.64,2.3,3.24.52.39,1.94.46,2.44.87.67.54,1.24,2.28,1.81,2.93,1.13,1.31,11,9.69,12.54,10.83.21-.23,0,0,.26-.19C269.19,462.11,261.08,453.47,258.86,451Z" transform="translate(3141.36 -49.88)"/><path d="M217.57,462l-3.14-5.54h1.21c.25,0,.46-.39.31-.67-1-1.69-1.92-3.38-2.88-5.06h1.18c.16,0,.31-.27.2-.47l-2.92-5.12a.21.21,0,0,0-.4,0l-2.92,5.12a.31.31,0,0,0,0,.35.21.21,0,0,0,.19.12h1.26c-1,1.68-1.91,3.37-2.87,5.06a.41.41,0,0,0,0,.5.3.3,0,0,0,.27.17h1.35L205.31,462a.58.58,0,0,0,0,.68.41.41,0,0,0,.36.23h4.94V467a.65.65,0,1,0,1.3,0v-4.06h5.22C217.5,462.93,217.79,462.39,217.57,462Z" transform="translate(3141.36 -49.88)"/><path d="M208.29,463.41l-2.37-4.16h.92c.18,0,.34-.29.22-.51L204.9,455h.88c.13,0,.24-.21.16-.35l-2.19-3.85c-.08-.15-.22-.15-.31,0l-2.19,3.85a.24.24,0,0,0,0,.26.17.17,0,0,0,.14.09h1l-2.16,3.79a.31.31,0,0,0,0,.38.22.22,0,0,0,.2.13h1l-2.37,4.16a.43.43,0,0,0,0,.51.29.29,0,0,0,.26.17h3.71v3.05a.49.49,0,1,0,1,0v-3.05H208A.47.47,0,0,0,208.29,463.41Z" transform="translate(3141.36 -49.88)"/><path d="M201,461.61q-1.36-2.39-2.72-4.78h1.05a.4.4,0,0,0,.26-.58l-2.48-4.36h1c.14,0,.26-.24.17-.41l-2.52-4.42a.19.19,0,0,0-.35,0L193,451.48a.27.27,0,0,0,0,.31.18.18,0,0,0,.15.1h1.1l-2.49,4.36a.39.39,0,0,0,0,.44.27.27,0,0,0,.23.14h1.17q-1.35,2.4-2.72,4.78a.5.5,0,0,0,0,.59.35.35,0,0,0,.31.19h4.26v3.51a.56.56,0,0,0,.56.56.57.57,0,0,0,.57-.56v-3.51h4.5C201,462.39,201.21,461.94,201,461.61Z" transform="translate(3141.36 -49.88)"/><path d="M200.64,468.91a.83.83,0,0,1-.83.82h-2.38a.83.83,0,0,1-.83-.82h0a.83.83,0,0,1,.83-.83h2.38a.83.83,0,0,1,.83.83Z" transform="translate(3141.36 -49.88)"/><path d="M206.11,468.91a.83.83,0,0,1-.83.82H202.9a.83.83,0,0,1-.83-.82h0a.83.83,0,0,1,.83-.83h2.38a.83.83,0,0,1,.83.83Z" transform="translate(3141.36 -49.88)"/><path d="M211.67,468.91a.83.83,0,0,1-.83.82h-2.38a.83.83,0,0,1-.83-.82h0a.83.83,0,0,1,.83-.83h2.38a.83.83,0,0,1,.83.83Z" transform="translate(3141.36 -49.88)"/><path d="M217.06,468.91a.82.82,0,0,1-.82.82h-2.39a.82.82,0,0,1-.82-.82h0a.83.83,0,0,1,.82-.83h2.39a.83.83,0,0,1,.82.83Z" transform="translate(3141.36 -49.88)"/><path d="M222.63,468.91a.83.83,0,0,1-.83.82h-2.38a.83.83,0,0,1-.83-.82h0a.83.83,0,0,1,.83-.83h2.38a.83.83,0,0,1,.83.83Z" transform="translate(3141.36 -49.88)"/><path d="M228.09,468.91a.83.83,0,0,1-.83.82h-2.38a.82.82,0,0,1-.82-.82h0a.83.83,0,0,1,.82-.83h2.38a.83.83,0,0,1,.83.83Z" transform="translate(3141.36 -49.88)"/><path d="M233.65,468.91a.82.82,0,0,1-.82.82h-2.39a.82.82,0,0,1-.82-.82h0a.83.83,0,0,1,.82-.83h2.39a.83.83,0,0,1,.82.83Z" transform="translate(3141.36 -49.88)"/><path d="M239.05,468.91a.83.83,0,0,1-.83.82h-2.38a.83.83,0,0,1-.83-.82h0a.83.83,0,0,1,.83-.83h2.38a.83.83,0,0,1,.83.83Z" transform="translate(3141.36 -49.88)"/><path d="M244.61,468.91a.82.82,0,0,1-.82.82H241.4a.82.82,0,0,1-.82-.82h0a.83.83,0,0,1,.82-.83h2.39a.83.83,0,0,1,.82.83Z" transform="translate(3141.36 -49.88)"/><path d="M250.08,468.91a.83.83,0,0,1-.83.82h-2.38a.83.83,0,0,1-.83-.82h0a.83.83,0,0,1,.83-.83h2.38a.83.83,0,0,1,.83.83Z" transform="translate(3141.36 -49.88)"/><path d="M255.64,468.91a.83.83,0,0,1-.83.82h-2.38a.83.83,0,0,1-.83-.82h0a.83.83,0,0,1,.83-.83h2.38a.83.83,0,0,1,.83.83Z" transform="translate(3141.36 -49.88)"/><path d="M261,468.91a.82.82,0,0,1-.82.82h-2.38a.83.83,0,0,1-.83-.82h0a.83.83,0,0,1,.83-.83h2.38a.83.83,0,0,1,.82.83Z" transform="translate(3141.36 -49.88)"/><path d="M266.6,468.91a.83.83,0,0,1-.83.82h-2.38a.83.83,0,0,1-.83-.82h0a.83.83,0,0,1,.83-.83h2.38a.83.83,0,0,1,.83.83Z" transform="translate(3141.36 -49.88)"/><path d="M272.73,468.91a.82.82,0,0,1-.82.82h-2.39a.82.82,0,0,1-.82-.82h0a.83.83,0,0,1,.82-.83h2.39a.83.83,0,0,1,.82.83Z" transform="translate(3141.36 -49.88)"/><path d="M278.29,468.91a.82.82,0,0,1-.82.82h-2.38a.83.83,0,0,1-.83-.82h0a.83.83,0,0,1,.83-.83h2.38a.83.83,0,0,1,.82.83Z" transform="translate(3141.36 -49.88)"/><path d="M283.69,468.91a.83.83,0,0,1-.83.82h-2.38a.82.82,0,0,1-.82-.82h0a.82.82,0,0,1,.82-.83h2.38a.83.83,0,0,1,.83.83Z" transform="translate(3141.36 -49.88)"/><path d="M289.25,468.91a.82.82,0,0,1-.82.82H286a.82.82,0,0,1-.82-.82h0a.83.83,0,0,1,.82-.83h2.39a.83.83,0,0,1,.82.83Z" transform="translate(3141.36 -49.88)"/><path d="M294.72,468.91a.83.83,0,0,1-.83.82h-2.38a.83.83,0,0,1-.83-.82h0a.83.83,0,0,1,.83-.83h2.38a.83.83,0,0,1,.83.83Z" transform="translate(3141.36 -49.88)"/><path d="M300.28,468.91a.83.83,0,0,1-.83.82h-2.38a.83.83,0,0,1-.83-.82h0a.83.83,0,0,1,.83-.83h2.38a.83.83,0,0,1,.83.83Z" transform="translate(3141.36 -49.88)"/><path d="M305.67,468.91a.82.82,0,0,1-.82.82h-2.38a.83.83,0,0,1-.83-.82h0a.83.83,0,0,1,.83-.83h2.38a.83.83,0,0,1,.82.83Z" transform="translate(3141.36 -49.88)"/><path d="M311.24,468.91a.83.83,0,0,1-.83.82H308a.83.83,0,0,1-.83-.82h0a.83.83,0,0,1,.83-.83h2.38a.83.83,0,0,1,.83.83Z" transform="translate(3141.36 -49.88)"/><path d="M316.7,468.91a.82.82,0,0,1-.82.82h-2.39a.82.82,0,0,1-.82-.82h0a.83.83,0,0,1,.82-.83h2.39a.83.83,0,0,1,.82.83Z" transform="translate(3141.36 -49.88)"/><path d="M322.26,468.91a.82.82,0,0,1-.82.82h-2.38a.83.83,0,0,1-.83-.82h0a.83.83,0,0,1,.83-.83h2.38a.82.82,0,0,1,.82.83Z" transform="translate(3141.36 -49.88)"/><path d="M327.66,468.91a.83.83,0,0,1-.83.82h-2.38a.82.82,0,0,1-.82-.82h0a.83.83,0,0,1,.82-.83h2.38a.83.83,0,0,1,.83.83Z" transform="translate(3141.36 -49.88)"/><path d="M333.22,468.91a.83.83,0,0,1-.83.82H330a.82.82,0,0,1-.82-.82h0a.83.83,0,0,1,.82-.83h2.38a.83.83,0,0,1,.83.83Z" transform="translate(3141.36 -49.88)"/><path d="M338.69,468.91a.83.83,0,0,1-.83.82h-2.38a.83.83,0,0,1-.83-.82h0a.83.83,0,0,1,.83-.83h2.38a.83.83,0,0,1,.83.83Z" transform="translate(3141.36 -49.88)"/><path d="M344.25,468.91a.83.83,0,0,1-.83.82H341a.82.82,0,0,1-.82-.82h0a.83.83,0,0,1,.82-.83h2.38a.83.83,0,0,1,.83.83Z" transform="translate(3141.36 -49.88)"/><path d="M349.64,468.91a.82.82,0,0,1-.82.82h-2.38a.83.83,0,0,1-.83-.82h0a.83.83,0,0,1,.83-.83h2.38a.82.82,0,0,1,.82.83Z" transform="translate(3141.36 -49.88)"/><path d="M355.21,468.91a.83.83,0,0,1-.83.82H352a.83.83,0,0,1-.83-.82h0a.83.83,0,0,1,.83-.83h2.38a.83.83,0,0,1,.83.83Z" transform="translate(3141.36 -49.88)"/><path d="M361.14,468.91a.82.82,0,0,1-.82.82h-2.38a.83.83,0,0,1-.83-.82h0a.83.83,0,0,1,.83-.83h2.38a.83.83,0,0,1,.82.83Z" transform="translate(3141.36 -49.88)"/><path d="M366.7,468.91a.82.82,0,0,1-.82.82H363.5a.83.83,0,0,1-.83-.82h0a.83.83,0,0,1,.83-.83h2.38a.83.83,0,0,1,.82.83Z" transform="translate(3141.36 -49.88)"/><path d="M372.1,468.91a.82.82,0,0,1-.82.82h-2.39a.83.83,0,0,1-.83-.82h0a.83.83,0,0,1,.83-.83h2.39a.83.83,0,0,1,.82.83Z" transform="translate(3141.36 -49.88)"/><path d="M377.66,468.91a.82.82,0,0,1-.82.82h-2.39a.82.82,0,0,1-.82-.82h0a.83.83,0,0,1,.82-.83h2.39a.83.83,0,0,1,.82.83Z" transform="translate(3141.36 -49.88)"/><path d="M383.13,468.91a.83.83,0,0,1-.83.82h-2.38a.83.83,0,0,1-.83-.82h0a.83.83,0,0,1,.83-.83h2.38a.83.83,0,0,1,.83.83Z" transform="translate(3141.36 -49.88)"/><path d="M388.89,468.91a.82.82,0,0,1-.82.82h-2.39a.82.82,0,0,1-.82-.82h0a.83.83,0,0,1,.82-.83h2.39a.83.83,0,0,1,.82.83Z" transform="translate(3141.36 -49.88)"/><path d="M283.56,458.9a4,4,0,0,1-1.23-.94,4.85,4.85,0,0,1-.75-1.4,10.86,10.86,0,0,1-.51-1.77,12.89,12.89,0,0,1-.25-1.88c-.06-.81-.11-1.52-.13-2.11v-3.34c0-1.32,0-2.4.07-3.24a19.16,19.16,0,0,1,.41-3.23,8,8,0,0,1,1-2.7,3.51,3.51,0,0,1,1.86-1.6,3.38,3.38,0,0,1,1.32-.24c.91,0,1.36.29,1.36.85a.83.83,0,0,1-.3.67,1.07,1.07,0,0,1-.71.26,1.87,1.87,0,0,1-.35,0,1.35,1.35,0,0,0-.31,0,1.14,1.14,0,0,0-.95.61,5.59,5.59,0,0,0-.69,1.7,29.57,29.57,0,0,0-.7,4.61c-.08,1.54-.12,2.69-.12,3.44s0,1.83.09,3.17a14.66,14.66,0,0,0,.54,3.27,5,5,0,0,0,.52,1.31,2.94,2.94,0,0,0,.77.84,1.91,1.91,0,0,0,1.1.37c1,0,1.52-1.82,1.52-5.45v-1.57a1.83,1.83,0,0,0-.72-.1h-.64c-.73,0-1.1-.26-1.1-.79a.91.91,0,0,1,.3-.73,1.15,1.15,0,0,1,.77-.25v0h.44c1.9,0,2.84.35,2.84,1.06a9.57,9.57,0,0,1-.15,1.22,5.85,5.85,0,0,0-.19,1.23c0,.39,0,1,.09,1.81l.06,1.8a3.3,3.3,0,0,1-1.05,2.58,4,4,0,0,1-4.19.58Z" transform="translate(3141.36 -49.88)"/><path d="M292.7,459.12a1.11,1.11,0,0,1-.36-.75V456.8q0-.3,0-.72c0-.47,0-1.2-.1-2.18l-.06-2.18c0-1.11,0-2.77.09-5,.09-2,.13-3.64.13-5,0-.32,0-.8-.09-1.43s-.1-1.14-.1-1.43c0-1.62.44-2.42,1.33-2.42a7.87,7.87,0,0,1,2.41.44c.92.3,1.37.65,1.37,1.06a1,1,0,0,1-.26.63,2.18,2.18,0,0,1-.65.46,11.83,11.83,0,0,0-2.4-.68c0,.34,0,.82,0,1.46,0,.91,0,1.73,0,2.45-.06,1.1-.09,1.91-.09,2.46l.09.54.5,0a5.6,5.6,0,0,1,.64,0c1,0,1.51.31,1.51.95a.81.81,0,0,1-.28.63,1.05,1.05,0,0,1-.73.26,4.78,4.78,0,0,1-.88-.07H294c0,.59.06,1.45.06,2.59s0,2.16,0,3.07c-.06,1.38-.09,2.42-.09,3.1a11.49,11.49,0,0,0,.06,1.91l1,0q.54,0,1.29,0c.8,0,1.2.27,1.2.82a.83.83,0,0,1-.39.73,1.74,1.74,0,0,1-1,.25h-2.69A1.08,1.08,0,0,1,292.7,459.12Z" transform="translate(3141.36 -49.88)"/><path d="M302.72,458.44l0-1.33c0-.39,0-.82,0-1.3l0-1.16q-.09-.37-.47-7.46c-.26-4.73-.4-7.76-.44-9.1a5.39,5.39,0,0,1-2.34-.41.79.79,0,0,1-.35-.61.61.61,0,0,1,.33-.5,1.19,1.19,0,0,1,.68-.22,20.88,20.88,0,0,1,2.15.14,15.94,15.94,0,0,0,2.15.17h.5c.65,0,1,.27,1,.82a.81.81,0,0,1-.32.66,1.12,1.12,0,0,1-.72.26,4.64,4.64,0,0,1-.82-.11l-.63-.13,0,.17,0,.17q0,3,.54,9.68c.33,4.16.5,7.38.5,9.68a.93.93,0,0,1-.33.71,1,1,0,0,1-.74.31Z" transform="translate(3141.36 -49.88)"/><path d="M320,459.05a1,1,0,0,1-.34-.89,31.8,31.8,0,0,0-.32-3.47l-.12-.72-3.13-.51c-.13.52-.3,1.58-.54,3.17a4.81,4.81,0,0,1-.6,2.21.71.71,0,0,1-.63.31,1.07,1.07,0,0,1-.69-.25.79.79,0,0,1-.32-.64l.07-.17,0-.13a160.71,160.71,0,0,0,3.15-17.28c0-.09,0-.25,0-.46s0-.53.07-.94c.06-.84.13-1.51.2-2a2.81,2.81,0,0,1,.37-1.12h1.07a1.28,1.28,0,0,1,.76.22.71.71,0,0,1,.31.63,64,64,0,0,0,.67,7.7,72.26,72.26,0,0,1,.63,7.36,8.93,8.93,0,0,0,.15,1.06,6.24,6.24,0,0,1,.16,1c0,.16.11.84.32,2.05a16,16,0,0,1,.28,2.11v0a.93.93,0,0,1-.5,1A1.94,1.94,0,0,1,320,459.05Zm-1.1-7.57a76.83,76.83,0,0,0-.51-7.84L318,440.1q-1.36,8-1.86,12.1a7.3,7.3,0,0,0,2.77.54A7.42,7.42,0,0,1,318.85,451.48Z" transform="translate(3141.36 -49.88)"/><path d="M336.62,466.17a3.07,3.07,0,0,1-2.43-.78c0-.46,0-1-.1-1.57l-.06-.71c-.15-.94-.23-1.45-.25-1.54l-.16-.82-.13-.75a3.79,3.79,0,0,1-2.52-1.84,9,9,0,0,1-1.11-3.44,34.57,34.57,0,0,1-.22-4.22c0-.78,0-1.47,0-2.08v-2c0-.8.07-2.05.19-3.75a17,17,0,0,1,1-4.36,3.7,3.7,0,0,1,1-1.57,2.06,2.06,0,0,1,1.4-.55,4.47,4.47,0,0,0,.76.21,4.67,4.67,0,0,1,.66.24,4,4,0,0,1,2.18,2.21,10.69,10.69,0,0,1,.85,3.31c.1,1.07.16,2.17.16,3.3l0,3.28c-.07,1.43-.18,2.92-.35,4.46a21,21,0,0,1-.82,4.19A3.69,3.69,0,0,1,335,459.8a15,15,0,0,0,.5,3.17,11.54,11.54,0,0,1,.35,1.43c1,0,1.45.33,1.45,1a.91.91,0,0,1-.2.58.66.66,0,0,1-.52.24Zm-2.31-7.5c.23,0,.5-.53.79-1.6a31.21,31.21,0,0,0,.76-3.64,22,22,0,0,0,.31-3v-5.93q0-7-3.12-7c-.36,0-.66.44-.92,1.3a28.93,28.93,0,0,0-.82,6.34c-.06.91-.09,1.63-.09,2.18l0,2.52c0,.59.07,1.52.16,2.8,0,.22,0,.59.06,1.09a18.81,18.81,0,0,0,.66,3.54c.3,1.05.72,1.57,1.27,1.57A2.09,2.09,0,0,1,334.31,458.67Z" transform="translate(3141.36 -49.88)"/><path d="M343.34,459.13a2.6,2.6,0,0,1-1-1,9.18,9.18,0,0,1-1-3.23,27,27,0,0,1-.22-3.75c-.06-2.46-.1-5.46-.1-9l0-2.62a5.51,5.51,0,0,1,0-.69q-.06-1.29-.06-1.56.29-.72.66-.72c.25,0,.48.2.68.61a3,3,0,0,1,.3,1.33v9.27c0,.91.07,2.12.22,3.62.15,1.86.22,3.06.22,3.61,0,1.68.66,2.52,2,2.52q2.28,0,2.27-18.33v-2.22a1,1,0,0,1,0-.27.9.9,0,0,1,.17-.6,1,1,0,0,1,.68-.19.84.84,0,0,1,.65.26,1.15,1.15,0,0,1,.3.59,6.68,6.68,0,0,1,0,.79q0,.54-.09,1.74a12.68,12.68,0,0,0-.13,1.7c0,.52,0,1-.06,1.4l-.07,1.43v.27a1,1,0,0,1,0,.31q0,15.13-4.08,15.13A2.57,2.57,0,0,1,343.34,459.13Z" transform="translate(3141.36 -49.88)"/><path d="M354.89,459.07a4.28,4.28,0,0,1-1.14-1.52,14.22,14.22,0,0,1-1.13-4.53,36.8,36.8,0,0,1-.29-4.47,6.39,6.39,0,0,1,0-.68v-.61c0-.12,0-.17,0-.17v-.62l0-2.38c0-.73.11-1.89.26-3.48a12.26,12.26,0,0,1,.72-3.17,2.75,2.75,0,0,1,.57-1,1.06,1.06,0,0,1,.79-.36,5.08,5.08,0,0,1,2.27.5,5,5,0,0,1,1.71,1.38,8.34,8.34,0,0,1,1.07,2.09,13.68,13.68,0,0,1,.63,2.65,22.39,22.39,0,0,1,.19,3V446c0,.71,0,1.34,0,1.91l0,1.94q0,9.82-4.23,9.82A2.38,2.38,0,0,1,354.89,459.07Zm2.43-1.37a3.17,3.17,0,0,0,.72-1.34,14,14,0,0,0,.73-3.75c.11-1.16.16-2.16.16-3,0-1-.08-2.36-.22-4s-.19-3.06-.19-3.92v-.62a3.85,3.85,0,0,0-.81-2.25,2.23,2.23,0,0,0-1.81-.95c-.72,0-1.19.44-1.42,1.33a9.72,9.72,0,0,0-.32,2.73c0,.43,0,.79,0,1.09v.92l-.06,1.56c0,.48-.06,1-.06,1.57,0,1.23,0,2.45.09,3.65a33.59,33.59,0,0,0,.63,5c.34,1.69.83,2.53,1.49,2.53A1.43,1.43,0,0,0,357.32,457.7Z" transform="translate(3141.36 -49.88)"/><path d="M365.84,458.44l0-1.33c0-.39,0-.82,0-1.3l0-1.16q-.09-.37-.48-7.46c-.25-4.73-.39-7.76-.44-9.1a5.3,5.3,0,0,1-2.33-.41.79.79,0,0,1-.35-.61.61.61,0,0,1,.33-.5,1.19,1.19,0,0,1,.68-.22,20.88,20.88,0,0,1,2.15.14,15.93,15.93,0,0,0,2.14.17H368c.65,0,1,.27,1,.82a.81.81,0,0,1-.32.66,1.12,1.12,0,0,1-.73.26,4.76,4.76,0,0,1-.82-.11l-.63-.13,0,.17,0,.17q0,3,.54,9.68c.33,4.16.5,7.38.5,9.68a.93.93,0,0,1-.33.71,1,1,0,0,1-.74.31Z" transform="translate(3141.36 -49.88)"/><path d="M372.86,459.12a1.11,1.11,0,0,1-.36-.75V456.8q0-.3,0-.72c0-.47,0-1.2-.1-2.18l-.06-2.18c0-1.11,0-2.77.09-5,.09-2,.13-3.64.13-5,0-.32,0-.8-.09-1.43s-.1-1.14-.1-1.43c0-1.62.44-2.42,1.33-2.42a7.82,7.82,0,0,1,2.41.44c.92.3,1.37.65,1.37,1.06a.93.93,0,0,1-.27.63,2.14,2.14,0,0,1-.64.46,12,12,0,0,0-2.4-.68c0,.34,0,.82,0,1.46,0,.91,0,1.73,0,2.45-.06,1.1-.1,1.91-.1,2.46l.1.54.5,0a5.53,5.53,0,0,1,.63,0c1,0,1.52.31,1.52.95a.79.79,0,0,1-.29.63,1,1,0,0,1-.72.26,4.78,4.78,0,0,1-.88-.07h-.79c0,.59.06,1.45.06,2.59s0,2.16,0,3.07c-.06,1.38-.1,2.42-.1,3.1a10.62,10.62,0,0,0,.07,1.91l1,0q.54,0,1.29,0c.8,0,1.2.27,1.2.82a.83.83,0,0,1-.39.73,1.77,1.77,0,0,1-1,.25H373.6A1.08,1.08,0,0,1,372.86,459.12Z" transform="translate(3141.36 -49.88)"/><path d="M127.16,231.29a1.43,1.43,0,0,1-1.43,1.44H118a1.44,1.44,0,0,1,0-2.87h7.76a1.43,1.43,0,0,1,1.43,1.43Zm12.65-13.7v4.14a5.56,5.56,0,0,1-5.56,5.56h-24.8a5.56,5.56,0,0,1-5.56-5.56v-4.14a1.43,1.43,0,0,1,1.43-1.43h.38v-4a2.09,2.09,0,0,1,0-.25,1.64,1.64,0,0,1,.23-.58,1.36,1.36,0,0,1,.44-.42,1.27,1.27,0,0,1,.23-.12c.57-.23,1.14-.48,1.69-.73V192.57a6.78,6.78,0,0,1,4.4-6.32v-3.78a6.15,6.15,0,0,1,6.14-6.14h6a6.14,6.14,0,0,1,6.14,6.14v3.78a6.75,6.75,0,0,1,2.66,1.81c0-.05.05-.1.08-.14a1.44,1.44,0,0,1,2.54,1.34,47.59,47.59,0,0,1-11.59,14,63.82,63.82,0,0,1-13.52,8.65v4.24h21.36V198.9a1.44,1.44,0,1,1,2.87,0v17.26h3a1.43,1.43,0,0,1,1.43,1.43ZM115.56,186a3.06,3.06,0,0,0,.12.85l0,.1a3.28,3.28,0,0,0,3.13,2.33h6A3.28,3.28,0,0,0,128,187a.76.76,0,0,1,0-.11,3.34,3.34,0,0,0,.11-.84v-3.55a3.29,3.29,0,0,0-3.28-3.28h-6a3.29,3.29,0,0,0-3.28,3.28Zm-4.39,22.7c9-4.55,16.31-10.86,20.9-18a3.84,3.84,0,0,0-1.86-1.72,6.14,6.14,0,0,1-5.35,3.13h-6a6.14,6.14,0,0,1-5.35-3.13,3.88,3.88,0,0,0-2.32,3.54ZM136.94,219H106.76v2.7a2.7,2.7,0,0,0,2.69,2.69h24.8a2.7,2.7,0,0,0,2.69-2.69Zm0,0" transform="translate(3141.36 -49.88)"/><path d="M191.84,178a13.07,13.07,0,0,0-13,13.13l2.29,27c0,8,4.12,13,10.74,13s10.74-5,10.73-12.94L204.88,191A13.06,13.06,0,0,0,191.84,178Zm8.44,40.08c0,2.52-.61,10.73-8.44,10.73s-8.44-8.21-8.44-10.83l-1.64-19.26q2.24,3.94,4.46,7.89a1.06,1.06,0,0,0,1.17.47l14.21-4.57Zm-15.75-24-.12-1.59c0-4.54,3.33-8.24,7.43-8.24s7.44,3.7,7.45,8.16l-.49,6.24-13.62-4.31h.11ZM199.47,201l-11.88,3.81-.09-.19L185,200.18l-2.59-4.58Zm2.38-1.42-1.49-.47.51-6.65c0-5.51-4.05-10-9-10s-9,4.49-9,10.08l.08,1.05-1.62-.51L181.1,191a10.74,10.74,0,0,1,21.48-.1Z" transform="translate(3141.36 -49.88)" style="fill:#030202"/><path d="M270.72,220.65a3.13,3.13,0,1,1-3.13-3.12,3.09,3.09,0,0,1,2.21.91,1,1,0,0,0,1.39-1.38,5.08,5.08,0,1,0,1.48,3.59,1,1,0,0,0-1-1,1,1,0,0,0-1,1Zm0,0" transform="translate(3141.36 -49.88)"/><path d="M293.74,197.05a16.85,16.85,0,0,0-16.84-16.84H258.29a16.87,16.87,0,0,0-16.85,16.84h0v6.76h0a16.87,16.87,0,0,0,16.85,16.85h1.11a8.19,8.19,0,0,0,16.38,0h1.12a16.86,16.86,0,0,0,16.84-16.85Zm-19.91,18.31a8.15,8.15,0,0,0-12.47,0v-.19a6.24,6.24,0,1,1,12.47,0ZM267.59,207a8.19,8.19,0,0,0-7.52,5h-1.78a14.93,14.93,0,0,1-14.51-11.51,14.9,14.9,0,0,1,14.51-11.52H276.9a14.88,14.88,0,0,1,14.5,11.51A14.88,14.88,0,0,1,276.9,212h-1.78a8.2,8.2,0,0,0-7.53-5Zm-9.3-24.82H276.9a14.88,14.88,0,0,1,14.84,13.69A16.82,16.82,0,0,0,276.9,187H258.29a16.83,16.83,0,0,0-14.85,8.89,14.92,14.92,0,0,1,14.85-13.7Zm-10.53,32.18a14.75,14.75,0,0,1-4.32-9.32,16.92,16.92,0,0,0,14.85,8.88h1.21a8.82,8.82,0,0,0-.1,1.27v3.54h-1.11a14.76,14.76,0,0,1-10.53-4.37Zm19.83,12.55a6.24,6.24,0,1,1,6.24-6.24,6.24,6.24,0,0,1-6.24,6.24Zm9.31-8.18h-1.12v-3.54a7.59,7.59,0,0,0-.1-1.27h1.22A16.83,16.83,0,0,0,291.74,205a14.91,14.91,0,0,1-14.84,13.7Zm0,0" transform="translate(3141.36 -49.88)"/><path d="M384.34,212.35a1.2,1.2,0,0,0-1.15,1.26v3.21l-15.76-33.66a1.14,1.14,0,0,0-1-.68H336.3a1.13,1.13,0,0,0-1,.68l-15.76,33.66v-3.21a1.16,1.16,0,1,0-2.31,0v11.71a1.16,1.16,0,1,0,2.31,0v-2h27.8v2a1.15,1.15,0,1,0,2.3,0v-2h33.57v2a1.15,1.15,0,1,0,2.3,0V213.61a1.2,1.2,0,0,0-1.15-1.26Zm-35.87,0a1.2,1.2,0,0,0-1.15,1.26v7.18H320.25L337,185h27.51l-14.9,31.83v-3.21a1.2,1.2,0,0,0-1.15-1.26Zm16.78,8.44h-14.9L365.25,189Zm2.31,0V189l14.9,31.83Zm0,0" transform="translate(3141.36 -49.88)"/><path d="M146.38,287H121.53a6,6,0,0,0-5.14,2.95H119a3.92,3.92,0,0,1,2.56-1,4,4,0,0,1,4,4v34.24a1,1,0,0,0,1,1h24.85a1,1,0,0,0,1-1V293a6,6,0,0,0-6-6Zm0,2a4,4,0,0,1,4,4V315H127.49V293a5.89,5.89,0,0,0-1.53-4Zm-18.89,27.16h22.87v2H127.49Zm0,10.06v-3h22.87v3Zm0,0" transform="translate(3141.36 -49.88)"/><path d="M121.53,309.31h-4V296h-2v14.35a1,1,0,0,0,1,1h5a1,1,0,0,0,0-2Zm0,0" transform="translate(3141.36 -49.88)"/><path d="M158.22,290.37a2.55,2.55,0,0,0-2.1,1.09h-2.94a6.64,6.64,0,0,1,.16,1.48v1.5h2.78a2.55,2.55,0,0,0,2.1,1.09,2.58,2.58,0,0,0,0-5.16Zm0,0" transform="translate(3141.36 -49.88)"/><path d="M112.78,291.46a2.58,2.58,0,1,0,0,3h11.73V293a3,3,0,0,0-.41-1.49Zm0,0" transform="translate(3141.36 -49.88)"/><path d="M332.37,296.59a5.28,5.28,0,0,0-5.26,5.28v18.67a5.28,5.28,0,0,0,5.28,5.27h18.67a5.28,5.28,0,0,0,5.28-5.27V301.87a5.28,5.28,0,0,0-5.26-5.28v-3.87c7.81.44,11,9.89,18.85,11.35,1.67.3,2.39-2.26.7-2.58-8.22-1.52-10.92-11.14-19.55-11.45v-4.1h-7.53v1.33a1.83,1.83,0,0,1-3.65,0v-1.33h-7.53v10.65Zm21.3,5.28v18.67a2.61,2.61,0,0,1-2.61,2.61H332.39a2.62,2.62,0,0,1-2.62-2.61V301.87a2.63,2.63,0,0,1,2.62-2.62h18.67a2.62,2.62,0,0,1,2.61,2.62ZM335,288.6h2.4a4.49,4.49,0,0,0,8.57,0h2.41v7.59H335Z" transform="translate(3141.36 -49.88)"/><path d="M331.86,326.57a1.33,1.33,0,0,0,0,2.66h19.73a1.33,1.33,0,1,0,0-2.66Z" transform="translate(3141.36 -49.88)"/><path d="M415.62,328.81H387.44a2.81,2.81,0,0,1-2.2-1,4,4,0,0,1-.75-3.18,6.27,6.27,0,0,1,2.41-4.09,9.66,9.66,0,0,1,5.67-1.51,9,9,0,0,1,5.91-2A53.48,53.48,0,0,1,409,318.17a43.49,43.49,0,0,1,1.18-5.89,64.44,64.44,0,0,1,2.64-7.62,44.77,44.77,0,0,1,.44-5.26,3.72,3.72,0,0,1-2.37-4.51l1.15-4.24a3.75,3.75,0,0,1,4.33-2.67l2.28.45a13.35,13.35,0,0,1,9.52-1.86.56.56,0,0,1,.44.65L422,323.53a6.44,6.44,0,0,1-6.33,5.28Zm-25.93-1.13h25.93a5.31,5.31,0,0,0,5.22-4.35l6.57-35.75a11.57,11.57,0,0,0-8.2,1.83.59.59,0,0,1-.18.13,11.26,11.26,0,0,0-3.9,6.35c-2.8,10.69.21,24.13.24,24.27a.55.55,0,0,1-.18.55.57.57,0,0,1-.56.1,52.79,52.79,0,0,0-16.15-2.6,7.92,7.92,0,0,0-5.32,1.8l-.1.09a9,9,0,0,0-2.2,3.08,14.74,14.74,0,0,0-1.17,4.5Zm1.72-7.48a8.62,8.62,0,0,0-3.89,1.3,5.11,5.11,0,0,0-1.91,3.33,2.82,2.82,0,0,0,.49,2.27,1.68,1.68,0,0,0,1.34.58h1.12a14.35,14.35,0,0,1,2.85-7.48Zm18.72-1.8c1.75.39,3.11.78,3.94,1a74,74,0,0,1-1.24-11.67c-.5,1.37-1.09,3.09-1.54,4.8a43.47,43.47,0,0,0-1.16,5.83ZM415.67,289a2.63,2.63,0,0,0-2.52,1.91L412,295.19a2.63,2.63,0,0,0,1.47,3.08c.16-.91.35-1.8.58-2.67a12.7,12.7,0,0,1,3.49-6.24l-1.35-.27a2.21,2.21,0,0,0-.51,0Z" transform="translate(3141.36 -49.88)" style="fill:#231f20;stroke:#231f20;stroke-miterlimit:10"/><path d="M198.41,309.08a1,1,0,0,0-.77-1.24,3.57,3.57,0,0,1-1.86-2.79,1,1,0,0,0-2.05-.25c-.23,1.88,1.63,4.62,3.44,5.05l.23,0a1,1,0,0,0,1-.8Zm0,0" transform="translate(3141.36 -49.88)"/><path d="M214.54,321.62a5.74,5.74,0,0,0-.6,0l-2.76-6.81a14.34,14.34,0,0,0,3.66-3,15.94,15.94,0,0,0,3.92-10.38,1,1,0,0,0-1-1H190.18a1,1,0,0,0-1,1,13.76,13.76,0,0,0,.14,2h-4.46a1,1,0,1,0,0,2.07h4.88a15.88,15.88,0,0,0,3.36,6.28,14.51,14.51,0,0,0,3.54,2.93l-5.75,14.64a1,1,0,0,0,1.92.76l1.31-3.33h15.76a4.72,4.72,0,1,0,4.69-5.22Zm-19.92-11.14a13.89,13.89,0,0,1-3.37-8h25.41a13.89,13.89,0,0,1-3.37,8,12.39,12.39,0,0,1-3.77,2.92h0a.61.61,0,0,0-.14.07,12.91,12.91,0,0,1-10.89-.05l-.18-.09h0a12.64,12.64,0,0,1-3.65-2.86Zm3.85,5.2a15,15,0,0,0,10.84.05l2.68,6.61a4.7,4.7,0,0,0-2,2.44H194.9Zm16.07,13.08a2.54,2.54,0,1,1,2.67-2.54,2.61,2.61,0,0,1-2.67,2.54Zm0,0" transform="translate(3141.36 -49.88)"/><path d="M195.68,297.12a1,1,0,0,0-.27,1.44,1,1,0,0,0,.85.45,1.07,1.07,0,0,0,.59-.18c3.37-2.32,1.84-4.81,1.1-6s-1.16-2.07.52-3.22a1,1,0,0,0,.27-1.43,1,1,0,0,0-1.44-.27c-3.37,2.31-1.84,4.8-1.11,6s1.16,2.06-.51,3.21Zm0,0" transform="translate(3141.36 -49.88)"/><path d="M209.57,297.12a1,1,0,0,0,.59,1.89,1,1,0,0,0,.58-.18c3.38-2.32,1.85-4.81,1.11-6s-1.16-2.07.52-3.22a1,1,0,0,0,.26-1.43,1,1,0,0,0-1.43-.27c-3.37,2.31-1.84,4.8-1.11,6s1.16,2.06-.52,3.21Zm0,0" transform="translate(3141.36 -49.88)"/><path d="M201.87,297.12a1,1,0,0,0,.58,1.89,1.07,1.07,0,0,0,.59-.18c4.31-3,2.34-6.16,1.4-7.69-1.17-1.9-1.69-3.18.82-4.91a1,1,0,0,0,.26-1.43,1,1,0,0,0-1.43-.27c-4.31,3-2.35,6.15-1.41,7.69,1.17,1.9,1.7,3.18-.81,4.9Zm0,0" transform="translate(3141.36 -49.88)"/><path d="M481.39,326.89a1.37,1.37,0,0,0,1.31,1,1.48,1.48,0,0,0,.35,0,1.35,1.35,0,0,0,1-1.65l-10-37.91a1.35,1.35,0,1,0-2.62.69Zm0,0" transform="translate(3141.36 -49.88)"/><path d="M450.67,327.85a1.41,1.41,0,0,0,.35,0,1.37,1.37,0,0,0,1.31-1l10-37.91a1.35,1.35,0,1,0-2.62-.69l-10,37.91a1.35,1.35,0,0,0,1,1.65Zm0,0" transform="translate(3141.36 -49.88)"/><path d="M487.83,327.9a1.48,1.48,0,0,0,.35,0,1.36,1.36,0,0,0,1-1.66L479,288.28a1.35,1.35,0,1,0-2.61.7l10.09,37.91a1.35,1.35,0,0,0,1.31,1Zm0,0" transform="translate(3141.36 -49.88)"/><path d="M445.54,327.85a1.48,1.48,0,0,0,.35,0,1.35,1.35,0,0,0,1.31-1L457.29,289a1.37,1.37,0,0,0-1-1.66,1.35,1.35,0,0,0-1.65,1l-10.1,37.91a1.36,1.36,0,0,0,1,1.66Zm0,0" transform="translate(3141.36 -49.88)"/><path d="M466.86,320.7a1.35,1.35,0,0,0-1.35,1.36v3.52a1.35,1.35,0,1,0,2.7,0v-3.52a1.35,1.35,0,0,0-1.35-1.36Zm0,0" transform="translate(3141.36 -49.88)"/><path d="M468.21,311.24a1.35,1.35,0,1,0-2.7,0v3.52a1.35,1.35,0,1,0,2.7,0Zm0,0" transform="translate(3141.36 -49.88)"/><path d="M468.21,300.41a1.35,1.35,0,1,0-2.7,0v3.53a1.35,1.35,0,1,0,2.7,0Zm0,0" transform="translate(3141.36 -49.88)"/><path d="M468.21,289.59a1.35,1.35,0,1,0-2.7,0v3.53a1.35,1.35,0,1,0,2.7,0Zm0,0" transform="translate(3141.36 -49.88)"/><path d="M295.07,304.92a11.23,11.23,0,0,0-2.87.38l-5.91-15.22h7.43a1.31,1.31,0,0,0,0-2.62h-9.16a2.37,2.37,0,0,0-.66.09,1.29,1.29,0,0,0-.74,1.7l1.72,4.43H268.39l-.63-2h2.61a1.31,1.31,0,0,0,0-2.62h-8.8a1.31,1.31,0,1,0,0,2.62H265l1.19,3.74-6.1,10.46a11.27,11.27,0,0,0-4.57-1,11.4,11.4,0,1,0,11.31,12.7h2.27a4.33,4.33,0,1,0,7.32-4.23l9.68-16.55,3.64,9.4a11.39,11.39,0,1,0,5.32-1.32Zm-27.8-6.14,4.29,13.54a4.37,4.37,0,0,0-2.45,2.68h-2.27a11.35,11.35,0,0,0-4.49-7.79ZM264.2,315h-6.39l3.22-5.52A8.76,8.76,0,0,1,264.2,315Zm-8.67,10.09a8.78,8.78,0,1,1,3.24-16.93l-4.37,7.49a1.3,1.3,0,0,0,1.13,2h8.67a8.79,8.79,0,0,1-8.67,7.47ZM273.24,318a1.72,1.72,0,0,1,0-3.43h0a1.72,1.72,0,1,1,0,3.43Zm1-6-5-15.7h14.17Zm20.86,13.09a8.77,8.77,0,0,1-4.36-16.39l3.14,8.09a1.29,1.29,0,0,0,1.22.83,1.35,1.35,0,0,0,.47-.09,1.31,1.31,0,0,0,.75-1.69l-3.14-8.09a8.69,8.69,0,0,1,1.92-.22,8.78,8.78,0,0,1,0,17.56Zm0,0" transform="translate(3141.36 -49.88)"/><path d="M493.17,223.73H486.8q3.68-19.5,7.34-39c.24-1.27-1.71-1.81-1.95-.53L489.79,197a1,1,0,0,0-.17.13c-1.51.81-3.05,1.54-4.61,2.25a4.91,4.91,0,0,0-9.71,1,4.82,4.82,0,0,0,.73,2.55h0a2.67,2.67,0,0,0-.62-.92,2.39,2.39,0,0,0-1.86-.71l-21.41,1.94-9.06-7.72a2.67,2.67,0,0,0-2.37-.61,2.75,2.75,0,0,0-1.87,1.71l-2,5.11c-3.68-1.18-7.31-2.51-10.84-3.87a.58.58,0,0,0-.16-.05c-.62-4.59-1.25-9.18-1.86-13.77-.18-1.29-2.13-.74-1.95.54q2.64,19.57,5.29,39.15H422a1,1,0,0,0,0,2h71.19A1,1,0,0,0,493.17,223.73Zm-13-26.47a3.1,3.1,0,0,1,3.08,2.87c-1.81.78-3.65,1.5-5.5,2.17a3.08,3.08,0,0,1-.69-1.93A3.11,3.11,0,0,1,480.21,197.26ZM476.13,205a106.91,106.91,0,0,0,10.29-4.09A79.18,79.18,0,0,1,475.77,211Zm-35.63-7.75a1,1,0,0,1,.63-.63.86.86,0,0,1,.77.24l9.64,8.21,22.16-2a.63.63,0,0,1,.45.21.78.78,0,0,1,.26.53l-.56,9.31a.77.77,0,0,1-.43.68,1,1,0,0,1-.93,0c-.11-.07-.24-.2-.22-.55l.45-7.47h0a1,1,0,0,0-1.21-1.31c-7.56,2-15.27,1.71-22.85.3-.75-.64-1.55-1.37-2.32-2.09-1.18-1.08-2.29-2.1-3.27-2.87a1.35,1.35,0,0,0-1.16-.26,1.55,1.55,0,0,0-1.05.84,14.78,14.78,0,0,0-.73,2c0,.11-.07.23-.11.34l-1.46-.43Zm4.62,6.76c-1.14-.26-2.27-.55-3.4-.86l.09-.29c.14-.46.29-.94.47-1.38.85.7,1.8,1.57,2.8,2.5Zm25.74,2.65-.38,6.45a2.54,2.54,0,0,0,.2,1.18,19,19,0,0,1-16.41,1.24A66,66,0,0,1,441.51,209c-3.5-2.17-6.91-4.53-10.2-7C444,206.52,457.59,209.76,470.86,206.69Zm-41.56,17q-1.57-11.62-3.14-23.24a140.68,140.68,0,0,0,16.15,11.39,58.68,58.68,0,0,0,14.1,6.48c5.57,1.59,10.71.19,15.71-2.51a1.28,1.28,0,0,0,.26-.2,2.71,2.71,0,0,0,.58.07,2.78,2.78,0,0,0,1.26-.3,2.48,2.48,0,0,0,1.34-1.73l.15-.09A81.52,81.52,0,0,0,489,201q-2.13,11.37-4.28,22.74Z" transform="translate(3141.36 -49.88)"/></svg>