<svg xmlns="http://www.w3.org/2000/svg" viewBox="0 0 68.18 88.81"><defs><style>.cls-1{font-size:6.28px;fill:#231f20;font-family:Montserrat-Thin, Montserrat;}.cls-2{letter-spacing:-0.02em;}.cls-3{font-size:9.04px;fill:#ac9a32;font-family:Montserrat-Regular, Montserrat;}.cls-4{fill:none;stroke:#8c8c8c;stroke-miterlimit:10;stroke-width:2px;}.cls-5{fill:#827f81;}</style></defs><title>barbecue</title><g id="Layer_2" data-name="Layer 2"><g id="Layer_1-2" data-name="Layer 1"><text class="cls-1" transform="translate(11.6 87.18) scale(1.03 1)">10 EUR / <tspan class="cls-2" x="26.53" y="0">r</tspan><tspan x="28.84" y="0">ental</tspan></text><text class="cls-3" transform="matrix(0.8, -0.6, 0.6, 0.8, 10.91, 19.11)">B</text><text class="cls-3" transform="translate(16.15 15.15) rotate(-26.29)">A</text><text class="cls-3" transform="translate(21.68 12.39) rotate(-15.85)">R</text><text class="cls-3" transform="translate(27.69 10.64) rotate(-5.05)">B</text><text class="cls-3" transform="matrix(1, 0.09, -0.09, 1, 34.22, 10.07)">E</text><text class="cls-3" transform="translate(39.94 10.55) rotate(15.16)">C</text><text class="cls-3" transform="translate(45.95 12.12) rotate(26.18)">U</text><text class="cls-3" transform="translate(52.12 15.18) rotate(36.84)">E</text><path class="cls-4" d="M62.19,44.88A28.63,28.63,0,1,0,33,72.91,28.63,28.63,0,0,0,62.19,44.88Z"/><path class="cls-5" d="M29.58,45.86a.92.92,0,0,0-.67-1.09,3.1,3.1,0,0,1-1.63-2.44.91.91,0,0,0-1.8-.21,4.77,4.77,0,0,0,3,4.42l.21,0a.91.91,0,0,0,.88-.7Z"/><path class="cls-5" d="M43.7,56.84a4.58,4.58,0,0,0-.53,0l-2.41-6A12.51,12.51,0,0,0,44,48.28a14,14,0,0,0,3.44-9.09.91.91,0,0,0-.91-.9H22.38a.91.91,0,0,0-.91.9A13.2,13.2,0,0,0,21.59,41h-3.9a.91.91,0,0,0,0,1.81H22a13.8,13.8,0,0,0,2.95,5.5A12.55,12.55,0,0,0,28,50.84L23,63.66a.9.9,0,0,0,.51,1.17.78.78,0,0,0,.33.07.9.9,0,0,0,.84-.58l1.15-2.91H39.59a4.14,4.14,0,1,0,4.11-4.57ZM26.26,47.08a12.2,12.2,0,0,1-3-7H45.55a12.07,12.07,0,0,1-2.95,7,10.59,10.59,0,0,1-3.3,2.56h0l-.13.06a11.34,11.34,0,0,1-9.53,0,.8.8,0,0,0-.16-.08h0a10.65,10.65,0,0,1-3.2-2.51Zm3.37,4.56a13.1,13.1,0,0,0,9.49,0l2.34,5.79a4.11,4.11,0,0,0-1.7,2.13H26.5ZM43.7,63.09A2.23,2.23,0,1,1,46,60.87a2.29,2.29,0,0,1-2.33,2.22Z"/><path class="cls-5" d="M27.19,35.4A.89.89,0,0,0,27,36.65a.91.91,0,0,0,.75.4,1,1,0,0,0,.51-.16c2.95-2,1.61-4.21,1-5.25s-1-1.81.45-2.82a.9.9,0,1,0-1-1.49c-2.95,2-1.62,4.21-1,5.25s1,1.81-.45,2.82Z"/><path class="cls-5" d="M39.35,35.4a.91.91,0,0,0,.51,1.65,1,1,0,0,0,.52-.16c2.95-2,1.61-4.21,1-5.25s-1-1.81.46-2.82a.91.91,0,0,0-1-1.49c-3,2-1.61,4.21-1,5.25s1,1.81-.45,2.82Z"/><path class="cls-5" d="M32.61,35.4a.89.89,0,0,0-.24,1.25.91.91,0,0,0,.75.4,1,1,0,0,0,.51-.16c3.77-2.59,2-5.39,1.23-6.73-1-1.67-1.48-2.79.71-4.3a.9.9,0,0,0,.24-1.25.91.91,0,0,0-1.26-.24c-3.77,2.59-2.06,5.39-1.23,6.73,1,1.67,1.49,2.79-.71,4.3Z"/></g></g></svg>