<?xml version="1.0" encoding="iso-8859-1"?>
<!-- Generator: Adobe Illustrator 15.1.0, SVG Export Plug-In . SVG Version: 6.00 Build 0)  -->
<!DOCTYPE svg PUBLIC "-//W3C//DTD SVG 1.1//EN" "http://www.w3.org/Graphics/SVG/1.1/DTD/svg11.dtd">
<svg version="1.1" id="Layer_1" xmlns="http://www.w3.org/2000/svg" xmlns:xlink="http://www.w3.org/1999/xlink" x="0px" y="0px"
	 width="595.28px" height="693.448px" viewBox="0 0 595.28 693.448" style="enable-background:new 0 0 595.28 693.448;"
	 xml:space="preserve">
<rect x="-3141.358" y="319.455" style="fill:#DAC725;" width="14.151" height="21.621"/>
<g>
	<g>
		<g>
			<path d="M136.081,636.339v34.479h-0.964v-33.541h-9.148v-0.938H136.081z"/>
			<path d="M152.318,668.823c-2.052-1.428-3.645-3.456-4.777-6.082c-1.133-2.63-1.699-5.681-1.699-9.163
				c0-3.479,0.566-6.534,1.699-9.16c1.133-2.625,2.726-4.654,4.777-6.082c2.051-1.431,4.417-2.143,7.088-2.143
				c2.68,0,5.037,0.712,7.089,2.143c2.052,1.428,3.644,3.457,4.777,6.082c1.141,2.626,1.707,5.681,1.707,9.16
				c0,3.482-0.566,6.533-1.707,9.163c-1.134,2.626-2.726,4.654-4.777,6.082s-4.409,2.144-7.089,2.144
				C156.735,670.967,154.369,670.251,152.318,668.823z M165.967,668.012c1.891-1.348,3.369-3.261,4.418-5.741
				c1.048-2.477,1.576-5.374,1.576-8.692c0-3.315-0.528-6.213-1.576-8.692c-1.049-2.48-2.527-4.391-4.418-5.738
				c-1.898-1.347-4.088-2.021-6.561-2.021s-4.654,0.674-6.553,2.021c-1.898,1.348-3.376,3.258-4.424,5.738
				c-1.049,2.479-1.578,5.377-1.578,8.692c0,3.318,0.529,6.216,1.578,8.692c1.048,2.48,2.525,4.394,4.424,5.741
				c1.898,1.344,4.08,2.018,6.553,2.018S164.068,669.355,165.967,668.012z"/>
			<path d="M219.125,669.884v0.934h-23.686v-34.479h22.92v0.938h-21.901v15.563h19.612v0.938h-19.612v16.106H219.125z"/>
			<path d="M232.689,667.273c-2.403-2.466-3.605-6.094-3.605-10.886v-20.049h1.019v19.999c0,4.531,1.095,7.945,3.276,10.242
				c2.189,2.301,5.328,3.449,9.431,3.449c4.096,0,7.242-1.148,9.424-3.449c2.182-2.297,3.276-5.711,3.276-10.242v-19.999h1.018
				v20.049c0,4.792-1.201,8.42-3.605,10.886c-2.411,2.461-5.779,3.693-10.112,3.693
				C238.469,670.967,235.102,669.734,232.689,667.273z"/>
			<path d="M294.995,670.817l-9.041-12.164c-1.187,0.229-2.579,0.345-4.172,0.345h-11.023v11.819h-1.019v-34.479h12.042
				c4.371,0,7.793,0.995,10.266,2.981s3.713,4.769,3.713,8.348c0,2.76-0.766,5.064-2.289,6.92c-1.523,1.856-3.675,3.128-6.453,3.816
				l9.247,12.413H294.995z M281.89,658.06c4.126,0,7.303-0.903,9.522-2.71c2.221-1.803,3.33-4.363,3.33-7.682
				c0-3.314-1.109-5.875-3.33-7.682c-2.22-1.807-5.396-2.71-9.522-2.71h-11.131v20.783H281.89z"/>
			<path d="M327.828,629.346h1.019l-16.772,46.397h-1.019L327.828,629.346z"/>
			<path d="M350.641,646.952c1.769-1.163,3.95-1.745,6.561-1.745v0.983h-0.307c-3.153,0-5.611,0.977-7.371,2.933
				c-1.762,1.951-2.642,4.619-2.642,8.003v13.691h-1.019v-25.465h1.019v6.603C347.632,649.785,348.88,648.12,350.641,646.952z"/>
			<path d="M385.809,658.06h-23.371c0,2.301,0.521,4.36,1.569,6.182c1.056,1.822,2.503,3.242,4.348,4.261
				c1.845,1.018,3.92,1.527,6.224,1.527c1.799,0,3.483-0.337,5.061-1.011c1.576-0.67,2.87-1.649,3.889-2.929l0.712,0.689
				c-1.156,1.348-2.58,2.381-4.271,3.104c-1.692,0.719-3.491,1.083-5.39,1.083c-2.503,0-4.746-0.552-6.729-1.649
				c-1.982-1.103-3.545-2.638-4.678-4.608c-1.133-1.968-1.707-4.184-1.707-6.649c0-2.461,0.528-4.669,1.577-6.625
				c1.049-1.952,2.503-3.479,4.349-4.578c1.845-1.103,3.919-1.649,6.223-1.649c2.274,0,4.341,0.54,6.201,1.623
				s3.33,2.579,4.395,4.481c1.071,1.906,1.6,4.073,1.6,6.504V658.06z M368.079,647.568c-1.661,0.953-2.993,2.267-3.996,3.942
				c-0.995,1.673-1.546,3.545-1.646,5.615h22.406c-0.1-2.07-0.658-3.942-1.676-5.615c-1.019-1.676-2.351-2.989-4.012-3.942
				c-1.661-0.949-3.506-1.428-5.543-1.428C371.585,646.141,369.732,646.619,368.079,647.568z"/>
			<path d="M414.171,647.939c1.86,1.822,2.794,4.44,2.794,7.854v15.023h-1.018v-15.023c0-3.119-0.819-5.508-2.465-7.165
				c-1.639-1.657-3.974-2.488-6.99-2.488c-3.421,0-6.123,0.995-8.099,2.982c-1.982,1.986-2.978,4.604-2.978,7.854v13.841h-1.019
				v-25.465h1.019v6.798c0.812-2.167,2.166-3.866,4.064-5.099c1.898-1.229,4.219-1.845,6.967-1.845
				C409.73,645.207,412.303,646.118,414.171,647.939z"/>
			<path d="M440.244,669.141c-0.574,0.594-1.332,1.045-2.266,1.355c-0.926,0.313-1.883,0.471-2.871,0.471
				c-2.028,0-3.598-0.566-4.7-1.699c-1.103-1.134-1.646-2.653-1.646-4.559V646.29h-5.083v-0.938h5.083v-5.565h1.011v5.565h8.896
				v0.938h-8.896v18.174c0,1.807,0.459,3.185,1.378,4.138c0.91,0.953,2.25,1.428,4.011,1.428s3.216-0.524,4.371-1.577
				L440.244,669.141z"/>
			<path d="M463.447,647.496c1.607,1.527,2.411,3.735,2.411,6.625v16.696h-1.018v-5.416c-0.843,1.737-2.128,3.101-3.835,4.088
				c-1.715,0.983-3.767,1.478-6.178,1.478c-2.909,0-5.19-0.651-6.837-1.948c-1.638-1.294-2.457-3.027-2.457-5.194
				c0-2.036,0.735-3.686,2.204-4.949c1.479-1.267,3.859-1.898,7.143-1.898h9.96v-2.806c0-2.66-0.704-4.662-2.105-6.009
				c-1.408-1.348-3.483-2.021-6.231-2.021c-1.891,0-3.667,0.321-5.305,0.961c-1.646,0.64-3.063,1.504-4.249,2.588L446.238,649
				c1.256-1.183,2.779-2.112,4.578-2.786c1.791-0.67,3.674-1.007,5.642-1.007C459.505,645.207,461.832,645.969,463.447,647.496z
				 M464.841,663.529v-5.615h-10.013c-2.841,0-4.938,0.524-6.27,1.573c-1.34,1.053-2.014,2.48-2.014,4.287
				c0,1.937,0.727,3.464,2.189,4.582c1.454,1.113,3.49,1.673,6.094,1.673C459.712,670.029,463.049,667.862,464.841,663.529z"/>
			<path d="M477.242,634.271h1.018v36.546h-1.018V634.271z"/>
		</g>
	</g>
	<g>
		<path style="fill:#AC9A32;" d="M144.693,91.898c2.688,0.62,5.021,2.247,7.012,4.888c2.558,3.399,3.27,6.959,2.137,10.675
			c-1.133,3.725-4.157,7.426-9.064,11.119l-18.227,13.727l-29.84-39.639l17.102-12.872c4.417-3.322,8.513-5.015,12.279-5.076
			c3.781-0.053,6.889,1.539,9.331,4.785c1.646,2.189,2.503,4.455,2.572,6.794c0.084,2.339-0.544,4.597-1.86,6.771
			C139.158,91.677,142.021,91.286,144.693,91.898z M103.501,92.966l10.824,14.389l12.631-9.508c3.216-2.415,5.222-4.884,6.024-7.426
			c0.819-2.526,0.345-4.968-1.416-7.307c-1.76-2.339-3.965-3.472-6.629-3.392c-2.656,0.08-5.596,1.324-8.804,3.743L103.501,92.966z
			 M148.805,107.309c0.896-2.568,0.39-5.141-1.547-7.709c-3.721-4.945-9.163-4.72-16.344,0.682l-13.986,10.529l11.207,14.89
			l13.986-10.526C145.674,112.506,147.894,109.881,148.805,107.309z"/>
		<path style="fill:#AC9A32;" d="M190.41,76.94l-24.779,12.24l0.535,14.522l-4.892,2.419l-1.646-54.528l4.639-2.293l42.311,34.434
			l-4.961,2.453L190.41,76.94z M186.813,73.974l-22.483-18.617l1.133,29.166L186.813,73.974z"/>
		<path style="fill:#AC9A32;" d="M244.877,73.028L229.62,60.784c-1.194,0.489-2.45,0.914-3.774,1.294l-12.807,3.636l4.295,15.135
			l-5.053,1.431l-13.542-47.722l17.859-5.072c6.093-1.729,11.276-1.63,15.563,0.295c4.272,1.934,7.143,5.443,8.589,10.534
			c1.049,3.728,1.004,7.146-0.152,10.242c-1.164,3.104-3.322,5.723-6.507,7.851l16.313,13.056L244.877,73.028z M234.45,51.605
			c1.906-2.802,2.319-6.09,1.248-9.856c-1.095-3.869-3.185-6.476-6.27-7.839c-3.101-1.358-6.997-1.366-11.72-0.022l-12.686,3.598
			l6.791,23.934l12.677-3.598C229.222,56.478,232.537,54.407,234.45,51.605z"/>
		<path style="fill:#AC9A32;" d="M296.465,45.378c1.937,1.94,3.063,4.559,3.361,7.851c0.375,4.237-0.912,7.636-3.836,10.192
			c-2.924,2.564-7.448,4.111-13.564,4.654l-22.744,2.006l-4.355-49.422l21.312-1.883c5.505-0.486,9.876,0.245,13.106,2.189
			c3.23,1.94,5.029,4.941,5.389,8.987c0.237,2.729-0.229,5.105-1.4,7.127c-1.172,2.028-2.895,3.616-5.168,4.761
			C291.872,42.263,294.513,43.441,296.465,45.378z M260.922,24.51l1.585,17.925l15.746-1.39c3.996-0.349,7.013-1.39,9.049-3.107
			c2.028-1.719,2.917-4.042,2.656-6.959s-1.538-5.045-3.843-6.385c-2.305-1.339-5.443-1.829-9.446-1.478L260.922,24.51z
			 M291.795,60.627c2.129-1.707,3.047-4.156,2.764-7.364c-0.543-6.162-5.289-8.846-14.238-8.057l-17.431,1.542l1.638,18.567
			l17.438-1.542C286.391,63.383,289.667,62.33,291.795,60.627z"/>
		<path style="fill:#AC9A32;" d="M346.201,65.802l-0.422,4.517l-34.93-3.207l4.539-49.407l33.874,3.112l-0.405,4.517l-28.661-2.63
			l-1.615,17.568l25.545,2.351l-0.405,4.447l-25.546-2.35l-1.691,18.354L346.201,65.802z"/>
		<path style="fill:#AC9A32;" d="M364.167,71.646c-3.23-3.127-5.435-6.844-6.591-11.146c-1.164-4.307-1.117-8.762,0.138-13.37
			c1.24-4.604,3.445-8.471,6.63-11.602c3.169-3.131,6.958-5.225,11.353-6.288c4.394-1.057,8.972-0.949,13.718,0.34
			c3.552,0.965,6.684,2.446,9.37,4.448c2.679,2.002,4.769,4.429,6.247,7.276l-4.088,2.342c-2.711-4.796-6.921-7.969-12.616-9.515
			c-3.782-1.026-7.464-1.095-11.039-0.199c-3.567,0.896-6.637,2.606-9.209,5.141c-2.572,2.537-4.363,5.672-5.382,9.408
			c-1.01,3.743-1.049,7.356-0.1,10.843c0.935,3.483,2.726,6.515,5.359,9.087c2.617,2.572,5.825,4.371,9.622,5.397
			c5.741,1.558,10.985,0.922,15.716-1.91l2.335,4.088c-2.71,1.715-5.749,2.76-9.109,3.15c-3.36,0.382-6.813,0.096-10.373-0.865
			C371.401,76.986,367.413,74.777,364.167,71.646z"/>
		<path style="fill:#AC9A32;" d="M408.729,83.558c-1.593-4.892-0.843-10.491,2.266-16.814l12.539-25.503l4.716,2.315l-12.455,25.309
			c-2.542,5.179-3.276,9.61-2.197,13.301c1.087,3.686,3.835,6.618,8.245,8.788c4.447,2.186,8.467,2.58,12.057,1.187
			c3.575-1.397,6.645-4.686,9.186-9.86l12.433-25.312l4.585,2.251l-12.539,25.503c-3.1,6.319-7.073,10.346-11.889,12.08
			c-4.838,1.729-10.127,1.183-15.892-1.653C414.01,92.312,410.328,88.45,408.729,83.558z"/>
		<path style="fill:#AC9A32;" d="M480.373,128.628l-2.726,3.629l-28.071-21.033l29.74-39.707l27.229,20.394l-2.718,3.632
			l-23.034-17.251l-10.579,14.124l20.539,15.379l-2.688,3.575L467.543,95.99l-11.055,14.747L480.373,128.628z"/>
	</g>
	<path style="fill:#8C8C8C;" d="M297.743,566.807c-0.008,0-0.008,0-0.015,0c-1.623,0-3.27-0.02-4.9-0.05
		c-128.04-2.668-230.053-109.002-227.412-237.043c2.618-125.422,106.76-227.462,232.151-227.462c1.623,0,3.269,0.02,4.899,0.05
		c128.056,2.672,230.061,109.014,227.396,237.058C527.261,464.771,423.127,566.807,297.743,566.807z M297.567,117.93
		c-116.925,0-214.031,95.15-216.474,212.109c-2.465,119.395,92.666,218.556,212.057,221.04c1.531,0.034,3.063,0.05,4.578,0.05
		c116.933,0.004,214.03-95.143,216.457-212.099c2.488-119.397-92.635-218.563-212.041-221.051
		C300.614,117.945,299.083,117.93,297.567,117.93z"/>
	<path style="fill:#827F81;" d="M266.41,346.915c0.896-3.809-1.438-7.62-5.259-8.527c-5.488-1.302-13.488-13.274-12.784-19.131
		c0.475-3.881-2.273-7.421-6.17-7.896c-3.889-0.479-7.418,2.292-7.893,6.177c-1.576,12.934,11.207,31.716,23.578,34.651
		c0.551,0.123,1.087,0.184,1.653,0.184C262.721,352.373,265.63,350.184,266.41,346.915L266.41,346.915z M266.41,346.915"/>
	<path style="fill:#827F81;" d="M377.074,432.929c-1.401,0-2.771,0.096-4.134,0.261l-18.894-46.781
		c9.309-5.313,17.775-12.206,25.109-20.554c17.109-19.456,26.931-45.418,26.931-71.22c0-3.904-3.185-7.093-7.089-7.093H209.946
		c-3.904,0-7.089,3.188-7.089,7.093c0,4.65,0.329,9.313,0.957,13.936h-30.598c-3.912,0-7.089,3.173-7.089,7.073
		c0,3.92,3.177,7.097,7.089,7.097h33.491c4.333,15.847,12.233,30.793,23.073,43.114c7.127,8.103,15.295,14.832,24.267,20.083
		l-39.455,100.501c-1.424,3.644,0.36,7.755,4.019,9.194c0.843,0.325,1.715,0.489,2.58,0.489c2.825,0,5.496-1.711,6.599-4.501
		l8.965-22.831h108.137c2.151,15.405,15.755,27.332,32.183,27.332c17.905,0,32.488-14.17,32.488-31.597
		C409.547,447.099,394.979,432.929,377.074,432.929L377.074,432.929z M240.422,356.496c-13.282-15.115-21.52-34.759-23.119-54.777
		h174.324c-1.585,20.019-9.807,39.662-23.111,54.777c-6.032,6.866-14.545,14.434-25.905,20.057
		c-0.046,0.015-0.107,0.026-0.161,0.064c-0.359,0.13-0.681,0.311-0.987,0.49c-10.066,4.804-22.292,8.072-36.997,8.072
		c-15.035,0-27.513-3.418-37.71-8.401c-0.39-0.265-0.804-0.475-1.247-0.64c-0.016-0.008-0.023-0.008-0.039-0.015
		C254.545,370.539,246.309,363.198,240.422,356.496L240.422,356.496z M266.824,392.188c11.697,4.7,24.404,7.157,37.641,7.157
		c12.922,0,25.315-2.339,36.775-6.806l18.334,45.38c-6.224,3.889-10.978,9.769-13.351,16.7H242.313L266.824,392.188z
		 M377.074,481.952c-10.098,0-18.304-7.823-18.304-17.427c0-9.607,8.206-17.427,18.304-17.427c10.097,0,18.311,7.819,18.311,17.427
		C395.385,474.129,387.171,481.952,377.074,481.952L377.074,481.952z M377.074,481.952"/>
	<path style="fill:#827F81;" d="M247.663,264.871c-3.238,2.212-4.058,6.614-1.845,9.855c1.37,1.991,3.59,3.074,5.863,3.074
		c1.379,0,2.764-0.41,3.996-1.248c23.135-15.881,12.662-32.952,7.602-41.166c-5.58-9.071-7.945-14.162,3.545-22.058
		c3.23-2.217,4.042-6.63,1.845-9.853c-2.235-3.227-6.652-4.042-9.86-1.841c-23.141,15.892-12.653,32.967-7.602,41.169
		C256.788,251.868,259.153,256.979,247.663,264.871L247.663,264.871z M247.663,264.871"/>
	<g>
		<path style="fill:#827F81;" d="M343.031,264.871c-3.238,2.212-4.057,6.614-1.829,9.855c1.362,1.991,3.575,3.074,5.841,3.074
			c1.385,0,2.778-0.41,4.004-1.248c23.148-15.881,12.653-32.959,7.594-41.166c-5.559-9.071-7.946-14.177,3.552-22.058
			c3.215-2.217,4.058-6.63,1.837-9.853c-2.22-3.227-6.629-4.054-9.859-1.841c-23.142,15.892-12.639,32.967-7.602,41.169
			C352.148,251.868,354.529,256.979,343.031,264.871L343.031,264.871z M343.031,264.871"/>
		<path style="fill:#827F81;" d="M290.149,264.871c-3.23,2.212-4.058,6.614-1.845,9.855c1.378,1.991,3.598,3.074,5.855,3.074
			c1.394,0,2.779-0.41,4.02-1.248c29.572-20.313,16.099-42.229,9.615-52.764c-8-13.044-11.621-21.81,5.611-33.645
			c3.215-2.212,4.034-6.613,1.829-9.848c-2.22-3.23-6.637-4.05-9.845-1.834c-29.587,20.306-16.129,42.223-9.652,52.756
			C303.76,244.256,307.381,253.04,290.149,264.871L290.149,264.871z M290.149,264.871"/>
	</g>
</g>
</svg>
