<svg xmlns="http://www.w3.org/2000/svg" viewBox="0 0 68.19 93.87"><defs><style>.cls-1{font-size:6.28px;fill:#231f20;font-family:Montserrat-Thin, Montserrat;}.cls-2{letter-spacing:-0.01em;}.cls-3{font-size:9.04px;fill:#ac9a32;font-family:Montserrat-Regular, Montserrat;}.cls-4{fill:none;stroke:#8c8c8c;stroke-miterlimit:10;stroke-width:2px;}.cls-5{fill:#827f81;}</style></defs><title>bicycle</title><g id="Layer_2" data-name="Layer 2"><g id="Layer_1-2" data-name="Layer 1"><text class="cls-1" transform="translate(16.85 92.24) scale(1.03 1)">5 EUR / d<tspan class="cls-2" x="27.94" y="0">a</tspan><tspan x="31.48" y="0">y</tspan></text><text class="cls-3" transform="translate(17.43 19.45) rotate(-23.53)">B</text><text class="cls-3" transform="matrix(0.96, -0.27, 0.27, 0.96, 23.53, 16.92)">I</text><text class="cls-3" transform="matrix(0.99, -0.15, 0.15, 0.99, 25.92, 16.1)">C</text><text class="cls-3" transform="matrix(1, 0.02, -0.02, 1, 31.98, 15.19)">Y</text><text class="cls-3" transform="translate(37.19 15.23) rotate(10.59)">C</text><text class="cls-3" transform="matrix(0.94, 0.35, -0.35, 0.94, 43.33, 16.38)">L</text><text class="cls-3" transform="translate(48.13 18.1) rotate(29.08)">E</text><path class="cls-4" d="M62.72,50.59a28.63,28.63,0,1,0-29.22,28A28.63,28.63,0,0,0,62.72,50.59Z"/><path class="cls-5" d="M48.93,47.25a8.27,8.27,0,0,0-2.07.27l-4.26-11H48a.95.95,0,0,0,0-1.89h-6.6a1.54,1.54,0,0,0-.47.07A.92.92,0,0,0,40.35,36l1.24,3.19H29.71l-.45-1.44h1.88a.95.95,0,0,0,0-1.89H24.8a.95.95,0,1,0,0,1.89h2.48l.85,2.7-4.39,7.53A8.21,8.21,0,1,0,28.6,56.4h1.63a3.12,3.12,0,1,0,5.27-3l7-11.92L45.1,48.2a8.21,8.21,0,1,0,3.83-1Zm-20-4.42L32,52.58a3.15,3.15,0,0,0-1.76,1.93H28.6a8.21,8.21,0,0,0-3.24-5.61ZM26.69,54.51h-4.6l2.32-4a6.36,6.36,0,0,1,2.28,4Zm-6.24,7.27a6.33,6.33,0,1,1,0-12.65,6.44,6.44,0,0,1,2.33.45L19.63,55a.95.95,0,0,0,.82,1.42h6.24a6.33,6.33,0,0,1-6.24,5.38Zm12.76-5.09a1.24,1.24,0,1,1,0-2.47h0a1.24,1.24,0,0,1,0,2.47Zm.69-4.34L30.31,41H40.52Zm15,9.43A6.32,6.32,0,0,1,45.79,50l2.26,5.83a.94.94,0,0,0,.88.6,1.06,1.06,0,0,0,.34-.06.94.94,0,0,0,.53-1.22l-2.26-5.83a6.32,6.32,0,1,1,1.39,12.49Z"/></g></g></svg>