<?xml version="1.0" encoding="iso-8859-1"?>
<!-- Generator: Adobe Illustrator 15.1.0, SVG Export Plug-In . SVG Version: 6.00 Build 0)  -->
<!DOCTYPE svg PUBLIC "-//W3C//DTD SVG 1.1//EN" "http://www.w3.org/Graphics/SVG/1.1/DTD/svg11.dtd">
<svg version="1.1" id="Layer_1" xmlns="http://www.w3.org/2000/svg" xmlns:xlink="http://www.w3.org/1999/xlink" x="0px" y="0px"
	 width="595.28px" height="693.448px" viewBox="0 0 595.28 693.448" style="enable-background:new 0 0 595.28 693.448;"
	 xml:space="preserve">
<rect x="-3141.358" y="319.455" style="fill:#DAC725;" width="14.151" height="21.621"/>
<g>
	<g>
		<g>
			<path d="M184.558,651.645c2.305,1.691,3.453,4.145,3.453,7.364c0,2.89-1.025,5.244-3.07,7.065
				c-2.051,1.826-4.975,2.737-8.772,2.737c-2.571,0-4.96-0.452-7.165-1.355c-2.197-0.903-3.843-2.078-4.93-3.521l0.666-0.643
				c1.018,1.348,2.557,2.45,4.623,3.303c2.067,0.854,4.334,1.279,6.806,1.279c3.529,0,6.208-0.812,8.062-2.438
				c1.845-1.623,2.764-3.766,2.764-6.426c0-2.955-1.064-5.187-3.2-6.698c-2.136-1.512-5.726-2.266-10.771-2.266h-6.707l1.876-15.861
				h18.044v0.938h-17.179l-1.677,13.986h5.842C178.473,649.107,182.254,649.953,184.558,651.645z"/>
			<path d="M233.452,667.729v0.934h-23.686v-34.479h22.92v0.938h-21.901v15.563h19.612v0.938h-19.612v16.106H233.452z"/>
			<path d="M247.017,665.118c-2.403-2.465-3.605-6.094-3.605-10.886v-20.049h1.018v19.999c0,4.532,1.096,7.946,3.277,10.243
				c2.189,2.3,5.328,3.449,9.432,3.449c4.095,0,7.241-1.148,9.423-3.449c2.182-2.297,3.276-5.711,3.276-10.243v-19.999h1.018v20.049
				c0,4.792-1.201,8.42-3.605,10.886c-2.411,2.461-5.779,3.693-10.111,3.693C252.796,668.812,249.429,667.579,247.017,665.118z"/>
			<path d="M309.322,668.662l-9.04-12.164c-1.188,0.23-2.58,0.345-4.173,0.345h-11.023v11.819h-1.019v-34.479h12.042
				c4.371,0,7.793,0.995,10.266,2.981s3.713,4.769,3.713,8.348c0,2.76-0.766,5.064-2.289,6.92c-1.523,1.856-3.675,3.127-6.453,3.816
				l9.247,12.413H309.322z M296.217,655.905c4.126,0,7.303-0.903,9.522-2.71c2.221-1.803,3.33-4.363,3.33-7.682
				c0-3.315-1.109-5.875-3.33-7.682c-2.22-1.807-5.396-2.71-9.522-2.71h-11.131v20.784H296.217z"/>
			<path d="M342.155,627.19h1.018l-16.771,46.398h-1.019L342.155,627.19z"/>
			<path d="M382.612,632.117v36.545h-1.018v-7.781c-0.881,2.431-2.373,4.359-4.471,5.787s-4.523,2.144-7.265,2.144
				c-2.373,0-4.532-0.551-6.483-1.649c-1.945-1.103-3.477-2.638-4.594-4.608c-1.117-1.968-1.684-4.184-1.684-6.649
				c0-2.461,0.566-4.669,1.684-6.625c1.117-1.952,2.648-3.479,4.594-4.578c1.951-1.103,4.11-1.65,6.483-1.65
				c2.71,0,5.122,0.712,7.241,2.14c2.113,1.432,3.613,3.342,4.494,5.742v-18.816H382.612z M375.854,666.347
				c1.799-1.018,3.2-2.438,4.218-4.26c1.019-1.822,1.523-3.881,1.523-6.182c0-2.296-0.505-4.359-1.523-6.181
				c-1.018-1.822-2.419-3.234-4.218-4.233c-1.792-1.003-3.797-1.504-5.994-1.504c-2.204,0-4.202,0.501-6.001,1.504
				c-1.792,0.999-3.2,2.411-4.219,4.233c-1.01,1.822-1.523,3.885-1.523,6.181c0,2.3,0.514,4.36,1.523,6.182
				c1.019,1.822,2.427,3.242,4.219,4.26c1.799,1.018,3.797,1.527,6.001,1.527C372.057,667.874,374.062,667.365,375.854,666.347z"/>
			<path d="M409.674,645.341c1.608,1.527,2.411,3.736,2.411,6.625v16.696h-1.018v-5.416c-0.842,1.738-2.129,3.101-3.836,4.088
				c-1.715,0.984-3.766,1.478-6.178,1.478c-2.908,0-5.189-0.651-6.836-1.948c-1.638-1.294-2.457-3.027-2.457-5.194
				c0-2.037,0.735-3.686,2.205-4.949c1.477-1.267,3.857-1.898,7.143-1.898h9.959v-2.806c0-2.66-0.705-4.662-2.105-6.009
				c-1.408-1.347-3.482-2.021-6.23-2.021c-1.892,0-3.668,0.321-5.306,0.96c-1.646,0.64-3.062,1.504-4.249,2.588l-0.711-0.689
				c1.255-1.183,2.778-2.113,4.577-2.787c1.792-0.67,3.675-1.007,5.642-1.007C405.731,643.052,408.059,643.813,409.674,645.341z
				 M411.067,661.375v-5.615h-10.014c-2.84,0-4.938,0.524-6.27,1.573c-1.339,1.053-2.013,2.48-2.013,4.287
				c0,1.937,0.728,3.464,2.189,4.582c1.454,1.114,3.491,1.673,6.093,1.673C405.938,667.874,409.276,665.708,411.067,661.375z"/>
			<path d="M442.63,643.197l-13.979,29.553c-0.949,2.037-2.014,3.479-3.2,4.333s-2.595,1.282-4.218,1.282
				c-2.373,0-4.271-0.754-5.695-2.266l0.766-0.789c0.712,0.754,1.454,1.298,2.234,1.627c0.781,0.325,1.692,0.49,2.741,0.49
				c1.354,0,2.534-0.368,3.536-1.106c0.996-0.739,1.938-2.029,2.818-3.866l1.829-3.893l-12.042-25.366h1.172l11.429,24.332
				l11.437-24.332H442.63z"/>
		</g>
	</g>
	<g>
		<path style="fill:#AC9A32;" d="M201.461,59.712c2.465,1.217,4.356,3.346,5.681,6.377c1.691,3.896,1.553,7.525-0.398,10.886
			c-1.975,3.353-5.771,6.254-11.398,8.708l-20.93,9.11l-19.812-45.487l19.628-8.543c5.075-2.208,9.446-2.897,13.129-2.079
			c3.682,0.819,6.33,3.089,7.945,6.813c1.096,2.511,1.409,4.915,0.941,7.207c-0.475,2.293-1.607,4.345-3.391,6.151
			C196.126,58.204,198.996,58.487,201.461,59.712z M161.142,51.177l7.188,16.504l14.492-6.308c3.674-1.604,6.207-3.544,7.586-5.821
			c1.377-2.278,1.492-4.758,0.313-7.445c-1.163-2.679-3.054-4.294-5.657-4.838c-2.603-0.536-5.741-0.007-9.432,1.6L161.142,51.177z
			 M201.866,75.65c1.479-2.293,1.578-4.911,0.291-7.854c-2.465-5.676-7.823-6.721-16.053-3.139l-16.053,6.989l7.448,17.09
			l16.046-6.993C197.61,79.976,200.397,77.943,201.866,75.65z"/>
		<path style="fill:#AC9A32;" d="M208.956,28.318L214,26.883l13.604,47.711l-5.045,1.439L208.956,28.318z"/>
		<path style="fill:#AC9A32;" d="M249.268,66.579c-4.226-1.562-7.731-4.084-10.519-7.559c-2.794-3.472-4.547-7.575-5.251-12.291
			c-0.712-4.723-0.237-9.148,1.408-13.297c1.646-4.137,4.279-7.575,7.878-10.315c3.605-2.737,7.838-4.471,12.691-5.202
			c3.652-0.544,7.097-0.444,10.373,0.31c3.262,0.754,6.146,2.139,8.643,4.153l-2.802,3.785c-4.409-3.303-9.546-4.52-15.38-3.64
			c-3.873,0.582-7.279,1.998-10.188,4.249s-5.029,5.056-6.361,8.409c-1.34,3.357-1.723,6.947-1.148,10.774
			c0.566,3.835,1.991,7.158,4.257,9.975c2.266,2.813,5.105,4.869,8.559,6.17c3.437,1.293,7.104,1.653,10.984,1.076
			c5.887-0.884,10.419-3.571,13.627-8.065l3.789,2.802c-1.799,2.656-4.164,4.838-7.089,6.542c-2.917,1.703-6.2,2.829-9.845,3.38
			C258.024,68.562,253.493,68.141,249.268,66.579z"/>
		<path style="fill:#AC9A32;" d="M306.444,48.042L306.1,65.193l-5.167-0.107l0.344-17.147l-19.184-32.856l5.596,0.115l16.436,28.19
			L321.7,15.886l5.252,0.107L306.444,48.042z"/>
		<path style="fill:#AC9A32;" d="M338.466,65.147c-3.476-2.863-5.971-6.392-7.464-10.587c-1.501-4.203-1.814-8.643-0.927-13.335
			c0.873-4.693,2.764-8.72,5.681-12.095c2.917-3.376,6.522-5.765,10.824-7.169c4.294-1.408,8.856-1.661,13.688-0.758
			c3.628,0.678,6.858,1.906,9.699,3.69c2.833,1.78,5.106,4.03,6.813,6.752l-3.882,2.66c-3.093-4.563-7.54-7.391-13.343-8.475
			c-3.858-0.723-7.533-0.498-11.016,0.678c-3.498,1.175-6.415,3.127-8.781,5.856c-2.357,2.733-3.889,6.006-4.615,9.811
			c-0.705,3.812-0.452,7.414,0.766,10.813c1.209,3.403,3.238,6.281,6.055,8.631c2.832,2.358,6.178,3.896,10.028,4.616
			c5.864,1.095,11.023,0.042,15.517-3.154l2.656,3.881c-2.564,1.929-5.512,3.215-8.826,3.866c-3.322,0.654-6.782,0.643-10.41-0.031
			C346.105,69.894,341.94,68.01,338.466,65.147z"/>
		<path style="fill:#AC9A32;" d="M394.983,30.343l4.907,1.833l-15.792,42.222l26.02,9.734l-1.585,4.249L377.599,76.81
			L394.983,30.343z"/>
		<path style="fill:#AC9A32;" d="M447.552,104.472l-2.213,3.965l-30.658-17.056l24.121-43.359l29.732,16.535l-2.204,3.966
			l-25.147-13.986l-8.581,15.425l22.422,12.47l-2.167,3.9l-22.43-12.474l-8.956,16.106L447.552,104.472z"/>
	</g>
	<path style="fill:#8C8C8C;" d="M297.732,569.746c-1.493,0.007-3.269-0.02-4.915-0.05c-62.029-1.29-119.842-26.655-162.795-71.423
		c-42.945-44.771-65.888-103.59-64.602-165.62c2.633-127.045,109.768-230.038,237.035-227.405
		c128.04,2.66,230.053,108.994,227.404,237.042C527.25,467.703,423.108,569.746,297.732,569.746z M297.563,120.877
		c-116.932,0-214.038,95.15-216.465,212.102c-1.209,57.842,20.187,112.692,60.238,154.439c40.053,41.748,93.96,65.402,151.803,66.6
		c1.539,0.034,3.069,0.05,4.593,0.05c116.917,0,214.016-95.146,216.45-212.102c2.473-119.402-92.65-218.563-212.049-221.04
		C300.61,120.892,299.079,120.877,297.563,120.877z"/>
	<path style="fill:#827F81;" d="M413.899,315.954c-5.604,0-11.016,0.777-16.221,2.147l-33.354-85.925h41.988
		c4.088,0,7.395-3.307,7.395-7.391c0-4.081-3.307-7.391-7.395-7.391h-51.727c-0.152,0-2.304,0-3.728,0.501
		c-3.851,1.355-5.688,5.756-4.21,9.561l9.722,25.036h-93.095l-3.582-11.318h14.759c4.065,0,7.388-3.307,7.388-7.383
		c0-4.088-3.322-7.391-7.388-7.391H224.74c-4.088,0-7.396,3.303-7.396,7.391c0,4.076,3.308,7.383,7.396,7.383h19.444l6.698,21.147
		l-34.44,59.067c-7.916-3.483-16.619-5.436-25.806-5.436c-35.474,0-64.35,28.864-64.35,64.342c0,35.486,28.876,64.35,64.35,64.35
		c32.993,0,60.224-24.952,63.89-56.958h12.807c3.139,9.887,12.402,17.079,23.326,17.079c13.48,0,24.458-10.97,24.458-24.47
		c0-6.365-2.479-12.152-6.476-16.516l54.665-93.42l20.585,53.043c-20.408,10.809-34.35,32.24-34.35,56.893
		c0,35.486,28.861,64.35,64.35,64.35c35.482,0,64.365-28.864,64.365-64.35C478.257,344.818,449.374,315.954,413.899,315.954
		L413.899,315.954z M256.923,281.318l24.244,76.426c-6.561,2.771-11.659,8.321-13.834,15.161h-12.807
		c-2.059-17.982-11.574-33.671-25.346-44.021L256.923,281.318z M239.591,372.904h-36.078l18.181-31.187
		C231.147,349.338,237.708,360.361,239.591,372.904L239.591,372.904z M190.637,429.867c-27.321,0-49.567-22.23-49.567-49.571
		c0-27.329,22.246-49.563,49.567-49.563c6.468,0,12.623,1.279,18.296,3.537l-24.673,42.302c-1.324,2.285-1.34,5.11-0.03,7.41
		c1.332,2.285,3.766,3.705,6.407,3.705h48.954C236.009,411.525,215.462,429.867,190.637,429.867L190.637,429.867z M290.659,389.976
		c-5.344,0-9.691-4.348-9.691-9.68c0-5.328,4.332-9.676,9.66-9.691l0.016,0.016l0.016-0.016c5.336,0.016,9.668,4.364,9.668,9.691
		C300.327,385.627,295.995,389.976,290.659,389.976L290.659,389.976z M296.103,355.952l-28.133-88.67h80.012L296.103,355.952z
		 M413.899,429.867c-27.336,0-49.574-22.23-49.574-49.571c0-18.376,10.074-34.414,24.955-42.968l17.723,45.64
		c1.141,2.928,3.927,4.719,6.896,4.719c0.889,0,1.784-0.157,2.672-0.494c3.813-1.485,5.688-5.764,4.203-9.569l-17.715-45.667
		c3.506-0.792,7.119-1.225,10.84-1.225c27.329,0,49.567,22.235,49.567,49.563C463.467,407.636,441.229,429.867,413.899,429.867
		L413.899,429.867z M413.899,429.867"/>
</g>
</svg>
