<?xml version="1.0" encoding="iso-8859-1"?>
<!-- Generator: Adobe Illustrator 15.1.0, SVG Export Plug-In . SVG Version: 6.00 Build 0)  -->
<!DOCTYPE svg PUBLIC "-//W3C//DTD SVG 1.1//EN" "http://www.w3.org/Graphics/SVG/1.1/DTD/svg11.dtd">
<svg version="1.1" id="Layer_1" xmlns="http://www.w3.org/2000/svg" xmlns:xlink="http://www.w3.org/1999/xlink" x="0px" y="0px"
	 width="595.28px" height="693.448px" viewBox="0 0 595.28 693.448" style="enable-background:new 0 0 595.28 693.448;"
	 xml:space="preserve">
<rect x="-3141.358" y="319.455" style="fill:#DAC725;" width="14.151" height="21.621"/>
<g>
	<g>
		<g>
			<path d="M156.478,642.323c2.236,1.611,3.361,3.97,3.385,7.069c0.022,2.787-0.95,5.064-2.91,6.836
				c-1.959,1.772-4.769,2.672-8.42,2.699c-2.488,0.019-4.793-0.398-6.928-1.252c-2.121-0.854-3.721-1.975-4.77-3.36l0.627-0.62
				c0.996,1.29,2.488,2.339,4.486,3.146c1.99,0.808,4.188,1.205,6.576,1.187c3.391-0.027,5.971-0.831,7.747-2.412
				c1.761-1.58,2.634-3.651,2.61-6.216c-0.023-2.848-1.064-4.991-3.131-6.434c-2.066-1.439-5.535-2.136-10.396-2.098l-6.469,0.05
				l1.692-15.303l17.385-0.134l0.008,0.903l-16.55,0.126l-1.509,13.496l5.626-0.046
				C150.606,639.924,154.251,640.712,156.478,642.323z"/>
			<path d="M203.726,657.462l0.008,0.903l-22.828,0.172l-0.26-33.228l22.093-0.168l0.008,0.903l-21.113,0.16l0.114,14.997
				l18.909-0.146l0.007,0.903l-18.908,0.146l0.123,15.521L203.726,657.462z"/>
			<path d="M216.778,654.844c-2.336-2.354-3.521-5.845-3.553-10.465l-0.152-19.318l0.979-0.007l0.153,19.271
				c0.03,4.367,1.102,7.651,3.23,9.849c2.12,2.2,5.159,3.288,9.102,3.257c3.95-0.03,6.975-1.163,9.064-3.395
				c2.082-2.228,3.115-5.527,3.084-9.895l-0.152-19.272l0.979-0.007l0.153,19.317c0.03,4.62-1.103,8.126-3.406,10.519
				c-2.289,2.388-5.535,3.602-9.715,3.632C222.374,658.361,219.12,657.201,216.778,654.844z"/>
			<path d="M276.849,657.806l-8.812-11.658c-1.141,0.229-2.48,0.348-4.019,0.359l-10.626,0.08l0.092,11.396l-0.979,0.007
				l-0.261-33.227l11.605-0.088c4.218-0.031,7.517,0.903,9.921,2.798c2.396,1.898,3.613,4.569,3.637,8.019
				c0.022,2.656-0.697,4.884-2.151,6.683c-1.454,1.803-3.521,3.043-6.193,3.729l9.011,11.893L276.849,657.806z M264.11,645.607
				c3.988-0.03,7.035-0.926,9.17-2.68c2.121-1.761,3.178-4.233,3.146-7.429c-0.023-3.196-1.109-5.657-3.261-7.38
				c-2.159-1.723-5.222-2.572-9.21-2.541l-10.725,0.08l0.153,20.029L264.11,645.607z"/>
			<path d="M308.188,617.594l0.973-0.004l-15.824,44.836l-0.979,0.008L308.188,617.594z"/>
			<path d="M330.304,634.4c1.692-1.137,3.789-1.715,6.309-1.734l0.008,0.949l-0.299,0.004c-3.031,0.023-5.396,0.98-7.074,2.879
				c-1.684,1.895-2.518,4.471-2.495,7.728l0.107,13.197l-0.979,0.008l-0.191-24.538l0.979-0.008l0.046,6.361
				C327.418,637.148,328.612,635.537,330.304,634.4z"/>
			<path d="M364.278,644.842l-22.529,0.173c0.022,2.216,0.543,4.194,1.561,5.943c1.034,1.75,2.436,3.108,4.219,4.077
				c1.791,0.964,3.797,1.442,6.018,1.428c1.729-0.016,3.359-0.353,4.868-1.015c1.508-0.658,2.748-1.611,3.72-2.855l0.697,0.662
				c-1.103,1.306-2.465,2.315-4.088,3.021c-1.639,0.708-3.361,1.071-5.19,1.087c-2.411,0.015-4.585-0.494-6.499-1.543
				c-1.922-1.045-3.43-2.515-4.539-4.405c-1.11-1.887-1.67-4.02-1.692-6.393c-0.015-2.373,0.475-4.505,1.47-6.392
				c0.995-1.891,2.381-3.376,4.156-4.451c1.77-1.072,3.768-1.615,5.986-1.635c2.182-0.016,4.18,0.49,5.986,1.52
				c1.807,1.033,3.224,2.461,4.272,4.291c1.041,1.821,1.569,3.907,1.585,6.25V644.842z M347.107,634.863
				c-1.593,0.931-2.863,2.209-3.813,3.828c-0.949,1.618-1.47,3.425-1.554,5.42l21.603-0.165c-0.114-1.994-0.658-3.793-1.653-5.396
				c-0.995-1.604-2.297-2.859-3.904-3.767s-3.383-1.355-5.344-1.34C350.483,633.459,348.7,633.934,347.107,634.863z"/>
			<path d="M391.546,634.879c1.799,1.745,2.725,4.26,2.748,7.548l0.115,14.479l-0.98,0.008l-0.115-14.479
				c-0.022-3.001-0.834-5.298-2.434-6.882c-1.593-1.589-3.844-2.373-6.744-2.351c-3.3,0.027-5.895,1.007-7.793,2.936
				c-1.891,1.93-2.833,4.452-2.811,7.587l0.107,13.339l-0.979,0.008l-0.191-24.539l0.979-0.008l0.055,6.553
				c0.765-2.094,2.059-3.743,3.881-4.941c1.814-1.201,4.049-1.81,6.69-1.833C387.243,632.279,389.731,633.137,391.546,634.879z"/>
			<path d="M416.823,655.119c-0.551,0.574-1.271,1.018-2.174,1.324c-0.889,0.307-1.814,0.463-2.756,0.471
				c-1.961,0.016-3.477-0.517-4.548-1.604c-1.071-1.083-1.607-2.542-1.623-4.379l-0.138-17.749l-4.898,0.039l-0.008-0.903
				l4.898-0.039l-0.038-5.362l0.979-0.007l0.039,5.362l8.574-0.065l0.007,0.903l-8.573,0.065l0.137,17.511
				c0.008,1.741,0.468,3.066,1.348,3.98c0.889,0.911,2.182,1.359,3.881,1.348c1.7-0.012,3.094-0.532,4.195-1.55L416.823,655.119z"/>
			<path d="M439.015,634.094c1.57,1.459,2.358,3.579,2.381,6.361l0.123,16.092l-0.98,0.008l-0.045-5.221
				c-0.797,1.684-2.021,3.004-3.668,3.965c-1.638,0.965-3.613,1.454-5.932,1.47c-2.811,0.023-5.015-0.586-6.607-1.825
				c-1.592-1.236-2.396-2.897-2.41-4.987c-0.016-1.964,0.681-3.557,2.09-4.789c1.416-1.229,3.697-1.856,6.866-1.879l9.6-0.073
				l-0.016-2.706c-0.022-2.561-0.712-4.485-2.074-5.771s-3.376-1.922-6.017-1.902c-1.83,0.015-3.537,0.337-5.114,0.965
				c-1.585,0.631-2.939,1.473-4.073,2.521l-0.688-0.654c1.194-1.152,2.664-2.056,4.387-2.718c1.722-0.662,3.536-0.999,5.435-1.014
				C435.203,631.912,437.462,632.632,439.015,634.094z M440.485,649.527l-0.047-5.409l-9.645,0.073
				c-2.748,0.022-4.754,0.543-6.033,1.562c-1.285,1.025-1.921,2.407-1.906,4.146c0.016,1.867,0.729,3.337,2.137,4.401
				s3.375,1.589,5.895,1.569C435.586,655.835,438.786,653.718,440.485,649.527z"/>
			<path d="M452.22,621.241l0.98-0.008l0.275,35.222l-0.979,0.008L452.22,621.241z"/>
		</g>
	</g>
	<g>
		<path style="fill:#AC9A32;" d="M50.929,245.79c-3.384,2.729-7.211,4.401-11.468,4.991c-4.257,0.593-8.513,0.02-12.769-1.73
			c-4.249-1.749-7.671-4.34-10.281-7.762c-2.603-3.422-4.141-7.311-4.616-11.659c-0.475-4.356,0.191-8.731,2.006-13.129
			c1.347-3.303,3.153-6.12,5.39-8.467c2.25-2.334,4.83-4.045,7.731-5.136l1.745,4.21c-4.93,2.036-8.467,5.695-10.648,10.981
			c-1.447,3.51-1.959,7.039-1.546,10.568c0.421,3.537,1.685,6.691,3.789,9.462c2.112,2.779,4.884,4.876,8.337,6.293
			c3.452,1.416,6.904,1.891,10.357,1.412c3.444-0.486,6.568-1.837,9.339-4.061c2.786-2.212,4.899-5.083,6.354-8.593
			c2.189-5.324,2.219-10.438,0.092-15.322l4.194-1.757c1.31,2.813,1.944,5.86,1.898,9.128c-0.046,3.269-0.75,6.561-2.097,9.86
			C56.923,239.478,54.327,243.049,50.929,245.79z"/>
		<path style="fill:#AC9A32;" d="M74.399,179.691l-14.361,22.571l7.662,11.747l-2.832,4.459l-28.508-44.27l2.688-4.229l52.086,7.234
			l-2.879,4.513L74.399,179.691z M69.952,179.051l-27.835-4.111l15.456,23.551L69.952,179.051z"/>
		<path style="fill:#AC9A32;" d="M95.826,103.411l33.92,33.736l-3.422,3.46l-27.138-26.992l9.569,36.121l-1.685,1.707l-35.934-9.148
			l26.992,26.851l-3.422,3.46l-33.92-33.744l2.939-2.97l39.8,10.189l-10.648-39.7L95.826,103.411z"/>
		<path style="fill:#AC9A32;" d="M144.306,75.041c4.486,0.57,8.115,2.993,10.887,7.28c2.771,4.291,3.49,8.604,2.143,12.93
			c-1.332,4.329-4.57,8.16-9.699,11.498l-10.785,7.031l8.19,12.704l-4.257,2.76l-25.95-40.232l15.034-9.799
			C134.997,75.875,139.813,74.482,144.306,75.041z M152.544,94.527c0.986-3.112,0.451-6.258-1.601-9.439
			c-2.105-3.257-4.769-5.071-7.999-5.439c-3.23-0.379-6.829,0.728-10.81,3.326l-10.687,6.951l12.982,20.114l10.672-6.958
			C149.091,100.494,151.571,97.643,152.544,94.527z"/>
		<path style="fill:#AC9A32;" d="M160.436,61.874l4.563-2.212l20.692,43.214l-4.563,2.208L160.436,61.874z"/>
		<path style="fill:#AC9A32;" d="M221.915,38.563l14.468,45.709l-3.974,1.271l-41.063-27.658l11.752,37.082l-4.823,1.554
			l-14.483-45.705l3.98-1.275l41.123,27.639l-11.742-37.089L221.915,38.563z"/>
		<path style="fill:#AC9A32;" d="M280.507,54.096l4.823-0.524l1.921,18.208c-2.013,2.193-4.493,3.977-7.418,5.351
			c-2.924,1.37-6.063,2.247-9.416,2.61c-4.761,0.513-9.154-0.061-13.182-1.738c-4.026-1.676-7.318-4.249-9.891-7.716
			c-2.557-3.468-4.088-7.49-4.563-12.087c-0.49-4.585,0.161-8.85,1.945-12.792c1.791-3.935,4.478-7.157,8.061-9.668
			c3.59-2.503,7.785-4.011,12.592-4.532c3.613-0.398,7.013-0.176,10.166,0.643c3.162,0.834,5.902,2.273,8.23,4.317l-2.795,3.541
			c-4.156-3.314-9.125-4.658-14.928-4.034c-3.857,0.425-7.241,1.65-10.166,3.701c-2.924,2.029-5.113,4.662-6.561,7.881
			c-1.446,3.211-1.982,6.683-1.592,10.407c0.391,3.72,1.631,6.997,3.721,9.794c2.074,2.806,4.754,4.903,8.015,6.3
			c3.261,1.39,6.829,1.872,10.671,1.458c4.9-0.528,8.911-2.212,12.057-5.03L280.507,54.096z"/>
		<path style="fill:#AC9A32;" d="M349.021,70.294l-26.356-3.988l-7.616,11.819l-5.198-0.788l28.883-44.174l4.931,0.746l14.36,50.723
			l-5.267-0.796L349.021,70.294z M347.812,65.95l-7.456-27.203l-15.249,23.769L347.812,65.95z"/>
		<path style="fill:#AC9A32;" d="M380.086,41.327l18.312,6.622c4.746,1.715,8.604,4.195,11.551,7.418
			c2.947,3.238,4.815,6.928,5.596,11.069c0.781,4.146,0.375,8.413-1.217,12.796c-1.584,4.382-4.004,7.927-7.25,10.614
			c-3.245,2.695-7.042,4.34-11.375,4.938c-4.332,0.597-8.872,0.039-13.626-1.684l-18.312-6.622L380.086,41.327z M383.309,88.877
			c3.942,1.428,7.671,1.887,11.2,1.389c3.521-0.505,6.598-1.845,9.224-4.038c2.626-2.178,4.601-5.075,5.902-8.685
			c1.316-3.613,1.653-7.108,1.026-10.469c-0.629-3.364-2.137-6.357-4.525-8.999c-2.388-2.641-5.549-4.669-9.5-6.094l-13.289-4.811
			l-13.335,36.894L383.309,88.877z"/>
		<path style="fill:#AC9A32;" d="M445.921,110.625l-22.852-13.707l-11.506,8.053l-4.509-2.702l43.382-29.962l4.271,2.572
			l-5.863,52.453l-4.578-2.741L445.921,110.625z M446.456,106.147l3.384-28.041l-23.073,16.233L446.456,106.147z"/>
		<path style="fill:#AC9A32;" d="M506.289,120.11c0.666,4.49-0.688,8.65-4.073,12.501c-3.375,3.843-7.318,5.707-11.826,5.6
			c-4.51-0.115-9.057-2.205-13.635-6.247l-9.63-8.52l-9.997,11.379l-3.79-3.342l31.677-36.048l13.42,11.865
			C503.013,111.349,505.63,115.613,506.289,120.11z M489.8,133.384c3.246,0.096,6.124-1.274,8.635-4.122
			c2.557-2.917,3.583-5.994,3.086-9.217c-0.506-3.223-2.535-6.4-6.086-9.546l-9.523-8.417l-15.847,18.021l9.53,8.424
			C483.147,131.666,486.554,133.289,489.8,133.384z"/>
		<path style="fill:#AC9A32;" d="M525.718,141.702l-10.702-12.991l3.368-2.802l24.619,29.886l-3.368,2.798l-10.702-12.983
			l-33.529,27.831l-3.215-3.904L525.718,141.702z"/>
		<path style="fill:#AC9A32;" d="M530.326,218.759l-3.767,2.228l-17.147-29.22l41.246-24.42l16.62,28.332l-3.774,2.235
			l-14.056-23.972l-14.666,8.692l12.531,21.369l-3.713,2.201l-12.539-21.381l-15.311,9.075L530.326,218.759z"/>
		<path style="fill:#AC9A32;" d="M542.101,260.793l10.594-15.701c-0.566-1.106-1.071-2.281-1.531-3.518l-4.485-12.068l-14.224,5.343
			l-1.76-4.754l44.828-16.86l6.246,16.822c2.129,5.737,2.435,10.74,0.919,15.027c-1.53,4.275-4.685,7.318-9.462,9.117
			c-3.506,1.317-6.79,1.539-9.859,0.678c-3.078-0.876-5.757-2.756-8.046-5.649l-11.292,16.761L542.101,260.793z M561.881,249.027
			c2.848,1.608,6.032,1.753,9.585,0.421c3.62-1.371,5.971-3.583,7.034-6.676c1.071-3.085,0.773-6.859-0.88-11.307l-4.44-11.942
			l-22.476,8.459l4.44,11.95C556.806,244.381,559.048,247.42,561.881,249.027z"/>
	</g>
	<path style="fill:#8C8C8C;" d="M294.631,561.604c-0.007,0,0,0-0.007,0l-3.024-0.02C168.007,559.954,68.78,457.658,70.403,333.552
		c1.592-122.476,102.104-222.115,224.044-222.115l3.024,0.019c123.569,1.623,222.803,103.916,221.203,228.021
		C517.06,461.956,416.548,561.604,294.631,561.604z M294.447,127.115c-113.411,0-206.882,92.701-208.366,206.644
		c-1.508,115.463,90.783,210.632,205.732,212.147l2.811,0.02c113.388,0.004,206.865-92.697,208.373-206.651
		c1.485-115.463-90.806-210.632-205.732-212.14L294.447,127.115z"/>
	<path style="fill:#8C8C8C;" d="M428.551,199.851c-1.546-1.497-3.56-2.319-5.741-2.319c-2.151,0.023-4.188,0.873-5.765,2.434
		l-28.163,28.741l-5.673-5.607c-4.54-4.505-10.571-6.985-17.193-6.985c-6.454,0.046-12.524,2.614-17.087,7.242l-6.568,6.709
		c-3.139-1.474-6.645-2.254-10.387-2.254c0,0,0,0-0.008,0c-6.492,0.046-12.563,2.618-17.087,7.238L286.7,263.783l-5.643-5.581
		c-1.522-1.535-3.566-2.381-5.81-2.381c-2.159,0.016-4.194,0.884-5.703,2.427c-3.146,3.181-3.123,8.34,0.069,11.51
		c0,0,88.126,87.177,91.747,90.737c1.523,1.531,3.552,2.373,5.718,2.373h0.055c2.189-0.016,4.294-0.922,5.726-2.427
		c1.546-1.569,2.388-3.628,2.357-5.803c-0.03-2.189-0.911-4.229-2.442-5.707l-5.688-5.638l28.202-28.761
		c7.173-7.322,8.995-18.438,4.532-27.669l6.583-6.717c9.362-9.55,9.255-24.968-0.253-34.364l-5.703-5.642l28.217-28.764
		C431.788,208.187,431.751,203.031,428.551,199.851z M332.149,240.163v3.912c2.112,0,4.096,0.815,5.588,2.3l45.877,45.38
		c3.146,3.108,3.178,8.207,0.069,11.364l-28.163,28.738l-57.254-56.633l28.202-28.761c1.501-1.527,3.491-2.377,5.611-2.388
		L332.149,240.163L332.149,240.163z M366.214,228.473v3.912c2.137,0,4.073,0.796,5.597,2.3l22.927,22.686
		c1.531,1.512,2.381,3.521,2.396,5.653c0.008,2.151-0.812,4.18-2.319,5.707l-5.589,5.703l-34.311-33.943l5.604-5.718
		c1.501-1.523,3.499-2.373,5.627-2.388L366.214,228.473L366.214,228.473z M367.079,358.94L367.079,358.94v0.008V358.94z"/>
	<path style="fill:#8C8C8C;" d="M315.751,349.364l-28.178,28.745l-34.311-33.951l28.209-28.764c3.123-3.2,3.085-8.355-0.1-11.506
		c-1.523-1.504-3.552-2.331-5.787-2.331c-2.166,0.023-4.195,0.884-5.711,2.427l-28.171,28.741l-17.193-17.01
		c-1.546-1.485-3.575-2.304-5.749-2.304c-2.151,0.031-4.172,0.892-5.703,2.431c-1.508,1.535-2.343,3.575-2.343,5.803
		c0.03,2.201,0.911,4.241,2.435,5.71l5.688,5.631l-28.217,28.768c-7.158,7.307-8.972,18.415-4.517,27.654l-6.599,6.729
		c-4.524,4.616-6.989,10.736-6.943,17.235c0.046,6.477,2.603,12.559,7.211,17.132l5.695,5.634l-25.055,25.503
		c-3.131,3.185-3.101,8.344,0.076,11.495c1.523,1.52,3.567,2.358,5.734,2.358h0.037h0.016c2.174-0.023,4.203-0.881,5.719-2.427
		l25.032-25.496l5.696,5.626c4.563,4.497,10.594,6.974,17.193,6.974c6.461-0.046,12.516-2.618,17.055-7.242l6.592-6.709
		c3.162,1.477,6.69,2.258,10.41,2.258c0,0,0,0,0.008,0c6.446-0.046,12.51-2.614,17.064-7.242l28.178-28.737l5.665,5.6
		c1.501,1.5,3.575,2.362,5.765,2.362c2.166-0.016,4.203-0.873,5.741-2.435c3.139-3.196,3.101-8.359-0.084-11.506l-17.171-16.979
		l28.225-28.787c1.493-1.546,2.32-3.579,2.32-5.746c-0.016-2.151-0.865-4.183-2.42-5.733
		C324.241,346.279,318.798,346.244,315.751,349.364z M231.001,435.794l-5.619,5.723c-1.492,1.523-3.475,2.369-5.656,2.388
		c-2.105,0-4.096-0.819-5.604-2.308l-22.936-22.678c-1.516-1.5-2.357-3.514-2.381-5.676c-0.023-2.147,0.797-4.168,2.305-5.696
		l5.588-5.699L231.001,435.794z M287.665,401.063l-28.209,28.768c-1.486,1.516-3.477,2.358-5.688,2.374
		c-2.098,0-4.072-0.812-5.581-2.316l-45.861-45.342c-1.531-1.523-2.381-3.544-2.404-5.688c-0.023-2.128,0.797-4.153,2.305-5.692
		l28.186-28.741L287.665,401.063z M166.224,471.571L166.224,471.571v0.003V471.571z"/>
</g>
</svg>
