<?xml version="1.0" encoding="iso-8859-1"?>
<!-- Generator: Adobe Illustrator 15.1.0, SVG Export Plug-In . SVG Version: 6.00 Build 0)  -->
<!DOCTYPE svg PUBLIC "-//W3C//DTD SVG 1.1//EN" "http://www.w3.org/Graphics/SVG/1.1/DTD/svg11.dtd">
<svg version="1.1" id="Layer_1" xmlns="http://www.w3.org/2000/svg" xmlns:xlink="http://www.w3.org/1999/xlink" x="0px" y="0px"
	 width="595.28px" height="693.448px" viewBox="0 0 595.28 693.448" style="enable-background:new 0 0 595.28 693.448;"
	 xml:space="preserve">
<rect x="-3141.358" y="319.455" style="fill:#DAC725;" width="14.151" height="21.621"/>
<g>
	<g>
		<g>
			<path d="M149.49,669.648v0.934h-23.784v-0.738l15.402-15.119c2.136-2.102,3.574-3.885,4.317-5.347
				c0.75-1.458,1.117-2.978,1.117-4.555c0-2.461-0.857-4.398-2.564-5.811c-1.707-1.412-4.156-2.121-7.341-2.121
				c-2.442,0-4.563,0.345-6.354,1.038c-1.8,0.689-3.338,1.738-4.624,3.15l-0.712-0.689c2.74-2.955,6.637-4.432,11.689-4.432
				c3.353,0,6.009,0.789,7.977,2.365c1.967,1.573,2.947,3.725,2.947,6.45c0,1.742-0.406,3.399-1.217,4.976
				c-0.813,1.577-2.32,3.449-4.524,5.615l-14.537,14.285H149.49z"/>
			<path d="M173.834,653.564c2.304,1.692,3.452,4.145,3.452,7.364c0,2.89-1.025,5.244-3.069,7.065
				c-2.052,1.826-4.976,2.737-8.772,2.737c-2.572,0-4.961-0.452-7.166-1.355c-2.197-0.903-3.843-2.078-4.93-3.521l0.666-0.643
				c1.019,1.347,2.557,2.449,4.624,3.303c2.066,0.854,4.333,1.278,6.806,1.278c3.528,0,6.208-0.812,8.061-2.438
				c1.845-1.623,2.764-3.766,2.764-6.426c0-2.955-1.064-5.187-3.2-6.698c-2.136-1.512-5.726-2.266-10.771-2.266h-6.706l1.876-15.861
				h18.043v0.938h-17.179l-1.677,13.986h5.842C167.748,651.027,171.53,651.873,173.834,653.564z"/>
			<path d="M222.728,669.648v0.934h-23.686v-34.479h22.92v0.938h-21.901v15.563h19.612v0.938h-19.612v16.106H222.728z"/>
			<path d="M236.292,667.038c-2.403-2.465-3.605-6.094-3.605-10.886v-20.049h1.019v19.999c0,4.532,1.095,7.946,3.276,10.243
				c2.189,2.3,5.328,3.449,9.432,3.449c4.096,0,7.241-1.148,9.423-3.449c2.183-2.296,3.276-5.711,3.276-10.243v-19.999h1.019v20.049
				c0,4.792-1.202,8.42-3.605,10.886c-2.411,2.461-5.78,3.693-10.112,3.693C242.072,670.731,238.704,669.499,236.292,667.038z"/>
			<path d="M298.599,670.582l-9.041-12.164c-1.188,0.23-2.58,0.345-4.172,0.345h-11.023v11.819h-1.019v-34.479h12.042
				c4.371,0,7.793,0.995,10.266,2.981c2.473,1.987,3.712,4.77,3.712,8.348c0,2.76-0.765,5.064-2.288,6.92
				c-1.523,1.856-3.675,3.127-6.454,3.816l9.248,12.413H298.599z M285.492,657.824c4.126,0,7.304-0.903,9.523-2.709
				c2.22-1.803,3.33-4.364,3.33-7.682c0-3.315-1.11-5.875-3.33-7.682s-5.397-2.71-9.523-2.71h-11.13v20.784H285.492z"/>
			<path d="M331.431,629.11h1.019l-16.772,46.398h-1.018L331.431,629.11z"/>
			<path d="M354.243,646.717c1.769-1.164,3.95-1.746,6.561-1.746v0.984h-0.307c-3.153,0-5.61,0.976-7.371,2.932
				c-1.761,1.952-2.641,4.62-2.641,8.003v13.691h-1.019v-25.465h1.019v6.603C351.235,649.549,352.483,647.884,354.243,646.717z"/>
			<path d="M389.411,657.824H366.04c0,2.301,0.521,4.36,1.569,6.182c1.057,1.822,2.503,3.242,4.349,4.26
				c1.845,1.018,3.919,1.527,6.223,1.527c1.8,0,3.484-0.337,5.061-1.011c1.577-0.67,2.871-1.649,3.889-2.928l0.713,0.688
				c-1.156,1.348-2.58,2.381-4.272,3.104c-1.691,0.72-3.491,1.083-5.39,1.083c-2.502,0-4.746-0.551-6.729-1.649
				c-1.982-1.103-3.544-2.637-4.678-4.608c-1.133-1.968-1.707-4.184-1.707-6.649c0-2.461,0.529-4.669,1.578-6.625
				c1.049-1.952,2.502-3.479,4.348-4.578c1.845-1.103,3.92-1.65,6.224-1.65c2.273,0,4.341,0.54,6.2,1.623
				c1.861,1.083,3.33,2.58,4.395,4.482c1.072,1.906,1.6,4.072,1.6,6.503V657.824z M371.683,647.333
				c-1.662,0.953-2.994,2.266-3.996,3.942c-0.996,1.673-1.547,3.544-1.646,5.615h22.406c-0.1-2.071-0.658-3.942-1.676-5.615
				c-1.018-1.676-2.35-2.989-4.012-3.942c-1.661-0.949-3.506-1.428-5.542-1.428C375.188,645.905,373.335,646.384,371.683,647.333z"
				/>
			<path d="M417.774,647.704c1.859,1.822,2.793,4.44,2.793,7.854v15.023h-1.018v-15.023c0-3.12-0.818-5.508-2.465-7.166
				c-1.639-1.657-3.973-2.488-6.989-2.488c-3.422,0-6.124,0.995-8.099,2.982c-1.983,1.986-2.979,4.604-2.979,7.854v13.84h-1.018
				v-25.465h1.018v6.798c0.812-2.167,2.166-3.866,4.064-5.098c1.898-1.229,4.219-1.845,6.967-1.845
				C413.334,644.971,415.905,645.882,417.774,647.704z"/>
			<path d="M443.847,668.905c-0.573,0.593-1.332,1.045-2.266,1.355c-0.926,0.314-1.883,0.471-2.87,0.471
				c-2.028,0-3.599-0.566-4.7-1.699c-1.103-1.133-1.646-2.653-1.646-4.559v-18.418h-5.082v-0.938h5.082v-5.565h1.011v5.565h8.896
				v0.938h-8.896v18.173c0,1.807,0.46,3.185,1.378,4.138c0.911,0.953,2.25,1.428,4.012,1.428c1.76,0,3.215-0.524,4.371-1.577
				L443.847,668.905z"/>
			<path d="M467.05,647.26c1.607,1.527,2.412,3.736,2.412,6.625v16.696h-1.019v-5.416c-0.842,1.738-2.128,3.101-3.835,4.088
				c-1.715,0.984-3.767,1.478-6.178,1.478c-2.909,0-5.19-0.65-6.836-1.948c-1.639-1.293-2.457-3.027-2.457-5.194
				c0-2.036,0.734-3.686,2.204-4.949c1.478-1.267,3.858-1.898,7.142-1.898h9.96v-2.806c0-2.66-0.704-4.662-2.104-6.009
				c-1.409-1.347-3.484-2.021-6.232-2.021c-1.891,0-3.666,0.322-5.305,0.961c-1.646,0.639-3.063,1.504-4.248,2.587l-0.713-0.689
				c1.256-1.183,2.779-2.113,4.578-2.787c1.791-0.67,3.675-1.007,5.643-1.007C463.108,644.971,465.435,645.733,467.05,647.26z
				 M468.443,663.294v-5.615h-10.013c-2.84,0-4.938,0.524-6.27,1.573c-1.34,1.053-2.014,2.48-2.014,4.287
				c0,1.937,0.728,3.464,2.189,4.582c1.455,1.114,3.49,1.673,6.094,1.673C463.314,669.793,466.652,667.627,468.443,663.294z"/>
			<path d="M480.845,634.036h1.018v36.545h-1.018V634.036z"/>
		</g>
	</g>
	<g>
		<path style="fill:#AC9A32;" d="M123.922,127.906c-4.439,0.731-8.734,0.276-12.876-1.366c-4.148-1.638-7.693-4.329-10.648-8.084
			c-2.939-3.751-4.73-7.832-5.343-12.249c-0.62-4.417-0.038-8.704,1.729-12.864c1.784-4.157,4.594-7.762,8.467-10.802
			c2.895-2.273,5.948-3.896,9.156-4.861c3.207-0.964,6.407-1.187,9.568-0.67l-0.559,4.674c-5.466-0.686-10.525,0.8-15.165,4.447
			c-3.077,2.423-5.335,5.336-6.744,8.731c-1.424,3.403-1.883,6.89-1.378,10.461c0.498,3.575,1.937,6.89,4.333,9.933
			c2.403,3.05,5.282,5.232,8.627,6.56c3.36,1.329,6.859,1.704,10.495,1.125c3.637-0.57,6.997-2.075,10.082-4.498
			c4.678-3.682,7.296-8.268,7.847-13.752l4.678,0.563c-0.245,3.2-1.218,6.266-2.917,9.19c-1.684,2.928-3.996,5.527-6.882,7.804
			C132.526,125.288,128.378,127.175,123.922,127.906z"/>
		<path style="fill:#AC9A32;" d="M172.219,42.968L194.84,87.12l-4.593,2.361l-10.449-20.374l-27.62,14.158l10.434,20.371
			l-4.669,2.396l-22.621-44.155l4.669-2.396l10.082,19.682L177.7,65.011L167.618,45.33L172.219,42.968z"/>
		<path style="fill:#AC9A32;" d="M192.481,35.73l4.969-1.707l16.145,46.907l-4.953,1.711L192.481,35.73z"/>
		<path style="fill:#AC9A32;" d="M216.711,27.979l5.121-1.137l9.783,44.002l27.114-6.028l0.988,4.432l-32.244,7.165L216.711,27.979z
			"/>
		<path style="fill:#AC9A32;" d="M264.402,18.74l20.179-0.773c5.252-0.195,9.914,0.678,14.01,2.622
			c4.088,1.948,7.311,4.754,9.676,8.424c2.373,3.671,3.644,7.912,3.828,12.731c0.184,4.815-0.766,9.144-2.841,12.979
			c-2.074,3.839-5.083,6.886-9.018,9.141s-8.513,3.479-13.749,3.682l-20.194,0.765L264.402,18.74z M286.028,63.025
			c4.333-0.168,8.1-1.175,11.291-3.024c3.192-1.849,5.635-4.329,7.311-7.441c1.685-3.115,2.45-6.656,2.297-10.618
			c-0.153-3.965-1.187-7.437-3.093-10.418c-1.913-2.974-4.532-5.263-7.854-6.863c-3.322-1.6-7.157-2.316-11.498-2.151l-14.667,0.559
			l1.546,40.515L286.028,63.025z"/>
		<path style="fill:#AC9A32;" d="M343.503,69.639c-3.062-1.853-5.297-3.919-6.69-6.193l2.849-3.529
			c1.377,2.132,3.414,4.045,6.101,5.745c2.679,1.703,5.565,2.886,8.665,3.541c4.349,0.915,7.771,0.808,10.281-0.325
			c2.512-1.137,4.034-2.974,4.578-5.516c0.406-1.944,0.145-3.617-0.789-5.022s-2.197-2.599-3.773-3.586
			c-1.577-0.984-3.813-2.17-6.706-3.56c-3.46-1.696-6.186-3.2-8.168-4.513c-1.991-1.313-3.583-3.012-4.747-5.099
			c-1.186-2.09-1.453-4.631-0.818-7.636c0.513-2.454,1.639-4.543,3.354-6.281c1.729-1.738,4.049-2.92,6.988-3.56
			c2.925-0.635,6.393-0.532,10.373,0.314c2.764,0.582,5.396,1.539,7.893,2.867s4.57,2.863,6.231,4.616l-2.595,3.72
			c-1.754-1.772-3.713-3.234-5.88-4.39c-2.174-1.164-4.371-1.975-6.583-2.446c-4.257-0.903-7.633-0.758-10.121,0.429
			c-2.502,1.187-4.025,3.077-4.577,5.661c-0.413,1.944-0.146,3.628,0.788,5.056c0.927,1.428,2.213,2.645,3.866,3.644
			c1.638,0.999,3.889,2.189,6.737,3.563c3.367,1.631,6.063,3.104,8.091,4.429c2.006,1.321,3.599,3.005,4.754,5.064
			c1.163,2.055,1.432,4.566,0.804,7.521c-0.521,2.45-1.653,4.543-3.398,6.273c-1.738,1.734-4.104,2.897-7.074,3.499
			c-2.978,0.605-6.461,0.486-10.434-0.36C349.896,72.804,346.558,71.495,343.503,69.639z"/>
		<path style="fill:#AC9A32;" d="M415.049,88.452l-1.639,4.222l-32.688-12.757l18.036-46.214l31.691,12.371l-1.638,4.222
			l-26.815-10.457l-6.416,16.439l23.9,9.324l-1.623,4.16l-23.9-9.328L387.253,77.6L415.049,88.452z"/>
		<path style="fill:#AC9A32;" d="M455.935,102.315l-23.586-14.422l-11.995,8.203l-4.654-2.852l45.242-30.491l4.409,2.699
			l-6.537,54.16l-4.716-2.882L455.935,102.315z M456.524,97.691l3.743-28.948l-24.06,16.52L456.524,97.691z"/>
		<path style="fill:#AC9A32;" d="M497.687,94.407l-13.305-11.272l2.932-3.46l30.613,25.936l-2.939,3.46l-13.305-11.272
			l-29.129,34.391l-4.011-3.391L497.687,94.407z"/>
	</g>
	<path style="fill:#8C8C8C;" d="M297.741,566.567c-0.008,0-0.008,0-0.016,0c-1.623,0-3.276-0.019-4.907-0.05
		c-62.03-1.29-119.842-26.659-162.795-71.426c-42.953-44.775-65.896-103.59-64.603-165.612
		c2.626-127.045,109.715-229.824,237.043-227.416c128.049,2.679,230.053,109.025,227.396,237.062
		C527.251,464.539,423.117,566.567,297.741,566.567z M297.564,117.69c-116.94,0-214.046,95.154-216.466,212.114
		c-1.209,57.838,20.188,112.684,60.239,154.432c40.052,41.747,93.96,65.402,151.802,66.604c1.531,0.035,3.07,0.05,4.586,0.05
		c116.925,0.008,214.023-95.135,216.457-212.09c2.48-119.394-92.643-218.563-212.04-221.059
		C300.611,117.706,299.08,117.69,297.564,117.69z"/>
	<path style="fill:#827F81;" d="M173.313,473.358c-6.614,0-12.31-2.561-16.451-7.411c-4.869-5.699-6.928-14.246-5.512-22.87
		c1.424-8.934,6.676-21.703,16.758-28.282c13.648-8.876,27.75-10.2,34.938-10.2c0.827,0,1.562,0.019,2.182,0.042
		c9.822-8.188,22.928-12.459,38.23-12.459c20.761,0,42.348,2.113,64.173,6.285c1.064-7.655,3.132-19.517,7.065-34.33
		c5.397-20.313,13.52-40.653,16.758-48.454c0.26-10.499,1.095-20.83,2.389-30.36c-4.808-2.22-8.834-5.826-11.667-10.469
		c-3.911-6.422-4.968-13.955-2.978-21.216l7.372-26.9c3.215-11.716,13.947-19.896,26.097-19.896c1.76,0,3.536,0.176,5.273,0.524
		l13.099,2.591c15.976-10.683,33.751-12.934,45.9-12.934c8.78,0,15.317,1.209,16.152,1.436c3.529,0.719,5.88,4.306,5.159,7.984
		l-42.387,230.673c-3.865,21.002-22.161,36.244-43.512,36.244H173.313z M352.353,459.532c14.683,0,27.26-10.483,29.901-24.921
		l41.124-223.623c-2.053-0.184-4.518-0.329-7.281-0.329c-10.449,0-25.683,2.033-38.941,11.716c-0.1,0.272-0.973,0.838-1.607,1.156
		c-10.794,8.344-18.617,21.224-23.064,38.173c-16.85,64.227-0.406,143.676,1.523,152.521c0.581,2.469-0.23,5.072-2.105,6.783
		c-1.324,1.133-2.963,1.742-4.632,1.742c-0.804,0-1.6-0.138-2.351-0.41c-4.715-1.669-47.684-16.313-101.461-16.313
		c-12.7,0-23.325,3.563-31.586,10.595c-0.137,0.176-0.551,0.532-0.964,0.812c-4.945,4.41-9.416,10.736-12.808,18.2
		c-3.988,8.761-5.855,17.63-6.721,23.899H352.353z M191.112,419.878c-5.65,1.328-10.84,3.514-15.456,6.515
		c-5.895,3.843-9.6,12.256-10.656,18.897c-0.766,4.662,0.13,9.029,2.389,11.689c1.47,1.715,3.414,2.553,5.925,2.553h4.148
		C178.626,450.323,181.902,434.129,191.112,419.878z M321.204,401.33c5.871,1.363,11.598,2.844,17.063,4.425
		c-1.859-10.542-4.754-29.427-6.192-51.745c-1.531,4.792-2.87,9.37-4.012,13.668C324.266,381.981,322.245,393.721,321.204,401.33z
		 M352.682,220.672c-5.948,0-11.199,4-12.776,9.729l-7.349,26.896c-0.979,3.537-0.468,7.211,1.446,10.357
		c0.644,1.061,1.401,2.006,2.281,2.825c0.85-4.34,1.784-8.386,2.84-12.31c3.852-14.759,10.144-27.107,18.725-36.733l-2.595-0.513
		C354.412,220.752,353.585,220.672,352.682,220.672z"/>
</g>
</svg>
