<svg xmlns="http://www.w3.org/2000/svg" viewBox="0 0 68.18 88.31"><defs><style>.cls-1{font-size:6.28px;fill:#231f20;font-family:Montserrat-Thin, Montserrat;}.cls-2{letter-spacing:-0.02em;}.cls-3{font-size:9.04px;fill:#ac9a32;font-family:Montserrat-Regular, Montserrat;}.cls-4{fill:none;stroke:#8c8c8c;stroke-width:2px;}.cls-4,.cls-5{stroke-miterlimit:10;}.cls-5{fill:#827f81;stroke:#827f81;}</style></defs><title>child seat</title><g id="Layer_2" data-name="Layer 2"><g id="Layer_1-2" data-name="Layer 1"><text class="cls-1" transform="translate(11.88 86.69) scale(1.03 1)">25 EUR / <tspan class="cls-2" x="27.21" y="0">r</tspan><tspan x="29.52" y="0">ental</tspan></text><text class="cls-3" transform="translate(10.51 19.03) rotate(-38.19)">C</text><text class="cls-3" transform="translate(15.35 15.14) rotate(-27.13)">H</text><text class="cls-3" transform="translate(21.76 12.02) rotate(-19)">I</text><text class="cls-3" transform="matrix(0.98, -0.22, 0.22, 0.98, 24.13, 11.11)">L</text><text class="cls-3" transform="matrix(1, -0.04, 0.04, 1, 29.06, 9.89)">D</text><text class="cls-3" transform="translate(36.32 9.77) rotate(6.13)"> </text><text class="cls-3" transform="translate(38.51 9.9) rotate(11.95)">S</text><text class="cls-3" transform="translate(43.73 10.96) rotate(21.32)">E</text><text class="cls-3" transform="matrix(0.85, 0.52, -0.52, 0.85, 49.14, 13.03)">A</text><text class="cls-3" transform="translate(54.17 16.11) rotate(40.27)">T</text><path class="cls-4" d="M62.71,44.38a28.63,28.63,0,1,0-29.22,28A28.63,28.63,0,0,0,62.71,44.38Z"/><path class="cls-5" d="M41.07,61.1H18.23a2.28,2.28,0,0,1-1.78-.8,3.19,3.19,0,0,1-.6-2.57,5.1,5.1,0,0,1,2-3.32,7.85,7.85,0,0,1,4.59-1.22,7.26,7.26,0,0,1,4.79-1.6,43.46,43.46,0,0,1,8.55.89,33.61,33.61,0,0,1,1-4.78,50.43,50.43,0,0,1,2.14-6.17,36.18,36.18,0,0,1,.36-4.26A3,3,0,0,1,37.58,36a3,3,0,0,1-.33-2.37l.94-3.43A3,3,0,0,1,41.7,28l1.85.36a10.81,10.81,0,0,1,7.71-1.5.44.44,0,0,1,.35.52L46.2,56.83a5.21,5.21,0,0,1-5.13,4.27Zm-21-.91h21a4.31,4.31,0,0,0,4.23-3.53l5.33-29A9.46,9.46,0,0,0,44,29.16a.36.36,0,0,1-.14.11,9.16,9.16,0,0,0-3.17,5.15c-2.27,8.66.17,19.56.2,19.67a.46.46,0,0,1-.14.44.5.5,0,0,1-.47.09,42.43,42.43,0,0,0-13.08-2.11A6.47,6.47,0,0,0,22.87,54a.3.3,0,0,1-.08.08A7.29,7.29,0,0,0,21,56.54a11.82,11.82,0,0,0-.94,3.65Zm1.39-6.07a6.8,6.8,0,0,0-3.15,1.06,4.16,4.16,0,0,0-1.55,2.7,2.26,2.26,0,0,0,.4,1.83,1.34,1.34,0,0,0,1.08.48h.91a11.63,11.63,0,0,1,2.31-6.07Zm15.17-1.45c1.42.31,2.52.63,3.2.84a59.35,59.35,0,0,1-1-9.46c-.41,1.11-.88,2.5-1.25,3.89a34.82,34.82,0,0,0-.94,4.73Zm4.49-23.8a2.12,2.12,0,0,0-2,1.55l-.94,3.43a2.09,2.09,0,0,0,1.19,2.49c.13-.72.28-1.45.47-2.16a10.34,10.34,0,0,1,2.83-5.06l-1.1-.21a1.9,1.9,0,0,0-.41,0Z"/></g></g></svg>