<?xml version="1.0" encoding="iso-8859-1"?>
<!-- Generator: Adobe Illustrator 15.1.0, SVG Export Plug-In . SVG Version: 6.00 Build 0)  -->
<!DOCTYPE svg PUBLIC "-//W3C//DTD SVG 1.1//EN" "http://www.w3.org/Graphics/SVG/1.1/DTD/svg11.dtd">
<svg version="1.1" id="Layer_1" xmlns="http://www.w3.org/2000/svg" xmlns:xlink="http://www.w3.org/1999/xlink" x="0px" y="0px"
	 width="595.28px" height="693.448px" viewBox="0 0 595.28 693.448" style="enable-background:new 0 0 595.28 693.448;"
	 xml:space="preserve">
<rect x="-3141.358" y="319.455" style="fill:#DAC725;" width="14.151" height="21.621"/>
<g>
	<g>
		<g>
			<path d="M130.527,636.527v34.479h-0.965v-33.541h-9.148v-0.938H130.527z"/>
			<path d="M159.395,653.989c2.305,1.692,3.453,4.146,3.453,7.364c0,2.89-1.026,5.244-3.07,7.066
				c-2.051,1.826-4.976,2.737-8.772,2.737c-2.572,0-4.961-0.452-7.165-1.355c-2.197-0.903-3.844-2.079-4.93-3.521l0.666-0.643
				c1.018,1.347,2.557,2.45,4.623,3.303s4.333,1.278,6.806,1.278c3.528,0,6.208-0.812,8.061-2.438
				c1.845-1.623,2.764-3.767,2.764-6.427c0-2.955-1.063-5.187-3.2-6.698c-2.135-1.512-5.726-2.266-10.771-2.266h-6.706l1.875-15.861
				h18.044v0.938h-17.179l-1.676,13.986h5.841C153.309,651.451,157.091,652.297,159.395,653.989z"/>
			<path d="M208.289,670.072v0.934h-23.686v-34.479h22.92v0.938h-21.902v15.563h19.613v0.938h-19.613v16.106H208.289z"/>
			<path d="M221.854,667.462c-2.404-2.465-3.605-6.094-3.605-10.886v-20.049h1.018v19.999c0,4.532,1.096,7.946,3.277,10.243
				c2.189,2.3,5.327,3.449,9.431,3.449c4.095,0,7.241-1.148,9.423-3.449c2.182-2.296,3.277-5.71,3.277-10.243v-19.999h1.018v20.049
				c0,4.792-1.201,8.421-3.605,10.886c-2.411,2.461-5.779,3.694-10.112,3.694C227.633,671.156,224.265,669.923,221.854,667.462z"/>
			<path d="M284.158,671.006l-9.04-12.164c-1.187,0.229-2.58,0.344-4.173,0.344h-11.023v11.82h-1.018v-34.479h12.041
				c4.371,0,7.793,0.995,10.266,2.981c2.473,1.987,3.713,4.77,3.713,8.348c0,2.76-0.766,5.064-2.289,6.92
				c-1.522,1.856-3.674,3.127-6.453,3.816l9.248,12.413H284.158z M271.053,658.249c4.127,0,7.304-0.903,9.523-2.71
				c2.221-1.803,3.33-4.363,3.33-7.682c0-3.314-1.109-5.875-3.33-7.682c-2.22-1.807-5.396-2.709-9.523-2.709h-11.131v20.784H271.053
				z"/>
			<path d="M316.992,629.534h1.018l-16.771,46.398h-1.02L316.992,629.534z"/>
			<path d="M339.813,647.141c1.768-1.164,3.949-1.745,6.561-1.745v0.983h-0.307c-3.154,0-5.611,0.976-7.372,2.932
				c-1.761,1.952-2.642,4.62-2.642,8.003v13.691h-1.018v-25.465h1.018v6.603C336.804,649.974,338.051,648.309,339.813,647.141z"/>
			<path d="M374.98,658.249h-23.372c0,2.3,0.521,4.359,1.569,6.182c1.057,1.822,2.504,3.242,4.348,4.26
				c1.846,1.018,3.92,1.527,6.225,1.527c1.799,0,3.482-0.337,5.06-1.01c1.577-0.67,2.871-1.65,3.89-2.928l0.711,0.689
				c-1.155,1.347-2.58,2.381-4.271,3.104c-1.691,0.72-3.49,1.083-5.389,1.083c-2.504,0-4.746-0.551-6.729-1.65
				c-1.983-1.103-3.545-2.637-4.678-4.608c-1.133-1.967-1.707-4.184-1.707-6.648c0-2.461,0.527-4.67,1.576-6.625
				c1.049-1.952,2.504-3.479,4.349-4.578c1.845-1.102,3.919-1.649,6.224-1.649c2.273,0,4.34,0.54,6.201,1.623
				c1.859,1.083,3.33,2.58,4.394,4.482c1.071,1.906,1.601,4.072,1.601,6.503V658.249z M357.25,647.757
				c-1.66,0.953-2.992,2.266-3.996,3.942c-0.994,1.673-1.546,3.544-1.646,5.615h22.407c-0.1-2.071-0.658-3.942-1.677-5.615
				c-1.019-1.676-2.351-2.989-4.011-3.942c-1.662-0.949-3.507-1.428-5.543-1.428C360.756,646.33,358.904,646.808,357.25,647.757z"/>
			<path d="M403.342,648.129c1.861,1.822,2.795,4.44,2.795,7.854v15.023h-1.019v-15.023c0-3.12-0.819-5.508-2.465-7.165
				c-1.638-1.658-3.974-2.488-6.989-2.488c-3.422,0-6.124,0.996-8.1,2.982c-1.982,1.986-2.978,4.604-2.978,7.854v13.841h-1.019
				v-25.465h1.019v6.797c0.812-2.166,2.167-3.866,4.065-5.098c1.898-1.229,4.218-1.845,6.966-1.845
				C398.902,645.396,401.475,646.307,403.342,648.129z"/>
			<path d="M429.416,669.33c-0.574,0.593-1.332,1.045-2.266,1.355c-0.927,0.314-1.884,0.471-2.871,0.471
				c-2.029,0-3.598-0.567-4.7-1.7s-1.646-2.652-1.646-4.559v-18.418h-5.084v-0.938h5.084v-5.565h1.01v5.565h8.896v0.938h-8.896
				v18.173c0,1.807,0.459,3.185,1.378,4.138c0.911,0.953,2.251,1.428,4.012,1.428s3.215-0.524,4.371-1.577L429.416,669.33z"/>
			<path d="M452.619,647.685c1.607,1.527,2.411,3.736,2.411,6.626v16.696h-1.019v-5.416c-0.842,1.738-2.128,3.1-3.835,4.088
				c-1.715,0.983-3.767,1.478-6.178,1.478c-2.909,0-5.19-0.651-6.836-1.948c-1.638-1.294-2.458-3.028-2.458-5.194
				c0-2.036,0.735-3.686,2.205-4.949c1.478-1.267,3.858-1.898,7.143-1.898h9.959v-2.806c0-2.66-0.704-4.662-2.105-6.009
				c-1.408-1.347-3.482-2.021-6.23-2.021c-1.891,0-3.667,0.322-5.305,0.961c-1.646,0.639-3.063,1.504-4.25,2.587l-0.711-0.689
				c1.256-1.183,2.778-2.113,4.578-2.787c1.791-0.669,3.674-1.006,5.641-1.006C448.676,645.396,451.004,646.158,452.619,647.685z
				 M454.012,663.719v-5.615h-10.013c-2.841,0-4.938,0.524-6.27,1.573c-1.34,1.052-2.014,2.48-2.014,4.287
				c0,1.937,0.728,3.464,2.189,4.582c1.454,1.114,3.491,1.673,6.094,1.673C448.883,670.218,452.221,668.051,454.012,663.719z"/>
			<path d="M466.413,634.46h1.019v36.546h-1.019V634.46z"/>
		</g>
	</g>
	<g>
		<path style="fill:#AC9A32;" d="M66.943,188.432l3.996,2.159l-16.688,30.866l-43.649-23.605l16.183-29.92l3.988,2.151
			l-13.68,25.316l15.524,8.397l12.203-22.579l3.927,2.132l-12.21,22.567l16.213,8.765L66.943,188.432z"/>
		<path style="fill:#AC9A32;" d="M37.616,152.023l3.192-4.161l35.78,27.417l16.896-22.047l3.598,2.756l-20.088,26.215
			L37.616,152.023z"/>
		<path style="fill:#AC9A32;" d="M124.25,123.807l3.115,3.292l-25.484,24.114l-34.096-36.048l24.719-23.383l3.115,3.295
			l-20.906,19.777l12.134,12.818l18.633-17.634l3.077,3.25l-18.648,17.63l12.662,13.389L124.25,123.807z"/>
		<path style="fill:#AC9A32;" d="M140.67,114.142c-4.493,0.348-8.734-0.471-12.723-2.454c-3.988-1.983-7.295-4.972-9.914-8.96
			c-2.625-3.984-4.049-8.214-4.294-12.666c-0.237-4.448,0.712-8.669,2.833-12.666c2.12-3.996,5.243-7.353,9.347-10.043
			c3.077-2.032,6.262-3.376,9.538-4.061c3.284-0.689,6.477-0.643,9.6,0.142l-0.957,4.612c-5.396-1.156-10.564-0.107-15.494,3.142
			c-3.276,2.151-5.764,4.85-7.463,8.119c-1.7,3.269-2.458,6.706-2.267,10.308c0.191,3.609,1.347,7.027,3.483,10.27
			c2.12,3.238,4.807,5.657,8.037,7.265s6.684,2.285,10.357,2.021c3.668-0.272,7.143-1.478,10.42-3.628
			c4.982-3.269,7.977-7.617,8.994-13.033l4.616,0.953c-0.521,3.169-1.753,6.147-3.69,8.915c-1.936,2.767-4.447,5.163-7.524,7.196
			C149.459,112.267,145.164,113.793,140.67,114.142z"/>
		<path style="fill:#AC9A32;" d="M166.974,50.707l-15.931,7.097l-1.845-4.153l36.646-16.317l1.852,4.142l-15.93,7.096L190.1,89.749
			l-4.792,2.128L166.974,50.707z"/>
		<path style="fill:#AC9A32;" d="M244.873,72.146l-15.02-12.551c-1.202,0.467-2.458,0.865-3.789,1.221l-12.885,3.38l3.996,15.218
			l-5.075,1.332L199.5,32.76l17.967-4.712c6.117-1.607,11.307-1.408,15.548,0.605c4.241,2.005,7.027,5.573,8.374,10.694
			c0.988,3.747,0.865,7.165-0.352,10.243c-1.217,3.081-3.438,5.653-6.652,7.716l16.045,13.377L244.873,72.146z M234.867,50.516
			c1.96-2.768,2.449-6.044,1.447-9.837c-1.019-3.881-3.063-6.534-6.117-7.954c-3.063-1.42-6.966-1.512-11.72-0.26l-12.746,3.346
			l6.315,24.067l12.754-3.345C229.555,55.277,232.907,53.272,234.867,50.516z"/>
		<path style="fill:#AC9A32;" d="M254.326,20.775l5.206-0.666l6.277,49.215l-5.206,0.658L254.326,20.775z"/>
		<path style="fill:#AC9A32;" d="M288.515,64.67c-3.942-2.186-7.027-5.206-9.255-9.064c-2.235-3.862-3.346-8.176-3.322-12.945
			c0.008-4.777,1.148-9.083,3.406-12.922c2.25-3.851,5.374-6.844,9.348-9.002c3.973-2.163,8.42-3.23,13.334-3.223
			c3.683,0.015,7.09,0.639,10.197,1.875c3.115,1.24,5.757,3.046,7.924,5.416l-3.338,3.318c-3.866-3.935-8.75-5.91-14.66-5.933
			c-3.92-0.012-7.486,0.876-10.709,2.656c-3.216,1.788-5.742,4.233-7.571,7.349c-1.829,3.115-2.749,6.606-2.764,10.479
			c-0.015,3.874,0.88,7.372,2.694,10.496c1.814,3.131,4.318,5.596,7.525,7.402s6.768,2.71,10.694,2.725
			c5.956,0.023,10.854-1.952,14.69-5.902l3.314,3.337c-2.174,2.358-4.838,4.157-7.992,5.397c-3.139,1.248-6.553,1.853-10.242,1.841
			C296.874,67.962,292.449,66.86,288.515,64.67z"/>
		<path style="fill:#AC9A32;" d="M399.377,34.356l-12.983,47.883l-4.991-1.351l5.986-22.101l-29.955-8.126l-5.993,22.097
			l-5.06-1.374l12.982-47.883l5.061,1.37l-5.787,21.35l29.962,8.123l5.787-21.339L399.377,34.356z"/>
		<path style="fill:#AC9A32;" d="M432.776,98.774l-1.976,4.084l-31.569-15.314l21.657-44.637l30.604,14.847l-1.982,4.084
			l-25.89-12.562l-7.701,15.876l23.088,11.2l-1.952,4.011l-23.088-11.192l-8.038,16.585L432.776,98.774z"/>
		<path style="fill:#AC9A32;" d="M472.445,115.75l-22.391-16.191l-12.602,7.246l-4.424-3.2l47.462-26.908l4.194,3.031
			l-10.709,53.498l-4.479-3.242L472.445,115.75z M473.387,111.191l5.972-28.569l-25.263,14.606L473.387,111.191z"/>
		<path style="fill:#AC9A32;" d="M514.832,111.229l-12.394-12.271l3.192-3.223l28.508,28.232l-3.199,3.219l-12.387-12.268
			l-31.723,32.025l-3.721-3.693L514.832,111.229z"/>
		<path style="fill:#AC9A32;" d="M527.57,190.001l-3.659,2.679l-20.715-28.32l40.044-29.292l20.088,27.463l-3.667,2.668
			l-16.987-23.21l-14.246,10.411l15.15,20.708l-3.606,2.637l-15.149-20.704l-14.874,10.871L527.57,190.001z"/>
		<path style="fill:#AC9A32;" d="M543.861,231.89l9.354-17.19c-0.688-1.083-1.332-2.247-1.929-3.472l-5.856-11.98l-14.139,6.917
			l-2.297-4.712l44.584-21.779l8.145,16.677c2.779,5.7,3.599,10.821,2.458,15.368c-1.141,4.555-4.088,8-8.842,10.315
			c-3.483,1.703-6.852,2.262-10.12,1.665c-3.262-0.59-6.217-2.259-8.873-5.007l-9.959,18.357L543.861,231.89z M563.105,217.835
			c3.094,1.378,6.4,1.217,9.93-0.513c3.605-1.761,5.81-4.279,6.598-7.556c0.789-3.288,0.115-7.131-2.051-11.544l-5.787-11.847
			l-22.346,10.917l5.779,11.846C557.387,213.552,560.014,216.45,563.105,217.835z"/>
	</g>
	<path style="fill:#8C8C8C;" d="M296.721,572.086c0,0-0.008,0-0.016,0c-1.638,0-3.291-0.015-4.93-0.05
		C163.728,569.376,61.715,463.038,64.371,334.99c2.633-127.038,109.193-229.797,237.043-227.397
		c62.029,1.286,119.842,26.655,162.795,71.431c42.953,44.775,65.896,103.59,64.609,165.612
		C526.208,470.054,422.082,572.086,296.721,572.086z M296.514,123.221c-116.932,0-214.038,95.146-216.465,212.095
		c-2.48,119.405,92.643,218.566,212.049,221.043c1.538,0.035,3.084,0.05,4.607,0.05c116.91,0.008,214.001-95.139,216.436-212.098
		c1.201-57.835-20.194-112.68-60.246-154.432c-40.053-41.755-93.968-65.41-151.803-66.608
		C299.561,123.236,298.03,123.221,296.514,123.221z"/>
	<path style="fill:#827F81;" d="M202.523,486.363c-15.226,0-27.611-12.715-27.611-28.339v-20.458h0.076l-0.016-0.934
		c-0.045-2.369-0.061-4.757-0.061-7.154c0-157.279,47.576-258.909,121.204-258.909c74.217,0,122.169,101.63,122.169,258.909
		c0,2.393-0.084,8.639-0.084,8.639l0.084,1.672v18.235c0,15.624-12.379,28.339-27.604,28.339H202.523z M187.826,458.024
		c0,8.505,6.591,15.421,14.697,15.421h188.157c8.106,0,14.698-6.917,14.698-15.421v-15.039H187.826V458.024z M405.371,430.063
		l0.008-0.586c0-147.136-43.91-245.991-109.263-245.991c-64.771,0-108.29,98.855-108.29,245.991l0.008,0.586H405.371z"/>
	<path style="fill:#827F81;" d="M296.599,426.488c-50.899,0-92.306-41.415-92.306-92.317c0-50.892,41.406-92.298,92.306-92.298
		s92.313,41.407,92.313,92.298C388.912,385.074,347.498,426.488,296.599,426.488z M296.599,254.783
		c-43.772,0-79.392,35.612-79.392,79.388c0,43.784,35.619,79.399,79.392,79.399c43.78,0,79.399-35.616,79.399-79.399
		C375.998,290.395,340.379,254.783,296.599,254.783z"/>
	<path style="fill:#827F81;" d="M336.068,393.87c-4.93,0-9.883-1.42-14.721-4.218c-10.242-5.906-11.322-15.288-12.363-24.359
		c-0.719-6.346-1.523-13.404-5.428-20.5c-2.028,1.5-4.424,2.308-6.958,2.308c-1.226,0-2.419-0.195-3.56-0.57
		c2.748,13.155-1.187,32.24-15.793,40.672c-5.389,3.119-11.528,4.769-17.744,4.769c-12.686,0-24.497-6.817-30.828-17.787
		c-10.778-18.698-7.64-35.983,8.191-45.116c3.59-2.079,7.203-3.089,11.047-3.089c5.695,0,10.793,2.216,16.183,4.563
		c5.872,2.545,12.386,5.374,20.439,5.554c-0.038-0.372-0.054-0.75-0.054-1.125c0-3.487,1.484-6.625,3.928-8.815
		c-12.724-4.229-27.375-17.282-27.375-34.042c0-19.612,15.953-35.57,35.565-35.57c21.572,0,34.977,11.368,34.977,29.664
		c0,11.838-7.602,17.461-14.95,22.9c-5.152,3.808-10.879,8.045-15.059,15c3.414,1.52,5.934,4.501,6.813,8.061
		c7.005-6.334,17.614-10.564,27.481-10.564c5.78,0,11.039,1.351,15.641,4.007c8.213,4.742,14.093,12.413,16.55,21.595
		c2.458,9.183,1.202,18.763-3.544,26.977C357.182,386.877,347.076,393.87,336.068,393.87z M313.256,341.512
		c4.127,8.207,4.992,15.819,5.757,22.575c0.919,8.103,1.523,13.45,7.38,16.83c3.199,1.849,6.422,2.783,9.576,2.783
		c7.35,0,14.377-5.171,19.797-14.56c3.398-5.883,4.295-12.746,2.533-19.322c-1.752-6.58-5.963-12.072-11.842-15.467
		c-3.047-1.761-6.614-2.648-10.596-2.648C326.477,331.702,317.551,336.578,313.256,341.512z M247.912,336.073
		c-2.029,0-3.988,0.566-5.994,1.734c-14.721,8.497-9.133,23.279-4.494,31.333c4.524,7.858,12.991,12.738,22.078,12.738
		c4.439,0,8.834-1.179,12.707-3.41c10.978-6.343,13.664-23.081,10.411-32.339c-9.147-0.521-16.16-3.563-22.376-6.262
		C255.528,337.811,251.525,336.073,247.912,336.073z M296.599,266.641c-14.048,0-25.477,11.425-25.477,25.473
		c0,12.681,13.159,23.375,22.813,25.186c5.022-7.67,11.161-12.222,16.604-16.26c6.858-5.083,10.939-8.099,10.939-14.832
		C321.479,269.182,305.893,266.641,296.599,266.641z"/>
	<path style="fill:#827F81;" d="M316.977,215.504c2.044,0,3.705-1.665,3.705-3.712c0-2.048-1.661-3.713-3.705-3.713
		c-0.704,0-1.316,0.249-1.883,0.589c-0.169-1.156-0.437-2.266-0.812-3.345l1.11-0.161l0.52-0.306
		c1.754-1.034,2.358-3.299,1.324-5.087c-0.666-1.118-1.891-1.814-3.176-1.814l-1.317,0.203l-0.497,0.276
		c-0.49,0.268-0.873,0.651-1.195,1.091c-0.703-0.865-1.484-1.661-2.334-2.388c0.352-0.287,0.727-0.559,0.949-0.965
		c0.987-1.757,0.383-4.011-1.363-5.029l-1.263-0.501h-0.597c-1.316,0-2.542,0.704-3.2,1.837c-0.229,0.386-0.36,0.808-0.437,1.236
		c-1.002-0.36-2.043-0.647-3.115-0.827c0.107-0.348,0.215-0.696,0.215-1.075c0-2.044-1.662-3.705-3.705-3.705
		c-2.045,0-3.706,1.661-3.706,3.705c0,0.413,0.107,0.8,0.237,1.171c-1.079,0.226-2.105,0.563-3.1,0.965
		c-0.084-0.353-0.169-0.708-0.353-1.022c-0.651-1.164-1.884-1.887-3.216-1.887l-1.332,0.203l-0.512,0.287
		c-0.865,0.49-1.486,1.282-1.738,2.239c-0.26,0.961-0.131,1.967,0.367,2.817c0.253,0.436,0.643,0.743,1.033,1.037
		c-0.811,0.754-1.538,1.581-2.212,2.465c-0.283-0.371-0.644-0.7-1.071-0.949l-1.256-0.494h-0.59c-1.316,0-2.549,0.704-3.23,1.864
		c-1.002,1.768-0.42,3.98,1.394,5.075l1.255,0.475h0.506c-0.329,1.091-0.543,2.208-0.666,3.372c-0.535-0.314-1.133-0.54-1.799-0.54
		c-2.044,0-3.705,1.661-3.705,3.697c0,2.048,1.661,3.717,3.705,3.717c0.804,0,1.508-0.314,2.121-0.754
		c0.283,1.252,0.703,2.446,1.225,3.59c-0.146-0.019-0.269-0.111-0.414-0.111l-1.316,0.195l-0.514,0.294
		c-0.872,0.501-1.492,1.302-1.744,2.262c-0.254,0.953-0.115,1.956,0.359,2.768c0.65,1.164,1.883,1.887,3.215,1.887l1.332-0.191
		l0.521-0.302c0.843-0.486,1.394-1.263,1.661-2.128c0.927,1.041,1.945,1.994,3.086,2.806c-0.896,0.268-1.715,0.75-2.197,1.581
		c-0.49,0.865-0.621,1.868-0.36,2.829c0.253,0.953,0.873,1.746,1.707,2.224l1.256,0.498h0.597c1.332,0,2.564-0.712,3.192-1.829
		c0.513-0.865,0.651-1.876,0.391-2.844c-0.008-0.046-0.046-0.077-0.062-0.123c1.332,0.479,2.726,0.789,4.172,0.957
		c-0.704,0.674-1.156,1.615-1.156,2.668c0,2.044,1.662,3.705,3.713,3.705c2.045,0,3.705-1.661,3.705-3.705
		c0-1.099-0.505-2.06-1.263-2.737c1.432-0.218,2.81-0.559,4.11-1.083c-0.236,0.953-0.1,1.933,0.375,2.718
		c0.651,1.156,1.884,1.872,3.224,1.872l1.332-0.191l2.251-2.591c0.244-0.96,0.092-1.959-0.391-2.767
		c-0.514-0.88-1.394-1.382-2.351-1.623c1.118-0.861,2.112-1.841,3.009-2.924c0.283,0.812,0.812,1.542,1.607,1.991l1.264,0.498h0.589
		c1.31,0,2.534-0.708,3.177-1.822c0.514-0.85,0.65-1.849,0.398-2.806c-0.253-0.972-0.865-1.78-1.73-2.277l-1.256-0.498h-0.597
		c-0.176,0-0.329,0.111-0.505,0.134c0.475-1.148,0.834-2.358,1.072-3.609C315.591,215.232,316.242,215.504,316.977,215.504z
		 M296.599,222.861c-6.347,0-11.514-5.16-11.514-11.502c0-4.896,3.093-9.06,7.41-10.721v9.814h8.206v-9.81
		c4.311,1.661,7.396,5.822,7.396,10.717C308.097,217.701,302.938,222.861,296.599,222.861z"/>
</g>
</svg>
