<svg xmlns="http://www.w3.org/2000/svg" viewBox="0 0 70.79 90.19"><defs><style>.cls-1{font-size:6.28px;fill:#231f20;font-family:Montserrat-Thin, Montserrat;}.cls-2{font-size:9.04px;fill:#ac9a32;font-family:Montserrat-Regular, Montserrat;}.cls-3{fill:none;stroke:#8c8c8c;stroke-miterlimit:10;stroke-width:2px;}.cls-4{fill:#827f81;}</style></defs><title>gas cartidge</title><g id="Layer_2" data-name="Layer 2"><g id="Layer_1-2" data-name="Layer 1"><text class="cls-1" transform="translate(17.74 88.56) scale(1.03 1)">3 EUR / unit</text><text class="cls-2" transform="translate(7.46 25.56) rotate(-48.23)">G</text><text class="cls-2" transform="matrix(0.79, -0.61, 0.61, 0.79, 11.94, 20.54)">A</text><text class="cls-2" transform="translate(16.9 16.77) rotate(-27.72)">S</text><text class="cls-2" transform="translate(21.7 14.34) rotate(-21.31)"> </text><text class="cls-2" transform="translate(23.68 13.41) rotate(-14.15)">C</text><text class="cls-2" transform="translate(29.55 11.9) rotate(-4.1)">A</text><text class="cls-2" transform="translate(35.75 11.42) rotate(6.33)">R</text><text class="cls-2" transform="translate(41.91 12.13) rotate(15.67)">T</text><text class="cls-2" transform="translate(46.72 13.54) rotate(22.07)">I</text><text class="cls-2" transform="matrix(0.86, 0.5, -0.5, 0.86, 49.12, 14.32)">D</text><text class="cls-2" transform="translate(55.31 17.92) rotate(41.77)">G</text><text class="cls-2" transform="matrix(0.61, 0.79, -0.79, 0.61, 60.32, 22.42)">E</text><path class="cls-3" d="M63.77,46.25a28.63,28.63,0,1,0-29.22,28A28.63,28.63,0,0,0,63.77,46.25Z"/><path class="cls-4" d="M27.1,39.67A4.16,4.16,0,0,0,23,43.83V58.55a4.16,4.16,0,0,0,4.15,4.16H41.84A4.17,4.17,0,0,0,46,58.55V43.83a4.16,4.16,0,0,0-4.15-4.16V36.61c6.17.35,8.68,7.8,14.87,9,1.32.24,1.88-1.78.56-2-6.49-1.2-8.62-8.78-15.43-9V31.27H35.92v1a1.44,1.44,0,0,1-2.88,0v-1H27.1v8.4Zm16.8,4.16V58.55a2.06,2.06,0,0,1-2.06,2.06H27.11a2.06,2.06,0,0,1-2.06-2.06V43.83a2.06,2.06,0,0,1,2.06-2.06H41.84a2.06,2.06,0,0,1,2.06,2.06ZM29.2,33.36h1.9a3.54,3.54,0,0,0,6.76,0h1.9v6H29.2Z"/><path class="cls-4" d="M26.7,63.31a1,1,0,0,0,0,2.1H42.26a1,1,0,1,0,0-2.1Z"/></g></g></svg>