<?xml version="1.0" encoding="iso-8859-1"?>
<!-- Generator: Adobe Illustrator 15.1.0, SVG Export Plug-In . SVG Version: 6.00 Build 0)  -->
<!DOCTYPE svg PUBLIC "-//W3C//DTD SVG 1.1//EN" "http://www.w3.org/Graphics/SVG/1.1/DTD/svg11.dtd">
<svg version="1.1" id="Layer_1" xmlns="http://www.w3.org/2000/svg" xmlns:xlink="http://www.w3.org/1999/xlink" x="0px" y="0px"
	 width="595.28px" height="693.448px" viewBox="0 0 595.28 693.448" style="enable-background:new 0 0 595.28 693.448;"
	 xml:space="preserve">
<rect x="-3141.358" y="319.455" style="fill:#DAC725;" width="14.151" height="21.621"/>
<g>
	<g>
		<g>
			<path d="M172.503,654.332c2.121,1.722,3.178,4.061,3.178,7.016c0,2.924-1.027,5.255-3.078,6.997
				c-2.051,1.738-4.938,2.61-8.666,2.61c-2.641,0-5.061-0.452-7.264-1.355c-2.205-0.903-3.844-2.078-4.93-3.521l0.658-0.643
				c1.018,1.347,2.564,2.449,4.631,3.303c2.059,0.854,4.363,1.279,6.904,1.279c3.461,0,6.109-0.77,7.955-2.316
				c1.852-1.542,2.77-3.659,2.77-6.354c0-2.726-0.949-4.85-2.848-6.377s-4.738-2.289-8.535-2.289h-1.83v-0.739l11.537-14.679H152.86
				v-0.938h21.496v0.739l-11.537,14.679h0.406C167.298,651.745,170.382,652.606,172.503,654.332z"/>
			<path d="M221.78,669.872v0.934h-23.686v-34.479h22.92v0.938h-21.902v15.563h19.613v0.938h-19.613v16.106H221.78z"/>
			<path d="M235.345,667.262c-2.404-2.465-3.605-6.094-3.605-10.886v-20.049h1.018v19.999c0,4.532,1.096,7.946,3.277,10.243
				c2.189,2.3,5.328,3.449,9.43,3.449c4.096,0,7.242-1.148,9.424-3.449c2.182-2.297,3.277-5.711,3.277-10.243v-19.999h1.018v20.049
				c0,4.792-1.201,8.42-3.605,10.886c-2.412,2.461-5.779,3.693-10.113,3.693C241.124,670.955,237.755,669.723,235.345,667.262z"/>
			<path d="M297.649,670.806l-9.041-12.165c-1.186,0.23-2.578,0.345-4.172,0.345h-11.023v11.82h-1.018v-34.479h12.041
				c4.371,0,7.793,0.995,10.266,2.981c2.473,1.987,3.713,4.769,3.713,8.348c0,2.76-0.766,5.064-2.289,6.92
				c-1.523,1.856-3.674,3.127-6.453,3.816l9.248,12.413H297.649z M284.544,658.048c4.127,0,7.303-0.903,9.523-2.71
				c2.221-1.803,3.33-4.363,3.33-7.682c0-3.315-1.109-5.875-3.33-7.682s-5.396-2.71-9.523-2.71h-11.131v20.784H284.544z"/>
			<path d="M330.483,629.334h1.018l-16.771,46.398h-1.02L330.483,629.334z"/>
			<path d="M370.589,645.341v25.465h-1.018v-6.748c-0.781,2.166-2.084,3.858-3.912,5.071c-1.83,1.217-4.051,1.826-6.66,1.826
				c-3.393,0-6.033-0.911-7.932-2.737c-1.898-1.822-2.84-4.44-2.84-7.854v-15.023h1.01v15.023c0,3.12,0.852,5.508,2.543,7.165
				c1.699,1.662,4.088,2.488,7.164,2.488c3.293,0,5.879-0.992,7.777-2.978s2.85-4.608,2.85-7.858v-13.841H370.589z"/>
			<path d="M402.044,647.928c1.859,1.822,2.793,4.44,2.793,7.854v15.023h-1.018v-15.023c0-3.12-0.818-5.508-2.465-7.166
				c-1.639-1.657-3.973-2.488-6.988-2.488c-3.422,0-6.125,0.995-8.1,2.982c-1.982,1.986-2.979,4.604-2.979,7.854v13.841h-1.018
				v-25.465h1.018v6.798c0.813-2.167,2.166-3.866,4.064-5.098c1.898-1.229,4.219-1.845,6.967-1.845
				C397.604,645.195,400.175,646.106,402.044,647.928z"/>
			<path d="M415.792,637.904c-0.252-0.26-0.383-0.559-0.383-0.884c0-0.364,0.131-0.666,0.383-0.911
				c0.252-0.249,0.566-0.371,0.941-0.371c0.338,0,0.643,0.122,0.912,0.371c0.275,0.245,0.404,0.547,0.404,0.911
				c0,0.325-0.129,0.624-0.404,0.884c-0.27,0.264-0.574,0.395-0.912,0.395C416.358,638.298,416.044,638.168,415.792,637.904z
				 M416.222,645.341h1.018v25.465h-1.018V645.341z"/>
			<path d="M440.825,669.129c-0.574,0.593-1.332,1.045-2.266,1.355c-0.928,0.314-1.885,0.471-2.871,0.471
				c-2.029,0-3.598-0.566-4.701-1.699c-1.102-1.133-1.645-2.653-1.645-4.559v-18.418h-5.084v-0.938h5.084v-5.565h1.01v5.565h8.895
				v0.938h-8.895v18.173c0,1.807,0.459,3.185,1.377,4.138c0.912,0.953,2.252,1.428,4.012,1.428c1.762,0,3.215-0.524,4.371-1.577
				L440.825,669.129z"/>
		</g>
	</g>
	<g>
		<path style="fill:#AC9A32;" d="M80.403,128.326l3.354-3.759l14.115,12.612c-0.029,3.078-0.688,6.163-1.99,9.248
			c-1.301,3.081-3.107,5.925-5.434,8.536c-3.309,3.701-7.098,6.304-11.361,7.82c-4.271,1.512-8.598,1.83-12.975,0.957
			c-4.379-0.873-8.354-2.897-11.912-6.082c-3.561-3.177-6.018-6.893-7.379-11.153c-1.355-4.252-1.523-8.589-0.506-12.995
			c1.018-4.41,3.199-8.482,6.537-12.218c2.52-2.817,5.289-5.006,8.291-6.564c3-1.558,6.115-2.357,9.324-2.407l0.313,4.65
			c-5.504,0.344-10.271,2.771-14.291,7.284c-2.68,2.989-4.439,6.285-5.268,9.879c-0.842,3.594-0.703,7.127,0.414,10.595
			c1.125,3.468,3.123,6.491,6.01,9.071c2.893,2.58,6.115,4.226,9.668,4.93c3.545,0.701,7.066,0.452,10.549-0.746
			c3.482-1.198,6.561-3.296,9.232-6.296c3.391-3.801,5.328-7.877,5.787-12.218L80.403,128.326z"/>
		<path style="fill:#AC9A32;" d="M128.433,103.267l-21.955,16.795l3.33,14.143l-4.342,3.315L93.325,84.335l4.119-3.142
			l48.158,25.618l-4.395,3.357L128.433,103.267z M124.321,101.046L98.669,87.122l6.752,28.397L124.321,101.046z"/>
		<path style="fill:#AC9A32;" d="M153.458,101.667c-3.537,0.521-6.576,0.356-9.111-0.501l-0.053-4.532
			c2.426,0.754,5.205,0.93,8.359,0.528c3.146-0.402,6.131-1.34,8.926-2.813c3.936-2.063,6.508-4.333,7.717-6.813
			c1.201-2.477,1.201-4.861,0-7.162c-0.918-1.757-2.189-2.878-3.813-3.364c-1.623-0.486-3.354-0.601-5.184-0.352
			c-1.859,0.249-4.332,0.761-7.439,1.539c-3.744,0.903-6.807,1.481-9.172,1.738c-2.381,0.264-4.684-0.035-6.92-0.888
			c-2.234-0.85-4.064-2.637-5.496-5.355c-1.164-2.22-1.639-4.543-1.432-6.978c0.223-2.434,1.256-4.834,3.107-7.2
			c1.861-2.358,4.586-4.49,8.184-6.373c2.512-1.32,5.145-2.266,7.916-2.844c2.771-0.574,5.352-0.716,7.738-0.425l0.383,4.528
			c-2.486-0.245-4.93-0.123-7.34,0.372c-2.412,0.49-4.617,1.263-6.623,2.319c-3.85,2.025-6.354,4.287-7.51,6.794
			c-1.17,2.507-1.141,4.93,0.092,7.272c0.928,1.757,2.197,2.89,3.82,3.395c1.631,0.505,3.398,0.62,5.305,0.337
			s4.402-0.8,7.465-1.565c3.645-0.896,6.652-1.478,9.049-1.746c2.395-0.268,4.691,0.016,6.896,0.854
			c2.197,0.842,4.012,2.607,5.42,5.282c1.156,2.22,1.623,4.551,1.393,6.997c-0.236,2.442-1.309,4.85-3.215,7.211
			c-1.906,2.366-4.662,4.49-8.26,6.381C160.399,100.017,156.993,101.138,153.458,101.667z"/>
		<path style="fill:#AC9A32;" d="M212.548,74.984c-4.363-1.141-8.092-3.303-11.215-6.496c-3.115-3.185-5.26-7.088-6.424-11.72
			c-1.162-4.624-1.133-9.083,0.1-13.362c1.24-4.287,3.514-7.961,6.836-11.042c3.322-3.074,7.35-5.217,12.119-6.419
			c3.574-0.899,7.02-1.133,10.35-0.704c3.322,0.429,6.33,1.52,9.01,3.284l-2.41,4.042c-4.717-2.855-9.938-3.563-15.664-2.117
			c-3.805,0.957-7.043,2.699-9.713,5.221c-2.688,2.534-4.525,5.527-5.527,8.999c-1.004,3.464-1.027,7.081-0.078,10.836
			c0.943,3.759,2.688,6.928,5.207,9.508c2.525,2.58,5.572,4.344,9.117,5.301c3.559,0.957,7.234,0.953,11.039-0.004
			c5.771-1.458,10.027-4.574,12.775-9.362l4.043,2.419c-1.539,2.825-3.676,5.225-6.416,7.208c-2.732,1.979-5.895,3.422-9.461,4.325
			C221.466,76.098,216.896,76.129,212.548,74.984z"/>
		<path style="fill:#AC9A32;" d="M281.544,53.822l-27.566,1.975l-4.992,13.645l-5.449,0.391l19.076-51.106l5.16-0.372l26.18,47.868
			l-5.527,0.394L281.544,53.822z M279.331,49.718l-13.779-25.729l-9.975,27.433L279.331,49.718z"/>
		<path style="fill:#AC9A32;" d="M333.722,70.766l-9.516-17.102c-1.287,0-2.604-0.073-3.965-0.226l-13.244-1.47l-1.73,15.639
			l-5.213-0.578l5.473-49.315l18.449,2.056c6.293,0.693,11.063,2.748,14.293,6.147c3.238,3.403,4.563,7.732,3.98,12.991
			c-0.422,3.851-1.76,6.997-4.012,9.431c-2.242,2.442-5.236,4.046-8.979,4.815l10.166,18.242L333.722,70.766z M332.151,46.985
			c2.826-1.868,4.447-4.754,4.885-8.654c0.443-3.992-0.514-7.2-2.848-9.623c-2.35-2.423-5.971-3.908-10.848-4.448l-13.098-1.455
			l-2.748,24.723l13.098,1.454C325.483,49.527,329.327,48.865,332.151,46.985z"/>
		<path style="fill:#AC9A32;" d="M369.54,33.091l-16.789-4.708l1.234-4.371l38.611,10.84l-1.225,4.367l-16.787-4.711l-12.172,43.405
			l-5.053-1.424L369.54,33.091z"/>
		<path style="fill:#AC9A32;" d="M404.134,39.82l4.854,1.971l-18.641,45.977l-4.854-1.971L404.134,39.82z"/>
		<path style="fill:#AC9A32;" d="M428.737,50.024l17.453,10.174c4.533,2.641,8.008,5.879,10.412,9.718
			c2.426,3.839,3.635,7.938,3.666,12.302c0.031,4.368-1.178,8.627-3.605,12.796c-2.426,4.165-5.535,7.307-9.354,9.435
			c-3.805,2.124-7.984,3.089-12.502,2.882c-4.531-0.207-9.064-1.631-13.596-4.272l-17.453-10.166L428.737,50.024z M423.257,98.999
			c3.758,2.189,7.471,3.361,11.16,3.514c3.682,0.153,7.066-0.635,10.158-2.365c3.086-1.734,5.627-4.31,7.625-7.739
			c1.99-3.426,2.994-6.917,2.971-10.45c-0.016-3.537-0.996-6.874-2.947-10.001c-1.953-3.131-4.809-5.795-8.559-7.98l-12.67-7.391
			l-20.416,35.03L423.257,98.999z"/>
		<path style="fill:#AC9A32;" d="M493.96,127.235l3.766,3.353L485.11,144.7c-3.086-0.031-6.162-0.689-9.248-1.987
			c-3.078-1.301-5.926-3.112-8.535-5.446c-3.705-3.303-6.309-7.085-7.816-11.353c-1.516-4.264-1.83-8.589-0.965-12.972
			c0.873-4.378,2.902-8.352,6.086-11.911c3.178-3.56,6.891-6.021,11.146-7.38c4.264-1.362,8.598-1.531,12.998-0.509
			c4.41,1.026,8.482,3.204,12.219,6.538c2.816,2.522,5.006,5.286,6.568,8.291c1.561,3.008,2.357,6.12,2.41,9.328l-4.654,0.314
			c-0.344-5.504-2.771-10.27-7.279-14.3c-3.002-2.676-6.285-4.433-9.891-5.267c-3.59-0.834-7.127-0.689-10.588,0.425
			c-3.467,1.114-6.498,3.116-9.07,6.01c-2.588,2.886-4.227,6.108-4.93,9.661c-0.713,3.552-0.461,7.069,0.75,10.553
			c1.193,3.475,3.299,6.557,6.291,9.228c3.797,3.403,7.879,5.332,12.219,5.788L493.96,127.235z"/>
		<path style="fill:#AC9A32;" d="M514.636,183.688l-3.582,2.783l-21.488-27.735l39.209-30.387l20.846,26.893l-3.59,2.783
			l-17.623-22.751l-13.947,10.81l15.717,20.282l-3.529,2.733l-15.717-20.279l-14.576,11.288L514.636,183.688z"/>
	</g>
	<path style="fill:#8C8C8C;" d="M287.368,566.795c-0.006,0-0.006,0-0.014,0c-1.623,0-3.27-0.019-4.9-0.05
		c-62.037-1.293-119.85-26.663-162.803-71.434S53.757,391.721,55.05,329.699c2.596-125.418,106.736-227.458,232.135-227.458
		c1.631,0,3.277,0.019,4.908,0.05c128.047,2.667,230.053,109.01,227.389,237.054C516.886,464.759,412.753,566.795,287.368,566.795z
		 M287.185,117.918c-116.932,0-214.037,95.15-216.457,212.106c-1.209,57.838,20.188,112.684,60.238,154.432
		c40.053,41.751,93.967,65.406,151.811,66.611c1.531,0.035,3.063,0.05,4.578,0.05c116.932,0.004,214.031-95.142,216.449-212.098
		c2.488-119.405-92.635-218.567-212.033-221.051C290.239,117.934,288.708,117.918,287.185,117.918z"/>
	<path style="fill:#827F81;" d="M224.183,287.53c-17.904,0.054-32.488,14.675-32.488,32.615v115.41
		c0,17.997,14.637,32.626,32.596,32.626h115.439c17.975,0,32.635-14.629,32.635-32.626v-115.41c0-17.94-14.605-32.561-32.52-32.615
		v-23.918c48.313,2.687,67.971,61.107,116.527,70.121c10.357,1.895,14.775-13.947,4.363-15.899
		c-50.83-9.385-67.525-68.854-120.891-70.784v-25.365H293.31v8.225c0,6.208-5.09,11.284-11.283,11.284
		c-6.232,0-11.27-5.075-11.27-11.284v-8.225h-46.559v65.846H224.183z M355.884,320.145v115.437c0,8.884-7.25,16.152-16.154,16.152
		H224.29c-8.879,0-16.16-7.269-16.16-16.152V320.145c0-8.903,7.281-16.152,16.16-16.152h115.439
		C348.649,303.993,355.884,311.242,355.884,320.145L355.884,320.145z M240.673,238.127h14.852
		c3.535,11.299,14.068,19.532,26.502,19.532c12.432,0,22.98-8.233,26.471-19.532h14.896v46.946h-82.721V238.127z"/>
	<path style="fill:#827F81;" d="M221.044,472.881c-4.539,0-8.213,3.674-8.213,8.214c0,4.536,3.674,8.229,8.213,8.229h121.963
		c4.516,0,8.223-3.694,8.223-8.229c0-4.54-3.707-8.214-8.223-8.214H221.044z"/>
</g>
</svg>
