<?xml version="1.0" encoding="iso-8859-1"?>
<!-- Generator: Adobe Illustrator 15.1.0, SVG Export Plug-In . SVG Version: 6.00 Build 0)  -->
<!DOCTYPE svg PUBLIC "-//W3C//DTD SVG 1.1//EN" "http://www.w3.org/Graphics/SVG/1.1/DTD/svg11.dtd">
<svg version="1.1" id="Layer_1" xmlns="http://www.w3.org/2000/svg" xmlns:xlink="http://www.w3.org/1999/xlink" x="0px" y="0px"
	 width="595.28px" height="693.448px" viewBox="0 0 595.28 693.448" style="enable-background:new 0 0 595.28 693.448;"
	 xml:space="preserve">
<rect x="-3141.358" y="319.455" style="fill:#DAC725;" width="14.151" height="21.621"/>
<g>
	<g>
		<path style="fill:#AC9A32;" d="M140.552,67.491l27.543,41.262l-4.301,2.875l-12.709-19.043l-25.813,17.236l12.707,19.038
			l-4.363,2.916l-27.551-41.265l4.363-2.913l12.287,18.396l25.82-17.239l-12.285-18.392L140.552,67.491z"/>
		<path style="fill:#AC9A32;" d="M204.052,78.281l-25.506,10.645l-0.383,14.529l-5.037,2.102l1.82-54.523l4.762-1.99l40.045,37.043
			l-5.098,2.132L204.052,78.281z M200.653,75.093l-21.258-20.007l-0.721,29.182L200.653,75.093z"/>
		<path style="fill:#AC9A32;" d="M266.618,26.261l9.063,48.778l-4.951,0.919l-7.242-39.022l-13.068,36.386l-2.434,0.451
			l-25.225-29.051l7.211,38.812l-4.953,0.918l-9.055-48.778l4.248-0.788l27.902,32.228l14.254-40.06L266.618,26.261z"/>
		<path style="fill:#AC9A32;" d="M343.575,27.784l-2.971,49.525l-5.021-0.299l2.381-39.623l-21.465,32.151l-2.473-0.146
			l-17.469-34.279L294.2,74.519l-5.031-0.302l2.979-49.521l4.318,0.26l19.299,38.013l23.5-35.44L343.575,27.784z"/>
		<path style="fill:#AC9A32;" d="M362.522,79.629c-3.217-3.227-5.375-6.997-6.447-11.299c-1.078-4.303-0.949-8.742,0.398-13.328
			c1.332-4.578,3.613-8.39,6.844-11.433s7.066-5.057,11.521-6.044c4.447-0.987,9.025-0.792,13.748,0.59
			c4.709,1.374,8.658,3.666,11.836,6.854c3.176,3.196,5.32,6.959,6.406,11.296c1.104,4.332,0.98,8.784-0.367,13.365
			c-1.332,4.582-3.635,8.401-6.896,11.46c-3.254,3.063-7.082,5.079-11.482,6.056c-4.395,0.976-8.957,0.776-13.672-0.602
			C369.694,85.167,365.729,82.859,362.522,79.629z M386.681,82.484c3.529-0.808,6.607-2.465,9.209-4.983
			c2.604-2.511,4.457-5.627,5.543-9.348c1.088-3.712,1.209-7.333,0.367-10.854c-0.842-3.518-2.533-6.576-5.074-9.159
			c-2.543-2.596-5.695-4.44-9.455-5.539c-3.766-1.103-7.426-1.252-10.984-0.444c-3.561,0.805-6.652,2.458-9.287,4.961
			c-2.625,2.507-4.477,5.619-5.564,9.34c-1.094,3.72-1.201,7.341-0.336,10.866c0.863,3.525,2.578,6.587,5.137,9.183
			c2.564,2.603,5.725,4.443,9.492,5.55C379.501,83.158,383.138,83.3,386.681,82.484z"/>
		<path style="fill:#AC9A32;" d="M416.499,99.058c-2.488-3.755-3.836-7.862-4.027-12.313c-0.207-4.451,0.805-8.792,3.016-13.018
			c2.213-4.226,5.207-7.528,8.988-9.891c3.773-2.373,7.93-3.598,12.455-3.678c4.523-0.081,8.963,1.018,13.313,3.295
			c3.268,1.711,5.994,3.84,8.182,6.377c2.197,2.538,3.705,5.352,4.533,8.451l-4.502,1.409c-1.607-5.274-5.029-9.282-10.266-12.022
			c-3.467-1.826-7.043-2.684-10.717-2.588c-3.682,0.1-7.051,1.11-10.113,3.023c-3.055,1.918-5.488,4.594-7.279,8.023
			c-1.814,3.433-2.617,6.954-2.457,10.56c0.152,3.603,1.24,6.951,3.254,10.032c2.012,3.081,4.754,5.531,8.229,7.354
			c5.281,2.763,10.533,3.279,15.762,1.538l1.4,4.501c-3.023,1.084-6.215,1.451-9.576,1.095c-3.367-0.344-6.684-1.378-9.951-3.093
			C422.401,105.84,418.985,102.816,416.499,99.058z"/>
		<path style="fill:#AC9A32;" d="M476.853,112.611l-14.324,1.833l-8.037,10.266l-4.135-3.238l30.605-39.045l4.127,3.238
			l-18.488,23.597l41.416-5.626l4.746,3.713l-30.768,4.439l1.332,35.527l-4.906-3.847L476.853,112.611z"/>
	</g>
	<g>
		<g>
			<path d="M132.706,628.096v35.573h-0.965V629.06h-9.148v-0.964H132.706z"/>
			<path d="M148.942,661.609c-2.051-1.474-3.645-3.563-4.777-6.273c-1.133-2.713-1.699-5.863-1.699-9.454
				c0-3.59,0.566-6.74,1.699-9.454c1.133-2.71,2.727-4.8,4.777-6.273s4.418-2.212,7.088-2.212c2.68,0,5.037,0.738,7.09,2.212
				c2.051,1.474,3.643,3.563,4.777,6.273c1.141,2.714,1.707,5.864,1.707,9.454c0,3.591-0.566,6.741-1.707,9.454
				c-1.135,2.71-2.727,4.8-4.777,6.273c-2.053,1.474-4.41,2.213-7.09,2.213C153.36,663.822,150.993,663.083,148.942,661.609z
				 M162.591,660.771c1.891-1.39,3.369-3.36,4.418-5.921c1.049-2.557,1.576-5.547,1.576-8.969s-0.527-6.411-1.576-8.968
				c-1.049-2.561-2.527-4.531-4.418-5.921c-1.898-1.39-4.088-2.086-6.561-2.086s-4.654,0.696-6.553,2.086s-3.375,3.36-4.424,5.921
				c-1.049,2.557-1.576,5.546-1.576,8.968s0.527,6.412,1.576,8.969c1.049,2.561,2.525,4.531,4.424,5.921s4.08,2.086,6.553,2.086
				S160.692,662.161,162.591,660.771z"/>
			<path d="M215.749,662.704v0.965h-23.686v-35.573h22.92v0.964h-21.9v16.061h19.611v0.965h-19.611v16.619H215.749z"/>
			<path d="M229.313,660.01c-2.402-2.541-3.605-6.285-3.605-11.23v-20.684h1.02v20.631c0,4.677,1.094,8.202,3.275,10.571
				c2.189,2.373,5.328,3.56,9.432,3.56c4.096,0,7.242-1.187,9.424-3.56c2.182-2.369,3.275-5.895,3.275-10.571v-20.631h1.018v20.684
				c0,4.945-1.201,8.689-3.605,11.23c-2.41,2.542-5.779,3.813-10.111,3.813C235.093,663.822,231.726,662.552,229.313,660.01z"/>
			<path d="M291.62,663.669l-9.041-12.551c-1.188,0.237-2.58,0.353-4.172,0.353h-11.023v12.198h-1.02v-35.573h12.043
				c4.371,0,7.793,1.025,10.266,3.073c2.473,2.052,3.713,4.922,3.713,8.616c0,2.844-0.766,5.225-2.289,7.139
				c-1.523,1.913-3.676,3.227-6.453,3.938l9.246,12.807H291.62z M278.515,650.506c4.125,0,7.303-0.93,9.521-2.794
				c2.221-1.864,3.33-4.505,3.33-7.927s-1.109-6.067-3.33-7.931c-2.219-1.86-5.396-2.795-9.521-2.795h-11.131v21.446H278.515z"/>
			<path d="M324.452,620.881h1.02l-16.773,47.871h-1.018L324.452,620.881z"/>
			<path d="M347.265,639.046c1.77-1.201,3.951-1.803,6.561-1.803v1.015h-0.307c-3.152,0-5.611,1.011-7.371,3.023
				c-1.762,2.018-2.641,4.77-2.641,8.26v14.128h-1.02v-26.272h1.02v6.81C344.257,641.971,345.505,640.248,347.265,639.046z"/>
			<path d="M382.433,650.506h-23.371c0,2.373,0.521,4.497,1.57,6.377c1.055,1.883,2.502,3.349,4.348,4.397
				c1.844,1.049,3.92,1.577,6.223,1.577c1.799,0,3.484-0.348,5.061-1.045c1.576-0.692,2.871-1.699,3.889-3.023l0.713,0.712
				c-1.156,1.39-2.58,2.457-4.271,3.203c-1.693,0.747-3.492,1.118-5.391,1.118c-2.502,0-4.746-0.566-6.729-1.703
				c-1.982-1.133-3.545-2.718-4.678-4.75c-1.133-2.033-1.707-4.321-1.707-6.863c0-2.541,0.529-4.818,1.578-6.836
				c1.049-2.014,2.502-3.59,4.348-4.724c1.844-1.137,3.92-1.703,6.223-1.703c2.273,0,4.342,0.559,6.201,1.677
				c1.861,1.117,3.33,2.66,4.395,4.624c1.072,1.967,1.6,4.202,1.6,6.709V650.506z M364.704,639.682
				c-1.662,0.983-2.994,2.339-3.996,4.064c-0.996,1.73-1.547,3.659-1.646,5.795h22.406c-0.1-2.136-0.658-4.064-1.676-5.795
				c-1.018-1.726-2.35-3.081-4.012-4.064c-1.66-0.979-3.506-1.474-5.543-1.474C368.21,638.208,366.356,638.702,364.704,639.682z"/>
			<path d="M410.796,640.064c1.859,1.879,2.793,4.581,2.793,8.103v15.502h-1.018v-15.502c0-3.215-0.818-5.68-2.465-7.391
				c-1.639-1.711-3.973-2.568-6.99-2.568c-3.422,0-6.123,1.025-8.098,3.073c-1.982,2.052-2.979,4.754-2.979,8.107v14.28h-1.018
				v-26.272h1.018v7.012c0.811-2.235,2.166-3.988,4.064-5.259s4.219-1.906,6.967-1.906
				C406.354,637.243,408.927,638.181,410.796,640.064z"/>
			<path d="M436.868,661.942c-0.574,0.609-1.332,1.076-2.266,1.397c-0.926,0.321-1.883,0.482-2.871,0.482
				c-2.027,0-3.598-0.586-4.699-1.753c-1.104-1.172-1.646-2.737-1.646-4.7v-19.008h-5.082v-0.965h5.082v-5.745h1.012v5.745h8.895
				v0.965h-8.895v18.751c0,1.864,0.459,3.288,1.377,4.271c0.91,0.98,2.25,1.474,4.012,1.474c1.76,0,3.215-0.543,4.371-1.627
				L436.868,661.942z"/>
			<path d="M460.071,639.605c1.607,1.576,2.412,3.854,2.412,6.836v17.228h-1.018v-5.588c-0.844,1.795-2.129,3.199-3.836,4.218
				c-1.715,1.015-3.768,1.523-6.178,1.523c-2.91,0-5.191-0.67-6.836-2.01c-1.639-1.336-2.457-3.123-2.457-5.358
				c0-2.102,0.734-3.805,2.203-5.11c1.479-1.301,3.859-1.955,7.143-1.955h9.961v-2.897c0-2.745-0.705-4.808-2.105-6.201
				c-1.41-1.386-3.484-2.082-6.232-2.082c-1.891,0-3.666,0.329-5.305,0.991c-1.646,0.662-3.063,1.55-4.248,2.668l-0.713-0.712
				c1.256-1.217,2.779-2.174,4.578-2.871c1.791-0.692,3.674-1.041,5.643-1.041C456.13,637.243,458.456,638.032,460.071,639.605z
				 M461.466,656.147v-5.795h-10.014c-2.84,0-4.938,0.544-6.27,1.627c-1.34,1.087-2.014,2.561-2.014,4.421
				c0,2.002,0.727,3.575,2.189,4.728c1.455,1.151,3.49,1.729,6.094,1.729C456.335,662.857,459.673,660.618,461.466,656.147z"/>
			<path d="M473.858,625.96h1.018v37.709h-1.018V625.96z"/>
		</g>
	</g>
	<path style="fill:#8C8C8C;" d="M297.759,574.654c-1.508,0.341-3.299-0.019-4.945-0.05c-62.029-1.286-119.842-26.651-162.795-71.426
		c-42.945-44.771-65.889-103.59-64.594-165.62c2.588-125.411,106.713-227.443,232.111-227.443c1.639,0,3.293,0.02,4.932,0.05
		c62.021,1.286,119.834,26.647,162.779,71.419c42.953,44.771,65.895,103.594,64.609,165.628
		C527.245,472.623,423.12,574.654,297.759,574.654z M297.536,125.793c-116.932,0-214.023,95.143-216.434,212.091
		c-1.209,57.847,20.18,112.692,60.23,154.443c40.053,41.751,93.959,65.402,151.803,66.6c1.539,0.035,3.084,0.05,4.607,0.05
		c116.91,0.008,214-95.139,216.436-212.094c1.201-57.847-20.195-112.696-60.246-154.443
		c-40.045-41.751-93.953-65.402-151.787-66.597C300.606,125.809,299.06,125.793,297.536,125.793z"/>
	<path style="fill:#827F81;" d="M136.052,455.712c-4.463,0-6.807-3.498-6.807-6.954s2.344-6.955,6.807-6.955h22.252l-24.457-180.945
		c-0.283-2.14,0.336-4.195,1.738-5.791c1.469-1.685,3.65-2.688,5.832-2.688c3.193,0,5.543,2.102,5.994,5.355l8.52,63.147
		c18.313,7.085,33.715,12.608,48.252,17.305l8.742-22.043c1.928-4.789,5.672-8.184,10.281-9.328
		c1.078-0.268,2.195-0.406,3.322-0.406c3.459,0,6.928,1.328,9.752,3.744l41.768,35.581l99.387-9.011
		c0.352-0.034,0.719-0.049,1.086-0.049c1.838,0,3.66,0.417,5.383,1.209c-0.154-1.091-0.223-2.197-0.223-3.311
		c0-13.906,11.314-25.224,25.23-25.224c10.932,0,20.602,7.169,23.953,17.393c7.318-3.369,13.383-6.358,18.908-9.316l11.102-59.011
		c0.596-3.181,3.031-5.235,6.193-5.235c2.242,0,4.432,1.025,5.863,2.748c1.34,1.619,1.859,3.689,1.455,5.829l-33.891,180.046h27.139
		c4.463,0,6.805,3.499,6.805,6.955s-2.342,6.954-6.805,6.954H136.052z M428.349,441.803l18.195-96.631
		c-17.545,19.915-36.813,37.771-57.383,53.157c-0.045,0.03-0.092,0.062-0.137,0.092c-1.111,3.847-3.629,6.905-7.166,8.674
		c-2.143,1.071-4.539,1.638-6.936,1.638c-0.658,0-1.348-0.058-2.082-0.164c-0.236,0.176-0.49,0.336-0.75,0.485
		c-18.924,10.22-36.078,15.181-52.469,15.181c-7.646,0-15.342-1.091-22.857-3.238c-20.777-5.94-41.951-15.662-66.623-30.602
		c-25.172-15.245-49.223-32.049-71.561-50l13.693,101.408H428.349z M192.692,349.019c12.025,8.704,24.098,16.814,36.033,24.19
		c17.43,10.794,37.824,22.935,59.35,30.437c11.545,4.016,22.078,5.971,32.213,5.968c13.549,0,26.701-3.422,41.238-10.756
		c-0.398-1.47-0.543-3.001-0.443-4.574l1.631-27.268c-15.51,3.35-31.869,5.045-48.688,5.045
		C269.534,372.061,225.472,360.011,192.692,349.019z M376.026,360.064l-2.113,35c0.199,0.688,0.527,0.796,0.979,0.796
		c0.43,0,0.85-0.096,1.203-0.271c0.443-0.219,0.711-0.506,0.758-1.286l2.633-43.665c-0.016-0.05-0.176-0.406-0.52-0.743
		l-85.793,7.441c7.059,0.566,13.971,0.85,20.801,0.85c18.631,0,36.598-2.205,53.408-6.557c0.629-0.161,1.256-0.245,1.861-0.245
		c2.098,0,3.965,0.941,5.26,2.652c1.117,1.474,1.652,3.368,1.508,5.175L376.026,360.064z M390.64,379.608
		c13.426-10.782,26.363-22.851,38.605-36.002c-11.797,5.113-24.307,9.943-37.313,14.41L390.64,379.608z M268.202,354.231
		l-40.242-34.295c-0.506-0.425-1.012-0.666-1.418-0.666c-0.666,0.134-1.246,0.604-1.637,1.615l-8.391,21.128l2.42,0.72
		c0.971-3.077,1.975-6.17,3.391-9.029c1.264-2.595,3.658-4.524,6.4-5.145c0.635-0.152,1.301-0.229,1.975-0.229
		c1.922,0,3.758,0.636,5.313,1.837c4.814,3.767,10.242,8.773,15.486,13.611c3.453,3.188,6.988,6.423,10.342,9.339
		C263.985,353.512,266.097,353.883,268.202,354.231z M236.571,347.563c-1.523-1.374-2.994-2.683-4.418-3.903
		c-0.283,0.838-0.551,1.695-0.811,2.545C233.081,346.668,234.825,347.12,236.571,347.563z M408.911,322.214
		c-6.82,0-12.369,5.542-12.369,12.359c0,2.243,0.635,4.417,1.852,6.373c7.977-2.929,15.379-5.849,22.529-8.884
		C419.743,326.428,414.745,322.214,408.911,322.214z"/>
</g>
</svg>
