<svg xmlns="http://www.w3.org/2000/svg" viewBox="0 0 68.18 86.33"><defs><style>.cls-1{font-size:9.04px;fill:#ac9a32;font-family:Montserrat-Regular, Montserrat;}.cls-2{fill:#827f81;}.cls-3{font-size:6.48px;fill:#231f20;font-family:Montserrat-Thin, Montserrat;}.cls-4{letter-spacing:-0.02em;}.cls-5{letter-spacing:0em;}.cls-6{fill:none;stroke:#8c8c8c;stroke-miterlimit:10;stroke-width:2px;}</style></defs><title>headlamp</title><g id="Layer_2" data-name="Layer 2"><g id="Layer_1-2" data-name="Layer 1"><text class="cls-1" transform="matrix(0.79, -0.61, 0.61, 0.79, 10.35, 19)">H</text><text class="cls-1" transform="matrix(0.89, -0.46, 0.46, 0.89, 15.95, 14.7)">E</text><text class="cls-1" transform="translate(21.09 12.03) rotate(-16.97)">A</text><text class="cls-1" transform="matrix(1, -0.1, 0.1, 1, 27.01, 10.14)">D</text><text class="cls-1" transform="matrix(1, 0.04, -0.04, 1, 34.22, 9.58)"> </text><text class="cls-1" transform="translate(36.42 9.58) rotate(8.25)">L</text><text class="cls-1" transform="translate(41.48 10.24) rotate(17.76)">A</text><text class="cls-1" transform="translate(47.41 11.99) rotate(29.97)">M</text><text class="cls-1" transform="matrix(0.74, 0.67, -0.67, 0.74, 54.57, 16.21)">P</text><path class="cls-2" d="M36.8,56.4A2,2,0,1,1,36.21,55a.63.63,0,0,0,.89-.89,3.25,3.25,0,0,0-2.32-1,3.29,3.29,0,1,0,3.29,3.29.64.64,0,0,0-.64-.64.64.64,0,0,0-.63.64Z"/><path class="cls-2" d="M51.71,41.12A10.93,10.93,0,0,0,40.8,30.21h-12A10.92,10.92,0,0,0,17.84,41.12h0v4.37h0A10.93,10.93,0,0,0,28.75,56.4h.72a5.31,5.31,0,0,0,10.61,0h.72A10.92,10.92,0,0,0,51.71,45.49ZM38.82,53a5.28,5.28,0,0,0-8.08,0v-.12a4,4,0,1,1,8.08,0Zm-4-5.42a5.31,5.31,0,0,0-4.88,3.21H28.75a9.65,9.65,0,0,1-9.39-7.45,9.65,9.65,0,0,1,9.39-7.46h12a9.65,9.65,0,0,1,9.39,7.45,9.65,9.65,0,0,1-9.39,7.46H39.65a5.3,5.3,0,0,0-4.87-3.21Zm-6-16.07h12a9.63,9.63,0,0,1,9.61,8.86,10.89,10.89,0,0,0-9.61-5.75h-12a10.89,10.89,0,0,0-9.61,5.75,9.66,9.66,0,0,1,9.61-8.86ZM21.93,52.31a9.56,9.56,0,0,1-2.79-6A10.89,10.89,0,0,0,28.75,52h.79a5.69,5.69,0,0,0-.07.83v2.28h-.72a9.59,9.59,0,0,1-6.82-2.82Zm12.85,8.13a4,4,0,1,1,4-4,4,4,0,0,1-4,4Zm6-5.31h-.72V52.85A5.69,5.69,0,0,0,40,52h.78a10.89,10.89,0,0,0,9.61-5.75,9.64,9.64,0,0,1-9.61,8.86Z"/><text class="cls-3" transform="translate(12.54 84.65)"><tspan xml:space="preserve"> 5 EUR / </tspan><tspan class="cls-4" x="26.1" y="0">r</tspan><tspan class="cls-5" x="28.49" y="0">ental</tspan></text><path class="cls-6" d="M63.4,44.26a28.63,28.63,0,1,0-29.22,28A28.63,28.63,0,0,0,63.4,44.26Z"/></g></g></svg>