<?xml version="1.0" encoding="iso-8859-1"?>
<!-- Generator: Adobe Illustrator 15.1.0, SVG Export Plug-In . SVG Version: 6.00 Build 0)  -->
<!DOCTYPE svg PUBLIC "-//W3C//DTD SVG 1.1//EN" "http://www.w3.org/Graphics/SVG/1.1/DTD/svg11.dtd">
<svg version="1.1" id="Layer_1" xmlns="http://www.w3.org/2000/svg" xmlns:xlink="http://www.w3.org/1999/xlink" x="0px" y="0px"
	 width="595.28px" height="693.448px" viewBox="0 0 595.28 693.448" style="enable-background:new 0 0 595.28 693.448;"
	 xml:space="preserve">
<rect x="-3141.358" y="319.455" style="fill:#DAC725;" width="14.151" height="21.621"/>
<g>
	<g>
		<path style="fill:#AC9A32;" d="M114.872,78.247l30.406,39.202l-4.08,3.177l-14.031-18.093l-24.535,19.027l14.032,18.089
			l-4.142,3.215l-30.414-39.206l4.148-3.211l13.551,17.473l24.534-19.027l-13.55-17.477L114.872,78.247z"/>
		<path style="fill:#AC9A32;" d="M186.44,90.376l2.074,4.042l-31.248,15.969l-22.582-44.174l30.291-15.486l2.066,4.034
			l-25.621,13.102l8.03,15.712l22.851-11.678l2.028,3.977l-22.851,11.674l8.391,16.413L186.44,90.376z"/>
		<path style="fill:#AC9A32;" d="M223.966,68.984l-26.433,8.072l-1.822,14.415l-5.229,1.592l7.212-54.072l4.952-1.512l36.171,40.833
			l-5.282,1.611L223.966,68.984z M220.896,65.475l-19.161-22.009l-3.613,28.963L220.896,65.475z"/>
		<path style="fill:#AC9A32;" d="M239.858,28.159l20.095-1.998c5.221-0.521,9.929,0.069,14.14,1.761
			c4.202,1.696,7.594,4.306,10.174,7.824c2.579,3.514,4.118,7.67,4.585,12.47c0.475,4.796-0.199,9.171-2.036,13.132
			c-1.845,3.958-4.654,7.181-8.436,9.665c-3.798,2.496-8.299,3.996-13.512,4.517l-20.11,1.998L239.858,28.159z M264.133,71.043
			c4.325-0.429,8.022-1.661,11.101-3.701c3.069-2.04,5.351-4.666,6.836-7.874c1.484-3.211,2.028-6.79,1.638-10.74
			c-0.397-3.954-1.622-7.356-3.72-10.208c-2.09-2.855-4.838-4.979-8.253-6.373c-3.414-1.393-7.287-1.879-11.612-1.443l-14.599,1.451
			l4.011,40.339L264.133,71.043z"/>
		<path style="fill:#AC9A32;" d="M325.65,25.989l5.19,0.754l-6.469,44.614l27.497,3.988l-0.651,4.482l-32.688-4.738L325.65,25.989z"
			/>
		<path style="fill:#AC9A32;" d="M391.538,78.477l-26.326-8.428l-9.707,10.809l-5.197-1.669l36.729-40.331l4.93,1.581l6.469,54.168
			l-5.267-1.688L391.538,78.477z M391.025,73.845l-3.223-29.009l-19.468,21.749L391.025,73.845z"/>
		<path style="fill:#AC9A32;" d="M473.081,79.617l-24.787,42.98l-4.355-2.515l19.818-34.387l-33.553,19.184l-2.15-1.24
			l-0.322-38.471l-19.719,34.2l-4.356-2.515l24.78-42.98l3.751,2.159l0.29,42.628l36.86-21.205L473.081,79.617z"/>
		<path style="fill:#AC9A32;" d="M513.837,120.351c0.636,4.654-0.818,8.941-4.371,12.868c-3.544,3.927-7.662,5.799-12.332,5.611
			c-4.678-0.18-9.362-2.4-14.063-6.645l-9.875-8.938l-10.511,11.617l-3.882-3.518l33.262-36.794l13.779,12.455
			C510.538,111.249,513.21,115.704,513.837,120.351z M496.583,133.839c3.367,0.149,6.369-1.229,9.002-4.142
			c2.688-2.974,3.797-6.139,3.314-9.469c-0.49-3.338-2.557-6.66-6.2-9.952l-9.776-8.842l-16.642,18.396l9.775,8.845
			C489.708,131.971,493.214,133.693,496.583,133.839z"/>
	</g>
	<path style="fill:#827F81;" d="M297.64,468.921c-15.44,0-28.002-12.562-28.002-27.999c0-15.44,12.562-28.002,28.002-28.002
		c7.494,0,14.521,2.913,19.805,8.203c1.347,1.351,2.097,3.158,2.09,5.079c0,1.917-0.743,3.713-2.098,5.06
		c-1.348,1.355-3.154,2.102-5.068,2.102c-1.922,0-3.728-0.747-5.083-2.105c-2.587-2.576-6.017-3.996-9.646-3.996
		c-7.532,0-13.656,6.128-13.656,13.661c0,7.529,6.124,13.649,13.656,13.649c7.518,0,13.642-6.121,13.642-13.649
		c0-3.954,3.223-7.173,7.181-7.173s7.181,3.219,7.181,7.173C325.643,456.359,313.08,468.921,297.64,468.921z"/>
	<path style="fill:#827F81;" d="M297.64,484.703c-23.387,0-42.555-18.441-43.734-41.549h-3.49c-23.44,0-45.464-9.121-62.022-25.675
		c-16.573-16.589-25.698-38.617-25.698-62.03v-34.299c0-48.361,39.348-87.705,87.721-87.705h94.465
		c23.433,0,45.457,9.129,62.007,25.702c16.565,16.566,25.69,38.586,25.69,62.003v34.299c0,48.361-39.34,87.705-87.697,87.705h-3.506
		C340.194,466.261,321.026,484.703,297.64,484.703z M297.64,411.48c-16.229,0-29.434,13.206-29.434,29.442
		c0,16.237,13.205,29.442,29.434,29.442c16.236,0,29.441-13.205,29.441-29.442C327.081,424.686,313.876,411.48,297.64,411.48z
		 M344.88,428.808c34.356,0,63.905-24.232,71.477-56.851c-4.563,6.43-9.944,12.187-16.084,17.193
		c-15.586,12.708-35.26,19.708-55.393,19.708h-3.651c0.13,1.405,0.199,2.825,0.199,4.241v15.708H344.88z M178.908,371.957
		c3.069,13.293,9.845,25.583,19.628,35.367c13.855,13.856,32.281,21.484,51.879,21.484h3.438V413.1c0-1.397,0.068-2.817,0.214-4.241
		h-3.651c-23.455,0-45.479-9.125-62.022-25.691C184.909,379.677,181.74,375.926,178.908,371.957z M297.64,397.139
		c10.771,0,21.06,3.961,29.028,11.035c-2.35-13.895-14.476-24.504-29.028-24.504s-26.663,10.61-29.021,24.5
		C276.58,401.1,286.861,397.139,297.64,397.139z M344.88,394.509c16.842,0,33.293-5.853,46.337-16.485
		c12.417-10.132,21.273-24.225,24.986-39.723c-3.146-13.147-9.875-25.139-19.467-34.708c-13.849-13.867-32.267-21.5-51.856-21.5
		h-94.465c-16.85,0-33.308,5.856-46.337,16.497c-12.432,10.139-21.289,24.229-25.002,39.723c3.146,13.125,9.868,25.117,19.46,34.708
		c13.855,13.86,32.281,21.488,51.879,21.488h7.586c7.219-15.349,22.621-25.189,39.639-25.189s32.42,9.841,39.639,25.189H344.88z
		 M250.415,247.798c-34.341,0-63.897,24.232-71.484,56.843c4.555-6.411,9.929-12.16,16.061-17.17
		c15.578-12.719,35.26-19.724,55.424-19.724h94.465c23.417,0,45.434,9.129,62.007,25.695c3.468,3.468,6.638,7.211,9.47,11.188
		c-3.078-13.297-9.845-25.576-19.62-35.344c-13.849-13.859-32.267-21.488-51.856-21.488H250.415z"/>
	<g>
		<g>
			<path d="M158.124,644.83c2.305,1.746,3.453,4.275,3.453,7.598c0,2.982-1.026,5.412-3.07,7.292
				c-2.052,1.879-4.976,2.821-8.772,2.821c-2.572,0-4.961-0.467-7.165-1.397c-2.197-0.934-3.844-2.143-4.931-3.636l0.666-0.659
				c1.019,1.39,2.558,2.522,4.624,3.403c2.066,0.884,4.333,1.324,6.806,1.324c3.528,0,6.208-0.842,8.061-2.519
				c1.845-1.676,2.764-3.885,2.764-6.629c0-3.05-1.064-5.354-3.2-6.913c-2.136-1.558-5.726-2.338-10.771-2.338h-6.706l1.875-16.363
				h18.044v0.965h-17.179l-1.676,14.434h5.841C152.038,642.211,155.82,643.084,158.124,644.83z"/>
			<path d="M207.018,661.422v0.964h-23.685v-35.574h22.919v0.965h-21.901v16.061h19.613v0.964h-19.613v16.62H207.018z"/>
			<path d="M220.583,658.728c-2.404-2.542-3.605-6.285-3.605-11.23v-20.685h1.018v20.631c0,4.677,1.095,8.203,3.276,10.572
				c2.189,2.373,5.328,3.56,9.432,3.56c4.095,0,7.241-1.187,9.423-3.56c2.182-2.369,3.277-5.895,3.277-10.572v-20.631h1.018v20.685
				c0,4.945-1.201,8.688-3.605,11.23c-2.411,2.542-5.779,3.813-10.112,3.813C226.362,662.54,222.994,661.269,220.583,658.728z"/>
			<path d="M282.888,662.387l-9.04-12.551c-1.187,0.237-2.58,0.353-4.172,0.353h-11.024v12.198h-1.018v-35.574h12.042
				c4.371,0,7.793,1.026,10.265,3.074c2.473,2.052,3.713,4.922,3.713,8.616c0,2.844-0.766,5.225-2.288,7.139
				c-1.523,1.914-3.675,3.227-6.454,3.938l9.248,12.807H282.888z M269.782,649.224c4.127,0,7.304-0.93,9.523-2.794
				c2.22-1.864,3.33-4.505,3.33-7.927s-1.11-6.066-3.33-7.931c-2.22-1.86-5.396-2.794-9.523-2.794h-11.131v21.446H269.782z"/>
			<path d="M315.722,619.598h1.018l-16.772,47.872h-1.019L315.722,619.598z"/>
			<path d="M338.542,637.764c1.768-1.202,3.949-1.803,6.56-1.803v1.015h-0.306c-3.154,0-5.611,1.01-7.372,3.023
				c-1.761,2.017-2.642,4.77-2.642,8.26v14.127h-1.018v-26.272h1.018v6.809C335.533,640.688,336.78,638.966,338.542,637.764z"/>
			<path d="M373.709,649.224h-23.371c0,2.373,0.521,4.498,1.569,6.377c1.057,1.883,2.504,3.349,4.348,4.398
				c1.846,1.048,3.92,1.577,6.225,1.577c1.799,0,3.482-0.348,5.06-1.045c1.577-0.693,2.871-1.699,3.889-3.023l0.712,0.712
				c-1.155,1.389-2.58,2.457-4.271,3.204c-1.691,0.746-3.49,1.118-5.389,1.118c-2.504,0-4.746-0.566-6.729-1.704
				c-1.982-1.133-3.544-2.717-4.677-4.75c-1.133-2.032-1.707-4.321-1.707-6.863s0.527-4.819,1.576-6.836
				c1.049-2.013,2.504-3.59,4.349-4.723c1.845-1.137,3.919-1.704,6.224-1.704c2.273,0,4.34,0.559,6.201,1.677
				c1.859,1.118,3.329,2.66,4.394,4.624c1.071,1.967,1.6,4.203,1.6,6.71V649.224z M355.979,638.399
				c-1.661,0.983-2.992,2.338-3.996,4.065c-0.994,1.73-1.546,3.659-1.646,5.795h22.407c-0.1-2.136-0.658-4.065-1.677-5.795
				c-1.019-1.727-2.351-3.082-4.012-4.065c-1.661-0.98-3.506-1.474-5.542-1.474C359.486,636.926,357.634,637.419,355.979,638.399z"
				/>
			<path d="M402.071,638.782c1.86,1.879,2.795,4.582,2.795,8.103v15.501h-1.019v-15.501c0-3.215-0.819-5.68-2.465-7.391
				c-1.638-1.711-3.974-2.568-6.989-2.568c-3.422,0-6.124,1.026-8.1,3.073c-1.982,2.052-2.978,4.754-2.978,8.107v14.281h-1.019
				v-26.272h1.019v7.012c0.812-2.235,2.167-3.988,4.065-5.259c1.898-1.271,4.218-1.906,6.966-1.906
				C397.632,635.961,400.204,636.899,402.071,638.782z"/>
			<path d="M428.146,660.661c-0.574,0.608-1.332,1.076-2.266,1.397c-0.927,0.321-1.884,0.482-2.871,0.482
				c-2.029,0-3.598-0.586-4.7-1.753c-1.103-1.171-1.646-2.736-1.646-4.7v-19.008h-5.084v-0.964h5.084v-5.745h1.01v5.745h8.896v0.964
				h-8.896v18.751c0,1.864,0.459,3.288,1.378,4.271c0.911,0.98,2.251,1.474,4.012,1.474s3.215-0.543,4.371-1.626L428.146,660.661z"
				/>
			<path d="M451.349,638.323c1.607,1.577,2.411,3.854,2.411,6.836v17.228h-1.019v-5.588c-0.842,1.795-2.128,3.2-3.835,4.218
				c-1.715,1.014-3.767,1.523-6.178,1.523c-2.909,0-5.19-0.67-6.836-2.01c-1.639-1.336-2.458-3.123-2.458-5.358
				c0-2.102,0.735-3.805,2.205-5.11c1.478-1.301,3.858-1.956,7.143-1.956h9.959v-2.897c0-2.744-0.704-4.808-2.105-6.201
				c-1.408-1.386-3.482-2.082-6.23-2.082c-1.892,0-3.667,0.329-5.306,0.991c-1.646,0.662-3.062,1.55-4.249,2.668l-0.711-0.712
				c1.255-1.217,2.778-2.174,4.577-2.871c1.792-0.692,3.675-1.041,5.642-1.041C447.405,635.961,449.733,636.75,451.349,638.323z
				 M452.741,654.866v-5.795h-10.013c-2.841,0-4.938,0.543-6.27,1.626c-1.34,1.087-2.014,2.561-2.014,4.421
				c0,2.002,0.728,3.575,2.189,4.727c1.454,1.152,3.491,1.73,6.094,1.73C447.612,661.575,450.95,659.336,452.741,654.866z"/>
			<path d="M465.135,624.677h1.019v37.709h-1.019V624.677z"/>
		</g>
	</g>
	<path style="fill:#8C8C8C;" d="M297.755,573.373c-0.008,0,0,0-0.008,0c-1.639,0-3.284-0.02-4.922-0.05
		c-128.041-2.66-230.054-108.999-227.413-237.046c2.618-125.419,106.752-227.451,232.12-227.451c1.639,0,3.284,0.019,4.923,0.05
		c128.056,2.66,230.068,108.998,227.412,237.05C527.257,471.336,423.124,573.373,297.755,573.373z M297.532,124.503
		c-116.909,0-214,95.146-216.442,212.098c-2.465,119.405,92.666,218.567,212.057,221.043c1.538,0.034,3.077,0.049,4.601,0.049
		c116.91,0.004,214.008-95.142,216.442-212.098c2.48-119.406-92.65-218.567-212.056-221.043
		C300.595,124.519,299.056,124.503,297.532,124.503z"/>
</g>
</svg>
