<?xml version="1.0" encoding="iso-8859-1"?>
<!-- Generator: Adobe Illustrator 15.1.0, SVG Export Plug-In . SVG Version: 6.00 Build 0)  -->
<!DOCTYPE svg PUBLIC "-//W3C//DTD SVG 1.1//EN" "http://www.w3.org/Graphics/SVG/1.1/DTD/svg11.dtd">
<svg version="1.1" id="Layer_1" xmlns="http://www.w3.org/2000/svg" xmlns:xlink="http://www.w3.org/1999/xlink" x="0px" y="0px"
	 width="671.002px" height="693.448px" viewBox="0 0 671.002 693.448" style="enable-background:new 0 0 671.002 693.448;"
	 xml:space="preserve">
<rect x="-3065.637" y="319.455" style="fill:#DAC725;" width="14.151" height="21.621"/>
<g>
	<g>
		<g>
			<path d="M225.682,667.497v0.934h-23.785v-0.739l15.402-15.119c2.137-2.102,3.576-3.885,4.318-5.347
				c0.75-1.458,1.117-2.978,1.117-4.555c0-2.461-0.857-4.398-2.564-5.811c-1.707-1.412-4.156-2.12-7.342-2.12
				c-2.441,0-4.563,0.344-6.354,1.037c-1.799,0.689-3.338,1.738-4.623,3.15l-0.713-0.689c2.74-2.955,6.637-4.432,11.689-4.432
				c3.354,0,6.01,0.789,7.977,2.365c1.969,1.573,2.947,3.724,2.947,6.45c0,1.741-0.404,3.399-1.217,4.976
				c-0.811,1.577-2.318,3.449-4.523,5.615l-14.537,14.285H225.682z"/>
			<path d="M271.068,667.497v0.934h-23.684v-34.479h22.918v0.938h-21.9v15.563h19.613v0.938h-19.613v16.106H271.068z"/>
			<path d="M284.635,664.887c-2.404-2.465-3.605-6.094-3.605-10.886v-20.049h1.018v19.999c0,4.532,1.094,7.946,3.275,10.243
				c2.189,2.3,5.328,3.449,9.432,3.449c4.096,0,7.242-1.148,9.424-3.449c2.182-2.297,3.277-5.711,3.277-10.243v-19.999h1.018v20.049
				c0,4.792-1.201,8.42-3.605,10.886c-2.412,2.461-5.779,3.693-10.113,3.693C290.414,668.58,287.045,667.348,284.635,664.887z"/>
			<path d="M346.939,668.431l-9.041-12.165c-1.186,0.23-2.58,0.345-4.172,0.345h-11.023v11.82h-1.018v-34.479h12.041
				c4.371,0,7.793,0.995,10.266,2.981c2.473,1.987,3.713,4.769,3.713,8.348c0,2.76-0.766,5.064-2.289,6.92
				c-1.523,1.856-3.674,3.127-6.453,3.816l9.248,12.413H346.939z M333.834,655.673c4.127,0,7.303-0.903,9.523-2.71
				c2.219-1.803,3.33-4.363,3.33-7.682c0-3.315-1.111-5.875-3.33-7.682c-2.221-1.807-5.396-2.71-9.523-2.71h-11.131v20.784H333.834z
				"/>
			<path d="M379.773,626.959h1.018l-16.773,46.398H363L379.773,626.959z"/>
			<path d="M420.23,631.885v36.546h-1.018v-7.782c-0.881,2.431-2.373,4.36-4.471,5.787c-2.098,1.428-4.525,2.144-7.266,2.144
				c-2.373,0-4.531-0.551-6.484-1.649c-1.943-1.103-3.475-2.637-4.592-4.608c-1.119-1.968-1.686-4.184-1.686-6.649
				c0-2.461,0.566-4.669,1.686-6.625c1.117-1.952,2.648-3.479,4.592-4.578c1.953-1.103,4.111-1.65,6.484-1.65
				c2.711,0,5.121,0.712,7.242,2.14c2.113,1.432,3.613,3.342,4.494,5.742v-18.816H420.23z M413.471,666.115
				c1.799-1.018,3.199-2.438,4.219-4.26c1.018-1.822,1.523-3.881,1.523-6.182c0-2.296-0.506-4.359-1.523-6.181
				c-1.02-1.822-2.42-3.234-4.219-4.233c-1.791-1.003-3.797-1.504-5.994-1.504c-2.205,0-4.203,0.501-6.002,1.504
				c-1.791,0.999-3.199,2.411-4.217,4.233c-1.012,1.822-1.523,3.885-1.523,6.181c0,2.301,0.512,4.36,1.523,6.182
				c1.018,1.822,2.426,3.242,4.217,4.26c1.799,1.018,3.797,1.527,6.002,1.527C409.674,667.643,411.68,667.133,413.471,666.115z"/>
			<path d="M447.291,645.109c1.607,1.527,2.412,3.736,2.412,6.625v16.696h-1.018v-5.417c-0.844,1.738-2.129,3.101-3.836,4.088
				c-1.715,0.984-3.766,1.478-6.178,1.478c-2.91,0-5.189-0.65-6.836-1.948c-1.639-1.293-2.457-3.027-2.457-5.194
				c0-2.036,0.734-3.686,2.203-4.949c1.479-1.267,3.859-1.898,7.143-1.898h9.961v-2.806c0-2.66-0.705-4.662-2.105-6.009
				c-1.408-1.347-3.484-2.021-6.232-2.021c-1.891,0-3.666,0.322-5.305,0.961c-1.646,0.639-3.063,1.504-4.248,2.587l-0.713-0.689
				c1.256-1.183,2.779-2.113,4.578-2.787c1.791-0.67,3.674-1.007,5.643-1.007C443.35,642.82,445.676,643.582,447.291,645.109z
				 M448.686,661.143v-5.615h-10.014c-2.84,0-4.938,0.524-6.27,1.573c-1.34,1.053-2.014,2.48-2.014,4.287
				c0,1.937,0.727,3.464,2.189,4.582c1.455,1.114,3.49,1.673,6.094,1.673C443.555,667.643,446.893,665.476,448.686,661.143z"/>
			<path d="M480.246,642.966l-13.977,29.553c-0.951,2.037-2.014,3.479-3.201,4.333c-1.186,0.854-2.596,1.282-4.217,1.282
				c-2.373,0-4.271-0.754-5.697-2.266l0.766-0.788c0.713,0.754,1.455,1.297,2.236,1.626c0.781,0.326,1.691,0.49,2.74,0.49
				c1.355,0,2.533-0.368,3.537-1.106c0.994-0.739,1.936-2.029,2.816-3.866l1.83-3.893l-12.041-25.366h1.17l11.43,24.332
				l11.438-24.332H480.246z"/>
		</g>
	</g>
	<g>
		<path style="fill:#AC9A32;" d="M21.059,290.671l49.506,3.238l-0.336,5.163l-22.844-1.489l-2.029,30.973l22.844,1.489l-0.336,5.24
			l-49.514-3.242l0.344-5.232l22.063,1.443l2.029-30.98l-22.063-1.443L21.059,290.671z"/>
		<path style="fill:#AC9A32;" d="M25.207,269.684l1.072-5.14l48.557,10.143l-1.07,5.137L25.207,269.684z"/>
		<path style="fill:#AC9A32;" d="M65.986,219.325l1.686-4.739l17.82,6.339c1.141,2.863,1.699,5.971,1.662,9.316
			c-0.039,3.346-0.645,6.668-1.814,9.956c-1.67,4.681-4.188,8.524-7.564,11.537c-3.383,3.004-7.264,4.93-11.65,5.783
			c-4.395,0.846-8.834,0.467-13.32-1.129c-4.502-1.6-8.191-4.111-11.055-7.544c-2.861-3.421-4.654-7.372-5.381-11.838
			c-0.713-4.467-0.236-9.06,1.439-13.783c1.27-3.56,3.008-6.629,5.197-9.213c2.197-2.576,4.77-4.49,7.732-5.749l2.043,4.191
			c-4.967,2.4-8.459,6.446-10.486,12.141c-1.348,3.782-1.723,7.499-1.148,11.138c0.59,3.644,2.051,6.859,4.395,9.646
			c2.35,2.798,5.334,4.838,8.986,6.136c3.652,1.298,7.266,1.6,10.816,0.911c3.545-0.697,6.721-2.247,9.477-4.677
			c2.771-2.419,4.832-5.531,6.178-9.313c1.707-4.808,1.953-9.309,0.744-13.508L65.986,219.325z"/>
		<path style="fill:#AC9A32;" d="M75.334,150.527l42.447,25.683l-2.672,4.417l-19.588-11.839l-16.061,26.556l19.582,11.847
			l-2.711,4.493l-42.455-25.679l2.709-4.482l18.932,11.444l16.061-26.563L72.662,154.96L75.334,150.527z"/>
		<path style="fill:#AC9A32;" d="M137.725,82.201l23.264,46.911l-3.912,3.908l-40.197-19.647l19.598,40.247l-3.859,3.858
			l-46.902-23.256l3.797-3.813l40.297,20.049l-19.697-40.641l3.461-3.457l40.648,19.992l-20.057-40.592L137.725,82.201z"/>
		<path style="fill:#AC9A32;" d="M207.072,91.973l2.426,3.824l-29.633,18.782l-26.549-41.912l28.738-18.208l2.428,3.832
			l-24.307,15.398l9.439,14.908l21.672-13.729l2.389,3.77l-21.672,13.733l9.859,15.563L207.072,91.973z"/>
		<path style="fill:#AC9A32;" d="M227.221,69.26l6.684,15.789l-4.762,2.017l-6.691-15.785L191.51,49.123l5.166-2.178l26.525,19.012
			l4.793-32.286l4.83-2.04L227.221,69.26z"/>
		<path style="fill:#AC9A32;" d="M300.771,21.396c4.033,2.408,6.477,6.22,7.334,11.437c0.857,5.221-0.238,9.604-3.293,13.148
			c-3.061,3.544-7.715,5.826-13.963,6.855l-13.135,2.163l2.533,15.456l-5.176,0.857l-8.053-48.959l18.326-3.008
			C291.592,18.315,296.736,18.996,300.771,21.396z M300.572,43.309c2.205-2.549,3-5.749,2.357-9.626
			c-0.643-3.958-2.434-6.786-5.352-8.493c-2.9-1.7-6.789-2.144-11.635-1.347l-13.006,2.136l4.018,24.481l13.016-2.147
			C294.816,47.523,298.344,45.847,300.572,43.309z"/>
		<path style="fill:#AC9A32;" d="M351.641,51.787l-27.643-0.195l-6.049,13.205l-5.457-0.039l23.041-49.445l5.176,0.035
			l22.314,49.782l-5.527-0.042L351.641,51.787z M349.756,47.523l-11.703-26.732l-12.104,26.563L349.756,47.523z"/>
		<path style="fill:#AC9A32;" d="M372.186,65.838c-3.115-1.746-5.42-3.732-6.896-5.967l2.725-3.617
			c1.455,2.083,3.553,3.927,6.293,5.539c2.74,1.604,5.666,2.687,8.789,3.238c4.371,0.766,7.793,0.543,10.266-0.678
			c2.473-1.217,3.926-3.108,4.379-5.665c0.344-1.96,0.029-3.621-0.957-4.995c-0.98-1.374-2.273-2.522-3.889-3.453
			c-1.615-0.934-3.883-2.044-6.83-3.333c-3.506-1.573-6.283-2.986-8.32-4.233c-2.029-1.24-3.674-2.89-4.922-4.934
			c-1.248-2.041-1.607-4.574-1.072-7.594c0.436-2.473,1.479-4.604,3.139-6.392c1.662-1.795,3.949-3.058,6.859-3.801
			c2.916-0.731,6.369-0.746,10.373-0.038c2.785,0.482,5.457,1.359,8,2.591c2.541,1.244,4.668,2.714,6.383,4.398l-2.473,3.816
			c-1.807-1.711-3.813-3.108-6.023-4.195c-2.213-1.087-4.434-1.818-6.66-2.216c-4.287-0.75-7.656-0.501-10.105,0.773
			c-2.449,1.279-3.92,3.211-4.371,5.818c-0.344,1.952-0.031,3.629,0.941,5.026c0.98,1.397,2.313,2.561,3.996,3.51
			c1.684,0.945,3.965,2.052,6.859,3.33c3.43,1.516,6.17,2.897,8.223,4.149c2.066,1.252,3.705,2.878,4.938,4.892
			c1.232,2.021,1.584,4.516,1.055,7.494c-0.436,2.465-1.492,4.593-3.176,6.392c-1.684,1.792-4.004,3.031-6.951,3.74
			c-2.963,0.7-6.438,0.693-10.441-0.008C378.686,68.79,375.318,67.595,372.186,65.838z"/>
		<path style="fill:#AC9A32;" d="M413.326,74.749c-2.811-2.22-4.777-4.543-5.887-6.974l3.252-3.154
			c1.111,2.281,2.91,4.433,5.352,6.446c2.449,2.017,5.176,3.544,8.176,4.57c4.203,1.443,7.609,1.757,10.242,0.941
			c2.633-0.819,4.371-2.461,5.213-4.922c0.65-1.872,0.59-3.563-0.16-5.075c-0.758-1.5-1.859-2.848-3.307-4.023
			c-1.439-1.167-3.521-2.618-6.225-4.352c-3.223-2.101-5.74-3.931-7.555-5.481c-1.814-1.546-3.186-3.426-4.088-5.634
			c-0.92-2.216-0.873-4.777,0.115-7.678c0.818-2.369,2.182-4.317,4.109-5.826c1.914-1.52,4.371-2.407,7.365-2.675
			c2.992-0.272,6.4,0.252,10.242,1.573c2.688,0.926,5.189,2.197,7.502,3.816s4.188,3.403,5.627,5.339l-3.039,3.376
			c-1.531-1.967-3.285-3.663-5.305-5.083c-2.006-1.408-4.088-2.488-6.232-3.227c-4.109-1.412-7.479-1.68-10.096-0.812
			c-2.627,0.876-4.365,2.561-5.229,5.06c-0.645,1.879-0.59,3.586,0.152,5.11c0.742,1.535,1.883,2.901,3.391,4.092
			c1.516,1.198,3.598,2.652,6.262,4.359c3.139,2.037,5.643,3.832,7.48,5.382c1.828,1.562,3.207,3.433,4.104,5.611
			c0.895,2.186,0.85,4.708-0.123,7.563c-0.82,2.37-2.197,4.31-4.143,5.811c-1.936,1.504-4.424,2.373-7.455,2.61
			c-3.023,0.229-6.461-0.314-10.305-1.634C419.281,78.665,416.135,76.961,413.326,74.749z"/>
		<path style="fill:#AC9A32;" d="M526.4,78.132l-27.152,41.53l-4.318-2.833l12.516-19.157l-25.98-16.991l-12.525,19.165
			l-4.393-2.871l27.145-41.525l4.395,2.871l-12.104,18.506l25.982,16.987l12.109-18.506L526.4,78.132z"/>
		<path style="fill:#AC9A32;" d="M516.984,128.251c0.053-5.141,2.557-10.208,7.518-15.203l20.033-20.167l3.713,3.701l-19.873,20.011
			c-4.064,4.088-6.17,8.049-6.322,11.896c-0.154,3.843,1.508,7.495,4.99,10.958c3.521,3.495,7.203,5.156,11.047,4.972
			c3.842-0.168,7.785-2.308,11.85-6.4l19.881-20.011l3.621,3.594l-20.025,20.16c-4.961,4.995-10.014,7.541-15.135,7.644
			c-5.129,0.103-9.975-2.109-14.529-6.637C519.189,138.233,516.93,133.396,516.984,128.251z"/>
		<path style="fill:#AC9A32;" d="M611.389,174.27l-41.324,27.463l-2.395-3.594l15.875-48.848l-33.521,22.28l-2.916-4.364
			l41.322-27.467l2.396,3.606l-15.832,48.901l33.523-22.284L611.389,174.27z"/>
		<path style="fill:#AC9A32;" d="M612.422,236.966l1.891,4.666l-17.539,7.1c-2.748-1.382-5.229-3.337-7.418-5.864
			c-2.203-2.526-3.957-5.416-5.266-8.654c-1.861-4.593-2.527-9.148-2.006-13.642c0.527-4.49,2.15-8.509,4.869-12.057
			c2.717-3.544,6.285-6.216,10.709-8.007c4.432-1.792,8.85-2.362,13.266-1.703c4.426,0.658,8.391,2.419,11.896,5.286
			c3.498,2.859,6.193,6.61,8.068,11.257c1.416,3.502,2.16,6.947,2.236,10.338c0.068,3.388-0.582,6.526-1.961,9.424l-4.309-1.769
			c2.119-5.091,2.043-10.438-0.223-16.045c-1.516-3.728-3.689-6.744-6.545-9.086c-2.855-2.331-6.086-3.767-9.691-4.287
			c-3.605-0.536-7.195-0.077-10.795,1.382c-3.59,1.455-6.482,3.621-8.688,6.499c-2.205,2.871-3.521,6.144-3.98,9.795
			c-0.467,3.651,0.061,7.341,1.568,11.062c1.914,4.73,4.725,8.26,8.414,10.583L612.422,236.966z"/>
		<path style="fill:#AC9A32;" d="M613.662,291.18l-5.344-27.119l-14.154-3.276l-1.057-5.355l53.066,12.65l0.994,5.079l-44.285,31.85
			l-1.064-5.424L613.662,291.18z M617.467,288.481l23.846-16.833l-28.447-6.526L617.467,288.481z"/>
		<path style="fill:#AC9A32;" d="M603.242,344.797l15.809-11.556c-0.168-1.271-0.252-2.595-0.275-3.965l-0.176-13.32l-15.732,0.207
			l-0.068-5.244l49.605-0.666l0.244,18.571c0.084,6.323-1.346,11.314-4.332,14.936c-2.979,3.632-7.104,5.485-12.395,5.554
			c-3.881,0.05-7.172-0.884-9.859-2.802c-2.695-1.925-4.662-4.7-5.887-8.321l-16.842,12.344L603.242,344.797z M626.652,340.299
			c2.205,2.564,5.273,3.824,9.201,3.774c4.012-0.053,7.074-1.393,9.186-4.026c2.121-2.622,3.139-6.396,3.07-11.307l-0.176-13.182
			l-24.863,0.34l0.168,13.179C623.307,333.992,624.447,337.735,626.652,340.299z"/>
		<path style="fill:#AC9A32;" d="M616.379,378.801l-16.949-2.656l0.805-5.106l16.941,2.645l35.137-14.595l-0.865,5.531
			l-30.146,12.508l24.895,21.102l-0.811,5.187L616.379,378.801z"/>
	</g>
	<path style="fill:#8C8C8C;" d="M335.924,564.42c-0.008,0-0.008,0-0.016,0c-1.623,0-3.268-0.019-4.898-0.05
		c-62.031-1.293-119.842-26.659-162.795-71.43c-42.945-44.771-65.889-103.59-64.596-165.616
		c2.627-127.042,109.508-229.758,237.043-227.408c128.049,2.667,230.053,109.01,227.391,237.054
		C565.441,462.384,461.301,564.42,335.924,564.42z M335.764,115.543c-116.949,0-214.055,95.15-216.467,212.106
		c-1.209,57.842,20.18,112.688,60.232,154.436c40.051,41.751,93.959,65.406,151.801,66.607c1.531,0.035,3.063,0.05,4.578,0.05
		c116.926,0.004,214.031-95.142,216.465-212.102c2.488-119.401-92.635-218.563-212.031-221.047
		C338.811,115.559,337.279,115.543,335.764,115.543z"/>
	<g>
		<path style="fill:#827F81;" d="M437.508,459.556c1.049,3.992,4.654,6.637,8.613,6.637c0.742,0,1.508-0.096,2.273-0.291
			c4.746-1.255,7.602-6.124,6.338-10.878L389.02,205.503c-1.24-4.75-6.115-7.598-10.869-6.339c-4.762,1.252-7.594,6.121-6.34,10.867
			L437.508,459.556z M437.508,459.556"/>
		<path style="fill:#827F81;" d="M235.32,465.902c0.766,0.195,1.508,0.291,2.273,0.291c3.941,0,7.547-2.645,8.588-6.637
			l65.721-249.524c1.24-4.746-1.592-9.615-6.346-10.867c-4.754-1.259-9.623,1.589-10.887,6.339l-65.705,249.521
			C227.727,459.778,230.559,464.646,235.32,465.902L235.32,465.902z M235.32,465.902"/>
		<path style="fill:#827F81;" d="M479.871,466.193c0.744,0,1.523-0.096,2.281-0.303c4.762-1.259,7.588-6.147,6.316-10.886
			l-66.432-249.528c-1.279-4.747-6.146-7.571-10.893-6.304c-4.77,1.255-7.596,6.14-6.324,10.897l66.439,249.509
			C472.332,463.563,475.93,466.193,479.871,466.193L479.871,466.193z M479.871,466.193"/>
		<path style="fill:#827F81;" d="M201.553,465.89c0.766,0.207,1.531,0.303,2.289,0.303c3.934,0,7.547-2.63,8.596-6.614
			l66.447-249.509c1.264-4.757-1.561-9.642-6.314-10.897c-4.762-1.267-9.631,1.558-10.895,6.304l-66.447,249.528
			C193.975,459.743,196.799,464.631,201.553,465.89L201.553,465.89z M201.553,465.89"/>
	</g>
	<path style="fill:#827F81;" d="M341.85,418.868c-4.916,0-8.896,3.985-8.896,8.907v23.203c0,4.918,3.98,8.903,8.896,8.903
		c4.922,0,8.91-3.984,8.91-8.903v-23.203C350.76,422.853,346.771,418.868,341.85,418.868L341.85,418.868z M341.85,418.868"/>
	<path style="fill:#827F81;" d="M350.76,356.536c0-4.918-3.988-8.896-8.91-8.896c-4.916,0-8.896,3.977-8.896,8.896v23.21
		c0,4.915,3.98,8.907,8.896,8.907c4.922,0,8.91-3.992,8.91-8.907V356.536z M350.76,356.536"/>
	<path style="fill:#827F81;" d="M350.76,285.316c0-4.918-3.988-8.903-8.91-8.903c-4.916,0-8.896,3.984-8.896,8.903v23.207
		c0,4.918,3.98,8.903,8.896,8.903c4.922,0,8.91-3.984,8.91-8.903V285.316z M350.76,285.316"/>
	<path style="fill:#827F81;" d="M350.76,214.096c0-4.922-3.988-8.911-8.91-8.911c-4.916,0-8.896,3.988-8.896,8.911v23.207
		c0,4.899,3.98,8.896,8.896,8.896c4.922,0,8.91-3.996,8.91-8.896V214.096z M350.76,214.096"/>
</g>
</svg>
