<?xml version="1.0" encoding="iso-8859-1"?>
<!-- Generator: Adobe Illustrator 15.1.0, SVG Export Plug-In . SVG Version: 6.00 Build 0)  -->
<!DOCTYPE svg PUBLIC "-//W3C//DTD SVG 1.1//EN" "http://www.w3.org/Graphics/SVG/1.1/DTD/svg11.dtd">
<svg version="1.1" id="Layer_1" xmlns="http://www.w3.org/2000/svg" xmlns:xlink="http://www.w3.org/1999/xlink" x="0px" y="0px"
	 width="595.28px" height="693.448px" viewBox="0 0 595.28 693.448" style="enable-background:new 0 0 595.28 693.448;"
	 xml:space="preserve">
<rect x="-3141.358" y="319.455" style="fill:#DAC725;" width="14.151" height="21.621"/>
<g>
	<g>
		<path style="fill:#AC9A32;" d="M81.762,170.508c-3.131,1.727-6.04,2.622-8.72,2.69l-1.623-4.229
			c2.542-0.134,5.214-0.934,8.031-2.403c2.816-1.47,5.289-3.38,7.41-5.734c2.963-3.299,4.585-6.319,4.861-9.06
			c0.275-2.74-0.552-4.979-2.48-6.721c-1.479-1.328-3.055-1.941-4.738-1.834c-1.685,0.107-3.346,0.598-4.992,1.466
			c-1.646,0.869-3.781,2.213-6.438,4.027c-3.2,2.143-5.871,3.743-8.008,4.811c-2.135,1.064-4.394,1.581-6.79,1.559
			c-2.396-0.023-4.73-1.068-7.012-3.124c-1.86-1.676-3.116-3.693-3.751-6.051c-0.65-2.358-0.506-4.965,0.413-7.824
			s2.741-5.799,5.466-8.818c1.891-2.105,4.042-3.908,6.438-5.404c2.404-1.497,4.762-2.522,7.112-3.085l1.921,4.114
			c-2.403,0.636-4.654,1.596-6.744,2.89c-2.09,1.302-3.896,2.786-5.412,4.475c-2.916,3.23-4.479,6.224-4.692,8.976
			c-0.229,2.756,0.636,5.021,2.61,6.79c1.47,1.328,3.055,1.948,4.754,1.86c1.707-0.092,3.406-0.597,5.099-1.52
			c1.691-0.926,3.851-2.277,6.461-4.058c3.101-2.101,5.726-3.689,7.877-4.78c2.151-1.079,4.409-1.607,6.767-1.577
			c2.358,0.027,4.662,1.053,6.906,3.077c1.859,1.677,3.115,3.698,3.734,6.075c0.621,2.377,0.46,5.002-0.512,7.881
			c-0.973,2.878-2.817,5.829-5.543,8.846C87.71,166.562,84.9,168.789,81.762,170.508z"/>
		<path style="fill:#AC9A32;" d="M77.979,105.151l4.058-3.322l28.554,34.877l21.496-17.599l2.879,3.506l-25.561,20.925
			L77.979,105.151z"/>
		<path style="fill:#AC9A32;" d="M168.739,97.516l2.281,3.919l-30.329,17.638l-24.94-42.88l29.403-17.105l2.281,3.915
			l-24.872,14.473l8.881,15.257l22.177-12.903l2.243,3.858l-22.178,12.902l9.264,15.931L168.739,97.516z"/>
		<path style="fill:#AC9A32;" d="M211.731,80.854l1.584,4.248L180.437,97.34l-17.309-46.498l31.885-11.861l1.584,4.248
			l-26.969,10.04l6.154,16.535l24.053-8.945l1.547,4.184l-24.037,8.949l6.422,17.271L211.731,80.854z"/>
		<path style="fill:#AC9A32;" d="M248.192,32.236c4.073,2.335,6.584,6.104,7.525,11.314c0.949,5.209-0.084,9.606-3.077,13.197
			c-2.993,3.594-7.617,5.959-13.841,7.085l-13.113,2.381l2.795,15.409l-5.16,0.938l-8.85-48.813l18.266-3.318
			C238.968,29.301,244.112,29.905,248.192,32.236z M248.354,54.142c2.167-2.576,2.901-5.799,2.212-9.653
			c-0.719-3.954-2.549-6.756-5.496-8.405c-2.939-1.653-6.828-2.044-11.658-1.164l-12.977,2.351l4.426,24.408l12.975-2.354
			C242.666,58.447,246.172,56.721,248.354,54.142z"/>
		<path style="fill:#AC9A32;" d="M268.785,26.116l5.236-0.269l2.526,49.548l-5.229,0.269L268.785,26.116z"/>
		<path style="fill:#AC9A32;" d="M336.626,28.47l-4.264,49.43l-4.311-0.375l-28.324-42.847l-3.453,40.105l-5.221-0.447l4.257-49.43
			l4.302,0.375l28.401,42.854l3.452-40.109L336.626,28.47z"/>
		<path style="fill:#AC9A32;" d="M386.453,66.757l4.823,1.432l-5.39,18.146c-2.794,1.29-5.864,2.002-9.21,2.14
			c-3.345,0.142-6.689-0.283-10.043-1.278c-4.754-1.412-8.727-3.725-11.912-6.936c-3.191-3.211-5.32-6.985-6.398-11.326
			c-1.08-4.332-0.935-8.792,0.42-13.361c1.355-4.582,3.675-8.387,6.936-11.434c3.277-3.051,7.119-5.052,11.545-6.005
			c4.416-0.953,9.033-0.72,13.832,0.704c3.621,1.075,6.775,2.645,9.478,4.696c2.694,2.06,4.739,4.528,6.147,7.41l-4.065,2.262
			c-2.656-4.826-6.882-8.103-12.685-9.825c-3.857-1.137-7.578-1.32-11.184-0.543c-3.605,0.776-6.744,2.411-9.408,4.902
			c-2.648,2.484-4.532,5.589-5.643,9.302c-1.102,3.713-1.217,7.329-0.329,10.84c0.88,3.514,2.603,6.587,5.175,9.224
			c2.572,2.638,5.772,4.524,9.623,5.669c4.898,1.451,9.408,1.458,13.52,0.02L386.453,66.757z"/>
		<path style="fill:#AC9A32;" d="M455.962,106.515c0.422,2.717-0.237,5.492-1.967,8.313c-2.213,3.628-5.26,5.6-9.141,5.913
			c-3.881,0.317-8.428-1.125-13.672-4.333l-19.467-11.903L437.59,62.18l18.265,11.165c4.716,2.882,7.793,6.066,9.232,9.55
			c1.447,3.482,1.103,6.962-1.01,10.43c-1.432,2.331-3.224,3.974-5.375,4.899c-2.135,0.934-4.471,1.179-6.974,0.758
			C454.14,101.286,455.549,103.801,455.962,106.515z M443.147,115.999c2.725-0.104,4.922-1.531,6.591-4.271
			c3.238-5.282,1.026-10.262-6.637-14.947l-14.936-9.128l-9.729,15.896l14.943,9.141C437.169,115,440.422,116.106,443.147,115.999z
			 M439.817,68.605l-9.393,15.353l13.48,8.249c3.43,2.094,6.461,3.054,9.125,2.878c2.648-0.176,4.746-1.512,6.277-4.015
			c1.523-2.496,1.76-4.973,0.704-7.41c-1.049-2.446-3.284-4.72-6.722-6.813L439.817,68.605z"/>
		<path style="fill:#AC9A32;" d="M486.507,143.332l-20.523-18.511l-13.298,5.853l-4.05-3.655l50.064-21.645l3.852,3.464
			l-16.397,52.032l-4.11-3.705L486.507,143.332z M487.938,138.899l9.003-27.766l-26.686,11.813L487.938,138.899z"/>
		<path style="fill:#AC9A32;" d="M530.271,177.876l3.055,4l-15.05,11.475c-3.024-0.608-5.917-1.841-8.704-3.697
			c-2.787-1.86-5.244-4.18-7.364-6.959c-3.001-3.949-4.846-8.156-5.526-12.631c-0.674-4.475-0.169-8.776,1.516-12.918
			c1.676-4.138,4.424-7.651,8.221-10.549c3.797-2.89,7.908-4.608,12.348-5.133c4.44-0.536,8.728,0.115,12.861,1.952
			c4.134,1.841,7.717,4.75,10.756,8.73c2.296,3.005,3.911,6.132,4.883,9.386c0.957,3.242,1.148,6.445,0.598,9.607l-4.623-0.57
			c0.703-5.466-0.781-10.606-4.448-15.418c-2.435-3.192-5.343-5.538-8.712-7.035c-3.367-1.5-6.866-2.032-10.479-1.592
			c-3.613,0.439-6.966,1.837-10.044,4.187c-3.077,2.351-5.305,5.202-6.668,8.559c-1.361,3.357-1.783,6.855-1.263,10.499
			c0.521,3.648,1.991,7.063,4.433,10.255c3.1,4.061,6.736,6.725,10.916,7.995L530.271,177.876z"/>
	</g>
	<g>
		<g>
			<path d="M129.675,662.494v0.965h-23.784v-0.762l15.402-15.602c2.136-2.17,3.575-4.007,4.317-5.516
				c0.75-1.508,1.117-3.073,1.117-4.7c0-2.541-0.857-4.539-2.564-5.997c-1.707-1.455-4.156-2.186-7.341-2.186
				c-2.442,0-4.563,0.355-6.354,1.067c-1.8,0.712-3.338,1.795-4.624,3.254l-0.712-0.712c2.741-3.051,6.638-4.574,11.689-4.574
				c3.353,0,6.009,0.815,7.978,2.438c1.967,1.626,2.947,3.847,2.947,6.659c0,1.796-0.406,3.507-1.218,5.133
				c-0.812,1.627-2.319,3.557-4.524,5.791l-14.537,14.74H129.675z"/>
			<path d="M141.136,661.399c-2.053-1.474-3.645-3.563-4.777-6.273c-1.133-2.714-1.699-5.863-1.699-9.454
				c0-3.59,0.566-6.74,1.699-9.454c1.133-2.71,2.725-4.8,4.777-6.273c2.051-1.474,4.416-2.212,7.088-2.212
				c2.68,0,5.037,0.738,7.089,2.212s3.644,3.563,4.776,6.273c1.141,2.714,1.707,5.864,1.707,9.454c0,3.591-0.566,6.74-1.707,9.454
				c-1.133,2.71-2.725,4.8-4.776,6.273s-4.409,2.213-7.089,2.213C145.552,663.612,143.187,662.873,141.136,661.399z
				 M154.784,660.562c1.891-1.39,3.369-3.36,4.418-5.921c1.048-2.558,1.576-5.547,1.576-8.969s-0.528-6.411-1.576-8.968
				c-1.049-2.561-2.527-4.532-4.418-5.921c-1.898-1.39-4.088-2.086-6.561-2.086s-4.654,0.696-6.553,2.086
				c-1.898,1.389-3.375,3.36-4.424,5.921c-1.049,2.557-1.578,5.546-1.578,8.968s0.529,6.411,1.578,8.969
				c1.049,2.561,2.525,4.531,4.424,5.921s4.08,2.086,6.553,2.086S152.886,661.951,154.784,660.562z"/>
			<path d="M207.942,662.494v0.965h-23.686v-35.573h22.92v0.964h-21.902v16.061h19.613v0.965h-19.613v16.619H207.942z"/>
			<path d="M221.507,659.8c-2.404-2.542-3.605-6.285-3.605-11.23v-20.684h1.018v20.63c0,4.678,1.096,8.203,3.277,10.572
				c2.189,2.373,5.328,3.56,9.431,3.56c4.096,0,7.242-1.187,9.424-3.56c2.182-2.369,3.276-5.895,3.276-10.572v-20.63h1.018v20.684
				c0,4.945-1.201,8.688-3.605,11.23c-2.411,2.541-5.779,3.813-10.112,3.813C227.286,663.612,223.919,662.341,221.507,659.8z"/>
			<path d="M283.813,663.459l-9.041-12.551c-1.187,0.237-2.579,0.353-4.172,0.353h-11.023v12.198h-1.019v-35.573H270.6
				c4.371,0,7.793,1.025,10.266,3.073c2.473,2.052,3.713,4.922,3.713,8.616c0,2.844-0.766,5.225-2.289,7.138
				c-1.523,1.914-3.675,3.227-6.453,3.938l9.247,12.808H283.813z M270.706,650.296c4.127,0,7.304-0.93,9.523-2.794
				c2.221-1.864,3.33-4.505,3.33-7.927s-1.109-6.067-3.33-7.932c-2.22-1.859-5.396-2.794-9.523-2.794h-11.13v21.446H270.706z"/>
			<path d="M316.646,620.67h1.018l-16.771,47.872h-1.019L316.646,620.67z"/>
			<path d="M339.466,638.836c1.768-1.202,3.949-1.803,6.561-1.803v1.015h-0.307c-3.154,0-5.611,1.01-7.371,3.023
				c-1.762,2.018-2.642,4.77-2.642,8.26v14.128h-1.019v-26.272h1.019v6.81C336.457,641.761,337.705,640.038,339.466,638.836z"/>
			<path d="M374.634,650.296h-23.371c0,2.373,0.52,4.497,1.568,6.377c1.057,1.883,2.504,3.349,4.349,4.397s3.919,1.577,6.224,1.577
				c1.799,0,3.482-0.349,5.061-1.045c1.576-0.692,2.87-1.699,3.889-3.023l0.711,0.712c-1.155,1.389-2.579,2.457-4.271,3.203
				c-1.691,0.747-3.49,1.118-5.389,1.118c-2.504,0-4.746-0.566-6.729-1.703c-1.982-1.134-3.545-2.718-4.678-4.75
				c-1.133-2.033-1.707-4.322-1.707-6.863c0-2.542,0.528-4.819,1.577-6.836c1.048-2.014,2.503-3.591,4.349-4.724
				c1.844-1.137,3.919-1.703,6.223-1.703c2.273,0,4.341,0.559,6.201,1.677c1.859,1.117,3.33,2.66,4.395,4.623
				c1.071,1.968,1.6,4.203,1.6,6.71V650.296z M356.904,639.472c-1.661,0.983-2.993,2.339-3.996,4.064
				c-0.995,1.73-1.546,3.659-1.646,5.795h22.406c-0.1-2.136-0.658-4.064-1.677-5.795c-1.019-1.726-2.351-3.081-4.011-4.064
				c-1.662-0.98-3.506-1.474-5.543-1.474C360.41,637.998,358.558,638.491,356.904,639.472z"/>
			<path d="M402.996,639.854c1.86,1.879,2.794,4.581,2.794,8.103v15.502h-1.018v-15.502c0-3.215-0.82-5.68-2.465-7.391
				c-1.639-1.711-3.974-2.568-6.99-2.568c-3.422,0-6.123,1.025-8.099,3.073c-1.983,2.052-2.978,4.754-2.978,8.106v14.281h-1.019
				v-26.272h1.019v7.012c0.811-2.235,2.166-3.988,4.064-5.259s4.218-1.906,6.967-1.906
				C398.556,637.033,401.128,637.971,402.996,639.854z"/>
			<path d="M429.069,661.732c-0.574,0.608-1.332,1.076-2.266,1.397c-0.926,0.321-1.883,0.482-2.871,0.482
				c-2.028,0-3.598-0.586-4.7-1.753c-1.103-1.172-1.646-2.737-1.646-4.7v-19.008h-5.084v-0.965h5.084v-5.745h1.01v5.745h8.896v0.965
				h-8.896v18.751c0,1.864,0.46,3.288,1.379,4.271c0.91,0.979,2.25,1.474,4.011,1.474s3.216-0.544,4.371-1.627L429.069,661.732z"/>
			<path d="M452.272,639.395c1.607,1.577,2.411,3.854,2.411,6.837v17.228h-1.019v-5.588c-0.842,1.795-2.127,3.199-3.835,4.218
				c-1.714,1.014-3.767,1.523-6.178,1.523c-2.909,0-5.19-0.67-6.836-2.01c-1.638-1.336-2.457-3.123-2.457-5.358
				c0-2.102,0.735-3.805,2.204-5.11c1.479-1.301,3.858-1.956,7.143-1.956h9.959v-2.897c0-2.744-0.703-4.807-2.104-6.2
				c-1.409-1.386-3.483-2.082-6.231-2.082c-1.891,0-3.667,0.329-5.305,0.991c-1.646,0.662-3.063,1.55-4.249,2.668l-0.712-0.712
				c1.256-1.218,2.779-2.174,4.578-2.871c1.791-0.692,3.674-1.041,5.642-1.041C448.33,637.033,450.657,637.821,452.272,639.395z
				 M453.665,655.938v-5.795h-10.013c-2.84,0-4.938,0.544-6.27,1.627c-1.339,1.087-2.013,2.561-2.013,4.421
				c0,2.002,0.727,3.575,2.189,4.727c1.454,1.152,3.49,1.73,6.093,1.73C448.536,662.647,451.874,660.408,453.665,655.938z"/>
			<path d="M466.06,625.75h1.018v37.709h-1.018V625.75z"/>
		</g>
	</g>
	<path style="fill:#8C8C8C;" d="M288.429,574.44L288.429,574.44c-1.646,0-3.3-0.015-4.945-0.05
		c-62.029-1.286-119.842-26.647-162.787-71.419c-42.945-44.771-65.889-103.59-64.595-165.623
		c2.587-125.415,106.706-227.447,232.097-227.447c1.639,0,3.293,0.02,4.931,0.05c128.048,2.652,230.062,108.987,227.412,237.039
		C517.931,472.405,413.798,574.44,288.429,574.44z M288.198,125.579c-116.924,0-214.008,95.146-216.419,212.095
		c-1.21,57.847,20.179,112.695,60.231,154.443c40.044,41.751,93.951,65.401,151.794,66.596
		c119.222,2.538,218.586-93.554,221.059-212.048c2.473-119.409-92.658-218.567-212.056-221.036
		C291.269,125.595,289.729,125.579,288.198,125.579z"/>
	<path style="fill:#827F81;" d="M288.283,228.163c-42.884,0-77.776,32.04-77.761,71.985l13.688,147.688
		c0,44.052,24.557,71.441,64.073,71.441c39.523,0,64.097-27.39,64.065-70.917l13.75-148.74
		C366.099,260.203,331.19,228.163,288.283,228.163z M338.646,447.836c0,13.794-3.621,58.83-50.363,58.83
		c-46.728,0-50.356-45.036-50.371-59.366l-9.813-105.611c8.887,14.415,17.798,28.849,26.686,43.244
		c1.301,2.117,4.379,3.365,6.912,2.614c28.286-8.328,56.564-16.688,84.85-25.032L338.646,447.836z M244.656,316.293l-0.728-8.73
		c0-24.888,19.904-45.132,44.369-45.132c24.482,0,44.416,20.244,44.424,44.733l-2.879,34.149
		c-27.107-7.865-54.221-15.738-81.336-23.589c0.245,0.015,0.482,0,0.689,0.03C247.688,317.269,246.164,316.768,244.656,316.293z
		 M333.862,354.37c-23.646,6.974-47.294,13.959-70.964,20.929c-0.176-0.367-0.245-0.624-0.521-1.061
		c-5.006-8.118-10.028-16.259-15.035-24.37c-5.159-8.359-10.311-16.737-15.455-25.098
		C265.884,334.635,299.888,344.506,333.862,354.37z M348.001,346.588c-2.947-0.842-5.895-1.707-8.842-2.568l3.047-36.457
		c0-30.223-24.183-54.792-53.908-54.792c-29.701,0-53.869,24.569-53.861,55.217l0.49,5.779c-3.208-0.926-6.445-1.86-9.661-2.794
		l-1.056-11.353c0-32.462,28.744-58.876,64.073-58.876s64.097,26.414,64.12,58.332L348.001,346.588z"/>
</g>
</svg>
