<?xml version="1.0" encoding="iso-8859-1"?>
<!-- Generator: Adobe Illustrator 15.1.0, SVG Export Plug-In . SVG Version: 6.00 Build 0)  -->
<!DOCTYPE svg PUBLIC "-//W3C//DTD SVG 1.1//EN" "http://www.w3.org/Graphics/SVG/1.1/DTD/svg11.dtd">
<svg version="1.1" id="Layer_1" xmlns="http://www.w3.org/2000/svg" xmlns:xlink="http://www.w3.org/1999/xlink" x="0px" y="0px"
	 width="595.28px" height="693.448px" viewBox="0 0 595.28 693.448" style="enable-background:new 0 0 595.28 693.448;"
	 xml:space="preserve">
<rect x="-3141.358" y="319.455" style="fill:#DAC725;" width="14.151" height="21.621"/>
<g>
	<g>
		<g>
			<path d="M123.573,636.684v34.479h-0.965v-33.541h-9.148v-0.938H123.573z"/>
			<path d="M139.81,669.169c-2.051-1.428-3.645-3.457-4.777-6.082c-1.133-2.63-1.699-5.68-1.699-9.164
				c0-3.479,0.566-6.534,1.699-9.159c1.133-2.626,2.727-4.654,4.777-6.082c2.051-1.432,4.418-2.144,7.088-2.144
				c2.68,0,5.037,0.712,7.09,2.144c2.051,1.428,3.645,3.456,4.777,6.082c1.141,2.625,1.707,5.68,1.707,9.159
				c0,3.483-0.566,6.534-1.707,9.164c-1.133,2.625-2.727,4.654-4.777,6.082c-2.053,1.428-4.41,2.144-7.09,2.144
				C144.228,671.313,141.86,670.597,139.81,669.169z M153.458,668.357c1.893-1.347,3.369-3.261,4.418-5.741
				c1.049-2.477,1.576-5.374,1.576-8.693c0-3.314-0.527-6.212-1.576-8.692c-1.049-2.48-2.525-4.39-4.418-5.737
				c-1.898-1.348-4.088-2.021-6.561-2.021c-2.471,0-4.654,0.673-6.553,2.021c-1.898,1.347-3.375,3.257-4.424,5.737
				c-1.049,2.48-1.576,5.378-1.576,8.692c0,3.319,0.527,6.216,1.576,8.693c1.049,2.48,2.525,4.394,4.424,5.741
				c1.898,1.343,4.082,2.017,6.553,2.017C149.37,670.375,151.56,669.701,153.458,668.357z"/>
			<path d="M206.616,670.229v0.934h-23.686v-34.479h22.92v0.938h-21.9v15.563h19.611v0.938H183.95v16.106H206.616z"/>
			<path d="M220.181,667.619c-2.402-2.465-3.605-6.094-3.605-10.886v-20.049h1.02v19.999c0,4.532,1.094,7.946,3.275,10.243
				c2.189,2.3,5.328,3.449,9.432,3.449c4.096,0,7.242-1.148,9.424-3.449c2.182-2.296,3.275-5.711,3.275-10.243v-19.999h1.02v20.049
				c0,4.792-1.203,8.421-3.607,10.886c-2.41,2.461-5.779,3.694-10.111,3.694C225.962,671.313,222.593,670.08,220.181,667.619z"/>
			<path d="M282.487,671.163l-9.041-12.164c-1.188,0.229-2.58,0.344-4.172,0.344h-11.023v11.82h-1.018v-34.479h12.041
				c4.371,0,7.793,0.995,10.266,2.982c2.473,1.986,3.713,4.769,3.713,8.348c0,2.76-0.766,5.064-2.289,6.92s-3.676,3.127-6.453,3.816
				l9.246,12.413H282.487z M269.382,658.406c4.125,0,7.303-0.903,9.521-2.71c2.221-1.803,3.33-4.364,3.33-7.682
				c0-3.314-1.109-5.875-3.33-7.682c-2.219-1.806-5.396-2.709-9.521-2.709h-11.131v20.784H269.382z"/>
			<path d="M315.319,629.691h1.02l-16.773,46.398h-1.018L315.319,629.691z"/>
			<path d="M338.14,647.298c1.77-1.164,3.951-1.745,6.561-1.745v0.983h-0.307c-3.152,0-5.611,0.976-7.371,2.932
				c-1.762,1.952-2.641,4.62-2.641,8.003v13.691h-1.02v-25.465h1.02v6.603C335.132,650.13,336.38,648.465,338.14,647.298z"/>
			<path d="M373.308,658.406h-23.371c0,2.3,0.521,4.359,1.57,6.182c1.055,1.822,2.502,3.242,4.348,4.26
				c1.844,1.018,3.92,1.527,6.223,1.527c1.799,0,3.484-0.337,5.061-1.01c1.576-0.67,2.871-1.65,3.889-2.928l0.713,0.689
				c-1.156,1.347-2.58,2.381-4.271,3.104c-1.693,0.72-3.492,1.083-5.391,1.083c-2.502,0-4.746-0.551-6.729-1.65
				c-1.982-1.103-3.545-2.637-4.678-4.608c-1.133-1.967-1.707-4.184-1.707-6.648c0-2.461,0.529-4.67,1.578-6.625
				c1.049-1.952,2.502-3.479,4.348-4.578c1.846-1.102,3.92-1.649,6.223-1.649c2.275,0,4.342,0.54,6.201,1.623
				c1.861,1.083,3.33,2.58,4.395,4.482c1.072,1.906,1.6,4.072,1.6,6.503V658.406z M355.579,647.914
				c-1.662,0.953-2.994,2.266-3.996,3.942c-0.996,1.673-1.547,3.544-1.646,5.615h22.406c-0.1-2.071-0.658-3.942-1.676-5.615
				c-1.018-1.676-2.35-2.989-4.012-3.942c-1.66-0.949-3.506-1.428-5.543-1.428C359.085,646.486,357.231,646.965,355.579,647.914z"/>
			<path d="M401.671,648.286c1.859,1.822,2.793,4.44,2.793,7.854v15.023h-1.018V656.14c0-3.12-0.818-5.508-2.465-7.165
				c-1.639-1.658-3.973-2.488-6.988-2.488c-3.422,0-6.125,0.995-8.1,2.982c-1.982,1.986-2.979,4.604-2.979,7.854v13.841h-1.018
				v-25.465h1.018v6.798c0.813-2.167,2.166-3.866,4.064-5.099c1.898-1.229,4.219-1.845,6.967-1.845
				C397.229,645.553,399.802,646.463,401.671,648.286z"/>
			<path d="M427.743,669.486c-0.574,0.593-1.332,1.045-2.266,1.355c-0.926,0.314-1.883,0.471-2.871,0.471
				c-2.027,0-3.598-0.567-4.699-1.7c-1.104-1.133-1.646-2.652-1.646-4.559v-18.418h-5.082v-0.938h5.082v-5.565h1.012v5.565h8.895
				v0.938h-8.895v18.173c0,1.807,0.459,3.185,1.377,4.138c0.91,0.953,2.25,1.428,4.012,1.428c1.76,0,3.215-0.524,4.371-1.577
				L427.743,669.486z"/>
			<path d="M450.946,647.841c1.607,1.527,2.412,3.736,2.412,6.625v16.696h-1.018v-5.416c-0.844,1.738-2.129,3.1-3.836,4.088
				c-1.715,0.983-3.766,1.478-6.178,1.478c-2.908,0-5.189-0.651-6.836-1.948c-1.639-1.294-2.457-3.028-2.457-5.194
				c0-2.036,0.734-3.686,2.205-4.949c1.477-1.267,3.857-1.898,7.141-1.898h9.961v-2.806c0-2.66-0.705-4.662-2.105-6.009
				c-1.408-1.347-3.484-2.021-6.232-2.021c-1.891,0-3.666,0.322-5.305,0.961c-1.646,0.639-3.063,1.504-4.248,2.587l-0.713-0.689
				c1.256-1.183,2.779-2.113,4.578-2.787c1.791-0.669,3.674-1.006,5.643-1.006C447.005,645.553,449.331,646.314,450.946,647.841z
				 M452.341,663.875v-5.615h-10.014c-2.84,0-4.938,0.524-6.27,1.573c-1.34,1.052-2.014,2.48-2.014,4.287
				c0,1.937,0.727,3.464,2.189,4.582c1.455,1.114,3.49,1.673,6.094,1.673C447.212,670.375,450.548,668.208,452.341,663.875z"/>
			<path d="M464.741,634.617h1.018v36.546h-1.018V634.617z"/>
		</g>
	</g>
	<g>
		<path style="fill:#AC9A32;" d="M66.282,189.212c-2.91,2.082-5.68,3.326-8.33,3.724l-2.127-4.004
			c2.502-0.444,5.066-1.558,7.678-3.356c2.617-1.803,4.838-4,6.66-6.595c2.541-3.628,3.781-6.832,3.721-9.588
			c-0.055-2.756-1.148-4.876-3.285-6.373c-1.615-1.129-3.26-1.546-4.914-1.24c-1.668,0.314-3.254,0.995-4.777,2.067
			c-1.531,1.061-3.498,2.653-5.91,4.777c-2.908,2.519-5.357,4.433-7.355,5.741c-1.99,1.325-4.172,2.113-6.553,2.381
			c-2.381,0.26-4.83-0.482-7.342-2.254c-2.051-1.428-3.537-3.28-4.455-5.539c-0.934-2.266-1.109-4.869-0.543-7.823
			c0.566-2.947,2.014-6.086,4.355-9.408c1.623-2.331,3.537-4.379,5.727-6.159c2.203-1.772,4.432-3.089,6.689-3.923l2.404,3.851
			c-2.313,0.918-4.426,2.151-6.338,3.686c-1.922,1.539-3.529,3.25-4.838,5.094c-2.496,3.567-3.684,6.729-3.561,9.493
			c0.107,2.76,1.248,4.896,3.414,6.415c1.623,1.145,3.277,1.562,4.953,1.271c1.676-0.298,3.291-1.01,4.869-2.136
			c1.561-1.125,3.535-2.725,5.924-4.808c2.818-2.465,5.229-4.363,7.242-5.695c1.998-1.336,4.172-2.136,6.523-2.396
			c2.342-0.26,4.746,0.475,7.232,2.212c2.053,1.436,3.529,3.299,4.434,5.584c0.918,2.277,1.064,4.903,0.451,7.881
			c-0.619,2.982-2.082,6.128-4.418,9.458C71.702,184.562,69.183,187.119,66.282,189.212z"/>
		<path style="fill:#AC9A32;" d="M93.687,151.108c-4.385,1.232-8.727,1.275-13.014,0.115c-4.279-1.16-8.092-3.437-11.428-6.84
			c-3.354-3.406-5.566-7.265-6.645-11.563c-1.08-4.302-0.973-8.639,0.336-13.006c1.309-4.359,3.721-8.275,7.227-11.708
			c3.498-3.449,7.434-5.783,11.766-6.993c4.334-1.213,8.666-1.24,12.984-0.084c4.309,1.16,8.137,3.434,11.49,6.844
			c3.344,3.399,5.549,7.272,6.637,11.613c1.078,4.333,0.973,8.658-0.314,12.976c-1.301,4.317-3.697,8.195-7.195,11.64
			C102.024,147.541,98.073,149.88,93.687,151.108z M107.972,131.416c1.01-3.479,1.064-6.974,0.139-10.472
			c-0.92-3.502-2.734-6.637-5.451-9.397c-2.717-2.763-5.818-4.631-9.293-5.619c-3.484-0.98-6.982-0.995-10.48-0.046
			c-3.498,0.957-6.645,2.802-9.447,5.55c-2.801,2.749-4.715,5.879-5.74,9.378c-1.041,3.494-1.096,7.012-0.199,10.518
			c0.902,3.521,2.709,6.664,5.436,9.423c2.717,2.764,5.818,4.631,9.316,5.592c3.498,0.968,7.012,0.964,10.525,0
			c3.514-0.965,6.668-2.829,9.469-5.581C105.048,138.014,106.954,134.906,107.972,131.416z"/>
		<path style="fill:#AC9A32;" d="M104.099,79.379l4.34-2.943l25.277,37.319l23.004-15.574l2.541,3.755l-27.344,18.514
			L104.099,79.379z"/>
		<path style="fill:#AC9A32;" d="M188.306,73.745l-25.156,11.464l0.078,14.537l-4.961,2.258l0.061-54.547l4.709-2.147l41.207,35.73
			l-5.029,2.297L188.306,73.745z M184.8,70.676l-21.887-19.314l0.215,29.185L184.8,70.676z"/>
		<path style="fill:#AC9A32;" d="M243.024,71.514l-14.873-12.711c-1.203,0.44-2.473,0.831-3.805,1.164l-12.922,3.23l3.826,15.265
			l-5.09,1.282L198.12,31.611l18.004-4.513c6.139-1.531,11.33-1.275,15.541,0.785c4.225,2.074,6.965,5.665,8.26,10.801
			c0.941,3.759,0.779,7.169-0.475,10.231c-1.256,3.073-3.5,5.619-6.744,7.644l15.883,13.569L243.024,71.514z M233.265,49.777
			c1.998-2.748,2.518-6.017,1.568-9.825c-0.973-3.893-2.977-6.568-6.031-8.023c-3.039-1.458-6.943-1.588-11.713-0.394l-12.785,3.204
			l6.033,24.129l12.791-3.196C227.897,54.477,231.274,52.51,233.265,49.777z"/>
		<path style="fill:#AC9A32;" d="M278.866,66.186c-3.391-1.145-6.018-2.672-7.885-4.597l2.006-4.057
			c1.822,1.772,4.217,3.196,7.203,4.271c2.992,1.08,6.07,1.6,9.24,1.562c4.439-0.046,7.762-0.907,9.959-2.557
			c2.205-1.657,3.283-3.782,3.262-6.384c-0.023-1.983-0.645-3.552-1.861-4.727c-1.225-1.164-2.709-2.063-4.463-2.676
			c-1.76-0.616-4.195-1.29-7.326-2.009c-3.742-0.899-6.729-1.772-8.957-2.622c-2.234-0.85-4.148-2.163-5.748-3.942
			c-1.607-1.78-2.426-4.199-2.465-7.272c-0.023-2.507,0.605-4.792,1.906-6.863s3.307-3.736,6.039-4.999
			c2.727-1.259,6.117-1.91,10.182-1.952c2.84-0.035,5.619,0.317,8.344,1.071c2.727,0.747,5.084,1.799,7.09,3.143l-1.723,4.199
			c-2.098-1.348-4.326-2.347-6.699-3.009c-2.365-0.647-4.691-0.968-6.957-0.945c-4.342,0.054-7.609,0.926-9.783,2.629
			c-2.182,1.707-3.254,3.877-3.225,6.519c0.023,1.99,0.652,3.579,1.861,4.769c1.217,1.194,2.74,2.098,4.57,2.714
			c1.822,0.62,4.279,1.282,7.363,2.009c3.645,0.85,6.592,1.7,8.842,2.549c2.26,0.85,4.18,2.151,5.758,3.904
			c1.576,1.753,2.389,4.141,2.418,7.169c0.039,2.503-0.611,4.788-1.928,6.863c-1.332,2.067-3.385,3.728-6.156,4.957
			c-2.777,1.24-6.193,1.879-10.25,1.925C285.802,67.877,282.249,67.323,278.866,66.186z"/>
		<path style="fill:#AC9A32;" d="M366.411,25.839l-8.414,48.894l-5.105-0.873l3.889-22.56l-30.598-5.267l-3.881,22.56l-5.168-0.888
			l8.406-48.894l5.182,0.888l-3.75,21.791l30.582,5.267l3.75-21.79L366.411,25.839z"/>
		<path style="fill:#AC9A32;" d="M380.136,78.871c-2.893-3.529-4.676-7.487-5.328-11.877c-0.666-4.379-0.1-8.788,1.678-13.225
			c1.768-4.436,4.408-8.007,7.922-10.721c3.506-2.717,7.51-4.355,12.035-4.907c4.523-0.559,9.063,0.077,13.633,1.906
			c4.563,1.83,8.268,4.486,11.123,7.969c2.855,3.483,4.617,7.434,5.299,11.851c0.664,4.421,0.121,8.841-1.662,13.278
			c-1.775,4.436-4.432,8.011-7.969,10.74s-7.541,4.375-12.012,4.926c-4.471,0.544-8.979-0.088-13.549-1.921
			C386.743,85.067,383.022,82.384,380.136,78.871z M403.905,84.034c3.598-0.467,6.814-1.826,9.646-4.068
			c2.84-2.254,4.975-5.171,6.414-8.777c1.439-3.586,1.914-7.185,1.416-10.767c-0.496-3.586-1.883-6.786-4.164-9.611
			c-2.281-2.821-5.244-4.96-8.887-6.423c-3.629-1.455-7.266-1.959-10.887-1.5c-3.621,0.459-6.859,1.814-9.715,4.054
			c-2.855,2.239-5.006,5.156-6.453,8.757c-1.439,3.598-1.891,7.192-1.377,10.778c0.52,3.594,1.936,6.806,4.232,9.638
			c2.305,2.836,5.275,4.976,8.918,6.442C396.687,84.003,400.308,84.505,403.905,84.034z"/>
		<path style="fill:#AC9A32;" d="M506.769,98.583l-42.494,30.583l-4.494-3.219l12.838-42.85l-36.516,25.886l-4.439-3.177
			l15.303-50.072l4.371,3.135L438.14,101.89l36.883-26.058l3.973,2.852l-13.105,43.359l36.783-26.395L506.769,98.583z"/>
		<path style="fill:#AC9A32;" d="M508.245,168.463l-3.383,3.027l-23.355-26.188l37.027-33.028l22.652,25.392l-3.393,3.02
			l-19.152-21.473l-13.168,11.743l17.08,19.153l-3.338,2.974l-17.078-19.153l-13.75,12.26L508.245,168.463z"/>
		<path style="fill:#AC9A32;" d="M528.501,208.545l7.641-18.013c-0.789-1.018-1.539-2.105-2.258-3.272l-6.975-11.349l-13.412,8.245
			l-2.74-4.47l42.256-25.997l9.73,15.823c3.314,5.389,4.631,10.411,3.928,15.046c-0.689,4.647-3.293,8.36-7.793,11.127
			c-3.301,2.033-6.607,2.905-9.906,2.637c-3.299-0.264-6.408-1.642-9.324-4.13l-8.137,19.245L528.501,208.545z M546.292,192.691
			c3.215,1.076,6.492,0.578,9.83-1.47c3.422-2.105,5.365-4.831,5.84-8.172c0.467-3.341-0.582-7.104-3.162-11.284l-6.912-11.234
			l-21.189,13.041l6.92,11.226C540.19,188.99,543.085,191.612,546.292,192.691z"/>
	</g>
	<path style="fill:#8C8C8C;" d="M292.394,572.247c-0.008,0-0.008,0-0.016,0c-1.639,0-3.293-0.015-4.93-0.05
		c-62.031-1.286-119.85-26.651-162.803-71.423C81.7,456.003,58.757,397.184,60.042,335.15
		c2.604-125.411,106.736-227.443,232.137-227.443c1.631,0,3.275,0.019,4.914,0.05C425.118,110.41,527.132,216.744,524.489,344.8
		C521.872,470.215,417.747,572.247,292.394,572.247z M292.179,123.385c-116.934,0-214.031,95.146-216.459,212.094
		c-1.209,57.843,20.188,112.692,60.24,154.439c40.051,41.751,93.967,65.402,151.809,66.6c1.539,0.035,3.086,0.05,4.609,0.05
		c116.902,0.008,213.992-95.139,216.434-212.094c2.465-119.409-92.658-218.571-212.041-221.04
		C295.233,123.401,293.702,123.385,292.179,123.385z"/>
	<g>
		<path style="fill:#827F81;" d="M332.62,439.402c-5.719,0-10.365-4.114-10.365-9.171c0-4.157,6.492-14.801,8.482-17.963
			l1.883-2.981l1.877,2.978c1.998,3.161,8.52,13.806,8.52,17.966C343.017,435.288,338.354,439.402,332.62,439.402z"/>
		<path style="fill:#827F81;" d="M295.255,439.402c-5.725,0-10.379-4.114-10.379-9.171c0-4.157,6.506-14.801,8.496-17.966
			l1.883-2.982l1.885,2.985c1.99,3.162,8.488,13.806,8.488,17.963C305.628,435.288,300.974,439.402,295.255,439.402z"/>
		<path style="fill:#827F81;" d="M257.876,439.402c-5.719,0-10.373-4.114-10.373-9.171c0-4.157,6.5-14.801,8.49-17.963l1.883-2.981
			l1.875,2.978c1.998,3.165,8.512,13.81,8.512,17.966C268.263,435.288,263.603,439.402,257.876,439.402z"/>
	</g>
	<g>
		<path style="fill:#827F81;" d="M295.255,509.045c-5.725,0-10.379-4.115-10.379-9.171c0-4.153,6.506-14.801,8.496-17.967
			l1.883-2.981l1.885,2.985c1.99,3.162,8.488,13.81,8.488,17.963C305.628,504.931,300.974,509.045,295.255,509.045z"/>
		<path style="fill:#827F81;" d="M257.876,509.045c-5.719,0-10.373-4.115-10.373-9.171c0-4.153,6.5-14.801,8.49-17.963l1.883-2.985
			l1.875,2.981c1.998,3.166,8.512,13.814,8.512,17.967C268.263,504.931,263.603,509.045,257.876,509.045z"/>
		<path style="fill:#827F81;" d="M220.495,509.045c-5.719,0-10.373-4.115-10.373-9.171c0-4.153,6.5-14.801,8.49-17.963l1.883-2.985
			l1.875,2.981c1.998,3.166,8.514,13.814,8.514,17.967C230.884,504.931,226.222,509.045,220.495,509.045z"/>
		<path style="fill:#827F81;" d="M332.62,509.045c-5.719,0-10.365-4.115-10.365-9.171c0-4.153,6.492-14.801,8.482-17.963
			l1.883-2.985l1.877,2.981c1.998,3.166,8.52,13.81,8.52,17.967C343.017,504.931,338.354,509.045,332.62,509.045z"/>
		<path style="fill:#827F81;" d="M370.001,509.045c-5.719,0-10.373-4.115-10.373-9.171c0-4.153,6.5-14.801,8.49-17.963l1.883-2.985
			l1.875,2.981c1.998,3.166,8.514,13.814,8.514,17.967C380.39,504.931,375.728,509.045,370.001,509.045z"/>
	</g>
	<g>
		<path style="fill:#827F81;" d="M313.942,474.214c-5.719,0-10.373-4.111-10.373-9.163c0-4.149,6.5-14.797,8.49-17.959l1.883-2.986
			l1.883,2.982c1.99,3.166,8.498,13.813,8.498,17.963C324.323,470.104,319.669,474.214,313.942,474.214z"/>
		<path style="fill:#827F81;" d="M276.562,474.214c-5.719,0-10.373-4.111-10.373-9.163c0-4.149,6.5-14.797,8.49-17.959l1.883-2.986
			l1.875,2.982c1.998,3.166,8.514,13.81,8.514,17.963C286.95,470.104,282.288,474.214,276.562,474.214z"/>
		<path style="fill:#827F81;" d="M239.188,474.214c-5.725,0-10.379-4.111-10.379-9.163c0-4.149,6.506-14.797,8.496-17.963
			l1.883-2.978l1.877,2.978c1.998,3.166,8.512,13.81,8.512,17.963C249.577,470.104,244.915,474.214,239.188,474.214z"/>
		<path style="fill:#827F81;" d="M351.315,474.214c-5.727,0-10.381-4.111-10.381-9.163c0-4.149,6.506-14.797,8.496-17.963
			l1.885-2.982l1.883,2.982c1.99,3.166,8.496,13.813,8.496,17.963C361.694,470.104,357.04,474.214,351.315,474.214z"/>
	</g>
	<path style="fill:#827F81;" d="M193.312,400.958c-10.51,0-19.061-8.555-19.061-19.069c0-9.841,7.494-17.967,17.086-18.958
		c3.537-46.077,38.443-84.322,84-92.031v-65.229c0-23.49,19.107-42.601,42.602-42.601h81.252v33.874h-81.252
		c-4.809,0-8.727,3.916-8.727,8.727V270.9c45.555,7.713,80.447,45.962,83.984,92.039c9.645,1.033,17.094,9.136,17.094,18.95
		c0,10.514-8.543,19.069-19.053,19.069H193.312z M193.312,378.59c-1.822,0-3.307,1.478-3.307,3.299c0,1.826,1.484,3.307,3.307,3.307
		h197.926c1.813,0,3.291-1.481,3.291-3.307c0-1.822-1.479-3.299-3.291-3.299H193.312z M377.388,362.828
		c-4.018-43.696-40.955-77.585-85.109-77.585c-44.17,0-81.115,33.889-85.119,77.585H377.388z M293.442,266.43v-60.759
		c0-13.508,10.984-24.5,24.496-24.5h65.49v-2.331h-65.49c-14.799,0-26.832,12.034-26.832,26.832v60.759H293.442z"/>
</g>
</svg>
