<?xml version="1.0" encoding="iso-8859-1"?>
<!-- Generator: Adobe Illustrator 15.1.0, SVG Export Plug-In . SVG Version: 6.00 Build 0)  -->
<!DOCTYPE svg PUBLIC "-//W3C//DTD SVG 1.1//EN" "http://www.w3.org/Graphics/SVG/1.1/DTD/svg11.dtd">
<svg version="1.1" id="Layer_1" xmlns="http://www.w3.org/2000/svg" xmlns:xlink="http://www.w3.org/1999/xlink" x="0px" y="0px"
	 width="595.28px" height="693.448px" viewBox="0 0 595.28 693.448" style="enable-background:new 0 0 595.28 693.448;"
	 xml:space="preserve">
<rect x="-3141.358" y="319.455" style="fill:#DAC725;" width="14.151" height="21.621"/>
<g>
	<path style="fill:#AC9A32;" d="M215.833,40.878l-16.857,4.456l-1.154-4.391l38.779-10.243l1.164,4.387l-16.855,4.455l11.506,43.581
		l-5.068,1.339L215.833,40.878z"/>
	<path style="fill:#AC9A32;" d="M290.157,69.792l0.459,4.509l-34.908,3.548l-5.006-49.357l33.844-3.441l0.451,4.513l-28.623,2.913
		l1.785,17.557l25.521-2.599l0.451,4.444l-25.529,2.595l1.867,18.334L290.157,69.792z"/>
	<path style="fill:#AC9A32;" d="M346.368,28.274l-4.301,49.421l-4.311-0.371l-28.277-42.873l-3.5,40.102l-5.221-0.452l4.303-49.426
		l4.318,0.379l28.338,42.873l3.5-40.105L346.368,28.274z"/>
	<path style="fill:#AC9A32;" d="M376.683,39.845l-16.832-4.539l1.178-4.379l38.736,10.445l-1.188,4.379l-16.834-4.54l-11.734,43.52
		l-5.061-1.362L376.683,39.845z"/>
	<path d="M139.013,662.724v0.965h-23.783v-0.762l15.402-15.602c2.135-2.17,3.574-4.007,4.316-5.516
		c0.75-1.508,1.117-3.073,1.117-4.7c0-2.542-0.857-4.54-2.564-5.998c-1.707-1.455-4.156-2.186-7.34-2.186
		c-2.443,0-4.563,0.356-6.355,1.068c-1.799,0.712-3.336,1.795-4.623,3.253l-0.711-0.712c2.74-3.051,6.637-4.574,11.689-4.574
		c3.352,0,6.008,0.815,7.977,2.438c1.967,1.626,2.947,3.847,2.947,6.66c0,1.795-0.406,3.506-1.219,5.133
		c-0.811,1.627-2.318,3.556-4.523,5.792l-14.537,14.74H139.013z"/>
	<path d="M150.474,661.629c-2.053-1.474-3.645-3.563-4.777-6.273c-1.133-2.713-1.699-5.864-1.699-9.454s0.566-6.74,1.699-9.454
		c1.133-2.71,2.725-4.8,4.777-6.273c2.051-1.474,4.416-2.212,7.088-2.212c2.68,0,5.037,0.739,7.09,2.212
		c2.051,1.474,3.643,3.563,4.775,6.273c1.141,2.714,1.707,5.864,1.707,9.454s-0.566,6.741-1.707,9.454
		c-1.133,2.71-2.725,4.8-4.775,6.273c-2.053,1.474-4.41,2.212-7.09,2.212C154.89,663.841,152.524,663.103,150.474,661.629z
		 M164.122,660.791c1.891-1.39,3.369-3.361,4.418-5.921c1.049-2.557,1.576-5.546,1.576-8.968s-0.527-6.411-1.576-8.968
		c-1.049-2.561-2.527-4.532-4.418-5.921c-1.898-1.39-4.088-2.086-6.561-2.086s-4.654,0.696-6.553,2.086
		c-1.898,1.389-3.375,3.36-4.424,5.921c-1.049,2.557-1.578,5.546-1.578,8.968s0.529,6.411,1.578,8.968
		c1.049,2.561,2.525,4.532,4.424,5.921c1.898,1.389,4.08,2.086,6.553,2.086S162.224,662.18,164.122,660.791z"/>
	<path d="M217.28,662.724v0.965h-23.686v-35.574h22.92v0.964h-21.902v16.061h19.613v0.965h-19.613v16.619H217.28z"/>
	<path d="M230.845,660.029c-2.404-2.542-3.605-6.285-3.605-11.23v-20.684h1.018v20.63c0,4.678,1.096,8.203,3.277,10.572
		c2.189,2.373,5.328,3.56,9.432,3.56c4.094,0,7.24-1.187,9.422-3.56c2.182-2.37,3.277-5.895,3.277-10.572v-20.63h1.018v20.684
		c0,4.945-1.201,8.689-3.605,11.23c-2.41,2.542-5.779,3.812-10.111,3.812C236.624,663.841,233.257,662.571,230.845,660.029z"/>
	<path d="M293.149,663.688l-9.039-12.551c-1.188,0.237-2.58,0.352-4.174,0.352h-11.023v12.199h-1.018v-35.574h12.041
		c4.371,0,7.793,1.026,10.266,3.074c2.473,2.051,3.713,4.922,3.713,8.616c0,2.844-0.766,5.225-2.289,7.138
		c-1.521,1.914-3.674,3.227-6.453,3.939l9.248,12.807H293.149z M280.044,650.525c4.127,0,7.305-0.93,9.523-2.794
		c2.221-1.864,3.33-4.505,3.33-7.927s-1.109-6.067-3.33-7.931c-2.219-1.86-5.396-2.794-9.523-2.794h-11.131v21.446H280.044z"/>
	<path d="M325.983,620.899h1.018l-16.771,47.872h-1.02L325.983,620.899z"/>
	<path d="M348.804,639.065c1.768-1.202,3.949-1.803,6.561-1.803v1.014h-0.307c-3.154,0-5.611,1.011-7.371,3.024
		c-1.762,2.017-2.643,4.769-2.643,8.26v14.128h-1.018v-26.273h1.018v6.81C345.796,641.99,347.042,640.267,348.804,639.065z"/>
	<path d="M383.972,650.525h-23.371c0,2.373,0.52,4.497,1.568,6.376c1.057,1.883,2.504,3.349,4.348,4.398
		c1.846,1.049,3.92,1.577,6.225,1.577c1.799,0,3.482-0.349,5.061-1.045c1.576-0.693,2.871-1.7,3.889-3.024l0.711,0.712
		c-1.156,1.39-2.58,2.458-4.271,3.204c-1.691,0.747-3.49,1.118-5.389,1.118c-2.504,0-4.746-0.566-6.729-1.703
		c-1.982-1.133-3.545-2.718-4.678-4.75c-1.133-2.033-1.707-4.321-1.707-6.863s0.527-4.819,1.576-6.836
		c1.049-2.013,2.504-3.59,4.35-4.723c1.844-1.137,3.918-1.703,6.223-1.703c2.273,0,4.34,0.559,6.201,1.676
		c1.859,1.118,3.33,2.66,4.395,4.624c1.07,1.967,1.6,4.203,1.6,6.709V650.525z M366.241,639.701
		c-1.66,0.984-2.992,2.339-3.996,4.065c-0.994,1.73-1.545,3.659-1.645,5.795h22.406c-0.1-2.136-0.658-4.065-1.676-5.795
		c-1.02-1.726-2.352-3.081-4.012-4.065c-1.662-0.98-3.506-1.474-5.543-1.474C369.747,638.227,367.896,638.721,366.241,639.701z"/>
	<path d="M412.333,640.083c1.861,1.879,2.795,4.582,2.795,8.103v15.502h-1.018v-15.502c0-3.215-0.82-5.68-2.465-7.391
		c-1.639-1.711-3.975-2.568-6.99-2.568c-3.422,0-6.123,1.026-8.1,3.074c-1.982,2.052-2.977,4.754-2.977,8.107v14.281h-1.02v-26.273
		h1.02v7.012c0.811-2.235,2.166-3.988,4.064-5.259c1.898-1.271,4.219-1.906,6.967-1.906
		C407.894,637.263,410.466,638.2,412.333,640.083z"/>
	<path d="M438.407,661.962c-0.574,0.609-1.332,1.076-2.266,1.397c-0.926,0.322-1.883,0.482-2.871,0.482
		c-2.029,0-3.598-0.585-4.699-1.753c-1.104-1.171-1.646-2.737-1.646-4.7V638.38h-5.084v-0.965h5.084v-5.745h1.01v5.745h8.896v0.965
		h-8.896v18.751c0,1.864,0.459,3.288,1.379,4.271c0.91,0.98,2.25,1.474,4.012,1.474c1.76,0,3.215-0.543,4.371-1.627L438.407,661.962
		z"/>
	<path d="M461.61,639.624c1.607,1.577,2.412,3.854,2.412,6.836v17.228h-1.02V658.1c-0.842,1.795-2.127,3.2-3.834,4.218
		c-1.715,1.015-3.768,1.523-6.178,1.523c-2.91,0-5.191-0.67-6.836-2.009c-1.639-1.336-2.459-3.124-2.459-5.359
		c0-2.101,0.736-3.805,2.205-5.11c1.479-1.301,3.859-1.956,7.143-1.956h9.959v-2.897c0-2.745-0.703-4.808-2.105-6.201
		c-1.408-1.386-3.482-2.083-6.23-2.083c-1.891,0-3.666,0.329-5.305,0.992c-1.646,0.662-3.063,1.55-4.25,2.667l-0.711-0.712
		c1.256-1.217,2.779-2.174,4.578-2.871c1.791-0.693,3.674-1.041,5.641-1.041C457.667,637.263,459.995,638.051,461.61,639.624z
		 M463.003,656.167v-5.795h-10.012c-2.842,0-4.938,0.543-6.27,1.627c-1.34,1.087-2.014,2.561-2.014,4.421
		c0,2.001,0.727,3.575,2.189,4.727c1.453,1.152,3.49,1.73,6.094,1.73C457.874,662.877,461.212,660.638,463.003,656.167z"/>
	<path d="M475.397,625.979h1.018v37.709h-1.018V625.979z"/>
	<path style="fill:#8C8C8C;" d="M297.735,574.674C297.728,574.674,297.743,574.674,297.735,574.674c-1.631,0-3.275-0.019-4.914-0.05
		C164.772,571.96,62.761,465.622,65.417,337.574C68.05,210.536,174.526,107.685,302.46,110.173
		c128.047,2.664,230.061,109.002,227.404,237.046C527.261,472.63,423.12,574.674,297.735,574.674z M297.552,125.801
		c-116.932,0-214.031,95.146-216.457,212.098c-2.48,119.405,92.643,218.566,212.049,221.047c1.537,0.035,3.068,0.05,4.592,0.05
		c116.926,0,214.023-95.146,216.451-212.098c2.48-119.405-92.645-218.567-212.049-221.047
		C300.606,125.816,299.067,125.801,297.552,125.801z"/>
	<path style="fill:#827F81;" d="M436.739,461.189c-3.904,0-7.082-3.705-7.082-8.256v-7.425H292.569v7.425
		c0,4.551-3.17,8.256-7.074,8.256s-7.08-3.705-7.08-8.256v-7.425H165.63v7.425c0,4.551-3.168,8.256-7.072,8.256
		s-7.082-3.705-7.082-8.256v-56.208c0-4.551,3.178-8.256,7.082-8.256s7.072,3.705,7.072,8.256v4.191l62.176-151.132
		c1.148-2.832,3.652-4.673,6.369-4.673h126.938c2.719,0,5.229,1.837,6.393,4.677l62.152,151.125v-4.188
		c0-4.551,3.178-8.256,7.082-8.256s7.08,3.705,7.08,8.256v56.208C443.819,457.484,440.644,461.189,436.739,461.189z M425.485,429
		l-57.291-139.313V429H425.485z M354.04,429V289.687L296.741,429H354.04z M278.415,429v-32.274c0-4.551,3.176-8.256,7.08-8.256
		s7.074,3.705,7.074,8.256v4.188l57.299-139.302H238.646L169.802,429H278.415z"/>
</g>
</svg>
