<?xml version="1.0" encoding="iso-8859-1"?>
<!-- Generator: Adobe Illustrator 15.1.0, SVG Export Plug-In . SVG Version: 6.00 Build 0)  -->
<!DOCTYPE svg PUBLIC "-//W3C//DTD SVG 1.1//EN" "http://www.w3.org/Graphics/SVG/1.1/DTD/svg11.dtd">
<svg version="1.1" id="Layer_1" xmlns="http://www.w3.org/2000/svg" xmlns:xlink="http://www.w3.org/1999/xlink" x="0px" y="0px"
	 width="595.28px" height="693.448px" viewBox="0 0 595.28 693.448" style="enable-background:new 0 0 595.28 693.448;"
	 xml:space="preserve">
<rect x="-3141.358" y="319.455" style="fill:#DAC725;" width="14.151" height="21.621"/>
<g>
	<g>
		<path style="fill:#AC9A32;" d="M175.012,60.859l-16.091,6.713l-1.753-4.184l37.021-15.459l1.745,4.187l-16.084,6.721
			l17.363,41.599l-4.839,2.021L175.012,60.859z"/>
		<path style="fill:#AC9A32;" d="M226.019,87.288c-4.371-1.271-8.076-3.533-11.107-6.779c-3.017-3.246-5.053-7.196-6.086-11.85
			c-1.049-4.662-0.88-9.102,0.46-13.328c1.361-4.222,3.75-7.843,7.164-10.855c3.414-3.016,7.525-5.06,12.318-6.132
			c4.799-1.076,9.361-0.98,13.68,0.283c4.332,1.263,8.014,3.521,11.068,6.783c3.055,3.269,5.106,7.227,6.141,11.881
			c1.048,4.662,0.879,9.117-0.49,13.366c-1.379,4.256-3.752,7.874-7.135,10.855c-3.369,2.978-7.457,5.007-12.256,6.078
			C234.982,88.662,230.397,88.563,226.019,87.288z M248.556,78.113c2.702-2.419,4.585-5.358,5.649-8.819
			c1.072-3.452,1.179-7.073,0.337-10.855c-0.85-3.782-2.48-7.008-4.915-9.684c-2.449-2.675-5.404-4.532-8.88-5.573
			c-3.483-1.037-7.127-1.125-10.954-0.275c-3.828,0.857-7.104,2.496-9.83,4.922c-2.732,2.427-4.639,5.366-5.726,8.834
			c-1.087,3.46-1.21,7.081-0.367,10.863c0.842,3.782,2.503,7.008,4.96,9.676c2.465,2.671,5.436,4.524,8.934,5.558
			c3.506,1.033,7.166,1.121,11.001,0.268C242.584,82.174,245.861,80.536,248.556,78.113z"/>
		<path style="fill:#AC9A32;" d="M341.864,32.075l-17.859,49.219l-5.526-0.13l-13.551-42.636l-15.57,41.962l-5.458-0.126
			l-15.578-49.988l5.39,0.126L287.03,73.49l15.8-42.314l4.893,0.111l13.596,43.206l15.524-42.528L341.864,32.075z"/>
		<path style="fill:#AC9A32;" d="M382.406,89.095l-1.103,4.398l-34.026-8.543l12.079-48.121l32.994,8.287l-1.103,4.398
			l-27.903-7.004l-4.302,17.117l24.879,6.247l-1.079,4.333l-24.888-6.247l-4.485,17.867L382.406,89.095z"/>
		<path style="fill:#AC9A32;" d="M410.348,51.653l4.822,2.055l-17.69,41.464l25.561,10.905l-1.784,4.172l-30.383-12.968
			L410.348,51.653z"/>
	</g>
	<g>
		<g>
			<path d="M151.756,640.432c2.305,1.745,3.453,4.275,3.453,7.598c0,2.982-1.026,5.412-3.07,7.292
				c-2.052,1.879-4.977,2.821-8.773,2.821c-2.572,0-4.96-0.467-7.164-1.397c-2.197-0.934-3.844-2.143-4.931-3.636l0.666-0.658
				c1.019,1.39,2.557,2.522,4.624,3.403c2.066,0.884,4.332,1.324,6.805,1.324c3.529,0,6.209-0.842,8.062-2.519
				c1.845-1.676,2.763-3.885,2.763-6.629c0-3.051-1.063-5.355-3.199-6.913s-5.727-2.339-10.771-2.339h-6.705l1.875-16.363h18.043
				v0.965h-17.178l-1.676,14.434h5.84C145.67,637.814,149.451,638.687,151.756,640.432z"/>
			<path d="M200.649,657.025v0.964h-23.685v-35.574h22.919v0.965h-21.901v16.061h19.613v0.964h-19.613v16.62H200.649z"/>
			<path d="M214.215,654.33c-2.404-2.542-3.605-6.285-3.605-11.23v-20.685h1.018v20.631c0,4.677,1.095,8.203,3.276,10.572
				c2.189,2.373,5.328,3.56,9.431,3.56c4.096,0,7.242-1.187,9.424-3.56c2.182-2.369,3.277-5.895,3.277-10.572v-20.631h1.018V643.1
				c0,4.945-1.202,8.688-3.605,11.23c-2.412,2.542-5.779,3.812-10.113,3.812C219.994,658.142,216.626,656.872,214.215,654.33z"/>
			<path d="M276.52,657.989l-9.041-12.551c-1.186,0.237-2.579,0.352-4.172,0.352h-11.023v12.199h-1.018v-35.574h12.041
				c4.371,0,7.793,1.026,10.266,3.074c2.473,2.051,3.713,4.922,3.713,8.616c0,2.844-0.766,5.225-2.289,7.139
				c-1.523,1.914-3.674,3.227-6.453,3.938l9.248,12.807H276.52z M263.414,644.826c4.127,0,7.303-0.93,9.523-2.794
				c2.22-1.864,3.33-4.505,3.33-7.927s-1.11-6.066-3.33-7.931c-2.221-1.86-5.396-2.794-9.523-2.794h-11.131v21.446H263.414z"/>
			<path d="M309.354,615.201h1.018l-16.772,47.872h-1.019L309.354,615.201z"/>
			<path d="M332.173,633.366c1.769-1.202,3.95-1.803,6.561-1.803v1.014h-0.306c-3.154,0-5.611,1.011-7.373,3.024
				c-1.76,2.017-2.641,4.769-2.641,8.26v14.127h-1.018v-26.272h1.018v6.809C329.164,636.291,330.412,634.568,332.173,633.366z"/>
			<path d="M367.341,644.826H343.97c0,2.373,0.521,4.498,1.569,6.376c1.057,1.883,2.503,3.35,4.348,4.398
				c1.846,1.049,3.92,1.577,6.225,1.577c1.799,0,3.482-0.348,5.06-1.045c1.577-0.693,2.87-1.699,3.889-3.024l0.712,0.712
				c-1.156,1.39-2.58,2.458-4.271,3.204c-1.691,0.746-3.49,1.117-5.389,1.117c-2.504,0-4.746-0.566-6.729-1.703
				c-1.983-1.133-3.544-2.718-4.677-4.75s-1.707-4.321-1.707-6.863s0.527-4.819,1.576-6.836c1.049-2.014,2.504-3.59,4.348-4.724
				c1.846-1.137,3.92-1.703,6.225-1.703c2.273,0,4.34,0.559,6.2,1.677s3.33,2.66,4.395,4.624c1.071,1.967,1.6,4.203,1.6,6.71
				V644.826z M349.611,634.001c-1.661,0.984-2.993,2.339-3.996,4.065c-0.995,1.73-1.546,3.659-1.646,5.795h22.407
				c-0.1-2.136-0.659-4.065-1.678-5.795c-1.018-1.726-2.35-3.081-4.011-4.065c-1.661-0.979-3.506-1.474-5.542-1.474
				C353.117,632.528,351.266,633.022,349.611,634.001z"/>
			<path d="M395.703,634.384c1.86,1.879,2.795,4.582,2.795,8.103v15.502h-1.019v-15.502c0-3.215-0.819-5.68-2.466-7.391
				c-1.638-1.711-3.973-2.568-6.988-2.568c-3.422,0-6.125,1.026-8.1,3.074c-1.982,2.052-2.978,4.754-2.978,8.107v14.281h-1.019
				v-26.272h1.019v7.012c0.812-2.235,2.167-3.989,4.065-5.259c1.898-1.271,4.217-1.906,6.966-1.906
				C391.264,631.563,393.836,632.501,395.703,634.384z"/>
			<path d="M421.777,656.263c-0.574,0.608-1.332,1.075-2.267,1.397c-0.927,0.321-1.883,0.482-2.87,0.482
				c-2.029,0-3.598-0.585-4.701-1.753c-1.102-1.171-1.646-2.737-1.646-4.7v-19.008h-5.083v-0.964h5.083v-5.746h1.011v5.746h8.895
				v0.964h-8.895v18.751c0,1.864,0.459,3.288,1.378,4.271c0.911,0.98,2.251,1.474,4.011,1.474c1.762,0,3.216-0.543,4.371-1.626
				L421.777,656.263z"/>
			<path d="M444.979,633.925c1.608,1.577,2.411,3.854,2.411,6.836v17.228h-1.018v-5.588c-0.842,1.795-2.129,3.2-3.836,4.218
				c-1.715,1.014-3.766,1.523-6.178,1.523c-2.908,0-5.189-0.669-6.836-2.009c-1.638-1.336-2.457-3.124-2.457-5.358
				c0-2.102,0.734-3.805,2.205-5.11c1.477-1.302,3.857-1.956,7.143-1.956h9.959v-2.897c0-2.745-0.705-4.808-2.105-6.201
				c-1.408-1.386-3.482-2.083-6.23-2.083c-1.892,0-3.668,0.33-5.306,0.992c-1.646,0.662-3.062,1.55-4.249,2.667l-0.711-0.712
				c1.255-1.217,2.778-2.174,4.577-2.871c1.792-0.693,3.675-1.041,5.642-1.041C441.037,631.563,443.364,632.352,444.979,633.925z
				 M446.373,650.468v-5.795h-10.014c-2.84,0-4.938,0.543-6.27,1.627c-1.34,1.087-2.013,2.561-2.013,4.421
				c0,2.002,0.728,3.575,2.189,4.727c1.454,1.152,3.491,1.73,6.093,1.73C441.244,657.178,444.582,654.938,446.373,650.468z"/>
			<path d="M458.767,620.28h1.019v37.709h-1.019V620.28z"/>
		</g>
	</g>
	<path style="fill:#8C8C8C;" d="M297.771,579.727c-1.622,0.161-3.3-0.019-4.945-0.05c-62.037-1.286-119.849-26.651-162.802-71.427
		c-42.954-44.767-65.896-103.582-64.61-165.608c2.61-125.426,106.751-227.47,232.144-227.47c1.623,0,3.269,0.019,4.898,0.049
		c128.041,2.668,230.054,109.01,227.413,237.058C527.25,477.694,423.124,579.727,297.771,579.727z M297.557,130.85
		c-116.926,0-214.031,95.154-216.466,212.117c-1.202,57.839,20.194,112.684,60.246,154.432c40.052,41.751,93.968,65.402,151.81,66.6
		c119.314,2.599,218.571-93.558,221.043-212.044c2.466-119.406-92.665-218.571-212.055-221.055
		C300.604,130.865,299.072,130.85,297.557,130.85z"/>
	<path style="fill:#827F81;" d="M252.758,478.851c-4.332,0-7.854-3.51-7.854-7.82V277.672c0-11.165-9.087-20.244-20.248-20.244
		c-4.693,0-9.316,1.738-13.029,4.896l-0.62,0.532h-19.222l1.975-3.353c6.453-10.947,18.304-17.749,30.942-17.749h140.335
		c19.811,0,35.926,16.114,35.926,35.918v193.358c0,4.31-3.529,7.82-7.862,7.82H252.758z M385.27,463.157v-12.371H260.566v12.371
		H385.27z M385.27,417.544v-6.748H260.566v6.748H385.27z M385.27,400.021V277.672c0-11.165-9.079-20.244-20.232-20.244H254.305
		c4.064,5.94,6.262,12.979,6.262,20.244v122.349H385.27z"/>
	<path style="fill:#827F81;" d="M196.584,383.509c-4.309,0-7.808-3.506-7.808-7.816v-83.257h15.678v75.403h20.248
		c4.31,0,7.808,3.525,7.808,7.854c0,4.31-3.521,7.816-7.854,7.816H196.584z"/>
	<path style="fill:#827F81;" d="M431.852,294.43c-4.992,0-9.746-2.27-12.93-6.117h-16.804V277.63c0-2.606-0.298-5.271-0.888-7.919
		l-0.605-2.706h18.297c3.176-3.858,7.93-6.132,12.93-6.132c9.239,0,16.757,7.518,16.757,16.757
		C448.608,286.893,441.091,294.43,431.852,294.43z"/>
	<path style="fill:#827F81;" d="M163.477,294.43c-9.264,0-16.804-7.518-16.804-16.757c0-9.263,7.54-16.799,16.804-16.799
		c4.998,0,9.729,2.273,12.891,6.132h64.127l0.636,1.125c1.729,3.043,2.603,6.25,2.603,9.542v10.641h-67.365
		C173.229,292.16,168.49,294.43,163.477,294.43z"/>
</g>
</svg>
