<?xml version="1.0" encoding="iso-8859-1"?>
<!-- Generator: Adobe Illustrator 15.1.0, SVG Export Plug-In . SVG Version: 6.00 Build 0)  -->
<!DOCTYPE svg PUBLIC "-//W3C//DTD SVG 1.1//EN" "http://www.w3.org/Graphics/SVG/1.1/DTD/svg11.dtd">
<svg version="1.1" id="Layer_1" xmlns="http://www.w3.org/2000/svg" xmlns:xlink="http://www.w3.org/1999/xlink" x="0px" y="0px"
	 width="595.28px" height="693.448px" viewBox="0 0 595.28 693.448" style="enable-background:new 0 0 595.28 693.448;"
	 xml:space="preserve">
<rect x="-3141.358" y="319.455" style="fill:#DAC725;" width="14.151" height="21.621"/>
<g>
	<g>
		<g>
			<path d="M147.073,666.316v0.926h-23.486v-0.731l15.203-14.947c2.113-2.075,3.537-3.835,4.271-5.282
				c0.736-1.443,1.104-2.943,1.104-4.501c0-2.435-0.842-4.352-2.535-5.746c-1.691-1.397-4.109-2.093-7.256-2.093
				c-2.404,0-4.494,0.34-6.27,1.022c-1.777,0.681-3.301,1.718-4.57,3.115l-0.697-0.681c2.711-2.92,6.553-4.382,11.537-4.382
				c3.314,0,5.939,0.781,7.885,2.338c1.936,1.558,2.908,3.682,2.908,6.377c0,1.722-0.398,3.36-1.201,4.918
				c-0.805,1.558-2.297,3.406-4.471,5.55l-14.354,14.116H147.073z"/>
			<path d="M158.396,665.271c-2.029-1.412-3.598-3.414-4.723-6.013c-1.119-2.595-1.678-5.615-1.678-9.056s0.559-6.457,1.678-9.056
				c1.125-2.595,2.693-4.601,4.723-6.013c2.021-1.409,4.355-2.117,6.996-2.117c2.648,0,4.977,0.708,7.006,2.117
				c2.02,1.412,3.598,3.418,4.715,6.013c1.125,2.599,1.684,5.615,1.684,9.056s-0.559,6.461-1.684,9.056
				c-1.117,2.599-2.695,4.601-4.715,6.013c-2.029,1.413-4.357,2.117-7.006,2.117C162.751,667.388,160.417,666.684,158.396,665.271z
				 M171.868,664.467c1.875-1.332,3.33-3.219,4.363-5.672c1.041-2.45,1.563-5.313,1.563-8.593c0-3.276-0.521-6.139-1.563-8.593
				c-1.033-2.45-2.488-4.34-4.363-5.672c-1.875-1.328-4.033-1.994-6.477-1.994c-2.441,0-4.6,0.666-6.469,1.994
				c-1.875,1.332-3.33,3.223-4.371,5.672c-1.033,2.454-1.553,5.316-1.553,8.593c0,3.28,0.52,6.144,1.553,8.593
				c1.041,2.453,2.496,4.34,4.371,5.672c1.869,1.332,4.027,1.994,6.469,1.994C167.835,666.461,169.993,665.799,171.868,664.467z"/>
			<path d="M224.368,666.316v0.926h-23.387v-34.081h22.637v0.926h-21.635v15.383h19.375v0.926h-19.375v15.919H224.368z"/>
			<path d="M237.772,663.736c-2.373-2.435-3.561-6.021-3.561-10.759v-19.815h1.004v19.766c0,4.482,1.078,7.858,3.238,10.127
				c2.158,2.274,5.258,3.407,9.309,3.407c4.049,0,7.148-1.133,9.309-3.407c2.158-2.27,3.238-5.646,3.238-10.127v-19.766h1.002
				v19.815c0,4.738-1.186,8.325-3.566,10.759c-2.373,2.434-5.703,3.651-9.982,3.651C243.476,667.388,240.146,666.17,237.772,663.736
				z"/>
			<path d="M299.304,667.242l-8.934-12.026c-1.17,0.23-2.541,0.341-4.109,0.341h-10.895v11.686h-1.002v-34.081h11.896
				c4.316,0,7.693,0.983,10.135,2.947c2.441,1.964,3.666,4.716,3.666,8.252c0,2.725-0.758,5.006-2.258,6.84
				c-1.508,1.833-3.637,3.093-6.377,3.774l9.133,12.268H299.304z M286.36,654.634c4.08,0,7.219-0.892,9.408-2.68
				c2.188-1.783,3.291-4.317,3.291-7.594c0-3.28-1.104-5.81-3.291-7.594c-2.189-1.788-5.328-2.68-9.408-2.68h-10.994v20.547H286.36z
				"/>
			<path d="M331.724,626.249h1.012l-16.566,45.862h-1.004L331.724,626.249z"/>
			<path d="M354.261,643.653c1.738-1.152,3.896-1.726,6.477-1.726v0.972h-0.299c-3.115,0-5.543,0.968-7.279,2.897
				c-1.738,1.933-2.611,4.57-2.611,7.912v13.534h-1.002v-25.17h1.002v6.522C351.282,646.455,352.522,644.805,354.261,643.653z"/>
			<path d="M388.993,654.634h-23.082c0,2.27,0.514,4.306,1.555,6.109c1.033,1.803,2.465,3.204,4.287,4.21
				c1.83,1.007,3.873,1.508,6.154,1.508c1.77,0,3.438-0.329,4.992-0.995c1.553-0.666,2.832-1.631,3.834-2.897l0.705,0.681
				c-1.133,1.332-2.541,2.354-4.219,3.066c-1.668,0.716-3.443,1.072-5.313,1.072c-2.48,0-4.691-0.543-6.652-1.63
				c-1.959-1.087-3.498-2.603-4.615-4.551c-1.125-1.948-1.684-4.138-1.684-6.572c0-2.435,0.52-4.62,1.553-6.549
				c1.041-1.933,2.473-3.441,4.295-4.528s3.873-1.63,6.146-1.63c2.244,0,4.279,0.536,6.125,1.607
				c1.838,1.068,3.283,2.545,4.34,4.429c1.057,1.883,1.578,4.026,1.578,6.426V654.634z M371.478,644.261
				c-1.639,0.942-2.947,2.239-3.936,3.896c-0.986,1.654-1.531,3.506-1.631,5.55h22.133c-0.1-2.044-0.652-3.896-1.654-5.55
				c-1.01-1.657-2.328-2.955-3.965-3.896c-1.646-0.938-3.469-1.408-5.475-1.408S373.116,643.324,371.478,644.261z"/>
			<path d="M416.995,644.629c1.846,1.799,2.764,4.39,2.764,7.766v14.847h-1.004v-14.847c0-3.085-0.811-5.447-2.434-7.085
				s-3.928-2.457-6.904-2.457c-3.377,0-6.049,0.979-8,2.943c-1.961,1.963-2.939,4.551-2.939,7.766v13.68h-1.004v-25.17h1.004v6.718
				c0.803-2.14,2.143-3.82,4.018-5.037c1.869-1.217,4.166-1.826,6.875-1.826C412.616,641.927,415.157,642.826,416.995,644.629z"/>
			<path d="M442.747,665.589c-0.566,0.582-1.309,1.029-2.236,1.335c-0.918,0.31-1.859,0.463-2.832,0.463
				c-2.006,0-3.559-0.559-4.646-1.68c-1.086-1.118-1.631-2.618-1.631-4.501v-18.208h-5.014v-0.927h5.014v-5.5h1.012v5.5h8.779v0.927
				h-8.779v17.962c0,1.788,0.451,3.15,1.354,4.092c0.904,0.942,2.221,1.409,3.959,1.409c1.744,0,3.184-0.517,4.316-1.558
				L442.747,665.589z"/>
			<path d="M465.659,644.188c1.592,1.512,2.389,3.694,2.389,6.549v16.504h-1.012v-5.355c-0.834,1.719-2.098,3.066-3.781,4.042
				c-1.691,0.972-3.729,1.458-6.102,1.458c-2.877,0-5.129-0.639-6.752-1.921s-2.434-2.997-2.434-5.137
				c0-2.013,0.727-3.644,2.182-4.892c1.455-1.251,3.805-1.875,7.051-1.875h9.836v-2.775c0-2.63-0.688-4.608-2.082-5.94
				c-1.385-1.332-3.438-1.994-6.146-1.994c-1.875,0-3.621,0.313-5.244,0.949c-1.623,0.631-3.016,1.481-4.188,2.553l-0.703-0.681
				c1.24-1.167,2.74-2.086,4.516-2.748c1.775-0.666,3.629-0.999,5.572-0.999C461.771,641.927,464.075,642.681,465.659,644.188z
				 M467.036,660.039v-5.554h-9.883c-2.809,0-4.875,0.521-6.199,1.562c-1.318,1.038-1.984,2.45-1.984,4.233
				c0,1.917,0.721,3.426,2.16,4.528c1.439,1.102,3.445,1.653,6.023,1.653C461.97,666.461,465.269,664.322,467.036,660.039z"/>
			<path d="M479.286,631.118h1.002v36.125h-1.002V631.118z"/>
		</g>
	</g>
	<g>
		<path style="fill:#AC9A32;" d="M71.417,119.35l24.559,47.673l-3.207,3.973l-51.795-13.883l3.514-4.356l44.936,12.126
			l-21.297-41.445L71.417,119.35z"/>
		<path style="fill:#AC9A32;" d="M126.802,117.857l-20.461,18.082l4.256,13.707l-4.043,3.571l-15.654-51.584l3.828-3.387
			l49.246,21.932l-4.104,3.606L126.802,117.857z M122.601,115.966l-26.242-11.961l8.619,27.528L122.601,115.966z"/>
		<path style="fill:#AC9A32;" d="M159.544,54.089l24.748,42.341l-3.689,2.159L133.325,80.14l20.094,34.349l-4.484,2.618
			l-24.75-42.337l3.689-2.151l47.34,18.407l-20.088-34.349L159.544,54.089z"/>
		<path style="fill:#AC9A32;" d="M220.317,79.887c-4.324-1.041-8.053-3.108-11.191-6.201c-3.146-3.081-5.344-6.897-6.59-11.444
			c-1.24-4.559-1.295-8.953-0.162-13.213c1.125-4.256,3.307-7.938,6.516-11.046c3.215-3.108,7.164-5.305,11.842-6.583
			c3.514-0.961,6.912-1.267,10.205-0.903c3.291,0.356,6.285,1.386,8.971,3.062l-2.311,4.046c-4.709-2.729-9.883-3.318-15.51-1.78
			c-3.736,1.014-6.898,2.802-9.492,5.354c-2.588,2.553-4.342,5.554-5.26,8.999c-0.926,3.445-0.881,7.02,0.131,10.709
			c1.01,3.69,2.785,6.786,5.336,9.293c2.549,2.496,5.588,4.18,9.117,5.056c3.521,0.876,7.156,0.8,10.893-0.222
			c5.672-1.554,9.807-4.723,12.416-9.504l4.051,2.308c-1.455,2.817-3.521,5.236-6.186,7.246c-2.664,2.013-5.75,3.502-9.264,4.467
			C229.146,80.806,224.644,80.928,220.317,79.887z"/>
		<path style="fill:#AC9A32;" d="M254.989,24.709l5.158-0.536l4.602,44.32l27.291-2.84l0.451,4.459l-32.443,3.376L254.989,24.709z"
			/>
		<path style="fill:#AC9A32;" d="M334.165,67.762l-0.244,4.482l-34.594-1.937l2.756-48.97l33.545,1.879l-0.26,4.475l-28.379-1.588
			l-0.971,17.416l25.299,1.416l-0.252,4.414l-25.301-1.42l-1.018,18.189L334.165,67.762z"/>
		<path style="fill:#AC9A32;" d="M376.651,68.171l-26.555-6.285l-8.742,11.391l-5.244-1.236l33.102-42.563l4.967,1.179
			l10.496,52.875l-5.32-1.255L376.651,68.171z M375.788,63.651l-5.375-28.34l-17.508,22.92L375.788,63.651z"/>
		<path style="fill:#AC9A32;" d="M447.716,58.2l-20.324,44.637l-3.891-1.768l-12.17-49.273l-16.482,36.221l-4.723-2.151
			l20.332-44.63l3.889,1.769L426.571,92.3l16.506-36.213L447.716,58.2z"/>
		<path style="fill:#AC9A32;" d="M465.505,69.285l4.365,2.791l-26.365,41.361l-4.363-2.79L465.505,69.285z"/>
		<path style="fill:#AC9A32;" d="M518.817,110.374l-31.9,37.246l-3.238-2.779l1.969-50.708l-25.898,30.223l-3.936-3.373
			l31.916-37.246l3.246,2.775l-1.93,50.762l25.896-30.223L518.817,110.374z"/>
		<path style="fill:#AC9A32;" d="M536.722,169.641l3.055,3.919l-14.752,11.502c-2.984-0.559-5.863-1.753-8.627-3.552
			c-2.771-1.807-5.221-4.073-7.342-6.786c-3.023-3.87-4.875-8.003-5.596-12.413c-0.719-4.417-0.26-8.673,1.355-12.784
			c1.631-4.107,4.303-7.609,8.021-10.514c3.729-2.901,7.771-4.643,12.15-5.217s8.611,0.023,12.723,1.795
			c4.104,1.764,7.678,4.601,10.709,8.497c2.305,2.943,3.943,6.013,4.93,9.217c0.973,3.196,1.209,6.358,0.689,9.485l-4.578-0.509
			c0.643-5.412-0.881-10.464-4.547-15.176c-2.441-3.135-5.336-5.416-8.682-6.859c-3.338-1.443-6.797-1.925-10.373-1.451
			c-3.566,0.479-6.857,1.887-9.875,4.249c-3.023,2.362-5.189,5.202-6.506,8.532c-1.301,3.334-1.684,6.786-1.133,10.384
			c0.551,3.59,2.035,6.958,4.479,10.085c3.107,3.973,6.729,6.557,10.861,7.77L536.722,169.641z"/>
	</g>
	<path style="fill:#8C8C8C;" d="M299.917,564.912h-0.023c-1.607,0-3.238-0.019-4.854-0.05
		C168.522,562.232,67.735,457.081,70.36,330.464c2.604-125.633,107.84-227.305,234.203-224.871
		c126.502,2.626,227.289,107.777,224.672,234.405C526.64,464.02,423.771,564.912,299.917,564.912z M299.718,121.221
		c-115.426,0-211.283,94.014-213.68,209.564c-2.449,117.978,91.457,215.953,209.324,218.398c1.508,0.035,3.031,0.05,4.531,0.05
		c115.395,0.011,211.244-93.998,213.664-209.561c2.441-117.981-91.457-215.96-209.316-218.402
		C302.733,121.237,301.218,121.221,299.718,121.221z"/>
	<path style="fill:#827F81;" d="M201.081,489.156c-4.064,0-7.486-3.047-7.961-7.081l-5.59-48.875l-1.432,0.283
		c-0.48,0.1-1.025,0.157-1.545,0.157c-1.854,0-3.66-0.651-5.092-1.83c-1.844-1.512-2.908-3.766-2.908-6.182v-88.551
		c0-4.417,3.59-8.011,8-8.011l123.455,0.004l-58.977-178.492c-1.369-4.21,0.92-8.746,5.107-10.116
		c0.803-0.264,1.645-0.402,2.494-0.402c3.469,0,6.516,2.212,7.586,5.5l107.801,326.252h35.16c4.41,0,8,3.594,8,8.007
		c0,4.414-3.59,8.007-8,8.007h-84.52c-4.41,0-8-3.594-8-8.007c0-4.413,3.59-8.007,8-8.007h32.51l-37.059-112.171l-2.15,18.69
		c14.844,19.44,20.67,35.466,17.324,47.638c-2.787,10.201-11.223,16.949-25.078,20.072l-4.135,36.025
		c-0.475,4.042-3.904,7.089-7.969,7.089H201.081z M288.978,473.145l10.342-90.109c-6.697-8.203-14.705-16.666-22.078-23.325
		c-3.26-2.951-3.514-8.019-0.574-11.303c1.531-1.68,3.699-2.641,5.949-2.641c1.99,0,3.896,0.739,5.365,2.078
		c1.232,1.122,6.891,6.342,13.803,13.775l1.898-16.535h-50.387v68.652c0,3.824-2.717,7.131-6.469,7.858l-43.541,8.532l4.938,43.018
		H288.978z M310.19,428.749c4.279-1.722,6.852-4.076,7.662-7.02c1.188-4.329-0.443-10.713-4.723-18.659L310.19,428.749z
		 M192.546,415.908l44.768-8.766v-62.057h-44.768V415.908z"/>
</g>
</svg>
