<svg xmlns="http://www.w3.org/2000/svg" viewBox="0 0 68.18 88.2"><defs><style>.cls-1{font-size:9.04px;fill:#ac9a32;font-family:Montserrat-Regular, Montserrat;}.cls-2{font-size:6.48px;fill:#231f20;font-family:Montserrat-Thin, Montserrat;}.cls-3{letter-spacing:-0.02em;}.cls-4{fill:none;stroke:#8c8c8c;stroke-miterlimit:10;stroke-width:2px;}.cls-5{fill:#827f81;}</style></defs><title>hammock</title><g id="Layer_2" data-name="Layer 2"><g id="Layer_1-2" data-name="Layer 1"><text class="cls-1" transform="translate(12.17 19.24) rotate(-33.73)">H</text><text class="cls-1" transform="translate(18.05 15.33) rotate(-22.66)">A</text><text class="cls-1" transform="translate(23.68 12.81) rotate(-10.52)">M</text><text class="cls-1" transform="translate(31.85 11.26) rotate(3.44)">M</text><text class="cls-1" transform="translate(40.12 11.77) rotate(16.31)">O</text><text class="cls-1" transform="translate(47.1 13.84) rotate(27.67)">C</text><text class="cls-1" transform="translate(52.63 16.71) rotate(38.09)">K</text><text class="cls-2" transform="translate(11.56 86.52)">10 EUR / <tspan class="cls-3" x="27.37" y="0">r</tspan><tspan x="29.76" y="0">ental</tspan></text><path class="cls-4" d="M62.58,46.12a28.63,28.63,0,1,0-29.22,28A28.62,28.62,0,0,0,62.58,46.12Z"/><path class="cls-5" d="M55.9,58.5H52.09q2.19-11.65,4.39-23.31c.14-.76-1-1.08-1.17-.32-.47,2.55-1,5.09-1.43,7.64l-.11.07c-.9.49-1.82.93-2.75,1.35a2.93,2.93,0,1,0-5.37,2.13h0a1.64,1.64,0,0,0-.36-.55,1.45,1.45,0,0,0-1.12-.42l-12.8,1.16-5.42-4.62a1.58,1.58,0,0,0-1.41-.36,1.63,1.63,0,0,0-1.12,1L22.2,45.35c-2.2-.71-4.37-1.5-6.48-2.32l-.1,0-1.11-8.23c-.11-.77-1.27-.44-1.17.32q1.59,11.7,3.16,23.41H13.34a.6.6,0,0,0,0,1.2H55.9A.6.6,0,0,0,55.9,58.5ZM48.15,42.67A1.85,1.85,0,0,1,50,44.39c-1.08.46-2.18.89-3.29,1.3a1.86,1.86,0,0,1,1.45-3Zm-2.44,4.65a65,65,0,0,0,6.15-2.44,46.91,46.91,0,0,1-6.36,6Zm-21.3-4.63a.6.6,0,0,1,.38-.38.51.51,0,0,1,.46.14L31,47.36l13.25-1.2a.38.38,0,0,1,.27.12.49.49,0,0,1,.15.32l-.34,5.57a.43.43,0,0,1-.25.4.58.58,0,0,1-.56,0,.33.33,0,0,1-.13-.33l.27-4.46h0a.62.62,0,0,0-.73-.79,31.17,31.17,0,0,1-13.66.18c-.45-.38-.92-.82-1.38-1.24-.71-.65-1.37-1.26-2-1.72a.79.79,0,0,0-.69-.16.94.94,0,0,0-.63.51,7.24,7.24,0,0,0-.43,1.17,1.72,1.72,0,0,0-.07.21l-.87-.26Zm2.76,4c-.68-.16-1.36-.33-2-.52a1.54,1.54,0,0,1,.05-.17c.09-.28.18-.56.29-.82.5.41,1.07.93,1.67,1.49Zm15.39,1.58-.23,3.86a1.48,1.48,0,0,0,.12.7,11.33,11.33,0,0,1-9.81.74A39.54,39.54,0,0,1,25,49.7c-2.09-1.29-4.13-2.7-6.1-4.2C26.52,48.21,34.63,50.15,42.56,48.31ZM17.71,58.5q-.93-6.95-1.87-13.89a83,83,0,0,0,9.65,6.8,35.58,35.58,0,0,0,8.43,3.88c3.33,1,6.4.11,9.39-1.5l.15-.12a2.21,2.21,0,0,0,.35,0,1.7,1.7,0,0,0,.76-.18,1.49,1.49,0,0,0,.8-1l.09-.05a48.13,48.13,0,0,0,8-7.54q-1.28,6.81-2.56,13.6Z"/></g></g></svg>