<svg xmlns="http://www.w3.org/2000/svg" viewBox="0 0 81.84 97.62"><defs><style>.cls-1{font-size:6.28px;fill:#231f20;font-family:Montserrat-Thin, Montserrat;}.cls-2{letter-spacing:-0.01em;}.cls-3{letter-spacing:0em;}.cls-4{font-size:9.04px;fill:#ac9a32;font-family:Montserrat-Regular, Montserrat;}.cls-5{fill:none;stroke:#8c8c8c;stroke-miterlimit:10;stroke-width:2px;}.cls-6{fill:#827f81;}</style></defs><title>Asset 27</title><g id="Layer_2" data-name="Layer 2"><g id="Layer_1-2" data-name="Layer 1"><text class="cls-1" transform="translate(20.14 95.99) scale(1.03 1)">15 EUR / <tspan class="cls-2" x="25.87" y="0">r</tspan><tspan class="cls-3" x="28.19" y="0">ental</tspan></text><text class="cls-4" transform="translate(11.27 39.55) rotate(-61.6)">E</text><text class="cls-4" transform="matrix(0.61, -0.79, 0.79, 0.61, 14.04, 34.45)">L</text><text class="cls-4" transform="translate(17.09 30.39) rotate(-43.4)">E</text><text class="cls-4" transform="matrix(0.84, -0.55, 0.55, 0.84, 21.25, 26.4)">C</text><text class="cls-4" transform="matrix(0.91, -0.41, 0.41, 0.91, 26.42, 23.03)">T</text><text class="cls-4" transform="translate(30.9 20.96) rotate(-14.72)">R</text><text class="cls-4" transform="translate(37.07 19.45) rotate(-7.27)">I</text><text class="cls-4" transform="translate(39.56 19) rotate(0.19)">C</text><text class="cls-4" transform="translate(45.87 19.13) rotate(7.36)"> </text><text class="cls-4" transform="matrix(0.97, 0.26, -0.26, 0.97, 48.04, 19.23)">H</text><text class="cls-4" transform="matrix(0.9, 0.44, -0.44, 0.9, 54.85, 21.11)">E</text><text class="cls-4" transform="translate(60.07 23.6) rotate(35.88)">A</text><text class="cls-4" transform="matrix(0.71, 0.7, -0.7, 0.71, 64.87, 27.08)">T</text><text class="cls-4" transform="matrix(0.59, 0.81, -0.81, 0.59, 68.43, 30.53)">E</text><text class="cls-4" transform="translate(71.87 35.16) rotate(63.97)">R</text><path class="cls-5" d="M71.3,54.34a28.63,28.63,0,1,0-29.21,28A28.63,28.63,0,0,0,71.3,54.34Z"/><path class="cls-6" d="M57.9,66.62H27.46v-.53c0-.3,0-.61,0-.91,0-19.89,6-32.74,15.18-32.74s15.3,12.85,15.3,32.74c0,.3,0,.61,0,.91ZM28.52,65.54H56.84v-.36c0-18.94-5.71-31.66-14.22-31.66s-14.1,12.72-14.1,31.66Z"/><path class="cls-6" d="M42.68,64.52A11.5,11.5,0,1,1,54.17,53,11.51,11.51,0,0,1,42.68,64.52Zm0-21.91A10.42,10.42,0,1,0,53.09,53,10.42,10.42,0,0,0,42.68,42.61Z"/><path class="cls-6" d="M42.89,51.91h-.21c-1.67,0-4.25-1.84-4.25-4.25a4.26,4.26,0,0,1,4.25-4.26c2.58,0,4.18,1.34,4.18,3.5,0,1.37-.87,2-1.79,2.7A6.67,6.67,0,0,0,43,51.72Zm-.21-7.79a3.54,3.54,0,0,0-3.53,3.54,4,4,0,0,0,3.33,3.52A7.37,7.37,0,0,1,44.64,49c.87-.65,1.5-1.11,1.5-2.12C46.14,44.39,43.72,44.12,42.68,44.12Z"/><path class="cls-6" d="M38,60.11A4.27,4.27,0,0,1,34.26,58c-1.29-2.24-.93-4.29.94-5.37a2.5,2.5,0,0,1,1.27-.36,5.14,5.14,0,0,1,2,.56,6.68,6.68,0,0,0,2.82.73h.21l.17.18c.83,1.46.53,4.6-1.56,5.81A4.19,4.19,0,0,1,38,60.11ZM36.47,53a1.83,1.83,0,0,0-.91.26c-2.17,1.25-1.19,3.48-.67,4.38a3.53,3.53,0,0,0,4.82,1.3,4,4,0,0,0,1.38-4.65,7.45,7.45,0,0,1-3-.79A4.37,4.37,0,0,0,36.47,53Z"/><path class="cls-6" d="M47.72,60.35a3.37,3.37,0,0,1-1.74-.5c-1.19-.68-1.31-1.76-1.44-2.9a6.66,6.66,0,0,0-.81-2.85l-.1-.19.1-.18a4.86,4.86,0,0,1,4-2,3.59,3.59,0,0,1,1.85.48A4.26,4.26,0,0,1,51.1,58,4.06,4.06,0,0,1,47.72,60.35Zm-3.25-6.42a7.62,7.62,0,0,1,.79,2.94c.12,1.08.21,1.86,1.08,2.36,1.52.88,3.06.26,4.13-1.61a3.52,3.52,0,0,0-1.29-4.82,2.92,2.92,0,0,0-1.49-.38A4.27,4.27,0,0,0,44.47,53.93Z"/><path class="cls-6" d="M43.94,53.12a1.26,1.26,0,1,1-1.26-1.26A1.26,1.26,0,0,1,43.94,53.12Z"/><path class="cls-6" d="M43.25,53.12a.57.57,0,1,1-.57-.57A.57.57,0,0,1,43.25,53.12Z"/><path class="cls-6" d="M42.68,39.47a2.12,2.12,0,1,1,2.11-2.11A2.11,2.11,0,0,1,42.68,39.47Zm0-3.87a1.76,1.76,0,1,0,1.75,1.76A1.75,1.75,0,0,0,42.68,35.6Z"/><rect class="cls-6" x="42.44" y="35.72" width="0.48" height="1.24"/><path class="cls-6" d="M42.82,34.86a.19.19,0,0,1-.38,0,.19.19,0,0,1,.38,0Z"/><path class="cls-6" d="M41.5,35.14a.19.19,0,0,1-.07.26.2.2,0,0,1-.26-.07.19.19,0,0,1,.33-.19Z"/><path class="cls-6" d="M40.5,36a.19.19,0,0,1,.07.26.2.2,0,0,1-.26.07A.19.19,0,1,1,40.5,36Z"/><path class="cls-6" d="M40.08,37.32a.2.2,0,0,1,.19.19.19.19,0,1,1-.38,0A.2.2,0,0,1,40.08,37.32Z"/><path class="cls-6" d="M40.36,38.64a.19.19,0,1,1-.07.26A.2.2,0,0,1,40.36,38.64Z"/><path class="cls-6" d="M41.26,39.65a.18.18,0,0,1,.26-.07.18.18,0,0,1,.07.25.18.18,0,0,1-.26.07A.18.18,0,0,1,41.26,39.65Z"/><path class="cls-6" d="M42.54,40.06a.2.2,0,0,1,.19-.19.19.19,0,0,1,.19.19.18.18,0,0,1-.19.19A.19.19,0,0,1,42.54,40.06Z"/><path class="cls-6" d="M43.86,39.78a.19.19,0,0,1,.33-.19.19.19,0,1,1-.33.19Z"/><path class="cls-6" d="M44.86,38.88a.19.19,0,0,1-.07-.26.19.19,0,1,1,.33.19A.19.19,0,0,1,44.86,38.88Z"/><path class="cls-6" d="M45.28,37.6a.19.19,0,1,1,.19-.19A.19.19,0,0,1,45.28,37.6Z"/><path class="cls-6" d="M45,36.28a.19.19,0,0,1-.26-.07.19.19,0,0,1,.33-.19A.19.19,0,0,1,45,36.28Z"/><path class="cls-6" d="M44.1,35.28a.19.19,0,0,1-.33-.19A.2.2,0,0,1,44,35,.19.19,0,0,1,44.1,35.28Z"/><path class="cls-6" d="M54.68,72.15h-24a3.28,3.28,0,0,1-3.24-3.33V66.5h1.08v2.32a2.21,2.21,0,0,0,2.16,2.25h24a2.21,2.21,0,0,0,2.16-2.25V66.5h1.08v2.32A3.28,3.28,0,0,1,54.68,72.15Z"/></g></g></svg>