<svg xmlns="http://www.w3.org/2000/svg" viewBox="0 0 70.26 87.53"><defs><style>.cls-1{font-size:9.04px;fill:#ac9a32;font-family:Montserrat-Regular, Montserrat;}.cls-2{font-size:6.48px;fill:#231f20;font-family:Montserrat-Thin, Montserrat;}.cls-3{letter-spacing:0em;}.cls-4{letter-spacing:0em;}.cls-5{letter-spacing:-0.02em;}.cls-6{fill:none;stroke:#8c8c8c;stroke-miterlimit:10;stroke-width:2px;}.cls-7{fill:#827f81;}</style></defs><title>sleeping bag</title><g id="Layer_2" data-name="Layer 2"><g id="Layer_1-2" data-name="Layer 1"><text class="cls-1" transform="translate(7.12 24.14) rotate(-47.99)">S</text><text class="cls-1" transform="translate(10.67 20.18) rotate(-39.31)">L</text><text class="cls-1" transform="translate(14.57 16.92) rotate(-30.19)">E</text><text class="cls-1" transform="translate(19.56 13.99) rotate(-20.41)">E</text><text class="cls-1" transform="translate(24.99 11.93) rotate(-10.28)">P</text><text class="cls-1" transform="translate(31.09 10.92) rotate(-2.92)">I</text><text class="cls-1" transform="translate(33.62 10.61) rotate(4.93)">N</text><text class="cls-1" transform="translate(40.65 11.2) rotate(16.53)">G</text><text class="cls-1" transform="translate(47.1 13.26) rotate(24.06)"> </text><text class="cls-1" transform="translate(49.16 14.01) rotate(31.44)">B</text><text class="cls-1" transform="matrix(0.74, 0.67, -0.67, 0.74, 54.73, 17.41)">A</text><text class="cls-1" transform="matrix(0.61, 0.8, -0.8, 0.61, 59.31, 21.46)">G</text><text class="cls-2" transform="translate(10.74 85.85)"><tspan class="cls-3">2</tspan><tspan class="cls-4" x="3.57" y="0">0 EUR / </tspan><tspan class="cls-5" x="28.72" y="0">r</tspan><tspan x="31.11" y="0">ental</tspan></text><path class="cls-6" d="M62.92,45.46a28.63,28.63,0,1,0-29.22,28A28.63,28.63,0,0,0,62.92,45.46Z"/><path class="cls-7" d="M34.29,30.32c-5.47,0-9.92,4.09-9.92,9.18l1.75,18.84c0,5.62,3.13,9.12,8.17,9.12s8.18-3.5,8.17-9l1.76-19C44.22,34.41,39.76,30.32,34.29,30.32Zm6.42,28c0,1.76-.46,7.51-6.42,7.51s-6.42-5.75-6.43-7.57L26.61,44.8,30,50.32a.8.8,0,0,0,.88.33l10.82-3.19Zm-12-16.78-.09-1.11A5.67,5.67,0,1,1,40,40.4l-.37,4.36-10.38-3h.09ZM40.1,46.42l-9,2.67A.42.42,0,0,0,31,49c-.63-1-1.27-2.08-1.91-3.11l-2-3.2Zm1.81-1-1.13-.33.39-4.65a6.88,6.88,0,1,0-13.75,0l.06.74-1.23-.35-.13-1.45c0-4.14,3.66-7.51,8.17-7.51s8.18,3.37,8.18,7.44Z"/></g></g></svg>