<svg xmlns="http://www.w3.org/2000/svg" viewBox="0 0 35.93 56.4"><title>Asset 1</title><g id="Layer_2" data-name="Layer 2"><g id="Layer_1-2" data-name="Layer 1"><path d="M23.27,55a1.43,1.43,0,0,1-1.43,1.43H14.09a1.43,1.43,0,1,1,0-2.86h7.75A1.43,1.43,0,0,1,23.27,55Zm12.66-13.7V45.4A5.58,5.58,0,0,1,30.36,51H5.56A5.58,5.58,0,0,1,0,45.4V41.27a1.44,1.44,0,0,1,1.43-1.44h.38v-4a1.14,1.14,0,0,1,0-.26A1.52,1.52,0,0,1,2.05,35a1.47,1.47,0,0,1,.44-.42l.23-.11c.57-.24,1.14-.48,1.69-.73V16.24a6.77,6.77,0,0,1,4.4-6.31V6.15A6.16,6.16,0,0,1,15,0h6a6.16,6.16,0,0,1,6.15,6.15V9.69c0,.08,0,.16,0,.24a6.75,6.75,0,0,1,2.66,1.81l.08-.15a1.44,1.44,0,1,1,2.54,1.34,47.47,47.47,0,0,1-11.59,14A64.25,64.25,0,0,1,7.28,35.6v4.24H28.64V22.57a1.44,1.44,0,0,1,2.87,0V39.83h3a1.45,1.45,0,0,1,1.44,1.44ZM11.68,9.69a3,3,0,0,0,.11.85l0,.11A3.29,3.29,0,0,0,15,13h6a3.3,3.3,0,0,0,3.14-2.32.35.35,0,0,1,0-.11,3.41,3.41,0,0,0,.11-.85V6.15A3.28,3.28,0,0,0,21,2.87H15a3.28,3.28,0,0,0-3.28,3.28Zm-4.4,22.7c9-4.54,16.31-10.86,20.91-18a4,4,0,0,0-1.86-1.73A6.17,6.17,0,0,1,21,15.84H15A6.15,6.15,0,0,1,9.6,12.7a3.9,3.9,0,0,0-2.32,3.54ZM33.05,42.7H2.87v2.7a2.7,2.7,0,0,0,2.69,2.7h24.8a2.69,2.69,0,0,0,2.69-2.7Z"/></g></g></svg>