<svg xmlns="http://www.w3.org/2000/svg" viewBox="0 0 83.44 96.48"><defs><style>.cls-1{font-size:6.06px;fill:#231f20;font-family:Montserrat-Thin, Montserrat;}.cls-2{letter-spacing:-0.02em;}.cls-3{letter-spacing:0em;}.cls-4{font-size:8.73px;fill:#ac9a32;font-family:Montserrat-Regular, Montserrat;}.cls-5{fill:none;stroke-width:2px;}.cls-5,.cls-6{stroke:#8c8c8c;stroke-miterlimit:10;}.cls-6{fill:#8c8c8c;}</style></defs><title>camping plug adapter</title><g id="Layer_2" data-name="Layer 2"><g id="Layer_1-2" data-name="Layer 1"><text class="cls-1" transform="translate(23.67 94.91) rotate(-0.44) scale(1.03 1)">5 EUR / <tspan class="cls-2" x="22.87" y="0">r</tspan><tspan class="cls-3" x="25.1" y="0">ental</tspan></text><text class="cls-4" transform="matrix(0.38, -0.93, 0.92, 0.38, 12.46, 44.21)">C</text><text class="cls-4" transform="matrix(0.54, -0.85, 0.84, 0.54, 14.67, 38.74)">A</text><text class="cls-4" transform="matrix(0.7, -0.71, 0.71, 0.7, 17.79, 33.59)">M</text><text class="cls-4" transform="matrix(0.84, -0.55, 0.54, 0.84, 23.53, 27.89)">P</text><text class="cls-4" transform="matrix(0.9, -0.44, 0.43, 0.9, 28.62, 24.7)">I</text><text class="cls-4" transform="matrix(0.95, -0.31, 0.3, 0.95, 30.75, 23.47)">N</text><text class="cls-4" transform="matrix(0.99, -0.11, 0.1, 1, 37.25, 21.37)">G</text><text class="cls-4" transform="matrix(1, 0.02, -0.03, 1, 43.79, 20.8)"> </text><text class="cls-4" transform="matrix(0.99, 0.15, -0.15, 0.99, 45.92, 20.72)">A</text><text class="cls-4" transform="matrix(0.94, 0.34, -0.34, 0.94, 51.88, 21.55)">D</text><text class="cls-4" transform="matrix(0.86, 0.51, -0.51, 0.86, 58.32, 23.89)">A</text><text class="cls-4" transform="matrix(0.75, 0.66, -0.66, 0.75, 63.49, 26.97)">P</text><text class="cls-4" transform="matrix(0.64, 0.77, -0.77, 0.64, 67.81, 30.8)">T</text><text class="cls-4" transform="matrix(0.51, 0.86, -0.86, 0.51, 70.89, 34.46)">E</text><text class="cls-4" transform="matrix(0.35, 0.94, -0.94, 0.35, 73.76, 39.28)">R</text><path class="cls-5" d="M71.57,54.15A27.59,27.59,0,1,0,43.62,81.5,27.66,27.66,0,0,0,71.57,54.15Z"/><path class="cls-6" d="M53.24,56.65a.53.53,0,0,1-.38-.16L41.15,44.91a.54.54,0,0,1,0-.76.52.52,0,0,1,.37-.16.55.55,0,0,1,.39.16L43,45.22l3.94-4a2.62,2.62,0,0,1,3-.53l.31.15,1.09-1.11a2.6,2.6,0,0,1,3.66,0L56,40.74l3.95-4a.49.49,0,0,1,.38-.16.51.51,0,0,1,.38.15.54.54,0,0,1,0,.76l-3.94,4,1.08,1.07a2.59,2.59,0,0,1,0,3.67l-1.08,1.11.15.32a2.62,2.62,0,0,1-.48,3l-3.95,4,1.08,1.06a.57.57,0,0,1,.16.38.52.52,0,0,1-.15.39A.55.55,0,0,1,53.24,56.65ZM48.77,41.49A1.52,1.52,0,0,0,47.7,42l-4,4,8,7.93,3.94-4a1.54,1.54,0,0,0,0-2.16l-5.86-5.79A1.52,1.52,0,0,0,48.77,41.49ZM53.11,40a1.52,1.52,0,0,0-1.07.46L51,41.54l5.09,5,1.06-1.09a1.52,1.52,0,0,0,.44-1.08,1.56,1.56,0,0,0-.45-1.08l-2.93-2.89A1.5,1.5,0,0,0,53.11,40Z"/><path class="cls-6" d="M27.61,71a.57.57,0,0,1-.38-.16.54.54,0,0,1,0-.76l3.54-3.61-1.08-1.07a2.62,2.62,0,0,1,0-3.68l1.09-1.11-.15-.31a2.6,2.6,0,0,1,.48-3l4-4L34,52.26a.53.53,0,0,1-.16-.38.54.54,0,0,1,.15-.38.55.55,0,0,1,.38-.16.54.54,0,0,1,.38.15L37.25,54l3.94-4a.51.51,0,0,1,.38-.16A.54.54,0,0,1,42,50a.55.55,0,0,1,0,.76l-4,4,5.09,5,3.94-4a.55.55,0,0,1,.38-.15.48.48,0,0,1,.38.15.49.49,0,0,1,.16.38.54.54,0,0,1-.15.38l-4,4,2.55,2.51a.54.54,0,0,1,0,.76A.49.49,0,0,1,46,64a.48.48,0,0,1-.37-.15l-1.09-1.07-3.94,4a2.57,2.57,0,0,1-3,.53l-.31-.14-1.09,1.11a2.58,2.58,0,0,1-3.66,0l-1.08-1.07L28,70.86a.57.57,0,0,1-.38.16Zm2.82-8.52A1.5,1.5,0,0,0,30,63.58a1.52,1.52,0,0,0,.46,1.07l2.92,2.9a1.51,1.51,0,0,0,2.15,0l1.06-1.08-5.09-5Zm7.29,3.56a1.52,1.52,0,0,0,2.14,0l4-4-8-7.92-3.94,4a1.5,1.5,0,0,0-.44,1.08,1.6,1.6,0,0,0,.45,1.08l5.71,5.64Z"/></g></g></svg>