<svg xmlns="http://www.w3.org/2000/svg" viewBox="0 0 105.92 105.94"><defs><style>.cls-1{font-size:6.28px;fill:#231f20;font-family:Montserrat-Thin, Montserrat;}.cls-2{letter-spacing:-0.01em;}.cls-3{letter-spacing:0em;}.cls-4{font-size:9.04px;fill:#ac9a32;font-family:Montserrat-Regular, Montserrat;}.cls-5{fill:none;stroke:#8c8c8c;stroke-miterlimit:10;stroke-width:2px;}.cls-6{fill:#827f81;}</style></defs><title>highway pass Hungary</title><g id="Layer_2" data-name="Layer 2"><g id="Layer_1-2" data-name="Layer 1"><text class="cls-1" transform="translate(33.88 101.97) scale(1.03 1)">2 EUR / d<tspan class="cls-2" x="27.98" y="0">a</tspan><tspan class="cls-3" x="31.53" y="0">y</tspan></text><text class="cls-4" transform="translate(17 60.5) rotate(-86.26)">H</text><text class="cls-4" transform="translate(17.61 53.4) rotate(-78.2)">I</text><text class="cls-4" transform="translate(17.97 50.91) rotate(-70.42)">G</text><text class="cls-4" transform="matrix(0.52, -0.86, 0.86, 0.52, 20.16, 44.58)">H</text><text class="cls-4" transform="matrix(0.71, -0.71, 0.71, 0.71, 23.58, 38.53)">W</text><text class="cls-4" transform="matrix(0.84, -0.54, 0.54, 0.84, 30.3, 31.98)">A</text><text class="cls-4" transform="translate(35.25 28.82) rotate(-23.05)">Y</text><text class="cls-4" transform="matrix(0.96, -0.28, 0.28, 0.96, 40.39, 26.73)"> </text><text class="cls-4" transform="translate(42.46 25.97) rotate(-9.39)">P</text><text class="cls-4" transform="translate(48.2 24.96) rotate(0.33)">A</text><text class="cls-4" transform="translate(54.43 25.02) rotate(9.95)">S</text><text class="cls-4" transform="matrix(0.95, 0.32, -0.32, 0.95, 59.68, 25.92)">S</text><text class="cls-4" transform="translate(64.74 27.73) rotate(25.27)"> </text><text class="cls-4" transform="matrix(0.84, 0.55, -0.55, 0.84, 66.78, 28.49)">H</text><text class="cls-4" transform="translate(72.7 32.33) rotate(44.77)">U</text><text class="cls-4" transform="matrix(0.55, 0.83, -0.83, 0.55, 77.6, 37.13)">N</text><text class="cls-4" transform="translate(81.52 42.98) rotate(67.87)">G</text><text class="cls-4" transform="translate(84.05 49.21) rotate(78.76)">A</text><text class="cls-4" transform="translate(85.28 55.28) rotate(89.14)">R</text><text class="cls-4" transform="translate(85.37 61.47) rotate(98.8)">Y</text><path class="cls-5" d="M79.87,59.66a28.63,28.63,0,1,0-29.22,28A28.64,28.64,0,0,0,79.87,59.66Z"/><path class="cls-6" d="M64.22,75.32a1.13,1.13,0,0,0,1.1.85,1,1,0,0,0,.29,0,1.14,1.14,0,0,0,.81-1.38L58,42.91a1.13,1.13,0,0,0-2.19.58Z"/><path class="cls-6" d="M38.43,76.13a.92.92,0,0,0,.29,0,1.13,1.13,0,0,0,1.09-.85L48.2,43.49a1.14,1.14,0,0,0-.81-1.38,1.13,1.13,0,0,0-1.39.8L37.62,74.75a1.13,1.13,0,0,0,.81,1.38Z"/><path class="cls-6" d="M69.62,76.17a.92.92,0,0,0,.29,0,1.13,1.13,0,0,0,.81-1.39L62.25,42.91a1.14,1.14,0,0,0-2.2.59l8.47,31.83a1.15,1.15,0,0,0,1.1.84Z"/><path class="cls-6" d="M34.12,76.13a1,1,0,0,0,.29,0,1.15,1.15,0,0,0,1.1-.84L44,43.5a1.13,1.13,0,0,0-2.19-.59L33.31,74.74a1.13,1.13,0,0,0,.81,1.39Z"/><path class="cls-6" d="M52,70.13a1.14,1.14,0,0,0-1.14,1.14v3a1.14,1.14,0,0,0,2.27,0v-3A1.14,1.14,0,0,0,52,70.13Z"/><path class="cls-6" d="M53.15,62.18a1.14,1.14,0,0,0-2.27,0v3a1.14,1.14,0,1,0,2.27,0Z"/><path class="cls-6" d="M53.15,53.1a1.14,1.14,0,1,0-2.27,0v3a1.14,1.14,0,0,0,2.27,0Z"/><path class="cls-6" d="M53.15,44a1.14,1.14,0,1,0-2.27,0v3a1.14,1.14,0,1,0,2.27,0Z"/></g></g></svg>