<svg xmlns="http://www.w3.org/2000/svg" viewBox="0 0 68.19 93.61"><defs><style>.cls-1{font-size:9.04px;fill:#ac9a32;font-family:Montserrat-Regular, Montserrat;}.cls-2{font-size:6.48px;fill:#231f20;font-family:Montserrat-Thin, Montserrat;}.cls-3{letter-spacing:0em;}.cls-4{letter-spacing:0em;}.cls-5{letter-spacing:-0.02em;}.cls-6{fill:none;stroke:#8c8c8c;stroke-miterlimit:10;stroke-width:2px;}.cls-7{fill:#827f81;}</style></defs><title>tent</title><g id="Layer_2" data-name="Layer 2"><g id="Layer_1-2" data-name="Layer 1"><text class="cls-1" transform="translate(22.94 18.61) rotate(-14.79)">T</text><text class="cls-1" transform="matrix(0.99, -0.1, 0.1, 0.99, 27.72, 17.3)">E</text><text class="cls-1" transform="translate(33.46 16.62) rotate(4.98)">N</text><text class="cls-1" transform="translate(40.5 17.31) rotate(15.09)">T</text><text class="cls-2" transform="translate(10.54 91.93)"><tspan class="cls-3">2</tspan><tspan class="cls-4" x="3.57" y="0">0 EUR / </tspan><tspan class="cls-5" x="28.72" y="0">r</tspan><tspan x="31.11" y="0">ental</tspan></text><path class="cls-6" d="M62.72,51.53a28.63,28.63,0,1,0-29.22,28A28.62,28.62,0,0,0,62.72,51.53Z"/><path class="cls-7" d="M51.84,57.1a.71.71,0,0,0-.62.77v2L42.74,39.23a.63.63,0,0,0-.55-.42H26a.62.62,0,0,0-.55.42L17,59.84v-2a.71.71,0,0,0-.62-.77.71.71,0,0,0-.62.77V65a.71.71,0,0,0,.62.77A.71.71,0,0,0,17,65V63.81h15V65a.63.63,0,1,0,1.24,0V63.81H51.22V65a.63.63,0,1,0,1.24,0V57.87a.71.71,0,0,0-.62-.77Zm-19.3,0a.71.71,0,0,0-.62.77v4.4H17.36l9-21.92h14.8l-8,19.49v-2a.71.71,0,0,0-.62-.77Zm9,5.17h-8l8-19.49Zm1.24,0V42.78l8,19.49Z"/></g></g></svg>