<svg xmlns="http://www.w3.org/2000/svg" viewBox="0 0 26.07 53.11"><title>sleep-icon</title><g id="Layer_2" data-name="Layer 2"><g id="Layer_1-2" data-name="Layer 1"><path d="M13,0A13.07,13.07,0,0,0,0,13.13L2.29,40.08c0,8,4.12,13,10.74,13s10.74-5,10.73-12.94L26.07,13A13.06,13.06,0,0,0,13,0Zm8.44,40.08c0,2.52-.61,10.73-8.44,10.73S4.59,42.6,4.59,40L3,20.71q2.24,3.95,4.46,7.89a1.06,1.06,0,0,0,1.17.48l14.21-4.57Zm-15.75-24L5.6,14.49C5.6,10,8.93,6.25,13,6.25s7.44,3.7,7.44,8.16L20,20.65,6.37,16.34h.11Zm14.94,7L8.78,26.84l-.09-.19L6.17,22.2c-.87-1.52-1.73-3.05-2.59-4.57ZM23,21.61l-1.49-.47.51-6.65c0-5.52-4-10-9-10S4,9,4,14.56l.08,1.06-1.62-.51L2.29,13a10.74,10.74,0,0,1,21.48-.1Z" style="fill:#030202"/></g></g></svg>